%TF.GenerationSoftware,KiCad,Pcbnew,7.0.7*%
%TF.CreationDate,2024-01-22T14:54:53+09:00*%
%TF.ProjectId,coincall,636f696e-6361-46c6-9c2e-6b696361645f,rev?*%
%TF.SameCoordinates,Original*%
%TF.FileFunction,Copper,L2,Bot*%
%TF.FilePolarity,Positive*%
%FSLAX46Y46*%
G04 Gerber Fmt 4.6, Leading zero omitted, Abs format (unit mm)*
G04 Created by KiCad (PCBNEW 7.0.7) date 2024-01-22 14:54:53*
%MOMM*%
%LPD*%
G01*
G04 APERTURE LIST*
G04 Aperture macros list*
%AMFreePoly0*
4,1,32,0.226743,1.912552,0.245504,1.907443,0.386579,1.798267,0.538233,1.712989,0.700699,1.650739,0.870517,1.612848,1.046227,1.599966,1.444038,1.599942,1.464626,1.591411,1.486460,1.582368,1.486460,1.582365,1.486463,1.582365,1.504034,1.539942,1.504035,-1.330057,1.486461,-1.372483,1.444035,-1.390057,1.028740,-1.390056,0.855037,-1.403901,0.687059,-1.442253,0.526381,-1.504463,
0.376386,-1.589219,0.236753,-1.697426,0.217978,-1.702552,0.200000,-1.710000,-1.650000,-1.710007,-1.692426,-1.692433,-1.710000,-1.650007,-1.710000,1.859992,-1.692426,1.902418,-1.650000,1.919992,0.208783,1.919992,0.226743,1.912552,0.226743,1.912552,$1*%
G04 Aperture macros list end*
%TA.AperFunction,SMDPad,CuDef*%
%ADD10FreePoly0,0.000000*%
%TD*%
%TA.AperFunction,SMDPad,CuDef*%
%ADD11FreePoly0,180.000000*%
%TD*%
%TA.AperFunction,ViaPad*%
%ADD12C,0.800000*%
%TD*%
%TA.AperFunction,Conductor*%
%ADD13C,0.250000*%
%TD*%
G04 APERTURE END LIST*
D10*
%TO.P,BT4,1,+*%
%TO.N,+5V*%
X163700000Y-99200000D03*
D11*
%TO.P,BT4,2,-*%
%TO.N,GND*%
X194000000Y-99000000D03*
%TD*%
D12*
%TO.N,GND*%
X194564000Y-104648000D03*
%TO.N,+5V*%
X163000000Y-106000000D03*
%TD*%
D13*
%TO.N,GND*%
X194564000Y-99564000D02*
X194000000Y-99000000D01*
X194564000Y-104648000D02*
X194564000Y-99564000D01*
%TO.N,+5V*%
X163700000Y-105300000D02*
X163700000Y-99200000D01*
X163000000Y-106000000D02*
X163700000Y-105300000D01*
%TD*%
%TA.AperFunction,Conductor*%
%TO.N,GND*%
G36*
X196943039Y-86019685D02*
G01*
X196988794Y-86072489D01*
X197000000Y-86124000D01*
X197000000Y-115876000D01*
X196980315Y-115943039D01*
X196927511Y-115988794D01*
X196876000Y-116000000D01*
X158124000Y-116000000D01*
X158056961Y-115980315D01*
X158011206Y-115927511D01*
X158000000Y-115876000D01*
X158000000Y-97394053D01*
X161482305Y-97394053D01*
X161483254Y-97402869D01*
X161482506Y-97402949D01*
X161484353Y-97417650D01*
X161484353Y-100846756D01*
X161482307Y-100904063D01*
X161517898Y-101043506D01*
X161517902Y-101043516D01*
X161536918Y-101089427D01*
X161536924Y-101089439D01*
X161588724Y-101184304D01*
X161588725Y-101184305D01*
X161686794Y-101289642D01*
X161810568Y-101363083D01*
X161844542Y-101377156D01*
X161856500Y-101382109D01*
X161856504Y-101382110D01*
X161856508Y-101382112D01*
X161960247Y-101412568D01*
X161960254Y-101412570D01*
X162104085Y-101417697D01*
X162104094Y-101417694D01*
X162112907Y-101416747D01*
X162112988Y-101417502D01*
X162127668Y-101415651D01*
X162950501Y-101415649D01*
X163017539Y-101435333D01*
X163063294Y-101488137D01*
X163074500Y-101539649D01*
X163074500Y-104975500D01*
X163054815Y-105042539D01*
X163002011Y-105088294D01*
X162950500Y-105099500D01*
X162905354Y-105099500D01*
X162872897Y-105106398D01*
X162720197Y-105138855D01*
X162720192Y-105138857D01*
X162547270Y-105215848D01*
X162547265Y-105215851D01*
X162394129Y-105327111D01*
X162267466Y-105467785D01*
X162172821Y-105631715D01*
X162172818Y-105631722D01*
X162117880Y-105800806D01*
X162114326Y-105811744D01*
X162094540Y-106000000D01*
X162114326Y-106188256D01*
X162114327Y-106188259D01*
X162172818Y-106368277D01*
X162172821Y-106368284D01*
X162267467Y-106532216D01*
X162394129Y-106672888D01*
X162547265Y-106784148D01*
X162547270Y-106784151D01*
X162720192Y-106861142D01*
X162720197Y-106861144D01*
X162905354Y-106900500D01*
X162905355Y-106900500D01*
X163094644Y-106900500D01*
X163094646Y-106900500D01*
X163279803Y-106861144D01*
X163452730Y-106784151D01*
X163605871Y-106672888D01*
X163732533Y-106532216D01*
X163827179Y-106368284D01*
X163885674Y-106188256D01*
X163903321Y-106020344D01*
X163929904Y-105955734D01*
X163938951Y-105945638D01*
X164083788Y-105800801D01*
X164096042Y-105790986D01*
X164095859Y-105790764D01*
X164101866Y-105785792D01*
X164101877Y-105785786D01*
X164132775Y-105752882D01*
X164149227Y-105735364D01*
X164159671Y-105724918D01*
X164170120Y-105714471D01*
X164174379Y-105708978D01*
X164178152Y-105704561D01*
X164210062Y-105670582D01*
X164219713Y-105653024D01*
X164230396Y-105636761D01*
X164242673Y-105620936D01*
X164261185Y-105578153D01*
X164263738Y-105572941D01*
X164286197Y-105532092D01*
X164291180Y-105512680D01*
X164297481Y-105494280D01*
X164305437Y-105475896D01*
X164312729Y-105429852D01*
X164313906Y-105424171D01*
X164325500Y-105379019D01*
X164325500Y-105358982D01*
X164327027Y-105339582D01*
X164329002Y-105327112D01*
X164330160Y-105319804D01*
X164325775Y-105273418D01*
X164325500Y-105267580D01*
X164325500Y-102916364D01*
X164345185Y-102849325D01*
X164370219Y-102827632D01*
X164394617Y-102799678D01*
X164461726Y-102780232D01*
X164493375Y-102784455D01*
X164497273Y-102785500D01*
X164543405Y-102785500D01*
X164562802Y-102787027D01*
X164599608Y-102792856D01*
X164603314Y-102790481D01*
X164638106Y-102785500D01*
X166602844Y-102785500D01*
X166607870Y-102785703D01*
X166918438Y-102810962D01*
X166938263Y-102814208D01*
X167233307Y-102887492D01*
X167252349Y-102893899D01*
X167531685Y-103013901D01*
X167549435Y-103023298D01*
X167805704Y-103186861D01*
X167821712Y-103199011D01*
X168048169Y-103401823D01*
X168062008Y-103416404D01*
X168252717Y-103653142D01*
X168264018Y-103669769D01*
X168417357Y-103940195D01*
X168417363Y-103940205D01*
X169338449Y-105564618D01*
X169338662Y-105565026D01*
X169339667Y-105566218D01*
X169347135Y-105575488D01*
X170508102Y-107016670D01*
X170508295Y-107016927D01*
X170508552Y-107017142D01*
X171054712Y-107506272D01*
X171896989Y-108260598D01*
X171897235Y-108260832D01*
X171897283Y-108260861D01*
X171897286Y-108260863D01*
X171897288Y-108260863D01*
X171897544Y-108261016D01*
X172873111Y-108883661D01*
X173468624Y-109263741D01*
X173468932Y-109263951D01*
X173469236Y-109264068D01*
X174311376Y-109625850D01*
X175181806Y-109999787D01*
X175182003Y-109999880D01*
X175182010Y-109999885D01*
X175182017Y-109999886D01*
X175182069Y-109999911D01*
X175182115Y-109999920D01*
X175182121Y-109999923D01*
X175182126Y-109999923D01*
X175182368Y-109999973D01*
X176991257Y-110449269D01*
X176991549Y-110449351D01*
X176991553Y-110449353D01*
X176991556Y-110449353D01*
X176991613Y-110449369D01*
X176991664Y-110449371D01*
X176991668Y-110449372D01*
X176991671Y-110449371D01*
X176991914Y-110449381D01*
X178849678Y-110600474D01*
X178849937Y-110600504D01*
X178849942Y-110600506D01*
X178849946Y-110600505D01*
X178850003Y-110600512D01*
X178850055Y-110600505D01*
X178850058Y-110600506D01*
X178850060Y-110600505D01*
X178850314Y-110600475D01*
X179545540Y-110543932D01*
X180708035Y-110449386D01*
X180708330Y-110449371D01*
X180708333Y-110449372D01*
X180708335Y-110449371D01*
X180708384Y-110449369D01*
X180708438Y-110449353D01*
X180708448Y-110449353D01*
X180708456Y-110449348D01*
X180708689Y-110449282D01*
X182517635Y-109999972D01*
X182517874Y-109999922D01*
X182517880Y-109999922D01*
X182517885Y-109999919D01*
X182517940Y-109999908D01*
X182517986Y-109999886D01*
X182517991Y-109999885D01*
X182517994Y-109999882D01*
X182518234Y-109999769D01*
X182520143Y-109998949D01*
X184230774Y-109264063D01*
X184231011Y-109263971D01*
X184231017Y-109263971D01*
X184231021Y-109263967D01*
X184231068Y-109263950D01*
X184231111Y-109263919D01*
X184231120Y-109263916D01*
X184231125Y-109263909D01*
X184231281Y-109263801D01*
X185802415Y-108261041D01*
X185802711Y-108260864D01*
X185802715Y-108260863D01*
X185802718Y-108260860D01*
X185802760Y-108260835D01*
X185802801Y-108260795D01*
X185802807Y-108260792D01*
X185802810Y-108260786D01*
X185802975Y-108260628D01*
X187191439Y-107017150D01*
X187191658Y-107016965D01*
X187191663Y-107016963D01*
X187191666Y-107016958D01*
X187191704Y-107016927D01*
X187191736Y-107016883D01*
X187191743Y-107016878D01*
X187191746Y-107016870D01*
X187191883Y-107016688D01*
X187191910Y-107016655D01*
X188361200Y-105565143D01*
X188361347Y-105564973D01*
X188361353Y-105564969D01*
X188361356Y-105564962D01*
X188361395Y-105564918D01*
X188361576Y-105564574D01*
X189281088Y-103942939D01*
X189281088Y-103942937D01*
X189435986Y-103669761D01*
X189447275Y-103653150D01*
X189637995Y-103416399D01*
X189651827Y-103401825D01*
X189878295Y-103199004D01*
X189894287Y-103186867D01*
X190150569Y-103023296D01*
X190168314Y-103013901D01*
X190447654Y-102893897D01*
X190466688Y-102887493D01*
X190761738Y-102814208D01*
X190781559Y-102810962D01*
X191092130Y-102785703D01*
X191097157Y-102785500D01*
X193061893Y-102785500D01*
X193091656Y-102794239D01*
X193137197Y-102787027D01*
X193156594Y-102785500D01*
X193202725Y-102785500D01*
X193202727Y-102785500D01*
X193206619Y-102784457D01*
X193210030Y-102784538D01*
X193210783Y-102784439D01*
X193210798Y-102784556D01*
X193234926Y-102785130D01*
X193257498Y-102773629D01*
X193281691Y-102764341D01*
X193304587Y-102758207D01*
X193324314Y-102746817D01*
X193354137Y-102739581D01*
X193366214Y-102727505D01*
X193391889Y-102707802D01*
X193395913Y-102705480D01*
X193470480Y-102630913D01*
X193472802Y-102626889D01*
X193492505Y-102601214D01*
X193500391Y-102593327D01*
X193500437Y-102585671D01*
X193511815Y-102559317D01*
X193523207Y-102539587D01*
X193529341Y-102516691D01*
X193538629Y-102492498D01*
X193546389Y-102477267D01*
X193545232Y-102473273D01*
X193549457Y-102441618D01*
X193550500Y-102437727D01*
X193550500Y-102391593D01*
X193552027Y-102372195D01*
X193557855Y-102335392D01*
X193555480Y-102331686D01*
X193550500Y-102296899D01*
X193550500Y-101538636D01*
X193570185Y-101471596D01*
X193622989Y-101425842D01*
X193692147Y-101415898D01*
X193694110Y-101416196D01*
X193773304Y-101428879D01*
X193773306Y-101428879D01*
X193811509Y-101425391D01*
X193817150Y-101425134D01*
X195646601Y-101425134D01*
X195703995Y-101427184D01*
X195843296Y-101391630D01*
X195843313Y-101391624D01*
X195855249Y-101386681D01*
X195889236Y-101372602D01*
X195973199Y-101326753D01*
X193734127Y-99087681D01*
X193700642Y-99026358D01*
X193702527Y-98999999D01*
X194353552Y-98999999D01*
X196215203Y-100861650D01*
X196215204Y-100861650D01*
X196217192Y-100806000D01*
X196216244Y-100797180D01*
X196216989Y-100797099D01*
X196215142Y-100782389D01*
X196215142Y-97353383D01*
X196217190Y-97295989D01*
X196184732Y-97168820D01*
X196184731Y-97168820D01*
X194353552Y-98999999D01*
X193702527Y-98999999D01*
X193705626Y-98956666D01*
X193734127Y-98912319D01*
X194000000Y-98646447D01*
X195831542Y-96814903D01*
X195831542Y-96814902D01*
X195739654Y-96787926D01*
X195595966Y-96782804D01*
X195587147Y-96783753D01*
X195587066Y-96783005D01*
X195572371Y-96784852D01*
X193854393Y-96784856D01*
X193834420Y-96783237D01*
X193817787Y-96780522D01*
X193817779Y-96780522D01*
X193781187Y-96785073D01*
X193776858Y-96785458D01*
X193734024Y-96787757D01*
X193734021Y-96787758D01*
X193713500Y-96792997D01*
X193705812Y-96794450D01*
X193689810Y-96796441D01*
X193620853Y-96785185D01*
X193568929Y-96738434D01*
X193550500Y-96673390D01*
X193550500Y-95905088D01*
X193559218Y-95875398D01*
X193552027Y-95830005D01*
X193550500Y-95810603D01*
X193550500Y-95804993D01*
X193550493Y-95804923D01*
X193550494Y-95764480D01*
X193549449Y-95760583D01*
X193549531Y-95757166D01*
X193549433Y-95756419D01*
X193549549Y-95756403D01*
X193550124Y-95732278D01*
X193538623Y-95709705D01*
X193529332Y-95685500D01*
X193528767Y-95683392D01*
X193523202Y-95662620D01*
X193523202Y-95662619D01*
X193523201Y-95662618D01*
X193511813Y-95642893D01*
X193504576Y-95613064D01*
X193492498Y-95600986D01*
X193472792Y-95575305D01*
X193470477Y-95571295D01*
X193395911Y-95496728D01*
X193395910Y-95496727D01*
X193395908Y-95496726D01*
X193391892Y-95494407D01*
X193366213Y-95474702D01*
X193358321Y-95466810D01*
X193350660Y-95466765D01*
X193324308Y-95455387D01*
X193320657Y-95453279D01*
X193304586Y-95444000D01*
X193281704Y-95437869D01*
X193257506Y-95428579D01*
X193242264Y-95420812D01*
X193238259Y-95421973D01*
X193206616Y-95417749D01*
X193202728Y-95416707D01*
X193202727Y-95416707D01*
X193156603Y-95416707D01*
X193137206Y-95415181D01*
X193100279Y-95409332D01*
X193096692Y-95411632D01*
X193061772Y-95416612D01*
X191097124Y-95414503D01*
X191092163Y-95414299D01*
X190781567Y-95389038D01*
X190761728Y-95385789D01*
X190466698Y-95312509D01*
X190447644Y-95306098D01*
X190168325Y-95186103D01*
X190150558Y-95176696D01*
X190150555Y-95176694D01*
X189894295Y-95013138D01*
X189878287Y-95000988D01*
X189651831Y-94798177D01*
X189637992Y-94783596D01*
X189447282Y-94546857D01*
X189447281Y-94546856D01*
X189447280Y-94546854D01*
X189435981Y-94530230D01*
X189280990Y-94256890D01*
X189280990Y-94256889D01*
X188361551Y-92635382D01*
X188361420Y-92635131D01*
X188361419Y-92635128D01*
X188361416Y-92635124D01*
X188361394Y-92635082D01*
X188361356Y-92635037D01*
X188361353Y-92635032D01*
X188361347Y-92635027D01*
X188361181Y-92634833D01*
X187191898Y-91183330D01*
X187191879Y-91183306D01*
X187191708Y-91183075D01*
X187191393Y-91182809D01*
X185802969Y-89939365D01*
X185802762Y-89939165D01*
X185802376Y-89938933D01*
X184231306Y-88936214D01*
X184231076Y-88936053D01*
X184230770Y-88935934D01*
X182518232Y-88200229D01*
X182517945Y-88200093D01*
X182517612Y-88200021D01*
X180983780Y-87819044D01*
X180708726Y-87750726D01*
X180708388Y-87750630D01*
X180708028Y-87750613D01*
X179289012Y-87635204D01*
X178850310Y-87599524D01*
X178849994Y-87599487D01*
X178849644Y-87599527D01*
X176991929Y-87750616D01*
X176991611Y-87750630D01*
X176991223Y-87750738D01*
X175182404Y-88200017D01*
X175182068Y-88200087D01*
X175181792Y-88200218D01*
X173469246Y-88935927D01*
X173468934Y-88936048D01*
X173468649Y-88936243D01*
X171897580Y-89938960D01*
X171897239Y-89939164D01*
X171897006Y-89939387D01*
X170508572Y-91182839D01*
X170508294Y-91183073D01*
X170508102Y-91183330D01*
X169338814Y-92634841D01*
X169338609Y-92635075D01*
X169338467Y-92635349D01*
X168383856Y-94318887D01*
X168264018Y-94530230D01*
X168252717Y-94546856D01*
X168062008Y-94783595D01*
X168048169Y-94798176D01*
X167821712Y-95000988D01*
X167805699Y-95013142D01*
X167549447Y-95176694D01*
X167531679Y-95186101D01*
X167252355Y-95306098D01*
X167233301Y-95312509D01*
X166938271Y-95385789D01*
X166918432Y-95389038D01*
X166607869Y-95414297D01*
X166602844Y-95414501D01*
X164638181Y-95414595D01*
X164608397Y-95405851D01*
X164562803Y-95413073D01*
X164543405Y-95414600D01*
X164497273Y-95414600D01*
X164497271Y-95414600D01*
X164497266Y-95414601D01*
X164493381Y-95415642D01*
X164489977Y-95415560D01*
X164489217Y-95415661D01*
X164489201Y-95415542D01*
X164465072Y-95414966D01*
X164442490Y-95426473D01*
X164418291Y-95435762D01*
X164395413Y-95441892D01*
X164395408Y-95441894D01*
X164375690Y-95453279D01*
X164345861Y-95460515D01*
X164333780Y-95472597D01*
X164308108Y-95492297D01*
X164304088Y-95494618D01*
X164304086Y-95494619D01*
X164229523Y-95569184D01*
X164229515Y-95569194D01*
X164227200Y-95573205D01*
X164207498Y-95598880D01*
X164199604Y-95606773D01*
X164199559Y-95614434D01*
X164188179Y-95640791D01*
X164176794Y-95660509D01*
X164176792Y-95660514D01*
X164170662Y-95683392D01*
X164161373Y-95707592D01*
X164153607Y-95722832D01*
X164154766Y-95726830D01*
X164150545Y-95758471D01*
X164149500Y-95762369D01*
X164149500Y-95808497D01*
X164147973Y-95827895D01*
X164142141Y-95864711D01*
X164144518Y-95868418D01*
X164149500Y-95903214D01*
X164149500Y-96660855D01*
X164129815Y-96727894D01*
X164077011Y-96773649D01*
X164007853Y-96783593D01*
X164005891Y-96783295D01*
X163988576Y-96780522D01*
X163926725Y-96770616D01*
X163926723Y-96770616D01*
X163926720Y-96770615D01*
X163897843Y-96773252D01*
X163888516Y-96774104D01*
X163882886Y-96774361D01*
X162053282Y-96774361D01*
X161995951Y-96772314D01*
X161995950Y-96772314D01*
X161995946Y-96772314D01*
X161856510Y-96807902D01*
X161856491Y-96807909D01*
X161844559Y-96812852D01*
X161810558Y-96826936D01*
X161715701Y-96878732D01*
X161715698Y-96878735D01*
X161610364Y-96976803D01*
X161610363Y-96976805D01*
X161536924Y-97100576D01*
X161536921Y-97100581D01*
X161521898Y-97136852D01*
X161517901Y-97146501D01*
X161511133Y-97169552D01*
X161487443Y-97250228D01*
X161482305Y-97394053D01*
X158000000Y-97394053D01*
X158000000Y-86124000D01*
X158019685Y-86056961D01*
X158072489Y-86011206D01*
X158124000Y-86000000D01*
X196876000Y-86000000D01*
X196943039Y-86019685D01*
G37*
%TD.AperFunction*%
%TD*%
M02*
