%TF.GenerationSoftware,KiCad,Pcbnew,7.0.7*%
%TF.CreationDate,2024-01-22T14:54:53+09:00*%
%TF.ProjectId,coincall,636f696e-6361-46c6-9c2e-6b696361645f,rev?*%
%TF.SameCoordinates,Original*%
%TF.FileFunction,Legend,Bot*%
%TF.FilePolarity,Positive*%
%FSLAX46Y46*%
G04 Gerber Fmt 4.6, Leading zero omitted, Abs format (unit mm)*
G04 Created by KiCad (PCBNEW 7.0.7) date 2024-01-22 14:54:53*
%MOMM*%
%LPD*%
G01*
G04 APERTURE LIST*
%ADD10C,0.150000*%
%ADD11C,0.120000*%
G04 APERTURE END LIST*
D10*
X165535714Y-103431009D02*
X165392857Y-103478628D01*
X165392857Y-103478628D02*
X165345238Y-103526247D01*
X165345238Y-103526247D02*
X165297619Y-103621485D01*
X165297619Y-103621485D02*
X165297619Y-103764342D01*
X165297619Y-103764342D02*
X165345238Y-103859580D01*
X165345238Y-103859580D02*
X165392857Y-103907200D01*
X165392857Y-103907200D02*
X165488095Y-103954819D01*
X165488095Y-103954819D02*
X165869047Y-103954819D01*
X165869047Y-103954819D02*
X165869047Y-102954819D01*
X165869047Y-102954819D02*
X165535714Y-102954819D01*
X165535714Y-102954819D02*
X165440476Y-103002438D01*
X165440476Y-103002438D02*
X165392857Y-103050057D01*
X165392857Y-103050057D02*
X165345238Y-103145295D01*
X165345238Y-103145295D02*
X165345238Y-103240533D01*
X165345238Y-103240533D02*
X165392857Y-103335771D01*
X165392857Y-103335771D02*
X165440476Y-103383390D01*
X165440476Y-103383390D02*
X165535714Y-103431009D01*
X165535714Y-103431009D02*
X165869047Y-103431009D01*
X165011904Y-102954819D02*
X164440476Y-102954819D01*
X164726190Y-103954819D02*
X164726190Y-102954819D01*
X163678571Y-103288152D02*
X163678571Y-103954819D01*
X163916666Y-102907200D02*
X164154761Y-103621485D01*
X164154761Y-103621485D02*
X163535714Y-103621485D01*
D11*
%TO.C,BT4*%
X163000000Y-102200000D02*
X163000000Y-101200000D01*
X163500000Y-101700000D02*
X162500000Y-101700000D01*
%TD*%
M02*
