%TF.GenerationSoftware,KiCad,Pcbnew,7.0.7*%
%TF.CreationDate,2024-01-22T14:54:53+09:00*%
%TF.ProjectId,coincall,636f696e-6361-46c6-9c2e-6b696361645f,rev?*%
%TF.SameCoordinates,Original*%
%TF.FileFunction,Legend,Top*%
%TF.FilePolarity,Positive*%
%FSLAX46Y46*%
G04 Gerber Fmt 4.6, Leading zero omitted, Abs format (unit mm)*
G04 Created by KiCad (PCBNEW 7.0.7) date 2024-01-22 14:54:53*
%MOMM*%
%LPD*%
G01*
G04 APERTURE LIST*
%ADD10C,0.150000*%
%ADD11C,0.120000*%
G04 APERTURE END LIST*
D10*
X163833333Y-112024819D02*
X163500000Y-111548628D01*
X163261905Y-112024819D02*
X163261905Y-111024819D01*
X163261905Y-111024819D02*
X163642857Y-111024819D01*
X163642857Y-111024819D02*
X163738095Y-111072438D01*
X163738095Y-111072438D02*
X163785714Y-111120057D01*
X163785714Y-111120057D02*
X163833333Y-111215295D01*
X163833333Y-111215295D02*
X163833333Y-111358152D01*
X163833333Y-111358152D02*
X163785714Y-111453390D01*
X163785714Y-111453390D02*
X163738095Y-111501009D01*
X163738095Y-111501009D02*
X163642857Y-111548628D01*
X163642857Y-111548628D02*
X163261905Y-111548628D01*
X164690476Y-111358152D02*
X164690476Y-112024819D01*
X164452381Y-110977200D02*
X164214286Y-111691485D01*
X164214286Y-111691485D02*
X164833333Y-111691485D01*
X192261905Y-114884819D02*
X192261905Y-113884819D01*
X192261905Y-113884819D02*
X192500000Y-113884819D01*
X192500000Y-113884819D02*
X192642857Y-113932438D01*
X192642857Y-113932438D02*
X192738095Y-114027676D01*
X192738095Y-114027676D02*
X192785714Y-114122914D01*
X192785714Y-114122914D02*
X192833333Y-114313390D01*
X192833333Y-114313390D02*
X192833333Y-114456247D01*
X192833333Y-114456247D02*
X192785714Y-114646723D01*
X192785714Y-114646723D02*
X192738095Y-114741961D01*
X192738095Y-114741961D02*
X192642857Y-114837200D01*
X192642857Y-114837200D02*
X192500000Y-114884819D01*
X192500000Y-114884819D02*
X192261905Y-114884819D01*
X193690476Y-114218152D02*
X193690476Y-114884819D01*
X193452381Y-113837200D02*
X193214286Y-114551485D01*
X193214286Y-114551485D02*
X193833333Y-114551485D01*
D11*
%TO.C,R4*%
X163762742Y-112477500D02*
X164237258Y-112477500D01*
X163762742Y-113522500D02*
X164237258Y-113522500D01*
%TO.C,D4*%
X194485000Y-113735000D02*
X194485000Y-112265000D01*
X194485000Y-112265000D02*
X192200000Y-112265000D01*
X192200000Y-113735000D02*
X194485000Y-113735000D01*
%TD*%
M02*
