%TF.GenerationSoftware,KiCad,Pcbnew,7.0.9*%
%TF.CreationDate,2023-11-18T00:39:59+09:00*%
%TF.ProjectId,arduino_robotarm_shield,61726475-696e-46f5-9f72-6f626f746172,rev?*%
%TF.SameCoordinates,Original*%
%TF.FileFunction,Legend,Top*%
%TF.FilePolarity,Positive*%
%FSLAX46Y46*%
G04 Gerber Fmt 4.6, Leading zero omitted, Abs format (unit mm)*
G04 Created by KiCad (PCBNEW 7.0.9) date 2023-11-18 00:39:59*
%MOMM*%
%LPD*%
G01*
G04 APERTURE LIST*
%ADD10C,0.150000*%
%ADD11C,0.120000*%
G04 APERTURE END LIST*
D10*
X168666666Y-35644819D02*
X168666666Y-36359104D01*
X168666666Y-36359104D02*
X168619047Y-36501961D01*
X168619047Y-36501961D02*
X168523809Y-36597200D01*
X168523809Y-36597200D02*
X168380952Y-36644819D01*
X168380952Y-36644819D02*
X168285714Y-36644819D01*
X169571428Y-35978152D02*
X169571428Y-36644819D01*
X169333333Y-35597200D02*
X169095238Y-36311485D01*
X169095238Y-36311485D02*
X169714285Y-36311485D01*
X177691666Y-35659819D02*
X177691666Y-36374104D01*
X177691666Y-36374104D02*
X177644047Y-36516961D01*
X177644047Y-36516961D02*
X177548809Y-36612200D01*
X177548809Y-36612200D02*
X177405952Y-36659819D01*
X177405952Y-36659819D02*
X177310714Y-36659819D01*
X178120238Y-35755057D02*
X178167857Y-35707438D01*
X178167857Y-35707438D02*
X178263095Y-35659819D01*
X178263095Y-35659819D02*
X178501190Y-35659819D01*
X178501190Y-35659819D02*
X178596428Y-35707438D01*
X178596428Y-35707438D02*
X178644047Y-35755057D01*
X178644047Y-35755057D02*
X178691666Y-35850295D01*
X178691666Y-35850295D02*
X178691666Y-35945533D01*
X178691666Y-35945533D02*
X178644047Y-36088390D01*
X178644047Y-36088390D02*
X178072619Y-36659819D01*
X178072619Y-36659819D02*
X178691666Y-36659819D01*
X133756905Y-32994819D02*
X133756905Y-31994819D01*
X133756905Y-31994819D02*
X133995000Y-31994819D01*
X133995000Y-31994819D02*
X134137857Y-32042438D01*
X134137857Y-32042438D02*
X134233095Y-32137676D01*
X134233095Y-32137676D02*
X134280714Y-32232914D01*
X134280714Y-32232914D02*
X134328333Y-32423390D01*
X134328333Y-32423390D02*
X134328333Y-32566247D01*
X134328333Y-32566247D02*
X134280714Y-32756723D01*
X134280714Y-32756723D02*
X134233095Y-32851961D01*
X134233095Y-32851961D02*
X134137857Y-32947200D01*
X134137857Y-32947200D02*
X133995000Y-32994819D01*
X133995000Y-32994819D02*
X133756905Y-32994819D01*
X135280714Y-32994819D02*
X134709286Y-32994819D01*
X134995000Y-32994819D02*
X134995000Y-31994819D01*
X134995000Y-31994819D02*
X134899762Y-32137676D01*
X134899762Y-32137676D02*
X134804524Y-32232914D01*
X134804524Y-32232914D02*
X134709286Y-32280533D01*
X164166666Y-35644819D02*
X164166666Y-36359104D01*
X164166666Y-36359104D02*
X164119047Y-36501961D01*
X164119047Y-36501961D02*
X164023809Y-36597200D01*
X164023809Y-36597200D02*
X163880952Y-36644819D01*
X163880952Y-36644819D02*
X163785714Y-36644819D01*
X165119047Y-35644819D02*
X164642857Y-35644819D01*
X164642857Y-35644819D02*
X164595238Y-36121009D01*
X164595238Y-36121009D02*
X164642857Y-36073390D01*
X164642857Y-36073390D02*
X164738095Y-36025771D01*
X164738095Y-36025771D02*
X164976190Y-36025771D01*
X164976190Y-36025771D02*
X165071428Y-36073390D01*
X165071428Y-36073390D02*
X165119047Y-36121009D01*
X165119047Y-36121009D02*
X165166666Y-36216247D01*
X165166666Y-36216247D02*
X165166666Y-36454342D01*
X165166666Y-36454342D02*
X165119047Y-36549580D01*
X165119047Y-36549580D02*
X165071428Y-36597200D01*
X165071428Y-36597200D02*
X164976190Y-36644819D01*
X164976190Y-36644819D02*
X164738095Y-36644819D01*
X164738095Y-36644819D02*
X164642857Y-36597200D01*
X164642857Y-36597200D02*
X164595238Y-36549580D01*
X139909819Y-50333333D02*
X140624104Y-50333333D01*
X140624104Y-50333333D02*
X140766961Y-50380952D01*
X140766961Y-50380952D02*
X140862200Y-50476190D01*
X140862200Y-50476190D02*
X140909819Y-50619047D01*
X140909819Y-50619047D02*
X140909819Y-50714285D01*
X140909819Y-49333333D02*
X140909819Y-49904761D01*
X140909819Y-49619047D02*
X139909819Y-49619047D01*
X139909819Y-49619047D02*
X140052676Y-49714285D01*
X140052676Y-49714285D02*
X140147914Y-49809523D01*
X140147914Y-49809523D02*
X140195533Y-49904761D01*
X130954819Y-26666666D02*
X130478628Y-26999999D01*
X130954819Y-27238094D02*
X129954819Y-27238094D01*
X129954819Y-27238094D02*
X129954819Y-26857142D01*
X129954819Y-26857142D02*
X130002438Y-26761904D01*
X130002438Y-26761904D02*
X130050057Y-26714285D01*
X130050057Y-26714285D02*
X130145295Y-26666666D01*
X130145295Y-26666666D02*
X130288152Y-26666666D01*
X130288152Y-26666666D02*
X130383390Y-26714285D01*
X130383390Y-26714285D02*
X130431009Y-26761904D01*
X130431009Y-26761904D02*
X130478628Y-26857142D01*
X130478628Y-26857142D02*
X130478628Y-27238094D01*
X130954819Y-25714285D02*
X130954819Y-26285713D01*
X130954819Y-25999999D02*
X129954819Y-25999999D01*
X129954819Y-25999999D02*
X130097676Y-26095237D01*
X130097676Y-26095237D02*
X130192914Y-26190475D01*
X130192914Y-26190475D02*
X130240533Y-26285713D01*
X173191666Y-35659819D02*
X173191666Y-36374104D01*
X173191666Y-36374104D02*
X173144047Y-36516961D01*
X173144047Y-36516961D02*
X173048809Y-36612200D01*
X173048809Y-36612200D02*
X172905952Y-36659819D01*
X172905952Y-36659819D02*
X172810714Y-36659819D01*
X173572619Y-35659819D02*
X174191666Y-35659819D01*
X174191666Y-35659819D02*
X173858333Y-36040771D01*
X173858333Y-36040771D02*
X174001190Y-36040771D01*
X174001190Y-36040771D02*
X174096428Y-36088390D01*
X174096428Y-36088390D02*
X174144047Y-36136009D01*
X174144047Y-36136009D02*
X174191666Y-36231247D01*
X174191666Y-36231247D02*
X174191666Y-36469342D01*
X174191666Y-36469342D02*
X174144047Y-36564580D01*
X174144047Y-36564580D02*
X174096428Y-36612200D01*
X174096428Y-36612200D02*
X174001190Y-36659819D01*
X174001190Y-36659819D02*
X173715476Y-36659819D01*
X173715476Y-36659819D02*
X173620238Y-36612200D01*
X173620238Y-36612200D02*
X173572619Y-36564580D01*
X155166666Y-35644819D02*
X155166666Y-36359104D01*
X155166666Y-36359104D02*
X155119047Y-36501961D01*
X155119047Y-36501961D02*
X155023809Y-36597200D01*
X155023809Y-36597200D02*
X154880952Y-36644819D01*
X154880952Y-36644819D02*
X154785714Y-36644819D01*
X155547619Y-35644819D02*
X156214285Y-35644819D01*
X156214285Y-35644819D02*
X155785714Y-36644819D01*
X159666666Y-35644819D02*
X159666666Y-36359104D01*
X159666666Y-36359104D02*
X159619047Y-36501961D01*
X159619047Y-36501961D02*
X159523809Y-36597200D01*
X159523809Y-36597200D02*
X159380952Y-36644819D01*
X159380952Y-36644819D02*
X159285714Y-36644819D01*
X160571428Y-35644819D02*
X160380952Y-35644819D01*
X160380952Y-35644819D02*
X160285714Y-35692438D01*
X160285714Y-35692438D02*
X160238095Y-35740057D01*
X160238095Y-35740057D02*
X160142857Y-35882914D01*
X160142857Y-35882914D02*
X160095238Y-36073390D01*
X160095238Y-36073390D02*
X160095238Y-36454342D01*
X160095238Y-36454342D02*
X160142857Y-36549580D01*
X160142857Y-36549580D02*
X160190476Y-36597200D01*
X160190476Y-36597200D02*
X160285714Y-36644819D01*
X160285714Y-36644819D02*
X160476190Y-36644819D01*
X160476190Y-36644819D02*
X160571428Y-36597200D01*
X160571428Y-36597200D02*
X160619047Y-36549580D01*
X160619047Y-36549580D02*
X160666666Y-36454342D01*
X160666666Y-36454342D02*
X160666666Y-36216247D01*
X160666666Y-36216247D02*
X160619047Y-36121009D01*
X160619047Y-36121009D02*
X160571428Y-36073390D01*
X160571428Y-36073390D02*
X160476190Y-36025771D01*
X160476190Y-36025771D02*
X160285714Y-36025771D01*
X160285714Y-36025771D02*
X160190476Y-36073390D01*
X160190476Y-36073390D02*
X160142857Y-36121009D01*
X160142857Y-36121009D02*
X160095238Y-36216247D01*
D11*
%TO.C,J4*%
X167670000Y-40230000D02*
X167670000Y-45370000D01*
X167670000Y-40230000D02*
X170330000Y-40230000D01*
X167670000Y-45370000D02*
X170330000Y-45370000D01*
X169000000Y-37630000D02*
X170330000Y-37630000D01*
X170330000Y-37630000D02*
X170330000Y-38960000D01*
X170330000Y-40230000D02*
X170330000Y-45370000D01*
%TO.C,J2*%
X176695000Y-40245000D02*
X176695000Y-45385000D01*
X176695000Y-40245000D02*
X179355000Y-40245000D01*
X176695000Y-45385000D02*
X179355000Y-45385000D01*
X178025000Y-37645000D02*
X179355000Y-37645000D01*
X179355000Y-37645000D02*
X179355000Y-38975000D01*
X179355000Y-40245000D02*
X179355000Y-45385000D01*
%TO.C,D1*%
X131935000Y-34955000D02*
X131935000Y-38045000D01*
X137484999Y-36500462D02*
G75*
G03*
X131935001Y-34955170I-2989999J462D01*
G01*
X131935000Y-38044830D02*
G75*
G03*
X137485000Y-36499538I2560000J1544830D01*
G01*
X136995000Y-36500000D02*
G75*
G03*
X136995000Y-36500000I-2500000J0D01*
G01*
%TO.C,J5*%
X163170000Y-40230000D02*
X163170000Y-45370000D01*
X163170000Y-40230000D02*
X165830000Y-40230000D01*
X163170000Y-45370000D02*
X165830000Y-45370000D01*
X164500000Y-37630000D02*
X165830000Y-37630000D01*
X165830000Y-37630000D02*
X165830000Y-38960000D01*
X165830000Y-40230000D02*
X165830000Y-45370000D01*
%TO.C,J1*%
X130035000Y-44700000D02*
X129295000Y-44700000D01*
X129295000Y-44700000D02*
X129295000Y-45200000D01*
X139456000Y-44940000D02*
X129535000Y-44940000D01*
X139456000Y-44940000D02*
X139456000Y-55060000D01*
X136496000Y-44940000D02*
X136496000Y-55060000D01*
X131595000Y-44940000D02*
X131595000Y-55060000D01*
X130095000Y-44940000D02*
X130095000Y-55060000D01*
X129535000Y-44940000D02*
X129535000Y-55060000D01*
X133172000Y-51273000D02*
X133126000Y-51226000D01*
X132956000Y-51466000D02*
X132921000Y-51431000D01*
X135470000Y-53570000D02*
X135434000Y-53535000D01*
X135264000Y-53775000D02*
X135218000Y-53728000D01*
X139456000Y-55060000D02*
X129535000Y-55060000D01*
X134878999Y-45965001D02*
G75*
G03*
X133511958Y-45964574I-684000J-1534992D01*
G01*
X135729999Y-48183999D02*
G75*
G03*
X135730426Y-46816958I-1534992J684000D01*
G01*
X132660001Y-46816000D02*
G75*
G03*
X132514748Y-47528805I1535000J-683999D01*
G01*
X132515001Y-47500000D02*
G75*
G03*
X132660245Y-48183318I1679999J0D01*
G01*
X133511000Y-49035000D02*
G75*
G03*
X134878042Y-49035426I684000J1535000D01*
G01*
X135875000Y-52500000D02*
G75*
G03*
X135875000Y-52500000I-1680000J0D01*
G01*
%TO.C,R1*%
X131630000Y-29120000D02*
X131945000Y-29120000D01*
X131630000Y-29120000D02*
X131630000Y-23880000D01*
X134055000Y-29120000D02*
X134370000Y-29120000D01*
X134370000Y-29120000D02*
X134370000Y-23880000D01*
X131630000Y-23880000D02*
X131945000Y-23880000D01*
X134055000Y-23880000D02*
X134370000Y-23880000D01*
%TO.C,J3*%
X172195000Y-40245000D02*
X172195000Y-45385000D01*
X172195000Y-40245000D02*
X174855000Y-40245000D01*
X172195000Y-45385000D02*
X174855000Y-45385000D01*
X173525000Y-37645000D02*
X174855000Y-37645000D01*
X174855000Y-37645000D02*
X174855000Y-38975000D01*
X174855000Y-40245000D02*
X174855000Y-45385000D01*
%TO.C,J7*%
X154170000Y-40230000D02*
X154170000Y-45370000D01*
X154170000Y-40230000D02*
X156830000Y-40230000D01*
X154170000Y-45370000D02*
X156830000Y-45370000D01*
X155500000Y-37630000D02*
X156830000Y-37630000D01*
X156830000Y-37630000D02*
X156830000Y-38960000D01*
X156830000Y-40230000D02*
X156830000Y-45370000D01*
%TO.C,J6*%
X158670000Y-40230000D02*
X158670000Y-45370000D01*
X158670000Y-40230000D02*
X161330000Y-40230000D01*
X158670000Y-45370000D02*
X161330000Y-45370000D01*
X160000000Y-37630000D02*
X161330000Y-37630000D01*
X161330000Y-37630000D02*
X161330000Y-38960000D01*
X161330000Y-40230000D02*
X161330000Y-45370000D01*
%TD*%
M02*
