M48
; DRILL file {KiCad 7.0.7} date Mon Dec 25 18:53:52 2023
; FORMAT={-:-/ absolute / inch / decimal}
; #@! TF.CreationDate,2023-12-25T18:53:52+09:00
; #@! TF.GenerationSoftware,Kicad,Pcbnew,7.0.7
; #@! TF.FileFunction,Plated,1,2,PTH
FMAT,2
INCH
; #@! TA.AperFunction,Plated,PTH,ComponentDrill
T1C0.0315
; #@! TA.AperFunction,Plated,PTH,ComponentDrill
T2C0.0354
; #@! TA.AperFunction,Plated,PTH,ComponentDrill
T3C0.0394
; #@! TA.AperFunction,Plated,PTH,ComponentDrill
T4C0.0512
%
G90
G05
T1
X5.8858Y-2.5984
X6.0827Y-2.5984
T2
X6.5142Y-2.5984
X6.6142Y-2.5984
T3
X5.2953Y-1.2937
X5.3953Y-1.2937
X5.4953Y-1.2937
X5.5953Y-1.2937
X5.6551Y-3.1937
X5.6953Y-1.2937
X5.7551Y-3.1937
X5.7884Y-1.7116
X5.7884Y-1.8116
X5.7884Y-1.9116
X5.7953Y-1.2937
X5.8551Y-3.1937
X5.8953Y-1.2937
X5.9551Y-3.1937
X5.9852Y-1.7116
X5.9852Y-1.8116
X5.9852Y-1.9116
X5.9953Y-1.2937
X6.0551Y-3.1937
X6.0953Y-1.2937
X6.1551Y-3.1937
X6.1821Y-1.7116
X6.1821Y-1.8116
X6.1821Y-1.9116
X6.1953Y-1.2937
X6.2551Y-3.1937
X6.3551Y-1.2937
X6.3551Y-3.1937
X6.3789Y-1.7116
X6.3789Y-1.8116
X6.3789Y-1.9116
X6.4551Y-1.2937
X6.5551Y-1.2937
X6.5551Y-3.1937
X6.5748Y-1.711
X6.5748Y-1.811
X6.5748Y-1.911
X6.6551Y-1.2937
X6.6551Y-3.1937
X6.7551Y-1.2937
X6.7551Y-3.1937
X6.7717Y-1.711
X6.7717Y-1.811
X6.7717Y-1.911
X6.8551Y-1.2937
X6.8551Y-3.1937
X6.9551Y-1.2937
X6.9551Y-3.1937
X6.99Y-2.59
X6.99Y-2.69
X6.99Y-2.79
X6.99Y-2.89
X7.0551Y-1.2937
X7.0551Y-3.1937
T4
X5.2242Y-2.2955
X5.2242Y-2.4923
T0
M30
