%TF.GenerationSoftware,KiCad,Pcbnew,7.0.9*%
%TF.CreationDate,2023-11-23T21:48:05+09:00*%
%TF.ProjectId,arduino_robotarm_shield,61726475-696e-46f5-9f72-6f626f746172,rev?*%
%TF.SameCoordinates,Original*%
%TF.FileFunction,Profile,NP*%
%FSLAX46Y46*%
G04 Gerber Fmt 4.6, Leading zero omitted, Abs format (unit mm)*
G04 Created by KiCad (PCBNEW 7.0.9) date 2023-11-23 21:48:05*
%MOMM*%
%LPD*%
G01*
G04 APERTURE LIST*
%TA.AperFunction,Profile*%
%ADD10C,0.200000*%
%TD*%
G04 APERTURE END LIST*
D10*
X181770000Y-31852319D02*
X180205208Y-30287527D01*
X180205208Y-30287527D02*
X127130000Y-30287527D01*
X127130000Y-83666000D02*
X127130000Y-30287527D01*
X184250000Y-78586000D02*
X181770000Y-81126000D01*
X181770000Y-43280000D02*
X184250000Y-45820000D01*
X181770000Y-83666000D02*
X181770000Y-81126000D01*
X181770000Y-31852319D02*
X181770000Y-43280000D01*
X181770000Y-83666000D02*
X127130000Y-83666000D01*
X184250000Y-45820000D02*
X184250000Y-78586000D01*
X134780000Y-32866000D02*
G75*
G03*
X134780000Y-32866000I-254000J0D01*
G01*
X137320000Y-32866000D02*
G75*
G03*
X137320000Y-32866000I-254000J0D01*
G01*
X139860000Y-32866000D02*
G75*
G03*
X139860000Y-32866000I-254000J0D01*
G01*
X142400000Y-32866000D02*
G75*
G03*
X142400000Y-32866000I-254000J0D01*
G01*
X144940000Y-32866000D02*
G75*
G03*
X144940000Y-32866000I-254000J0D01*
G01*
X147480000Y-32866000D02*
G75*
G03*
X147480000Y-32866000I-254000J0D01*
G01*
X150020000Y-32866000D02*
G75*
G03*
X150020000Y-32866000I-254000J0D01*
G01*
X152560000Y-32866000D02*
G75*
G03*
X152560000Y-32866000I-254000J0D01*
G01*
X155100000Y-32866000D02*
G75*
G03*
X155100000Y-32866000I-254000J0D01*
G01*
X157640000Y-32866000D02*
G75*
G03*
X157640000Y-32866000I-254000J0D01*
G01*
X161674000Y-32866000D02*
G75*
G03*
X161674000Y-32866000I-254000J0D01*
G01*
X164214000Y-32866000D02*
G75*
G03*
X164214000Y-32866000I-254000J0D01*
G01*
X166754000Y-32866000D02*
G75*
G03*
X166754000Y-32866000I-254000J0D01*
G01*
X169294000Y-32866000D02*
G75*
G03*
X169294000Y-32866000I-254000J0D01*
G01*
X171834000Y-32866000D02*
G75*
G03*
X171834000Y-32866000I-254000J0D01*
G01*
X174374000Y-32866000D02*
G75*
G03*
X174374000Y-32866000I-254000J0D01*
G01*
X176914000Y-32866000D02*
G75*
G03*
X176914000Y-32866000I-254000J0D01*
G01*
X179454000Y-32866000D02*
G75*
G03*
X179454000Y-32866000I-254000J0D01*
G01*
X143894000Y-81126000D02*
G75*
G03*
X143894000Y-81126000I-254000J0D01*
G01*
X146434000Y-81126000D02*
G75*
G03*
X146434000Y-81126000I-254000J0D01*
G01*
X148974000Y-81126000D02*
G75*
G03*
X148974000Y-81126000I-254000J0D01*
G01*
X151514000Y-81126000D02*
G75*
G03*
X151514000Y-81126000I-254000J0D01*
G01*
X154054000Y-81126000D02*
G75*
G03*
X154054000Y-81126000I-254000J0D01*
G01*
X156594000Y-81126000D02*
G75*
G03*
X156594000Y-81126000I-254000J0D01*
G01*
X159134000Y-81126000D02*
G75*
G03*
X159134000Y-81126000I-254000J0D01*
G01*
X161674000Y-81126000D02*
G75*
G03*
X161674000Y-81126000I-254000J0D01*
G01*
X166754000Y-81126000D02*
G75*
G03*
X166754000Y-81126000I-254000J0D01*
G01*
X169294000Y-81126000D02*
G75*
G03*
X169294000Y-81126000I-254000J0D01*
G01*
X171834000Y-81126000D02*
G75*
G03*
X171834000Y-81126000I-254000J0D01*
G01*
X174374000Y-81126000D02*
G75*
G03*
X174374000Y-81126000I-254000J0D01*
G01*
X176914000Y-81126000D02*
G75*
G03*
X176914000Y-81126000I-254000J0D01*
G01*
X179454000Y-81126000D02*
G75*
G03*
X179454000Y-81126000I-254000J0D01*
G01*
X131257500Y-81126000D02*
G75*
G03*
X131257500Y-81126000I-1587500J0D01*
G01*
X183357500Y-76046000D02*
G75*
G03*
X183357500Y-76046000I-1587500J0D01*
G01*
X183357500Y-48106000D02*
G75*
G03*
X183357500Y-48106000I-1587500J0D01*
G01*
X132557500Y-32866000D02*
G75*
G03*
X132557500Y-32866000I-1587500J0D01*
G01*
M02*
