%TF.GenerationSoftware,KiCad,Pcbnew,7.0.7*%
%TF.CreationDate,2023-12-25T18:53:56+09:00*%
%TF.ProjectId,arduino_robotarm_shield,61726475-696e-46f5-9f72-6f626f746172,rev?*%
%TF.SameCoordinates,Original*%
%TF.FileFunction,Copper,L2,Bot*%
%TF.FilePolarity,Positive*%
%FSLAX46Y46*%
G04 Gerber Fmt 4.6, Leading zero omitted, Abs format (unit mm)*
G04 Created by KiCad (PCBNEW 7.0.7) date 2023-12-25 18:53:56*
%MOMM*%
%LPD*%
G01*
G04 APERTURE LIST*
%TA.AperFunction,ComponentPad*%
%ADD10R,1.700000X1.700000*%
%TD*%
%TA.AperFunction,ComponentPad*%
%ADD11O,1.700000X1.700000*%
%TD*%
%TA.AperFunction,ComponentPad*%
%ADD12R,2.600000X2.600000*%
%TD*%
%TA.AperFunction,ComponentPad*%
%ADD13C,2.600000*%
%TD*%
%TA.AperFunction,ComponentPad*%
%ADD14R,1.800000X1.800000*%
%TD*%
%TA.AperFunction,ComponentPad*%
%ADD15C,1.800000*%
%TD*%
%TA.AperFunction,ComponentPad*%
%ADD16C,1.600000*%
%TD*%
%TA.AperFunction,ComponentPad*%
%ADD17R,1.600000X1.600000*%
%TD*%
%TA.AperFunction,ComponentPad*%
%ADD18O,1.600000X1.600000*%
%TD*%
%TA.AperFunction,Conductor*%
%ADD19C,0.250000*%
%TD*%
G04 APERTURE END LIST*
D10*
%TO.P,J8,1,Pin_1*%
%TO.N,/SDA*%
X177546000Y-65786000D03*
D11*
%TO.P,J8,2,Pin_2*%
%TO.N,/SCL*%
X177546000Y-68326000D03*
%TO.P,J8,3,Pin_3*%
%TO.N,-5V*%
X177546000Y-70866000D03*
%TO.P,J8,4,Pin_4*%
%TO.N,GND*%
X177546000Y-73406000D03*
%TD*%
D10*
%TO.P,J4,1,Pin_1*%
%TO.N,/S2*%
X162025000Y-43475000D03*
D11*
%TO.P,J4,2,Pin_2*%
%TO.N,-5V*%
X162025000Y-46015000D03*
%TO.P,J4,3,Pin_3*%
%TO.N,GND*%
X162025000Y-48555000D03*
%TD*%
D12*
%TO.P,J1,1,Pin_1*%
%TO.N,-5V*%
X132695000Y-58305000D03*
D13*
%TO.P,J1,2,Pin_2*%
%TO.N,GND*%
X132695000Y-63305000D03*
%TD*%
D14*
%TO.P,D1,1,K*%
%TO.N,Net-(D1-K)*%
X165460000Y-66000000D03*
D15*
%TO.P,D1,2,A*%
%TO.N,-5V*%
X168000000Y-66000000D03*
%TD*%
D10*
%TO.P,J7,1,Pin_1*%
%TO.N,/S5*%
X147025000Y-43475000D03*
D11*
%TO.P,J7,2,Pin_2*%
%TO.N,-5V*%
X147025000Y-46015000D03*
%TO.P,J7,3,Pin_3*%
%TO.N,GND*%
X147025000Y-48555000D03*
%TD*%
D16*
%TO.P,R1,1*%
%TO.N,Net-(D1-K)*%
X154500000Y-66000000D03*
%TO.P,R1,2*%
%TO.N,GND*%
X149500000Y-66000000D03*
%TD*%
D10*
%TO.P,J3,1,Pin_1*%
%TO.N,/S1*%
X167000000Y-43460000D03*
D11*
%TO.P,J3,2,Pin_2*%
%TO.N,-5V*%
X167000000Y-46000000D03*
%TO.P,J3,3,Pin_3*%
%TO.N,GND*%
X167000000Y-48540000D03*
%TD*%
D10*
%TO.P,J5,1,Pin_1*%
%TO.N,/S3*%
X157025000Y-43475000D03*
D11*
%TO.P,J5,2,Pin_2*%
%TO.N,-5V*%
X157025000Y-46015000D03*
%TO.P,J5,3,Pin_3*%
%TO.N,GND*%
X157025000Y-48555000D03*
%TD*%
D10*
%TO.P,J6,1,Pin_1*%
%TO.N,/S4*%
X152025000Y-43475000D03*
D11*
%TO.P,J6,2,Pin_2*%
%TO.N,-5V*%
X152025000Y-46015000D03*
%TO.P,J6,3,Pin_3*%
%TO.N,GND*%
X152025000Y-48555000D03*
%TD*%
D10*
%TO.P,J2,1,Pin_1*%
%TO.N,/S0*%
X172000000Y-43460000D03*
D11*
%TO.P,J2,2,Pin_2*%
%TO.N,-5V*%
X172000000Y-46000000D03*
%TO.P,J2,3,Pin_3*%
%TO.N,GND*%
X172000000Y-48540000D03*
%TD*%
D17*
%TO.P,A1,1,NC*%
%TO.N,unconnected-(A1-NC-Pad1)*%
X143640000Y-81120000D03*
D18*
%TO.P,A1,2,IOREF*%
%TO.N,unconnected-(A1-IOREF-Pad2)*%
X146180000Y-81120000D03*
%TO.P,A1,3,~{RESET}*%
%TO.N,unconnected-(A1-~{RESET}-Pad3)*%
X148720000Y-81120000D03*
%TO.P,A1,4,3V3*%
%TO.N,unconnected-(A1-3V3-Pad4)*%
X151260000Y-81120000D03*
%TO.P,A1,5,+5V*%
%TO.N,unconnected-(A1-+5V-Pad5)*%
X153800000Y-81120000D03*
%TO.P,A1,6,GND*%
%TO.N,GND*%
X156340000Y-81120000D03*
%TO.P,A1,7,GND*%
X158880000Y-81120000D03*
%TO.P,A1,8,VIN*%
%TO.N,unconnected-(A1-VIN-Pad8)*%
X161420000Y-81120000D03*
%TO.P,A1,9,A0*%
%TO.N,unconnected-(A1-A0-Pad9)*%
X166500000Y-81120000D03*
%TO.P,A1,10,A1*%
%TO.N,unconnected-(A1-A1-Pad10)*%
X169040000Y-81120000D03*
%TO.P,A1,11,A2*%
%TO.N,unconnected-(A1-A2-Pad11)*%
X171580000Y-81120000D03*
%TO.P,A1,12,A3*%
%TO.N,unconnected-(A1-A3-Pad12)*%
X174120000Y-81120000D03*
%TO.P,A1,13,SDA/A4*%
%TO.N,/SDA*%
X176660000Y-81120000D03*
%TO.P,A1,14,SCL/A5*%
%TO.N,/SCL*%
X179200000Y-81120000D03*
%TO.P,A1,15,D0/RX*%
%TO.N,unconnected-(A1-D0{slash}RX-Pad15)*%
X179200000Y-32860000D03*
%TO.P,A1,16,D1/TX*%
%TO.N,unconnected-(A1-D1{slash}TX-Pad16)*%
X176660000Y-32860000D03*
%TO.P,A1,17,D2*%
%TO.N,unconnected-(A1-D2-Pad17)*%
X174120000Y-32860000D03*
%TO.P,A1,18,D3*%
%TO.N,/S0*%
X171580000Y-32860000D03*
%TO.P,A1,19,D4*%
%TO.N,unconnected-(A1-D4-Pad19)*%
X169040000Y-32860000D03*
%TO.P,A1,20,D5*%
%TO.N,/S1*%
X166500000Y-32860000D03*
%TO.P,A1,21,D6*%
%TO.N,/S2*%
X163960000Y-32860000D03*
%TO.P,A1,22,D7*%
%TO.N,unconnected-(A1-D7-Pad22)*%
X161420000Y-32860000D03*
%TO.P,A1,23,D8*%
%TO.N,unconnected-(A1-D8-Pad23)*%
X157360000Y-32860000D03*
%TO.P,A1,24,D9*%
%TO.N,/S3*%
X154820000Y-32860000D03*
%TO.P,A1,25,D10*%
%TO.N,/S4*%
X152280000Y-32860000D03*
%TO.P,A1,26,D11*%
%TO.N,/S5*%
X149740000Y-32860000D03*
%TO.P,A1,27,D12*%
%TO.N,unconnected-(A1-D12-Pad27)*%
X147200000Y-32860000D03*
%TO.P,A1,28,D13*%
%TO.N,unconnected-(A1-D13-Pad28)*%
X144660000Y-32860000D03*
%TO.P,A1,29,GND*%
%TO.N,GND*%
X142120000Y-32860000D03*
%TO.P,A1,30,AREF*%
%TO.N,unconnected-(A1-AREF-Pad30)*%
X139580000Y-32860000D03*
%TO.P,A1,31,SDA/A4*%
%TO.N,unconnected-(A1-SDA{slash}A4-Pad31)*%
X137040000Y-32860000D03*
%TO.P,A1,32,SCL/A5*%
%TO.N,unconnected-(A1-SCL{slash}A5-Pad32)*%
X134500000Y-32860000D03*
%TD*%
D19*
%TO.N,GND*%
X161544000Y-78921229D02*
X159386680Y-81078549D01*
X161544000Y-74676000D02*
X161544000Y-78921229D01*
X162814000Y-73406000D02*
X161544000Y-74676000D01*
X159386680Y-81078549D02*
X159266469Y-81078549D01*
X177546000Y-73406000D02*
X162814000Y-73406000D01*
%TO.N,-5V*%
X173990000Y-70866000D02*
X177546000Y-70866000D01*
X169418000Y-69850000D02*
X172974000Y-69850000D01*
X172974000Y-69850000D02*
X173990000Y-70866000D01*
X168000000Y-66000000D02*
X168000000Y-68432000D01*
X168000000Y-68432000D02*
X169418000Y-69850000D01*
X132695000Y-58305000D02*
X134735000Y-58305000D01*
X134735000Y-58305000D02*
X147025000Y-46015000D01*
%TD*%
%TA.AperFunction,Conductor*%
%TO.N,GND*%
G36*
X158333692Y-80889685D02*
G01*
X158379447Y-80942489D01*
X158389391Y-81011647D01*
X158385631Y-81028933D01*
X158380000Y-81048111D01*
X158380000Y-81191888D01*
X158385631Y-81211067D01*
X158385630Y-81280936D01*
X158347855Y-81339714D01*
X158284299Y-81368738D01*
X158266653Y-81370000D01*
X156953347Y-81370000D01*
X156886308Y-81350315D01*
X156840553Y-81297511D01*
X156830609Y-81228353D01*
X156834369Y-81211067D01*
X156840000Y-81191888D01*
X156840000Y-81048111D01*
X156834369Y-81028933D01*
X156834370Y-80959064D01*
X156872145Y-80900286D01*
X156935701Y-80871262D01*
X156953347Y-80870000D01*
X158266653Y-80870000D01*
X158333692Y-80889685D01*
G37*
%TD.AperFunction*%
%TA.AperFunction,Conductor*%
G36*
X180220677Y-30307712D02*
G01*
X180241319Y-30324346D01*
X181733181Y-31816207D01*
X181766666Y-31877530D01*
X181769500Y-31903888D01*
X181769500Y-43275260D01*
X181769458Y-43279997D01*
X181769529Y-43280170D01*
X181769614Y-43280380D01*
X181771977Y-43282741D01*
X184214223Y-45784072D01*
X184246973Y-45845790D01*
X184249500Y-45870698D01*
X184249500Y-78535300D01*
X184229815Y-78602339D01*
X184214223Y-78621927D01*
X181772594Y-81122625D01*
X181769616Y-81125615D01*
X181769597Y-81125663D01*
X181769603Y-81125651D01*
X181769538Y-81125807D01*
X181769457Y-81126004D01*
X181769500Y-81129398D01*
X181769500Y-83541500D01*
X181749815Y-83608539D01*
X181697011Y-83654294D01*
X181645500Y-83665500D01*
X127254500Y-83665500D01*
X127187461Y-83645815D01*
X127141706Y-83593011D01*
X127130500Y-83541500D01*
X127130500Y-81126000D01*
X128077090Y-81126000D01*
X128077098Y-81126103D01*
X128084755Y-81223395D01*
X128084946Y-81228261D01*
X128084946Y-81241191D01*
X128083747Y-81245272D01*
X128084431Y-81253967D01*
X128086443Y-81260195D01*
X128088461Y-81272944D01*
X128089033Y-81277775D01*
X128094459Y-81346697D01*
X128096701Y-81375186D01*
X128096702Y-81375189D01*
X128096702Y-81375190D01*
X128119510Y-81470194D01*
X128120457Y-81474955D01*
X128122481Y-81487726D01*
X128121935Y-81491949D01*
X128123969Y-81500423D01*
X128126925Y-81506248D01*
X128130922Y-81518548D01*
X128132244Y-81523235D01*
X128155053Y-81618238D01*
X128155054Y-81618241D01*
X128192441Y-81708498D01*
X128194126Y-81713066D01*
X128198118Y-81725352D01*
X128198239Y-81729605D01*
X128201584Y-81737679D01*
X128205420Y-81742978D01*
X128211282Y-81754484D01*
X128213318Y-81758902D01*
X128250706Y-81849166D01*
X128301750Y-81932460D01*
X128304132Y-81936713D01*
X128310004Y-81948239D01*
X128310788Y-81952417D01*
X128315345Y-81959853D01*
X128319962Y-81964486D01*
X128322421Y-81967870D01*
X128327559Y-81974943D01*
X128330261Y-81978988D01*
X128381305Y-82062283D01*
X128381306Y-82062285D01*
X128444749Y-82136569D01*
X128447763Y-82140391D01*
X128455372Y-82150864D01*
X128456801Y-82154870D01*
X128462463Y-82161499D01*
X128467743Y-82165348D01*
X128476891Y-82174495D01*
X128480196Y-82178071D01*
X128480197Y-82178072D01*
X128543643Y-82252357D01*
X128573137Y-82277547D01*
X128617931Y-82315805D01*
X128621507Y-82319111D01*
X128630650Y-82328254D01*
X128632688Y-82331987D01*
X128639312Y-82337644D01*
X128645125Y-82340618D01*
X128655607Y-82348234D01*
X128659404Y-82351226D01*
X128733711Y-82414691D01*
X128817014Y-82465739D01*
X128821045Y-82468432D01*
X128831515Y-82476038D01*
X128834114Y-82479409D01*
X128841545Y-82483963D01*
X128847755Y-82485992D01*
X128859293Y-82491871D01*
X128863502Y-82494227D01*
X128946834Y-82545293D01*
X129037114Y-82582688D01*
X129041507Y-82584713D01*
X129053024Y-82590581D01*
X129056118Y-82593503D01*
X129064190Y-82596846D01*
X129070638Y-82597878D01*
X129082953Y-82601880D01*
X129087481Y-82603551D01*
X129164196Y-82635327D01*
X129177769Y-82640949D01*
X129216204Y-82650175D01*
X129272781Y-82663758D01*
X129277427Y-82665069D01*
X129289744Y-82669071D01*
X129293255Y-82671472D01*
X129301730Y-82673507D01*
X129308264Y-82673517D01*
X129321068Y-82675545D01*
X129325794Y-82676486D01*
X129420814Y-82699299D01*
X129518245Y-82706966D01*
X129523044Y-82707535D01*
X129535823Y-82709559D01*
X129539666Y-82711381D01*
X129548348Y-82712064D01*
X129554809Y-82711053D01*
X129567725Y-82711053D01*
X129572591Y-82711244D01*
X129582438Y-82712018D01*
X129670000Y-82718910D01*
X129757561Y-82712018D01*
X129767409Y-82711244D01*
X129772275Y-82711053D01*
X129785190Y-82711053D01*
X129789273Y-82712252D01*
X129797958Y-82711568D01*
X129804178Y-82709559D01*
X129816970Y-82707533D01*
X129821745Y-82706967D01*
X129919186Y-82699299D01*
X130014238Y-82676478D01*
X130018921Y-82675547D01*
X130031729Y-82673518D01*
X130035947Y-82674064D01*
X130044425Y-82672028D01*
X130050252Y-82669072D01*
X130062575Y-82665068D01*
X130067215Y-82663759D01*
X130162236Y-82640947D01*
X130252534Y-82603544D01*
X130257050Y-82601878D01*
X130269348Y-82597882D01*
X130273601Y-82597761D01*
X130281672Y-82594418D01*
X130286962Y-82590588D01*
X130298504Y-82584707D01*
X130302859Y-82582698D01*
X130393166Y-82545293D01*
X130476508Y-82494220D01*
X130480692Y-82491878D01*
X130492237Y-82485995D01*
X130496414Y-82485211D01*
X130503849Y-82480655D01*
X130508475Y-82476046D01*
X130509655Y-82475187D01*
X130518965Y-82468423D01*
X130522970Y-82465748D01*
X130606289Y-82414691D01*
X130680603Y-82351219D01*
X130684375Y-82348247D01*
X130694870Y-82340621D01*
X130698873Y-82339193D01*
X130705499Y-82333534D01*
X130709347Y-82328256D01*
X130718509Y-82319094D01*
X130722048Y-82315822D01*
X130796357Y-82252357D01*
X130859822Y-82178048D01*
X130863094Y-82174509D01*
X130872255Y-82165348D01*
X130875986Y-82163311D01*
X130881645Y-82156685D01*
X130884621Y-82150870D01*
X130892250Y-82140370D01*
X130895214Y-82136610D01*
X130958691Y-82062289D01*
X131009748Y-81978970D01*
X131012423Y-81974965D01*
X131017578Y-81967870D01*
X142339500Y-81967870D01*
X142339501Y-81967876D01*
X142345908Y-82027483D01*
X142396202Y-82162328D01*
X142396206Y-82162335D01*
X142482452Y-82277544D01*
X142482455Y-82277547D01*
X142597664Y-82363793D01*
X142597671Y-82363797D01*
X142732517Y-82414091D01*
X142732516Y-82414091D01*
X142738107Y-82414692D01*
X142792127Y-82420500D01*
X144487872Y-82420499D01*
X144547483Y-82414091D01*
X144682331Y-82363796D01*
X144797546Y-82277546D01*
X144883796Y-82162331D01*
X144934091Y-82027483D01*
X144937862Y-81992401D01*
X144964599Y-81927855D01*
X145021990Y-81888006D01*
X145091816Y-81885511D01*
X145151905Y-81921163D01*
X145162725Y-81934535D01*
X145176668Y-81954448D01*
X145179956Y-81959143D01*
X145340858Y-82120045D01*
X145384873Y-82150864D01*
X145527266Y-82250568D01*
X145733504Y-82346739D01*
X145733509Y-82346740D01*
X145733511Y-82346741D01*
X145786415Y-82360916D01*
X145953308Y-82405635D01*
X146115230Y-82419801D01*
X146179998Y-82425468D01*
X146180000Y-82425468D01*
X146180002Y-82425468D01*
X146236807Y-82420498D01*
X146406692Y-82405635D01*
X146626496Y-82346739D01*
X146832734Y-82250568D01*
X147019139Y-82120047D01*
X147180047Y-81959139D01*
X147310568Y-81772734D01*
X147337618Y-81714724D01*
X147383790Y-81662285D01*
X147450983Y-81643133D01*
X147517865Y-81663348D01*
X147562381Y-81714724D01*
X147575551Y-81742966D01*
X147589429Y-81772728D01*
X147589432Y-81772734D01*
X147719954Y-81959141D01*
X147880858Y-82120045D01*
X147924873Y-82150864D01*
X148067266Y-82250568D01*
X148273504Y-82346739D01*
X148273509Y-82346740D01*
X148273511Y-82346741D01*
X148326415Y-82360916D01*
X148493308Y-82405635D01*
X148655230Y-82419801D01*
X148719998Y-82425468D01*
X148720000Y-82425468D01*
X148720002Y-82425468D01*
X148776807Y-82420498D01*
X148946692Y-82405635D01*
X149166496Y-82346739D01*
X149372734Y-82250568D01*
X149559139Y-82120047D01*
X149720047Y-81959139D01*
X149850568Y-81772734D01*
X149877618Y-81714724D01*
X149923790Y-81662285D01*
X149990983Y-81643133D01*
X150057865Y-81663348D01*
X150102381Y-81714724D01*
X150115551Y-81742966D01*
X150129429Y-81772728D01*
X150129432Y-81772734D01*
X150259954Y-81959141D01*
X150420858Y-82120045D01*
X150464873Y-82150864D01*
X150607266Y-82250568D01*
X150813504Y-82346739D01*
X150813509Y-82346740D01*
X150813511Y-82346741D01*
X150866415Y-82360916D01*
X151033308Y-82405635D01*
X151195230Y-82419801D01*
X151259998Y-82425468D01*
X151260000Y-82425468D01*
X151260002Y-82425468D01*
X151316807Y-82420498D01*
X151486692Y-82405635D01*
X151706496Y-82346739D01*
X151912734Y-82250568D01*
X152099139Y-82120047D01*
X152260047Y-81959139D01*
X152390568Y-81772734D01*
X152417618Y-81714724D01*
X152463790Y-81662285D01*
X152530983Y-81643133D01*
X152597865Y-81663348D01*
X152642381Y-81714724D01*
X152655551Y-81742966D01*
X152669429Y-81772728D01*
X152669432Y-81772734D01*
X152799954Y-81959141D01*
X152960858Y-82120045D01*
X153004873Y-82150864D01*
X153147266Y-82250568D01*
X153353504Y-82346739D01*
X153353509Y-82346740D01*
X153353511Y-82346741D01*
X153406415Y-82360916D01*
X153573308Y-82405635D01*
X153735230Y-82419801D01*
X153799998Y-82425468D01*
X153800000Y-82425468D01*
X153800002Y-82425468D01*
X153856807Y-82420498D01*
X154026692Y-82405635D01*
X154246496Y-82346739D01*
X154452734Y-82250568D01*
X154639139Y-82120047D01*
X154800047Y-81959139D01*
X154930568Y-81772734D01*
X154957895Y-81714129D01*
X155004064Y-81661695D01*
X155071257Y-81642542D01*
X155138139Y-81662757D01*
X155182657Y-81714133D01*
X155209865Y-81772482D01*
X155340342Y-81958820D01*
X155501179Y-82119657D01*
X155687517Y-82250134D01*
X155893673Y-82346265D01*
X155893682Y-82346269D01*
X156089999Y-82398872D01*
X156090000Y-82398871D01*
X156090000Y-81732301D01*
X156109685Y-81665262D01*
X156162489Y-81619507D01*
X156231647Y-81609563D01*
X156304237Y-81620000D01*
X156304238Y-81620000D01*
X156375762Y-81620000D01*
X156375763Y-81620000D01*
X156448353Y-81609563D01*
X156517512Y-81619507D01*
X156570315Y-81665262D01*
X156590000Y-81732301D01*
X156590000Y-82398872D01*
X156786317Y-82346269D01*
X156786326Y-82346265D01*
X156992482Y-82250134D01*
X157178820Y-82119657D01*
X157339657Y-81958820D01*
X157470134Y-81772481D01*
X157470135Y-81772479D01*
X157497618Y-81713543D01*
X157543790Y-81661103D01*
X157610983Y-81641951D01*
X157677864Y-81662166D01*
X157722382Y-81713543D01*
X157749864Y-81772479D01*
X157749865Y-81772481D01*
X157880342Y-81958820D01*
X158041179Y-82119657D01*
X158227517Y-82250134D01*
X158433673Y-82346265D01*
X158433682Y-82346269D01*
X158629999Y-82398872D01*
X158630000Y-82398871D01*
X158630000Y-81732301D01*
X158649685Y-81665262D01*
X158702489Y-81619507D01*
X158771647Y-81609563D01*
X158844237Y-81620000D01*
X158844238Y-81620000D01*
X158915762Y-81620000D01*
X158915763Y-81620000D01*
X158988353Y-81609563D01*
X159057512Y-81619507D01*
X159110315Y-81665262D01*
X159130000Y-81732301D01*
X159130000Y-82398872D01*
X159326317Y-82346269D01*
X159326326Y-82346265D01*
X159532482Y-82250134D01*
X159718820Y-82119657D01*
X159879657Y-81958820D01*
X160010132Y-81772484D01*
X160037341Y-81714134D01*
X160083513Y-81661695D01*
X160150707Y-81642542D01*
X160217588Y-81662757D01*
X160262105Y-81714132D01*
X160280922Y-81754484D01*
X160289431Y-81772732D01*
X160289432Y-81772734D01*
X160419954Y-81959141D01*
X160580858Y-82120045D01*
X160624873Y-82150864D01*
X160767266Y-82250568D01*
X160973504Y-82346739D01*
X160973509Y-82346740D01*
X160973511Y-82346741D01*
X161026415Y-82360916D01*
X161193308Y-82405635D01*
X161355230Y-82419801D01*
X161419998Y-82425468D01*
X161420000Y-82425468D01*
X161420002Y-82425468D01*
X161476807Y-82420498D01*
X161646692Y-82405635D01*
X161866496Y-82346739D01*
X162072734Y-82250568D01*
X162259139Y-82120047D01*
X162420047Y-81959139D01*
X162550568Y-81772734D01*
X162646739Y-81566496D01*
X162705635Y-81346692D01*
X162725468Y-81120001D01*
X165194532Y-81120001D01*
X165214364Y-81346686D01*
X165214366Y-81346697D01*
X165273258Y-81566488D01*
X165273261Y-81566497D01*
X165369431Y-81772732D01*
X165369432Y-81772734D01*
X165499954Y-81959141D01*
X165660858Y-82120045D01*
X165704873Y-82150864D01*
X165847266Y-82250568D01*
X166053504Y-82346739D01*
X166053509Y-82346740D01*
X166053511Y-82346741D01*
X166106415Y-82360916D01*
X166273308Y-82405635D01*
X166435230Y-82419801D01*
X166499998Y-82425468D01*
X166500000Y-82425468D01*
X166500002Y-82425468D01*
X166556807Y-82420498D01*
X166726692Y-82405635D01*
X166946496Y-82346739D01*
X167152734Y-82250568D01*
X167339139Y-82120047D01*
X167500047Y-81959139D01*
X167630568Y-81772734D01*
X167657618Y-81714724D01*
X167703790Y-81662285D01*
X167770983Y-81643133D01*
X167837865Y-81663348D01*
X167882381Y-81714724D01*
X167895551Y-81742966D01*
X167909429Y-81772728D01*
X167909432Y-81772734D01*
X168039954Y-81959141D01*
X168200858Y-82120045D01*
X168244873Y-82150864D01*
X168387266Y-82250568D01*
X168593504Y-82346739D01*
X168593509Y-82346740D01*
X168593511Y-82346741D01*
X168646415Y-82360916D01*
X168813308Y-82405635D01*
X168975230Y-82419801D01*
X169039998Y-82425468D01*
X169040000Y-82425468D01*
X169040002Y-82425468D01*
X169096807Y-82420498D01*
X169266692Y-82405635D01*
X169486496Y-82346739D01*
X169692734Y-82250568D01*
X169879139Y-82120047D01*
X170040047Y-81959139D01*
X170170568Y-81772734D01*
X170197618Y-81714724D01*
X170243790Y-81662285D01*
X170310983Y-81643133D01*
X170377865Y-81663348D01*
X170422381Y-81714724D01*
X170435551Y-81742966D01*
X170449429Y-81772728D01*
X170449432Y-81772734D01*
X170579954Y-81959141D01*
X170740858Y-82120045D01*
X170784873Y-82150864D01*
X170927266Y-82250568D01*
X171133504Y-82346739D01*
X171133509Y-82346740D01*
X171133511Y-82346741D01*
X171186415Y-82360916D01*
X171353308Y-82405635D01*
X171515230Y-82419801D01*
X171579998Y-82425468D01*
X171580000Y-82425468D01*
X171580002Y-82425468D01*
X171636807Y-82420498D01*
X171806692Y-82405635D01*
X172026496Y-82346739D01*
X172232734Y-82250568D01*
X172419139Y-82120047D01*
X172580047Y-81959139D01*
X172710568Y-81772734D01*
X172737618Y-81714724D01*
X172783790Y-81662285D01*
X172850983Y-81643133D01*
X172917865Y-81663348D01*
X172962381Y-81714724D01*
X172975551Y-81742966D01*
X172989429Y-81772728D01*
X172989432Y-81772734D01*
X173119954Y-81959141D01*
X173280858Y-82120045D01*
X173324873Y-82150864D01*
X173467266Y-82250568D01*
X173673504Y-82346739D01*
X173673509Y-82346740D01*
X173673511Y-82346741D01*
X173726415Y-82360916D01*
X173893308Y-82405635D01*
X174055230Y-82419801D01*
X174119998Y-82425468D01*
X174120000Y-82425468D01*
X174120002Y-82425468D01*
X174176807Y-82420498D01*
X174346692Y-82405635D01*
X174566496Y-82346739D01*
X174772734Y-82250568D01*
X174959139Y-82120047D01*
X175120047Y-81959139D01*
X175250568Y-81772734D01*
X175277618Y-81714724D01*
X175323790Y-81662285D01*
X175390983Y-81643133D01*
X175457865Y-81663348D01*
X175502381Y-81714724D01*
X175515551Y-81742966D01*
X175529429Y-81772728D01*
X175529432Y-81772734D01*
X175659954Y-81959141D01*
X175820858Y-82120045D01*
X175864873Y-82150864D01*
X176007266Y-82250568D01*
X176213504Y-82346739D01*
X176213509Y-82346740D01*
X176213511Y-82346741D01*
X176266415Y-82360916D01*
X176433308Y-82405635D01*
X176595230Y-82419801D01*
X176659998Y-82425468D01*
X176660000Y-82425468D01*
X176660002Y-82425468D01*
X176716807Y-82420498D01*
X176886692Y-82405635D01*
X177106496Y-82346739D01*
X177312734Y-82250568D01*
X177499139Y-82120047D01*
X177660047Y-81959139D01*
X177790568Y-81772734D01*
X177817618Y-81714724D01*
X177863790Y-81662285D01*
X177930983Y-81643133D01*
X177997865Y-81663348D01*
X178042381Y-81714724D01*
X178055551Y-81742966D01*
X178069429Y-81772728D01*
X178069432Y-81772734D01*
X178199954Y-81959141D01*
X178360858Y-82120045D01*
X178404873Y-82150864D01*
X178547266Y-82250568D01*
X178753504Y-82346739D01*
X178753509Y-82346740D01*
X178753511Y-82346741D01*
X178806415Y-82360916D01*
X178973308Y-82405635D01*
X179135230Y-82419801D01*
X179199998Y-82425468D01*
X179200000Y-82425468D01*
X179200002Y-82425468D01*
X179256807Y-82420498D01*
X179426692Y-82405635D01*
X179646496Y-82346739D01*
X179852734Y-82250568D01*
X180039139Y-82120047D01*
X180200047Y-81959139D01*
X180330568Y-81772734D01*
X180426739Y-81566496D01*
X180485635Y-81346692D01*
X180505468Y-81120000D01*
X180485635Y-80893308D01*
X180426739Y-80673504D01*
X180330568Y-80467266D01*
X180200047Y-80280861D01*
X180200045Y-80280858D01*
X180039141Y-80119954D01*
X179852734Y-79989432D01*
X179852732Y-79989431D01*
X179646497Y-79893261D01*
X179646488Y-79893258D01*
X179426697Y-79834366D01*
X179426693Y-79834365D01*
X179426692Y-79834365D01*
X179426691Y-79834364D01*
X179426686Y-79834364D01*
X179200002Y-79814532D01*
X179199998Y-79814532D01*
X178973313Y-79834364D01*
X178973302Y-79834366D01*
X178753511Y-79893258D01*
X178753502Y-79893261D01*
X178547267Y-79989431D01*
X178547265Y-79989432D01*
X178360858Y-80119954D01*
X178199954Y-80280858D01*
X178069432Y-80467265D01*
X178069430Y-80467268D01*
X178042380Y-80525277D01*
X177996207Y-80577715D01*
X177929013Y-80596866D01*
X177862132Y-80576649D01*
X177817619Y-80525277D01*
X177790568Y-80467266D01*
X177712856Y-80356280D01*
X177660045Y-80280858D01*
X177499141Y-80119954D01*
X177312734Y-79989432D01*
X177312732Y-79989431D01*
X177106497Y-79893261D01*
X177106488Y-79893258D01*
X176886697Y-79834366D01*
X176886693Y-79834365D01*
X176886692Y-79834365D01*
X176886691Y-79834364D01*
X176886686Y-79834364D01*
X176660002Y-79814532D01*
X176659998Y-79814532D01*
X176433313Y-79834364D01*
X176433302Y-79834366D01*
X176213511Y-79893258D01*
X176213502Y-79893261D01*
X176007267Y-79989431D01*
X176007265Y-79989432D01*
X175820858Y-80119954D01*
X175659954Y-80280858D01*
X175529432Y-80467265D01*
X175529430Y-80467268D01*
X175502380Y-80525277D01*
X175456207Y-80577715D01*
X175389013Y-80596866D01*
X175322132Y-80576649D01*
X175277619Y-80525277D01*
X175250568Y-80467266D01*
X175172856Y-80356280D01*
X175120045Y-80280858D01*
X174959141Y-80119954D01*
X174772734Y-79989432D01*
X174772732Y-79989431D01*
X174566497Y-79893261D01*
X174566488Y-79893258D01*
X174346697Y-79834366D01*
X174346693Y-79834365D01*
X174346692Y-79834365D01*
X174346691Y-79834364D01*
X174346686Y-79834364D01*
X174120002Y-79814532D01*
X174119998Y-79814532D01*
X173893313Y-79834364D01*
X173893302Y-79834366D01*
X173673511Y-79893258D01*
X173673502Y-79893261D01*
X173467267Y-79989431D01*
X173467265Y-79989432D01*
X173280858Y-80119954D01*
X173119954Y-80280858D01*
X172989432Y-80467265D01*
X172989431Y-80467267D01*
X172977390Y-80493090D01*
X172963729Y-80522387D01*
X172962382Y-80525275D01*
X172916209Y-80577714D01*
X172849016Y-80596866D01*
X172782135Y-80576650D01*
X172737618Y-80525275D01*
X172737618Y-80525274D01*
X172710568Y-80467266D01*
X172580047Y-80280861D01*
X172580045Y-80280858D01*
X172419141Y-80119954D01*
X172232734Y-79989432D01*
X172232732Y-79989431D01*
X172026497Y-79893261D01*
X172026488Y-79893258D01*
X171806697Y-79834366D01*
X171806693Y-79834365D01*
X171806692Y-79834365D01*
X171806691Y-79834364D01*
X171806686Y-79834364D01*
X171580002Y-79814532D01*
X171579998Y-79814532D01*
X171353313Y-79834364D01*
X171353302Y-79834366D01*
X171133511Y-79893258D01*
X171133502Y-79893261D01*
X170927267Y-79989431D01*
X170927265Y-79989432D01*
X170740858Y-80119954D01*
X170579954Y-80280858D01*
X170449432Y-80467265D01*
X170449431Y-80467267D01*
X170437390Y-80493090D01*
X170423729Y-80522387D01*
X170422382Y-80525275D01*
X170376209Y-80577714D01*
X170309016Y-80596866D01*
X170242135Y-80576650D01*
X170197618Y-80525275D01*
X170197618Y-80525274D01*
X170170568Y-80467266D01*
X170040047Y-80280861D01*
X170040045Y-80280858D01*
X169879141Y-80119954D01*
X169692734Y-79989432D01*
X169692732Y-79989431D01*
X169486497Y-79893261D01*
X169486488Y-79893258D01*
X169266697Y-79834366D01*
X169266693Y-79834365D01*
X169266692Y-79834365D01*
X169266691Y-79834364D01*
X169266686Y-79834364D01*
X169040002Y-79814532D01*
X169039998Y-79814532D01*
X168813313Y-79834364D01*
X168813302Y-79834366D01*
X168593511Y-79893258D01*
X168593502Y-79893261D01*
X168387267Y-79989431D01*
X168387265Y-79989432D01*
X168200858Y-80119954D01*
X168039954Y-80280858D01*
X167909432Y-80467265D01*
X167909431Y-80467267D01*
X167897390Y-80493090D01*
X167883729Y-80522387D01*
X167882382Y-80525275D01*
X167836209Y-80577714D01*
X167769016Y-80596866D01*
X167702135Y-80576650D01*
X167657618Y-80525275D01*
X167657618Y-80525274D01*
X167630568Y-80467266D01*
X167500047Y-80280861D01*
X167500045Y-80280858D01*
X167339141Y-80119954D01*
X167152734Y-79989432D01*
X167152732Y-79989431D01*
X166946497Y-79893261D01*
X166946488Y-79893258D01*
X166726697Y-79834366D01*
X166726693Y-79834365D01*
X166726692Y-79834365D01*
X166726691Y-79834364D01*
X166726686Y-79834364D01*
X166500002Y-79814532D01*
X166499998Y-79814532D01*
X166273313Y-79834364D01*
X166273302Y-79834366D01*
X166053511Y-79893258D01*
X166053502Y-79893261D01*
X165847267Y-79989431D01*
X165847265Y-79989432D01*
X165660858Y-80119954D01*
X165499954Y-80280858D01*
X165369432Y-80467265D01*
X165369431Y-80467267D01*
X165273261Y-80673502D01*
X165273258Y-80673511D01*
X165214366Y-80893302D01*
X165214364Y-80893313D01*
X165194532Y-81119998D01*
X165194532Y-81120001D01*
X162725468Y-81120001D01*
X162725468Y-81120000D01*
X162705635Y-80893308D01*
X162646739Y-80673504D01*
X162550568Y-80467266D01*
X162420047Y-80280861D01*
X162420045Y-80280858D01*
X162259141Y-80119954D01*
X162072734Y-79989432D01*
X162072732Y-79989431D01*
X161866497Y-79893261D01*
X161866488Y-79893258D01*
X161646697Y-79834366D01*
X161646693Y-79834365D01*
X161646692Y-79834365D01*
X161646691Y-79834364D01*
X161646686Y-79834364D01*
X161420002Y-79814532D01*
X161419998Y-79814532D01*
X161193313Y-79834364D01*
X161193302Y-79834366D01*
X160973511Y-79893258D01*
X160973502Y-79893261D01*
X160767267Y-79989431D01*
X160767265Y-79989432D01*
X160580858Y-80119954D01*
X160419954Y-80280858D01*
X160289434Y-80467263D01*
X160289432Y-80467266D01*
X160262383Y-80525274D01*
X160262106Y-80525867D01*
X160215933Y-80578306D01*
X160148739Y-80597457D01*
X160081858Y-80577241D01*
X160037342Y-80525865D01*
X160010135Y-80467520D01*
X160010134Y-80467518D01*
X159879657Y-80281179D01*
X159718820Y-80120342D01*
X159532482Y-79989865D01*
X159326328Y-79893734D01*
X159130000Y-79841127D01*
X159130000Y-80507698D01*
X159110315Y-80574737D01*
X159057511Y-80620492D01*
X158988355Y-80630436D01*
X158915766Y-80620000D01*
X158915763Y-80620000D01*
X158844237Y-80620000D01*
X158844233Y-80620000D01*
X158771645Y-80630436D01*
X158702487Y-80620492D01*
X158649684Y-80574736D01*
X158630000Y-80507698D01*
X158630000Y-79841127D01*
X158433671Y-79893734D01*
X158227517Y-79989865D01*
X158041179Y-80120342D01*
X157880342Y-80281179D01*
X157749865Y-80467517D01*
X157722382Y-80526457D01*
X157676210Y-80578896D01*
X157609016Y-80598048D01*
X157542135Y-80577832D01*
X157497618Y-80526457D01*
X157470134Y-80467517D01*
X157339657Y-80281179D01*
X157178820Y-80120342D01*
X156992482Y-79989865D01*
X156786328Y-79893734D01*
X156590000Y-79841127D01*
X156590000Y-80507698D01*
X156570315Y-80574737D01*
X156517511Y-80620492D01*
X156448355Y-80630436D01*
X156375766Y-80620000D01*
X156375763Y-80620000D01*
X156304237Y-80620000D01*
X156304233Y-80620000D01*
X156231645Y-80630436D01*
X156162487Y-80620492D01*
X156109684Y-80574736D01*
X156090000Y-80507698D01*
X156090000Y-79841127D01*
X155893671Y-79893734D01*
X155687517Y-79989865D01*
X155501179Y-80120342D01*
X155340342Y-80281179D01*
X155209867Y-80467515D01*
X155182657Y-80525867D01*
X155136484Y-80578306D01*
X155069290Y-80597457D01*
X155002409Y-80577241D01*
X154957893Y-80525865D01*
X154957617Y-80525274D01*
X154930568Y-80467266D01*
X154800047Y-80280861D01*
X154800045Y-80280858D01*
X154639141Y-80119954D01*
X154452734Y-79989432D01*
X154452732Y-79989431D01*
X154246497Y-79893261D01*
X154246488Y-79893258D01*
X154026697Y-79834366D01*
X154026693Y-79834365D01*
X154026692Y-79834365D01*
X154026691Y-79834364D01*
X154026686Y-79834364D01*
X153800002Y-79814532D01*
X153799998Y-79814532D01*
X153573313Y-79834364D01*
X153573302Y-79834366D01*
X153353511Y-79893258D01*
X153353502Y-79893261D01*
X153147267Y-79989431D01*
X153147265Y-79989432D01*
X152960858Y-80119954D01*
X152799954Y-80280858D01*
X152669432Y-80467265D01*
X152669431Y-80467267D01*
X152657390Y-80493090D01*
X152643729Y-80522387D01*
X152642382Y-80525275D01*
X152596209Y-80577714D01*
X152529016Y-80596866D01*
X152462135Y-80576650D01*
X152417618Y-80525275D01*
X152417618Y-80525274D01*
X152390568Y-80467266D01*
X152260047Y-80280861D01*
X152260045Y-80280858D01*
X152099141Y-80119954D01*
X151912734Y-79989432D01*
X151912732Y-79989431D01*
X151706497Y-79893261D01*
X151706488Y-79893258D01*
X151486697Y-79834366D01*
X151486693Y-79834365D01*
X151486692Y-79834365D01*
X151486691Y-79834364D01*
X151486686Y-79834364D01*
X151260002Y-79814532D01*
X151259998Y-79814532D01*
X151033313Y-79834364D01*
X151033302Y-79834366D01*
X150813511Y-79893258D01*
X150813502Y-79893261D01*
X150607267Y-79989431D01*
X150607265Y-79989432D01*
X150420858Y-80119954D01*
X150259954Y-80280858D01*
X150129432Y-80467265D01*
X150129431Y-80467267D01*
X150117390Y-80493090D01*
X150103729Y-80522387D01*
X150102382Y-80525275D01*
X150056209Y-80577714D01*
X149989016Y-80596866D01*
X149922135Y-80576650D01*
X149877618Y-80525275D01*
X149877618Y-80525274D01*
X149850568Y-80467266D01*
X149720047Y-80280861D01*
X149720045Y-80280858D01*
X149559141Y-80119954D01*
X149372734Y-79989432D01*
X149372732Y-79989431D01*
X149166497Y-79893261D01*
X149166488Y-79893258D01*
X148946697Y-79834366D01*
X148946693Y-79834365D01*
X148946692Y-79834365D01*
X148946691Y-79834364D01*
X148946686Y-79834364D01*
X148720002Y-79814532D01*
X148719998Y-79814532D01*
X148493313Y-79834364D01*
X148493302Y-79834366D01*
X148273511Y-79893258D01*
X148273502Y-79893261D01*
X148067267Y-79989431D01*
X148067265Y-79989432D01*
X147880858Y-80119954D01*
X147719954Y-80280858D01*
X147589432Y-80467265D01*
X147589431Y-80467267D01*
X147577390Y-80493090D01*
X147563729Y-80522387D01*
X147562382Y-80525275D01*
X147516209Y-80577714D01*
X147449016Y-80596866D01*
X147382135Y-80576650D01*
X147337618Y-80525275D01*
X147337618Y-80525274D01*
X147310568Y-80467266D01*
X147180047Y-80280861D01*
X147180045Y-80280858D01*
X147019141Y-80119954D01*
X146832734Y-79989432D01*
X146832732Y-79989431D01*
X146626497Y-79893261D01*
X146626488Y-79893258D01*
X146406697Y-79834366D01*
X146406693Y-79834365D01*
X146406692Y-79834365D01*
X146406691Y-79834364D01*
X146406686Y-79834364D01*
X146180002Y-79814532D01*
X146179998Y-79814532D01*
X145953313Y-79834364D01*
X145953302Y-79834366D01*
X145733511Y-79893258D01*
X145733502Y-79893261D01*
X145527267Y-79989431D01*
X145527265Y-79989432D01*
X145340858Y-80119954D01*
X145179954Y-80280858D01*
X145162725Y-80305464D01*
X145108147Y-80349088D01*
X145038648Y-80356280D01*
X144976294Y-80324757D01*
X144940882Y-80264526D01*
X144937861Y-80247591D01*
X144934091Y-80212516D01*
X144883797Y-80077671D01*
X144883793Y-80077664D01*
X144797547Y-79962455D01*
X144797544Y-79962452D01*
X144682335Y-79876206D01*
X144682328Y-79876202D01*
X144547482Y-79825908D01*
X144547483Y-79825908D01*
X144487883Y-79819501D01*
X144487881Y-79819500D01*
X144487873Y-79819500D01*
X144487864Y-79819500D01*
X142792129Y-79819500D01*
X142792123Y-79819501D01*
X142732516Y-79825908D01*
X142597671Y-79876202D01*
X142597664Y-79876206D01*
X142482455Y-79962452D01*
X142482452Y-79962455D01*
X142396206Y-80077664D01*
X142396202Y-80077671D01*
X142345908Y-80212517D01*
X142339501Y-80272116D01*
X142339500Y-80272135D01*
X142339500Y-81967870D01*
X131017578Y-81967870D01*
X131020045Y-81964475D01*
X131023410Y-81961881D01*
X131027965Y-81954448D01*
X131029994Y-81948239D01*
X131035878Y-81936692D01*
X131038220Y-81932508D01*
X131089293Y-81849166D01*
X131126698Y-81758859D01*
X131128707Y-81754504D01*
X131134586Y-81742966D01*
X131137505Y-81739875D01*
X131140846Y-81731810D01*
X131141880Y-81725356D01*
X131145883Y-81713035D01*
X131147539Y-81708546D01*
X131184947Y-81618236D01*
X131207759Y-81523215D01*
X131209068Y-81518575D01*
X131213071Y-81506253D01*
X131215472Y-81502743D01*
X131217505Y-81494272D01*
X131217517Y-81487735D01*
X131219549Y-81474911D01*
X131220477Y-81470243D01*
X131243299Y-81375186D01*
X131250967Y-81277745D01*
X131251533Y-81272967D01*
X131255053Y-81250746D01*
X131255053Y-81250738D01*
X131256084Y-81244230D01*
X131255287Y-81238788D01*
X131255668Y-81219368D01*
X131255844Y-81215777D01*
X131262910Y-81126000D01*
X131255844Y-81036226D01*
X131255668Y-81032628D01*
X131255287Y-81013210D01*
X131256336Y-81009360D01*
X131255053Y-81001259D01*
X131255053Y-81001254D01*
X131251534Y-80979041D01*
X131250967Y-80974248D01*
X131243299Y-80876814D01*
X131220485Y-80781789D01*
X131219545Y-80777064D01*
X131217520Y-80764281D01*
X131218066Y-80760058D01*
X131216030Y-80751578D01*
X131213071Y-80745744D01*
X131209069Y-80733427D01*
X131207754Y-80728762D01*
X131194175Y-80672204D01*
X131184949Y-80633769D01*
X131184942Y-80633752D01*
X131147550Y-80543481D01*
X131145882Y-80538962D01*
X131141877Y-80526635D01*
X131141756Y-80522387D01*
X131138417Y-80514326D01*
X131134582Y-80509026D01*
X131128713Y-80497507D01*
X131126681Y-80493098D01*
X131089293Y-80402834D01*
X131038228Y-80319504D01*
X131035874Y-80315299D01*
X131029992Y-80303756D01*
X131029208Y-80299577D01*
X131024660Y-80292155D01*
X131020038Y-80287515D01*
X131012432Y-80277045D01*
X131009739Y-80273014D01*
X130958691Y-80189711D01*
X130895242Y-80115422D01*
X130892238Y-80111613D01*
X130884619Y-80101126D01*
X130883190Y-80097122D01*
X130877537Y-80090503D01*
X130872254Y-80086650D01*
X130863111Y-80077507D01*
X130859805Y-80073931D01*
X130859801Y-80073926D01*
X130796357Y-79999643D01*
X130722072Y-79936197D01*
X130722071Y-79936196D01*
X130718495Y-79932891D01*
X130709348Y-79923743D01*
X130707309Y-79920009D01*
X130700686Y-79914352D01*
X130694864Y-79911372D01*
X130684391Y-79903763D01*
X130680569Y-79900749D01*
X130623846Y-79852304D01*
X130606289Y-79837309D01*
X130606287Y-79837307D01*
X130606285Y-79837306D01*
X130606283Y-79837305D01*
X130522988Y-79786261D01*
X130518943Y-79783559D01*
X130513211Y-79779395D01*
X130508487Y-79775963D01*
X130505886Y-79772591D01*
X130498453Y-79768036D01*
X130492239Y-79766004D01*
X130480713Y-79760132D01*
X130476466Y-79757753D01*
X130454927Y-79744554D01*
X130393166Y-79706706D01*
X130302902Y-79669318D01*
X130298484Y-79667282D01*
X130292533Y-79664250D01*
X130286977Y-79661419D01*
X130283881Y-79658496D01*
X130275809Y-79655152D01*
X130269352Y-79654118D01*
X130257066Y-79650126D01*
X130252506Y-79648444D01*
X130228517Y-79638507D01*
X130162241Y-79611054D01*
X130162238Y-79611053D01*
X130067235Y-79588244D01*
X130062548Y-79586922D01*
X130050248Y-79582925D01*
X130046738Y-79580525D01*
X130038277Y-79578494D01*
X130031737Y-79578482D01*
X130030205Y-79578239D01*
X130018960Y-79576458D01*
X130014193Y-79575510D01*
X129919190Y-79552702D01*
X129919186Y-79552701D01*
X129889627Y-79550374D01*
X129821773Y-79545033D01*
X129816940Y-79544461D01*
X129804193Y-79542442D01*
X129800348Y-79540619D01*
X129791652Y-79539935D01*
X129785192Y-79540947D01*
X129772275Y-79540947D01*
X129767409Y-79540756D01*
X129670000Y-79533090D01*
X129572591Y-79540756D01*
X129567725Y-79540947D01*
X129554806Y-79540947D01*
X129550722Y-79539747D01*
X129542040Y-79540431D01*
X129535819Y-79542440D01*
X129530407Y-79543297D01*
X129523056Y-79544461D01*
X129518226Y-79545033D01*
X129420811Y-79552701D01*
X129420809Y-79552702D01*
X129325804Y-79575511D01*
X129321029Y-79576460D01*
X129308271Y-79578481D01*
X129304050Y-79577935D01*
X129295578Y-79579968D01*
X129289753Y-79582924D01*
X129277451Y-79586922D01*
X129272762Y-79588245D01*
X129177766Y-79611052D01*
X129177752Y-79611057D01*
X129087504Y-79648439D01*
X129082934Y-79650125D01*
X129070638Y-79654119D01*
X129066390Y-79654240D01*
X129058326Y-79657580D01*
X129053026Y-79661417D01*
X129041518Y-79667280D01*
X129037098Y-79669317D01*
X128946841Y-79706703D01*
X128946839Y-79706704D01*
X128863529Y-79757755D01*
X128859281Y-79760134D01*
X128847763Y-79766002D01*
X128843583Y-79766786D01*
X128836149Y-79771342D01*
X128831515Y-79775960D01*
X128821060Y-79783555D01*
X128817014Y-79786258D01*
X128752314Y-79825909D01*
X128733711Y-79837309D01*
X128733708Y-79837310D01*
X128733707Y-79837312D01*
X128733702Y-79837315D01*
X128659429Y-79900750D01*
X128655605Y-79903765D01*
X128645130Y-79911376D01*
X128641123Y-79912805D01*
X128634501Y-79918461D01*
X128630651Y-79923742D01*
X128621502Y-79932892D01*
X128617926Y-79936197D01*
X128543642Y-79999642D01*
X128480197Y-80073926D01*
X128476892Y-80077502D01*
X128467742Y-80086651D01*
X128464009Y-80088689D01*
X128458354Y-80095309D01*
X128455376Y-80101130D01*
X128447765Y-80111605D01*
X128444750Y-80115429D01*
X128381315Y-80189702D01*
X128381312Y-80189707D01*
X128381309Y-80189711D01*
X128373028Y-80203224D01*
X128330258Y-80273014D01*
X128327555Y-80277060D01*
X128319960Y-80287515D01*
X128316589Y-80290114D01*
X128312034Y-80297548D01*
X128310004Y-80303759D01*
X128304136Y-80315278D01*
X128301755Y-80319529D01*
X128250709Y-80402829D01*
X128250703Y-80402841D01*
X128213317Y-80493098D01*
X128211280Y-80497518D01*
X128205417Y-80509026D01*
X128202494Y-80512120D01*
X128199152Y-80520188D01*
X128198119Y-80526638D01*
X128194125Y-80538934D01*
X128192439Y-80543504D01*
X128155057Y-80633752D01*
X128155052Y-80633766D01*
X128132245Y-80728762D01*
X128130922Y-80733451D01*
X128126924Y-80745753D01*
X128124525Y-80749260D01*
X128122492Y-80757730D01*
X128122481Y-80764271D01*
X128120461Y-80777026D01*
X128119511Y-80781804D01*
X128096702Y-80876809D01*
X128096701Y-80876812D01*
X128089033Y-80974230D01*
X128088460Y-80979065D01*
X128086441Y-80991812D01*
X128084618Y-80995656D01*
X128083934Y-81004347D01*
X128084946Y-81010806D01*
X128084946Y-81023737D01*
X128084755Y-81028603D01*
X128077112Y-81125720D01*
X128077090Y-81126000D01*
X127130500Y-81126000D01*
X127130500Y-76045999D01*
X180177090Y-76045999D01*
X180184756Y-76143408D01*
X180184947Y-76148274D01*
X180184947Y-76161191D01*
X180183747Y-76165274D01*
X180184432Y-76173971D01*
X180186442Y-76180193D01*
X180188461Y-76192940D01*
X180189033Y-76197773D01*
X180194374Y-76265627D01*
X180196701Y-76295186D01*
X180196702Y-76295189D01*
X180196702Y-76295190D01*
X180219510Y-76390194D01*
X180220457Y-76394955D01*
X180222481Y-76407726D01*
X180221935Y-76411949D01*
X180223969Y-76420423D01*
X180226925Y-76426248D01*
X180230922Y-76438548D01*
X180232244Y-76443235D01*
X180255053Y-76538238D01*
X180255054Y-76538241D01*
X180292441Y-76628498D01*
X180294126Y-76633066D01*
X180298118Y-76645352D01*
X180298239Y-76649605D01*
X180301584Y-76657679D01*
X180305420Y-76662978D01*
X180311282Y-76674484D01*
X180313318Y-76678902D01*
X180350706Y-76769166D01*
X180401750Y-76852460D01*
X180404132Y-76856713D01*
X180410004Y-76868239D01*
X180410788Y-76872417D01*
X180415343Y-76879851D01*
X180419962Y-76884485D01*
X180427556Y-76894939D01*
X180430260Y-76898985D01*
X180481305Y-76982284D01*
X180481306Y-76982285D01*
X180544749Y-77056569D01*
X180547763Y-77060391D01*
X180555372Y-77070864D01*
X180556801Y-77074870D01*
X180562463Y-77081499D01*
X180567743Y-77085348D01*
X180576891Y-77094495D01*
X180580196Y-77098071D01*
X180580197Y-77098072D01*
X180643643Y-77172357D01*
X180717926Y-77235801D01*
X180717931Y-77235805D01*
X180721507Y-77239111D01*
X180730650Y-77248254D01*
X180732688Y-77251987D01*
X180739312Y-77257644D01*
X180745125Y-77260618D01*
X180755607Y-77268234D01*
X180759404Y-77271226D01*
X180833711Y-77334691D01*
X180917014Y-77385739D01*
X180921045Y-77388432D01*
X180931515Y-77396038D01*
X180934114Y-77399409D01*
X180941545Y-77403963D01*
X180947755Y-77405992D01*
X180959293Y-77411871D01*
X180963502Y-77414227D01*
X181046834Y-77465293D01*
X181137114Y-77502688D01*
X181141507Y-77504713D01*
X181153024Y-77510581D01*
X181156118Y-77513503D01*
X181164190Y-77516846D01*
X181170638Y-77517878D01*
X181182953Y-77521880D01*
X181187481Y-77523551D01*
X181264196Y-77555327D01*
X181277769Y-77560949D01*
X181316204Y-77570175D01*
X181372781Y-77583758D01*
X181377427Y-77585069D01*
X181389744Y-77589071D01*
X181393255Y-77591472D01*
X181401730Y-77593507D01*
X181408264Y-77593517D01*
X181421068Y-77595545D01*
X181425794Y-77596486D01*
X181520814Y-77619299D01*
X181618245Y-77626966D01*
X181623044Y-77627535D01*
X181635823Y-77629559D01*
X181639666Y-77631381D01*
X181648348Y-77632064D01*
X181654809Y-77631053D01*
X181667725Y-77631053D01*
X181672591Y-77631244D01*
X181682438Y-77632018D01*
X181770000Y-77638910D01*
X181857561Y-77632018D01*
X181867409Y-77631244D01*
X181872275Y-77631053D01*
X181885190Y-77631053D01*
X181889273Y-77632252D01*
X181897958Y-77631568D01*
X181904178Y-77629559D01*
X181916970Y-77627533D01*
X181921745Y-77626967D01*
X182019186Y-77619299D01*
X182114238Y-77596478D01*
X182118921Y-77595547D01*
X182131729Y-77593518D01*
X182135947Y-77594064D01*
X182144425Y-77592028D01*
X182150252Y-77589072D01*
X182162575Y-77585068D01*
X182167215Y-77583759D01*
X182262236Y-77560947D01*
X182352534Y-77523544D01*
X182357050Y-77521878D01*
X182369348Y-77517882D01*
X182373601Y-77517761D01*
X182381672Y-77514418D01*
X182386962Y-77510588D01*
X182398504Y-77504707D01*
X182402859Y-77502698D01*
X182493166Y-77465293D01*
X182576508Y-77414220D01*
X182580692Y-77411878D01*
X182592237Y-77405995D01*
X182596414Y-77405211D01*
X182603849Y-77400655D01*
X182608475Y-77396046D01*
X182609655Y-77395187D01*
X182618965Y-77388423D01*
X182622970Y-77385748D01*
X182706289Y-77334691D01*
X182780603Y-77271219D01*
X182784375Y-77268247D01*
X182794870Y-77260621D01*
X182798873Y-77259193D01*
X182805499Y-77253534D01*
X182809347Y-77248256D01*
X182818509Y-77239094D01*
X182822048Y-77235822D01*
X182896357Y-77172357D01*
X182959822Y-77098048D01*
X182963094Y-77094509D01*
X182972255Y-77085348D01*
X182975986Y-77083311D01*
X182981649Y-77076681D01*
X182984627Y-77070861D01*
X182992244Y-77060378D01*
X182995208Y-77056616D01*
X183058691Y-76982289D01*
X183109748Y-76898970D01*
X183112423Y-76894965D01*
X183119187Y-76885655D01*
X183120046Y-76884475D01*
X183123410Y-76881881D01*
X183127965Y-76874448D01*
X183129994Y-76868239D01*
X183135878Y-76856692D01*
X183138220Y-76852508D01*
X183189293Y-76769166D01*
X183226698Y-76678859D01*
X183228707Y-76674504D01*
X183234586Y-76662966D01*
X183237505Y-76659875D01*
X183240846Y-76651810D01*
X183241880Y-76645356D01*
X183245883Y-76633035D01*
X183247539Y-76628546D01*
X183284947Y-76538236D01*
X183307759Y-76443215D01*
X183309068Y-76438575D01*
X183313071Y-76426253D01*
X183315472Y-76422743D01*
X183317505Y-76414272D01*
X183317517Y-76407735D01*
X183319549Y-76394911D01*
X183320477Y-76390243D01*
X183343299Y-76295186D01*
X183350967Y-76197745D01*
X183351533Y-76192967D01*
X183355053Y-76170746D01*
X183355053Y-76170738D01*
X183356084Y-76164230D01*
X183355287Y-76158788D01*
X183355668Y-76139368D01*
X183355844Y-76135777D01*
X183362910Y-76046000D01*
X183355844Y-75956226D01*
X183355668Y-75952628D01*
X183355287Y-75933210D01*
X183356336Y-75929360D01*
X183355053Y-75921259D01*
X183355053Y-75921254D01*
X183351534Y-75899041D01*
X183350967Y-75894248D01*
X183343299Y-75796814D01*
X183320485Y-75701789D01*
X183319545Y-75697064D01*
X183317520Y-75684281D01*
X183318066Y-75680058D01*
X183316030Y-75671578D01*
X183313071Y-75665744D01*
X183309069Y-75653427D01*
X183307754Y-75648762D01*
X183294175Y-75592204D01*
X183284949Y-75553769D01*
X183284942Y-75553752D01*
X183247550Y-75463481D01*
X183245882Y-75458962D01*
X183241877Y-75446635D01*
X183241756Y-75442387D01*
X183238417Y-75434326D01*
X183234582Y-75429026D01*
X183228713Y-75417507D01*
X183226681Y-75413098D01*
X183189293Y-75322834D01*
X183138228Y-75239504D01*
X183135874Y-75235299D01*
X183129992Y-75223756D01*
X183129208Y-75219577D01*
X183124660Y-75212155D01*
X183120038Y-75207515D01*
X183112432Y-75197045D01*
X183109739Y-75193014D01*
X183058691Y-75109711D01*
X182995242Y-75035422D01*
X182992238Y-75031613D01*
X182984619Y-75021126D01*
X182983190Y-75017122D01*
X182977537Y-75010503D01*
X182972254Y-75006650D01*
X182963111Y-74997507D01*
X182959805Y-74993931D01*
X182959801Y-74993926D01*
X182896357Y-74919643D01*
X182822072Y-74856197D01*
X182822071Y-74856196D01*
X182818495Y-74852891D01*
X182809348Y-74843743D01*
X182807309Y-74840009D01*
X182800686Y-74834352D01*
X182794864Y-74831372D01*
X182784391Y-74823763D01*
X182780569Y-74820749D01*
X182723846Y-74772304D01*
X182706289Y-74757309D01*
X182706287Y-74757307D01*
X182706285Y-74757306D01*
X182706283Y-74757305D01*
X182622988Y-74706261D01*
X182618943Y-74703559D01*
X182613211Y-74699395D01*
X182608487Y-74695963D01*
X182605886Y-74692591D01*
X182598453Y-74688036D01*
X182592239Y-74686004D01*
X182580713Y-74680132D01*
X182576466Y-74677753D01*
X182554927Y-74664554D01*
X182493166Y-74626706D01*
X182402902Y-74589318D01*
X182398484Y-74587282D01*
X182392533Y-74584250D01*
X182386977Y-74581419D01*
X182383881Y-74578496D01*
X182375809Y-74575152D01*
X182369352Y-74574118D01*
X182357066Y-74570126D01*
X182352506Y-74568444D01*
X182328517Y-74558507D01*
X182262241Y-74531054D01*
X182262238Y-74531053D01*
X182167235Y-74508244D01*
X182162548Y-74506922D01*
X182150248Y-74502925D01*
X182146738Y-74500525D01*
X182138277Y-74498494D01*
X182131737Y-74498482D01*
X182130205Y-74498239D01*
X182118960Y-74496458D01*
X182114193Y-74495510D01*
X182019190Y-74472702D01*
X182019186Y-74472701D01*
X181989627Y-74470374D01*
X181921773Y-74465033D01*
X181916940Y-74464461D01*
X181904193Y-74462442D01*
X181900348Y-74460619D01*
X181891652Y-74459935D01*
X181885192Y-74460947D01*
X181872275Y-74460947D01*
X181867409Y-74460756D01*
X181770000Y-74453090D01*
X181672591Y-74460756D01*
X181667725Y-74460947D01*
X181654806Y-74460947D01*
X181650722Y-74459747D01*
X181642040Y-74460431D01*
X181635819Y-74462440D01*
X181630407Y-74463297D01*
X181623056Y-74464461D01*
X181618226Y-74465033D01*
X181520811Y-74472701D01*
X181520809Y-74472702D01*
X181425804Y-74495511D01*
X181421029Y-74496460D01*
X181408271Y-74498481D01*
X181404050Y-74497935D01*
X181395578Y-74499968D01*
X181389753Y-74502924D01*
X181377451Y-74506922D01*
X181372762Y-74508245D01*
X181277766Y-74531052D01*
X181277752Y-74531057D01*
X181187504Y-74568439D01*
X181182934Y-74570125D01*
X181170638Y-74574119D01*
X181166390Y-74574240D01*
X181158326Y-74577580D01*
X181153026Y-74581417D01*
X181141518Y-74587280D01*
X181137098Y-74589317D01*
X181046841Y-74626703D01*
X181046839Y-74626704D01*
X180963529Y-74677755D01*
X180959281Y-74680134D01*
X180947763Y-74686002D01*
X180943583Y-74686786D01*
X180936149Y-74691342D01*
X180931515Y-74695960D01*
X180921060Y-74703555D01*
X180917014Y-74706258D01*
X180847224Y-74749028D01*
X180833711Y-74757309D01*
X180833708Y-74757310D01*
X180833707Y-74757312D01*
X180833702Y-74757315D01*
X180759429Y-74820750D01*
X180755605Y-74823765D01*
X180745130Y-74831376D01*
X180741123Y-74832805D01*
X180734501Y-74838461D01*
X180730651Y-74843742D01*
X180721502Y-74852892D01*
X180717926Y-74856197D01*
X180643642Y-74919642D01*
X180580197Y-74993926D01*
X180576892Y-74997502D01*
X180567742Y-75006651D01*
X180564009Y-75008689D01*
X180558354Y-75015309D01*
X180555376Y-75021130D01*
X180547765Y-75031605D01*
X180544750Y-75035429D01*
X180481315Y-75109702D01*
X180481312Y-75109707D01*
X180481309Y-75109711D01*
X180473028Y-75123224D01*
X180430258Y-75193014D01*
X180427555Y-75197060D01*
X180419960Y-75207515D01*
X180416589Y-75210114D01*
X180412034Y-75217548D01*
X180410004Y-75223759D01*
X180404136Y-75235278D01*
X180401755Y-75239529D01*
X180350709Y-75322829D01*
X180350703Y-75322841D01*
X180313317Y-75413098D01*
X180311280Y-75417518D01*
X180305417Y-75429026D01*
X180302494Y-75432120D01*
X180299152Y-75440188D01*
X180298119Y-75446638D01*
X180294125Y-75458934D01*
X180292439Y-75463504D01*
X180255057Y-75553752D01*
X180255052Y-75553766D01*
X180232245Y-75648762D01*
X180230922Y-75653451D01*
X180226924Y-75665753D01*
X180224525Y-75669260D01*
X180222492Y-75677730D01*
X180222481Y-75684271D01*
X180220461Y-75697026D01*
X180219511Y-75701804D01*
X180196702Y-75796809D01*
X180196701Y-75796812D01*
X180189032Y-75894232D01*
X180188460Y-75899069D01*
X180186441Y-75911814D01*
X180184619Y-75915656D01*
X180183935Y-75924345D01*
X180184947Y-75930806D01*
X180184947Y-75943725D01*
X180184756Y-75948591D01*
X180177090Y-76045999D01*
X127130500Y-76045999D01*
X127130500Y-66000002D01*
X148195034Y-66000002D01*
X148214858Y-66226599D01*
X148214860Y-66226610D01*
X148273730Y-66446317D01*
X148273734Y-66446326D01*
X148369865Y-66652481D01*
X148369866Y-66652483D01*
X148420973Y-66725471D01*
X148420973Y-66725472D01*
X148962580Y-66183865D01*
X149023903Y-66150380D01*
X149093594Y-66155364D01*
X149149528Y-66197235D01*
X149160742Y-66215246D01*
X149166527Y-66226599D01*
X149172358Y-66238044D01*
X149172363Y-66238050D01*
X149261949Y-66327636D01*
X149261951Y-66327637D01*
X149261955Y-66327641D01*
X149284747Y-66339254D01*
X149335542Y-66387228D01*
X149352337Y-66455049D01*
X149329799Y-66521184D01*
X149316132Y-66537419D01*
X148774526Y-67079025D01*
X148774526Y-67079026D01*
X148847512Y-67130131D01*
X148847516Y-67130133D01*
X149053673Y-67226265D01*
X149053682Y-67226269D01*
X149273389Y-67285139D01*
X149273400Y-67285141D01*
X149499998Y-67304966D01*
X149500002Y-67304966D01*
X149726599Y-67285141D01*
X149726610Y-67285139D01*
X149946317Y-67226269D01*
X149946331Y-67226264D01*
X150152478Y-67130136D01*
X150225472Y-67079025D01*
X149683866Y-66537419D01*
X149650381Y-66476096D01*
X149655365Y-66406404D01*
X149697237Y-66350471D01*
X149715245Y-66339258D01*
X149738045Y-66327641D01*
X149827641Y-66238045D01*
X149839254Y-66215252D01*
X149887225Y-66164458D01*
X149955046Y-66147661D01*
X150021181Y-66170197D01*
X150037419Y-66183866D01*
X150579025Y-66725472D01*
X150630136Y-66652478D01*
X150726264Y-66446331D01*
X150726269Y-66446317D01*
X150785139Y-66226610D01*
X150785141Y-66226599D01*
X150804966Y-66000002D01*
X150804966Y-66000001D01*
X153194532Y-66000001D01*
X153214364Y-66226686D01*
X153214366Y-66226697D01*
X153273258Y-66446488D01*
X153273261Y-66446497D01*
X153369431Y-66652732D01*
X153369432Y-66652734D01*
X153499954Y-66839141D01*
X153660858Y-67000045D01*
X153660861Y-67000047D01*
X153847266Y-67130568D01*
X154053504Y-67226739D01*
X154273308Y-67285635D01*
X154435230Y-67299801D01*
X154499998Y-67305468D01*
X154500000Y-67305468D01*
X154500002Y-67305468D01*
X154556673Y-67300509D01*
X154726692Y-67285635D01*
X154946496Y-67226739D01*
X155152734Y-67130568D01*
X155339139Y-67000047D01*
X155391316Y-66947870D01*
X164059500Y-66947870D01*
X164059501Y-66947876D01*
X164065908Y-67007483D01*
X164116202Y-67142328D01*
X164116206Y-67142335D01*
X164202452Y-67257544D01*
X164202455Y-67257547D01*
X164317664Y-67343793D01*
X164317671Y-67343797D01*
X164452517Y-67394091D01*
X164452516Y-67394091D01*
X164459444Y-67394835D01*
X164512127Y-67400500D01*
X166407872Y-67400499D01*
X166467483Y-67394091D01*
X166602331Y-67343796D01*
X166717546Y-67257546D01*
X166803796Y-67142331D01*
X166808184Y-67130567D01*
X166832455Y-67065493D01*
X166874326Y-67009559D01*
X166939790Y-66985141D01*
X167008063Y-66999992D01*
X167039866Y-67024843D01*
X167047302Y-67032920D01*
X167048215Y-67033912D01*
X167048222Y-67033918D01*
X167231365Y-67176464D01*
X167231376Y-67176471D01*
X167309517Y-67218759D01*
X167359108Y-67267978D01*
X167374500Y-67327814D01*
X167374500Y-68349255D01*
X167372775Y-68364872D01*
X167373061Y-68364899D01*
X167372326Y-68372665D01*
X167374500Y-68441814D01*
X167374500Y-68471343D01*
X167374501Y-68471360D01*
X167375368Y-68478231D01*
X167375826Y-68484050D01*
X167377290Y-68530624D01*
X167377291Y-68530627D01*
X167382880Y-68549867D01*
X167386824Y-68568911D01*
X167389336Y-68588791D01*
X167406490Y-68632119D01*
X167408382Y-68637647D01*
X167421381Y-68682388D01*
X167431580Y-68699634D01*
X167440138Y-68717103D01*
X167447514Y-68735732D01*
X167474898Y-68773423D01*
X167478106Y-68778307D01*
X167501827Y-68818416D01*
X167501833Y-68818424D01*
X167515990Y-68832580D01*
X167528628Y-68847376D01*
X167540405Y-68863586D01*
X167540406Y-68863587D01*
X167576309Y-68893288D01*
X167580620Y-68897210D01*
X168678006Y-69994597D01*
X168917197Y-70233788D01*
X168927022Y-70246051D01*
X168927243Y-70245869D01*
X168932214Y-70251878D01*
X168958217Y-70276295D01*
X168982635Y-70299226D01*
X169003529Y-70320120D01*
X169009011Y-70324373D01*
X169013443Y-70328157D01*
X169047418Y-70360062D01*
X169064976Y-70369714D01*
X169081233Y-70380393D01*
X169097064Y-70392673D01*
X169116737Y-70401186D01*
X169139833Y-70411182D01*
X169145077Y-70413750D01*
X169185908Y-70436197D01*
X169198523Y-70439435D01*
X169205305Y-70441177D01*
X169223719Y-70447481D01*
X169242104Y-70455438D01*
X169288157Y-70462732D01*
X169293826Y-70463906D01*
X169338981Y-70475500D01*
X169359016Y-70475500D01*
X169378413Y-70477026D01*
X169398196Y-70480160D01*
X169444583Y-70475775D01*
X169450422Y-70475500D01*
X172663548Y-70475500D01*
X172730587Y-70495185D01*
X172751229Y-70511819D01*
X173489197Y-71249788D01*
X173499022Y-71262051D01*
X173499243Y-71261869D01*
X173504214Y-71267878D01*
X173530217Y-71292295D01*
X173554635Y-71315226D01*
X173575529Y-71336120D01*
X173581011Y-71340373D01*
X173585443Y-71344157D01*
X173619418Y-71376062D01*
X173636976Y-71385714D01*
X173653233Y-71396393D01*
X173669064Y-71408673D01*
X173688737Y-71417186D01*
X173711833Y-71427182D01*
X173717077Y-71429750D01*
X173757908Y-71452197D01*
X173770523Y-71455435D01*
X173777305Y-71457177D01*
X173795719Y-71463481D01*
X173814104Y-71471438D01*
X173860157Y-71478732D01*
X173865826Y-71479906D01*
X173910981Y-71491500D01*
X173931016Y-71491500D01*
X173950413Y-71493026D01*
X173970196Y-71496160D01*
X174016583Y-71491775D01*
X174022422Y-71491500D01*
X176270773Y-71491500D01*
X176337812Y-71511185D01*
X176372348Y-71544377D01*
X176507501Y-71737396D01*
X176507506Y-71737402D01*
X176674597Y-71904493D01*
X176674603Y-71904498D01*
X176860594Y-72034730D01*
X176904219Y-72089307D01*
X176911413Y-72158805D01*
X176879890Y-72221160D01*
X176860595Y-72237880D01*
X176674922Y-72367890D01*
X176674920Y-72367891D01*
X176507891Y-72534920D01*
X176507886Y-72534926D01*
X176372400Y-72728420D01*
X176372399Y-72728422D01*
X176272570Y-72942507D01*
X176272567Y-72942513D01*
X176215364Y-73155999D01*
X176215364Y-73156000D01*
X176932653Y-73156000D01*
X176999692Y-73175685D01*
X177045447Y-73228489D01*
X177055391Y-73297647D01*
X177051631Y-73314933D01*
X177046000Y-73334111D01*
X177046000Y-73477888D01*
X177051631Y-73497067D01*
X177051630Y-73566936D01*
X177013855Y-73625714D01*
X176950299Y-73654738D01*
X176932653Y-73656000D01*
X176215364Y-73656000D01*
X176272567Y-73869486D01*
X176272570Y-73869492D01*
X176372399Y-74083578D01*
X176507894Y-74277082D01*
X176674917Y-74444105D01*
X176868421Y-74579600D01*
X177082507Y-74679429D01*
X177082516Y-74679433D01*
X177296000Y-74736634D01*
X177296000Y-74018301D01*
X177315685Y-73951262D01*
X177368489Y-73905507D01*
X177437647Y-73895563D01*
X177510237Y-73906000D01*
X177510238Y-73906000D01*
X177581762Y-73906000D01*
X177581763Y-73906000D01*
X177654353Y-73895563D01*
X177723512Y-73905507D01*
X177776315Y-73951262D01*
X177796000Y-74018301D01*
X177796000Y-74736633D01*
X178009483Y-74679433D01*
X178009492Y-74679429D01*
X178223578Y-74579600D01*
X178417082Y-74444105D01*
X178584105Y-74277082D01*
X178719600Y-74083578D01*
X178819429Y-73869492D01*
X178819432Y-73869486D01*
X178876636Y-73656000D01*
X178159347Y-73656000D01*
X178092308Y-73636315D01*
X178046553Y-73583511D01*
X178036609Y-73514353D01*
X178040369Y-73497067D01*
X178046000Y-73477888D01*
X178046000Y-73334111D01*
X178040369Y-73314933D01*
X178040370Y-73245064D01*
X178078145Y-73186286D01*
X178141701Y-73157262D01*
X178159347Y-73156000D01*
X178876636Y-73156000D01*
X178876635Y-73155999D01*
X178819432Y-72942513D01*
X178819429Y-72942507D01*
X178719600Y-72728422D01*
X178719599Y-72728420D01*
X178584113Y-72534926D01*
X178584108Y-72534920D01*
X178417078Y-72367890D01*
X178231405Y-72237879D01*
X178187780Y-72183302D01*
X178180588Y-72113804D01*
X178212110Y-72051449D01*
X178231406Y-72034730D01*
X178417401Y-71904495D01*
X178584495Y-71737401D01*
X178720035Y-71543830D01*
X178819903Y-71329663D01*
X178881063Y-71101408D01*
X178901659Y-70866000D01*
X178881063Y-70630592D01*
X178819903Y-70402337D01*
X178720035Y-70188171D01*
X178719652Y-70187623D01*
X178584494Y-69994597D01*
X178417402Y-69827506D01*
X178417396Y-69827501D01*
X178231842Y-69697575D01*
X178188217Y-69642998D01*
X178181023Y-69573500D01*
X178212546Y-69511145D01*
X178231842Y-69494425D01*
X178272134Y-69466212D01*
X178417401Y-69364495D01*
X178584495Y-69197401D01*
X178720035Y-69003830D01*
X178819903Y-68789663D01*
X178881063Y-68561408D01*
X178901659Y-68326000D01*
X178881063Y-68090592D01*
X178819903Y-67862337D01*
X178720035Y-67648171D01*
X178584495Y-67454599D01*
X178462567Y-67332671D01*
X178429084Y-67271351D01*
X178434068Y-67201659D01*
X178475939Y-67145725D01*
X178506915Y-67128810D01*
X178638331Y-67079796D01*
X178753546Y-66993546D01*
X178839796Y-66878331D01*
X178890091Y-66743483D01*
X178896500Y-66683873D01*
X178896499Y-64888128D01*
X178890091Y-64828517D01*
X178888231Y-64823531D01*
X178839797Y-64693671D01*
X178839793Y-64693664D01*
X178753547Y-64578455D01*
X178753544Y-64578452D01*
X178638335Y-64492206D01*
X178638328Y-64492202D01*
X178503482Y-64441908D01*
X178503483Y-64441908D01*
X178443883Y-64435501D01*
X178443881Y-64435500D01*
X178443873Y-64435500D01*
X178443864Y-64435500D01*
X176648129Y-64435500D01*
X176648123Y-64435501D01*
X176588516Y-64441908D01*
X176453671Y-64492202D01*
X176453664Y-64492206D01*
X176338455Y-64578452D01*
X176338452Y-64578455D01*
X176252206Y-64693664D01*
X176252202Y-64693671D01*
X176201908Y-64828517D01*
X176197640Y-64868220D01*
X176195501Y-64888123D01*
X176195500Y-64888135D01*
X176195500Y-66683870D01*
X176195501Y-66683876D01*
X176201908Y-66743483D01*
X176252202Y-66878328D01*
X176252206Y-66878335D01*
X176338452Y-66993544D01*
X176338455Y-66993547D01*
X176453664Y-67079793D01*
X176453671Y-67079797D01*
X176585081Y-67128810D01*
X176641015Y-67170681D01*
X176665432Y-67236145D01*
X176650580Y-67304418D01*
X176629430Y-67332673D01*
X176507503Y-67454600D01*
X176371965Y-67648169D01*
X176371964Y-67648171D01*
X176272098Y-67862335D01*
X176272094Y-67862344D01*
X176210938Y-68090586D01*
X176210936Y-68090596D01*
X176190341Y-68325999D01*
X176190341Y-68326000D01*
X176210936Y-68561403D01*
X176210938Y-68561413D01*
X176272094Y-68789655D01*
X176272096Y-68789659D01*
X176272097Y-68789663D01*
X176371965Y-69003830D01*
X176371967Y-69003834D01*
X176507501Y-69197395D01*
X176507506Y-69197402D01*
X176674597Y-69364493D01*
X176674603Y-69364498D01*
X176860158Y-69494425D01*
X176903783Y-69549002D01*
X176910977Y-69618500D01*
X176879454Y-69680855D01*
X176860158Y-69697575D01*
X176674597Y-69827505D01*
X176507505Y-69994597D01*
X176372348Y-70187623D01*
X176317771Y-70231248D01*
X176270773Y-70240500D01*
X174300452Y-70240500D01*
X174233413Y-70220815D01*
X174212771Y-70204181D01*
X173474803Y-69466212D01*
X173464980Y-69453950D01*
X173464759Y-69454134D01*
X173459786Y-69448123D01*
X173409364Y-69400773D01*
X173398919Y-69390328D01*
X173388475Y-69379883D01*
X173382986Y-69375625D01*
X173378561Y-69371847D01*
X173344582Y-69339938D01*
X173344580Y-69339936D01*
X173344577Y-69339935D01*
X173327029Y-69330288D01*
X173310763Y-69319604D01*
X173294933Y-69307325D01*
X173252168Y-69288818D01*
X173246922Y-69286248D01*
X173206093Y-69263803D01*
X173206092Y-69263802D01*
X173186693Y-69258822D01*
X173168281Y-69252518D01*
X173149898Y-69244562D01*
X173149892Y-69244560D01*
X173103874Y-69237272D01*
X173098152Y-69236087D01*
X173053021Y-69224500D01*
X173053019Y-69224500D01*
X173032984Y-69224500D01*
X173013586Y-69222973D01*
X173006162Y-69221797D01*
X172993805Y-69219840D01*
X172993804Y-69219840D01*
X172947416Y-69224225D01*
X172941578Y-69224500D01*
X169728452Y-69224500D01*
X169661413Y-69204815D01*
X169640771Y-69188181D01*
X168661819Y-68209228D01*
X168628334Y-68147905D01*
X168625500Y-68121547D01*
X168625500Y-67327814D01*
X168645185Y-67260775D01*
X168690483Y-67218759D01*
X168699200Y-67214041D01*
X168768626Y-67176470D01*
X168951784Y-67033913D01*
X169108979Y-66863153D01*
X169235924Y-66668849D01*
X169329157Y-66456300D01*
X169386134Y-66231305D01*
X169386516Y-66226697D01*
X169405300Y-66000006D01*
X169405300Y-65999993D01*
X169386135Y-65768702D01*
X169386133Y-65768691D01*
X169329157Y-65543699D01*
X169235924Y-65331151D01*
X169108983Y-65136852D01*
X169108980Y-65136849D01*
X169108979Y-65136847D01*
X168951784Y-64966087D01*
X168951779Y-64966083D01*
X168951777Y-64966081D01*
X168768634Y-64823535D01*
X168768628Y-64823531D01*
X168564504Y-64713064D01*
X168564495Y-64713061D01*
X168344984Y-64637702D01*
X168154450Y-64605908D01*
X168116049Y-64599500D01*
X167883951Y-64599500D01*
X167845550Y-64605908D01*
X167655015Y-64637702D01*
X167435504Y-64713061D01*
X167435495Y-64713064D01*
X167231371Y-64823531D01*
X167231365Y-64823535D01*
X167048222Y-64966081D01*
X167048218Y-64966085D01*
X167039866Y-64975158D01*
X166979979Y-65011148D01*
X166910141Y-65009047D01*
X166852525Y-64969522D01*
X166832455Y-64934507D01*
X166803797Y-64857671D01*
X166803793Y-64857664D01*
X166717547Y-64742455D01*
X166717544Y-64742452D01*
X166602335Y-64656206D01*
X166602328Y-64656202D01*
X166467482Y-64605908D01*
X166467483Y-64605908D01*
X166407883Y-64599501D01*
X166407881Y-64599500D01*
X166407873Y-64599500D01*
X166407864Y-64599500D01*
X164512129Y-64599500D01*
X164512123Y-64599501D01*
X164452516Y-64605908D01*
X164317671Y-64656202D01*
X164317664Y-64656206D01*
X164202455Y-64742452D01*
X164202452Y-64742455D01*
X164116206Y-64857664D01*
X164116202Y-64857671D01*
X164065908Y-64992517D01*
X164059501Y-65052116D01*
X164059500Y-65052135D01*
X164059500Y-66947870D01*
X155391316Y-66947870D01*
X155500047Y-66839139D01*
X155630568Y-66652734D01*
X155726739Y-66446496D01*
X155785635Y-66226692D01*
X155802634Y-66032384D01*
X155805468Y-66000001D01*
X155805468Y-65999998D01*
X155790577Y-65829800D01*
X155785635Y-65773308D01*
X155726739Y-65553504D01*
X155630568Y-65347266D01*
X155500047Y-65160861D01*
X155500045Y-65160858D01*
X155339141Y-64999954D01*
X155152734Y-64869432D01*
X155152732Y-64869431D01*
X154946497Y-64773261D01*
X154946488Y-64773258D01*
X154726697Y-64714366D01*
X154726693Y-64714365D01*
X154726692Y-64714365D01*
X154726691Y-64714364D01*
X154726686Y-64714364D01*
X154500002Y-64694532D01*
X154499998Y-64694532D01*
X154273313Y-64714364D01*
X154273302Y-64714366D01*
X154053511Y-64773258D01*
X154053502Y-64773261D01*
X153847267Y-64869431D01*
X153847265Y-64869432D01*
X153660858Y-64999954D01*
X153499954Y-65160858D01*
X153369432Y-65347265D01*
X153369431Y-65347267D01*
X153273261Y-65553502D01*
X153273258Y-65553511D01*
X153214366Y-65773302D01*
X153214364Y-65773313D01*
X153194532Y-65999998D01*
X153194532Y-66000001D01*
X150804966Y-66000001D01*
X150804966Y-65999997D01*
X150785141Y-65773400D01*
X150785139Y-65773389D01*
X150726269Y-65553682D01*
X150726265Y-65553673D01*
X150630133Y-65347516D01*
X150630131Y-65347512D01*
X150579026Y-65274526D01*
X150579025Y-65274526D01*
X150037419Y-65816132D01*
X149976096Y-65849617D01*
X149906404Y-65844633D01*
X149850471Y-65802761D01*
X149839256Y-65784751D01*
X149827641Y-65761955D01*
X149827637Y-65761951D01*
X149827636Y-65761949D01*
X149738050Y-65672363D01*
X149738044Y-65672358D01*
X149728109Y-65667296D01*
X149715250Y-65660744D01*
X149664456Y-65612773D01*
X149647660Y-65544952D01*
X149670197Y-65478817D01*
X149683865Y-65462580D01*
X150225472Y-64920973D01*
X150152483Y-64869866D01*
X150152481Y-64869865D01*
X149946326Y-64773734D01*
X149946317Y-64773730D01*
X149726610Y-64714860D01*
X149726599Y-64714858D01*
X149500002Y-64695034D01*
X149499998Y-64695034D01*
X149273400Y-64714858D01*
X149273389Y-64714860D01*
X149053682Y-64773730D01*
X149053673Y-64773734D01*
X148847513Y-64869868D01*
X148774526Y-64920973D01*
X149316133Y-65462580D01*
X149349618Y-65523903D01*
X149344634Y-65593595D01*
X149302762Y-65649528D01*
X149284748Y-65660745D01*
X149261956Y-65672358D01*
X149261949Y-65672363D01*
X149172363Y-65761949D01*
X149172358Y-65761956D01*
X149160745Y-65784748D01*
X149112770Y-65835544D01*
X149044949Y-65852338D01*
X148978814Y-65829800D01*
X148962580Y-65816133D01*
X148420973Y-65274526D01*
X148369868Y-65347513D01*
X148273734Y-65553673D01*
X148273730Y-65553682D01*
X148214860Y-65773389D01*
X148214858Y-65773400D01*
X148195034Y-65999997D01*
X148195034Y-66000002D01*
X127130500Y-66000002D01*
X127130500Y-63305004D01*
X130889953Y-63305004D01*
X130910113Y-63574026D01*
X130910113Y-63574028D01*
X130970142Y-63837033D01*
X130970148Y-63837052D01*
X131068709Y-64088181D01*
X131068708Y-64088181D01*
X131203602Y-64321822D01*
X131257294Y-64389151D01*
X131977331Y-63669114D01*
X132038654Y-63635629D01*
X132108345Y-63640613D01*
X132164279Y-63682485D01*
X132169707Y-63690350D01*
X132190187Y-63722620D01*
X132190188Y-63722621D01*
X132309904Y-63835041D01*
X132313266Y-63837484D01*
X132315264Y-63840074D01*
X132315590Y-63840381D01*
X132315540Y-63840433D01*
X132355934Y-63892812D01*
X132361915Y-63962425D01*
X132329311Y-64024221D01*
X132328065Y-64025485D01*
X131609848Y-64743702D01*
X131792483Y-64868220D01*
X131792485Y-64868221D01*
X132035539Y-64985269D01*
X132035537Y-64985269D01*
X132293337Y-65064790D01*
X132293343Y-65064792D01*
X132560101Y-65104999D01*
X132560110Y-65105000D01*
X132829890Y-65105000D01*
X132829898Y-65104999D01*
X133096656Y-65064792D01*
X133096662Y-65064790D01*
X133354461Y-64985269D01*
X133597521Y-64868218D01*
X133780150Y-64743702D01*
X133058234Y-64021787D01*
X133024749Y-63960464D01*
X133029733Y-63890773D01*
X133071605Y-63834839D01*
X133072953Y-63833844D01*
X133143492Y-63782595D01*
X133229871Y-63678180D01*
X133287768Y-63639074D01*
X133357620Y-63637478D01*
X133413094Y-63669541D01*
X134132703Y-64389151D01*
X134132704Y-64389150D01*
X134186393Y-64321828D01*
X134186400Y-64321817D01*
X134321290Y-64088181D01*
X134419851Y-63837052D01*
X134419857Y-63837033D01*
X134479886Y-63574028D01*
X134479886Y-63574026D01*
X134500047Y-63305004D01*
X134500047Y-63304995D01*
X134479886Y-63035973D01*
X134479886Y-63035971D01*
X134419857Y-62772966D01*
X134419851Y-62772947D01*
X134321290Y-62521818D01*
X134321291Y-62521818D01*
X134186397Y-62288177D01*
X134132704Y-62220847D01*
X133412667Y-62940884D01*
X133351344Y-62974369D01*
X133281652Y-62969385D01*
X133225719Y-62927513D01*
X133220290Y-62919646D01*
X133218771Y-62917252D01*
X133199814Y-62887381D01*
X133135942Y-62827402D01*
X133080097Y-62774960D01*
X133076732Y-62772515D01*
X133074731Y-62769920D01*
X133074410Y-62769619D01*
X133074458Y-62769567D01*
X133034064Y-62717187D01*
X133028082Y-62647574D01*
X133060685Y-62585778D01*
X133061932Y-62584513D01*
X133780150Y-61866296D01*
X133597517Y-61741779D01*
X133597516Y-61741778D01*
X133354460Y-61624730D01*
X133354462Y-61624730D01*
X133096662Y-61545209D01*
X133096656Y-61545207D01*
X132829898Y-61505000D01*
X132560101Y-61505000D01*
X132293343Y-61545207D01*
X132293337Y-61545209D01*
X132035538Y-61624730D01*
X131792485Y-61741778D01*
X131792476Y-61741783D01*
X131609848Y-61866296D01*
X132331765Y-62588212D01*
X132365250Y-62649535D01*
X132360266Y-62719226D01*
X132318394Y-62775160D01*
X132316970Y-62776210D01*
X132246510Y-62827402D01*
X132246508Y-62827405D01*
X132160130Y-62931818D01*
X132102230Y-62970925D01*
X132032378Y-62972521D01*
X131976905Y-62940458D01*
X131257295Y-62220848D01*
X131203600Y-62288180D01*
X131068709Y-62521818D01*
X130970148Y-62772947D01*
X130970142Y-62772966D01*
X130910113Y-63035971D01*
X130910113Y-63035973D01*
X130889953Y-63304995D01*
X130889953Y-63305004D01*
X127130500Y-63305004D01*
X127130500Y-59652870D01*
X130894500Y-59652870D01*
X130894501Y-59652876D01*
X130900908Y-59712483D01*
X130951202Y-59847328D01*
X130951206Y-59847335D01*
X131037452Y-59962544D01*
X131037455Y-59962547D01*
X131152664Y-60048793D01*
X131152671Y-60048797D01*
X131287517Y-60099091D01*
X131287516Y-60099091D01*
X131294444Y-60099835D01*
X131347127Y-60105500D01*
X134042872Y-60105499D01*
X134102483Y-60099091D01*
X134237331Y-60048796D01*
X134352546Y-59962546D01*
X134438796Y-59847331D01*
X134489091Y-59712483D01*
X134495500Y-59652873D01*
X134495500Y-59054499D01*
X134515185Y-58987461D01*
X134567989Y-58941706D01*
X134619500Y-58930500D01*
X134652257Y-58930500D01*
X134667877Y-58932224D01*
X134667904Y-58931939D01*
X134675660Y-58932671D01*
X134675667Y-58932673D01*
X134744814Y-58930500D01*
X134774350Y-58930500D01*
X134781228Y-58929630D01*
X134787041Y-58929172D01*
X134833627Y-58927709D01*
X134852869Y-58922117D01*
X134871912Y-58918174D01*
X134891792Y-58915664D01*
X134935122Y-58898507D01*
X134940646Y-58896617D01*
X134944396Y-58895527D01*
X134985390Y-58883618D01*
X135002629Y-58873422D01*
X135020103Y-58864862D01*
X135038727Y-58857488D01*
X135038727Y-58857487D01*
X135038732Y-58857486D01*
X135076449Y-58830082D01*
X135081305Y-58826892D01*
X135121420Y-58803170D01*
X135135589Y-58788999D01*
X135150379Y-58776368D01*
X135166587Y-58764594D01*
X135196299Y-58728676D01*
X135200212Y-58724376D01*
X145583271Y-48341317D01*
X145644592Y-48307834D01*
X145670950Y-48305000D01*
X146411653Y-48305000D01*
X146478692Y-48324685D01*
X146524447Y-48377489D01*
X146534391Y-48446647D01*
X146530631Y-48463933D01*
X146525000Y-48483111D01*
X146525000Y-48626888D01*
X146530631Y-48646067D01*
X146530630Y-48715936D01*
X146492855Y-48774714D01*
X146429299Y-48803738D01*
X146411653Y-48805000D01*
X145694364Y-48805000D01*
X145751567Y-49018486D01*
X145751570Y-49018492D01*
X145851399Y-49232578D01*
X145986894Y-49426082D01*
X146153917Y-49593105D01*
X146347421Y-49728600D01*
X146561507Y-49828429D01*
X146561516Y-49828433D01*
X146775000Y-49885634D01*
X146775000Y-49167301D01*
X146794685Y-49100262D01*
X146847489Y-49054507D01*
X146916647Y-49044563D01*
X146989237Y-49055000D01*
X146989238Y-49055000D01*
X147060762Y-49055000D01*
X147060763Y-49055000D01*
X147133353Y-49044563D01*
X147202512Y-49054507D01*
X147255315Y-49100262D01*
X147275000Y-49167301D01*
X147275000Y-49885633D01*
X147488483Y-49828433D01*
X147488492Y-49828429D01*
X147702578Y-49728600D01*
X147896082Y-49593105D01*
X148063105Y-49426082D01*
X148198600Y-49232578D01*
X148298429Y-49018492D01*
X148298432Y-49018486D01*
X148355636Y-48805000D01*
X147638347Y-48805000D01*
X147571308Y-48785315D01*
X147525553Y-48732511D01*
X147515609Y-48663353D01*
X147519369Y-48646067D01*
X147525000Y-48626888D01*
X147525000Y-48483111D01*
X147519369Y-48463933D01*
X147519370Y-48394064D01*
X147557145Y-48335286D01*
X147620701Y-48306262D01*
X147638347Y-48305000D01*
X148355636Y-48305000D01*
X148355635Y-48304999D01*
X148298432Y-48091513D01*
X148298429Y-48091507D01*
X148198600Y-47877422D01*
X148198599Y-47877420D01*
X148063113Y-47683926D01*
X148063108Y-47683920D01*
X147896078Y-47516890D01*
X147710405Y-47386879D01*
X147666780Y-47332302D01*
X147659588Y-47262804D01*
X147691110Y-47200449D01*
X147710406Y-47183730D01*
X147725466Y-47173185D01*
X147896401Y-47053495D01*
X148063495Y-46886401D01*
X148199035Y-46692830D01*
X148298903Y-46478663D01*
X148360063Y-46250408D01*
X148380659Y-46015000D01*
X150669341Y-46015000D01*
X150689936Y-46250403D01*
X150689938Y-46250413D01*
X150751094Y-46478655D01*
X150751096Y-46478659D01*
X150751097Y-46478663D01*
X150830675Y-46649318D01*
X150850965Y-46692830D01*
X150850967Y-46692834D01*
X150902382Y-46766261D01*
X150982547Y-46880749D01*
X150986501Y-46886395D01*
X150986506Y-46886402D01*
X151153597Y-47053493D01*
X151153603Y-47053498D01*
X151187342Y-47077122D01*
X151319575Y-47169713D01*
X151339594Y-47183730D01*
X151383219Y-47238307D01*
X151390413Y-47307805D01*
X151358890Y-47370160D01*
X151339595Y-47386880D01*
X151153922Y-47516890D01*
X151153920Y-47516891D01*
X150986891Y-47683920D01*
X150986886Y-47683926D01*
X150851400Y-47877420D01*
X150851399Y-47877422D01*
X150751570Y-48091507D01*
X150751567Y-48091513D01*
X150694364Y-48304999D01*
X150694364Y-48305000D01*
X151411653Y-48305000D01*
X151478692Y-48324685D01*
X151524447Y-48377489D01*
X151534391Y-48446647D01*
X151530631Y-48463933D01*
X151525000Y-48483111D01*
X151525000Y-48626888D01*
X151530631Y-48646067D01*
X151530630Y-48715936D01*
X151492855Y-48774714D01*
X151429299Y-48803738D01*
X151411653Y-48805000D01*
X150694364Y-48805000D01*
X150751567Y-49018486D01*
X150751570Y-49018492D01*
X150851399Y-49232578D01*
X150986894Y-49426082D01*
X151153917Y-49593105D01*
X151347421Y-49728600D01*
X151561507Y-49828429D01*
X151561516Y-49828433D01*
X151775000Y-49885634D01*
X151775000Y-49167301D01*
X151794685Y-49100262D01*
X151847489Y-49054507D01*
X151916647Y-49044563D01*
X151989237Y-49055000D01*
X151989238Y-49055000D01*
X152060762Y-49055000D01*
X152060763Y-49055000D01*
X152133353Y-49044563D01*
X152202512Y-49054507D01*
X152255315Y-49100262D01*
X152275000Y-49167301D01*
X152275000Y-49885633D01*
X152488483Y-49828433D01*
X152488492Y-49828429D01*
X152702578Y-49728600D01*
X152896082Y-49593105D01*
X153063105Y-49426082D01*
X153198600Y-49232578D01*
X153298429Y-49018492D01*
X153298432Y-49018486D01*
X153355636Y-48805000D01*
X152638347Y-48805000D01*
X152571308Y-48785315D01*
X152525553Y-48732511D01*
X152515609Y-48663353D01*
X152519369Y-48646067D01*
X152525000Y-48626888D01*
X152525000Y-48483111D01*
X152519369Y-48463933D01*
X152519370Y-48394064D01*
X152557145Y-48335286D01*
X152620701Y-48306262D01*
X152638347Y-48305000D01*
X153355636Y-48305000D01*
X153355635Y-48304999D01*
X153298432Y-48091513D01*
X153298429Y-48091507D01*
X153198600Y-47877422D01*
X153198599Y-47877420D01*
X153063113Y-47683926D01*
X153063108Y-47683920D01*
X152896078Y-47516890D01*
X152710405Y-47386879D01*
X152666780Y-47332302D01*
X152659588Y-47262804D01*
X152691110Y-47200449D01*
X152710406Y-47183730D01*
X152725466Y-47173185D01*
X152896401Y-47053495D01*
X153063495Y-46886401D01*
X153199035Y-46692830D01*
X153298903Y-46478663D01*
X153360063Y-46250408D01*
X153380659Y-46015000D01*
X155669341Y-46015000D01*
X155689936Y-46250403D01*
X155689938Y-46250413D01*
X155751094Y-46478655D01*
X155751096Y-46478659D01*
X155751097Y-46478663D01*
X155830675Y-46649318D01*
X155850965Y-46692830D01*
X155850967Y-46692834D01*
X155902382Y-46766261D01*
X155982547Y-46880749D01*
X155986501Y-46886395D01*
X155986506Y-46886402D01*
X156153597Y-47053493D01*
X156153603Y-47053498D01*
X156187342Y-47077122D01*
X156319575Y-47169713D01*
X156339594Y-47183730D01*
X156383219Y-47238307D01*
X156390413Y-47307805D01*
X156358890Y-47370160D01*
X156339595Y-47386880D01*
X156153922Y-47516890D01*
X156153920Y-47516891D01*
X155986891Y-47683920D01*
X155986886Y-47683926D01*
X155851400Y-47877420D01*
X155851399Y-47877422D01*
X155751570Y-48091507D01*
X155751567Y-48091513D01*
X155694364Y-48304999D01*
X155694364Y-48305000D01*
X156411653Y-48305000D01*
X156478692Y-48324685D01*
X156524447Y-48377489D01*
X156534391Y-48446647D01*
X156530631Y-48463933D01*
X156525000Y-48483111D01*
X156525000Y-48626888D01*
X156530631Y-48646067D01*
X156530630Y-48715936D01*
X156492855Y-48774714D01*
X156429299Y-48803738D01*
X156411653Y-48805000D01*
X155694364Y-48805000D01*
X155751567Y-49018486D01*
X155751570Y-49018492D01*
X155851399Y-49232578D01*
X155986894Y-49426082D01*
X156153917Y-49593105D01*
X156347421Y-49728600D01*
X156561507Y-49828429D01*
X156561516Y-49828433D01*
X156775000Y-49885634D01*
X156775000Y-49167301D01*
X156794685Y-49100262D01*
X156847489Y-49054507D01*
X156916647Y-49044563D01*
X156989237Y-49055000D01*
X156989238Y-49055000D01*
X157060762Y-49055000D01*
X157060763Y-49055000D01*
X157133353Y-49044563D01*
X157202512Y-49054507D01*
X157255315Y-49100262D01*
X157275000Y-49167301D01*
X157275000Y-49885633D01*
X157488483Y-49828433D01*
X157488492Y-49828429D01*
X157702578Y-49728600D01*
X157896082Y-49593105D01*
X158063105Y-49426082D01*
X158198600Y-49232578D01*
X158298429Y-49018492D01*
X158298432Y-49018486D01*
X158355636Y-48805000D01*
X157638347Y-48805000D01*
X157571308Y-48785315D01*
X157525553Y-48732511D01*
X157515609Y-48663353D01*
X157519369Y-48646067D01*
X157525000Y-48626888D01*
X157525000Y-48483111D01*
X157519369Y-48463933D01*
X157519370Y-48394064D01*
X157557145Y-48335286D01*
X157620701Y-48306262D01*
X157638347Y-48305000D01*
X158355636Y-48305000D01*
X158355635Y-48304999D01*
X158298432Y-48091513D01*
X158298429Y-48091507D01*
X158198600Y-47877422D01*
X158198599Y-47877420D01*
X158063113Y-47683926D01*
X158063108Y-47683920D01*
X157896078Y-47516890D01*
X157710405Y-47386879D01*
X157666780Y-47332302D01*
X157659588Y-47262804D01*
X157691110Y-47200449D01*
X157710406Y-47183730D01*
X157725466Y-47173185D01*
X157896401Y-47053495D01*
X158063495Y-46886401D01*
X158199035Y-46692830D01*
X158298903Y-46478663D01*
X158360063Y-46250408D01*
X158380659Y-46015000D01*
X160669341Y-46015000D01*
X160689936Y-46250403D01*
X160689938Y-46250413D01*
X160751094Y-46478655D01*
X160751096Y-46478659D01*
X160751097Y-46478663D01*
X160830675Y-46649318D01*
X160850965Y-46692830D01*
X160850967Y-46692834D01*
X160902382Y-46766261D01*
X160982547Y-46880749D01*
X160986501Y-46886395D01*
X160986506Y-46886402D01*
X161153597Y-47053493D01*
X161153603Y-47053498D01*
X161187342Y-47077122D01*
X161319575Y-47169713D01*
X161339594Y-47183730D01*
X161383219Y-47238307D01*
X161390413Y-47307805D01*
X161358890Y-47370160D01*
X161339595Y-47386880D01*
X161153922Y-47516890D01*
X161153920Y-47516891D01*
X160986891Y-47683920D01*
X160986886Y-47683926D01*
X160851400Y-47877420D01*
X160851399Y-47877422D01*
X160751570Y-48091507D01*
X160751567Y-48091513D01*
X160694364Y-48304999D01*
X160694364Y-48305000D01*
X161411653Y-48305000D01*
X161478692Y-48324685D01*
X161524447Y-48377489D01*
X161534391Y-48446647D01*
X161530631Y-48463933D01*
X161525000Y-48483111D01*
X161525000Y-48626888D01*
X161530631Y-48646067D01*
X161530630Y-48715936D01*
X161492855Y-48774714D01*
X161429299Y-48803738D01*
X161411653Y-48805000D01*
X160694364Y-48805000D01*
X160751567Y-49018486D01*
X160751570Y-49018492D01*
X160851399Y-49232578D01*
X160986894Y-49426082D01*
X161153917Y-49593105D01*
X161347421Y-49728600D01*
X161561507Y-49828429D01*
X161561516Y-49828433D01*
X161775000Y-49885634D01*
X161775000Y-49167301D01*
X161794685Y-49100262D01*
X161847489Y-49054507D01*
X161916647Y-49044563D01*
X161989237Y-49055000D01*
X161989238Y-49055000D01*
X162060762Y-49055000D01*
X162060763Y-49055000D01*
X162133353Y-49044563D01*
X162202512Y-49054507D01*
X162255315Y-49100262D01*
X162275000Y-49167301D01*
X162275000Y-49885633D01*
X162488483Y-49828433D01*
X162488492Y-49828429D01*
X162702578Y-49728600D01*
X162896082Y-49593105D01*
X163063105Y-49426082D01*
X163198600Y-49232578D01*
X163298429Y-49018492D01*
X163298432Y-49018486D01*
X163355636Y-48805000D01*
X162638347Y-48805000D01*
X162571308Y-48785315D01*
X162525553Y-48732511D01*
X162515609Y-48663353D01*
X162519369Y-48646067D01*
X162525000Y-48626888D01*
X162525000Y-48483111D01*
X162519369Y-48463933D01*
X162519370Y-48394064D01*
X162557145Y-48335286D01*
X162620701Y-48306262D01*
X162638347Y-48305000D01*
X163355636Y-48305000D01*
X163355635Y-48304999D01*
X163298432Y-48091513D01*
X163298429Y-48091507D01*
X163198600Y-47877422D01*
X163198599Y-47877420D01*
X163063113Y-47683926D01*
X163063108Y-47683920D01*
X162896078Y-47516890D01*
X162710405Y-47386879D01*
X162666780Y-47332302D01*
X162659588Y-47262804D01*
X162691110Y-47200449D01*
X162710406Y-47183730D01*
X162725466Y-47173185D01*
X162896401Y-47053495D01*
X163063495Y-46886401D01*
X163199035Y-46692830D01*
X163298903Y-46478663D01*
X163360063Y-46250408D01*
X163380659Y-46015000D01*
X163379347Y-46000000D01*
X165644341Y-46000000D01*
X165664936Y-46235403D01*
X165664938Y-46235413D01*
X165726094Y-46463655D01*
X165726096Y-46463659D01*
X165726097Y-46463663D01*
X165803720Y-46630125D01*
X165825965Y-46677830D01*
X165825967Y-46677834D01*
X165961501Y-46871395D01*
X165961506Y-46871402D01*
X166128597Y-47038493D01*
X166128603Y-47038498D01*
X166314594Y-47168730D01*
X166358219Y-47223307D01*
X166365413Y-47292805D01*
X166333890Y-47355160D01*
X166314595Y-47371880D01*
X166128922Y-47501890D01*
X166128920Y-47501891D01*
X165961891Y-47668920D01*
X165961886Y-47668926D01*
X165826400Y-47862420D01*
X165826399Y-47862422D01*
X165726570Y-48076507D01*
X165726567Y-48076513D01*
X165669364Y-48289999D01*
X165669364Y-48290000D01*
X166386653Y-48290000D01*
X166453692Y-48309685D01*
X166499447Y-48362489D01*
X166509391Y-48431647D01*
X166505631Y-48448933D01*
X166500000Y-48468111D01*
X166500000Y-48611888D01*
X166505631Y-48631067D01*
X166505630Y-48700936D01*
X166467855Y-48759714D01*
X166404299Y-48788738D01*
X166386653Y-48790000D01*
X165669364Y-48790000D01*
X165726567Y-49003486D01*
X165726570Y-49003492D01*
X165826399Y-49217578D01*
X165961894Y-49411082D01*
X166128917Y-49578105D01*
X166322421Y-49713600D01*
X166536507Y-49813429D01*
X166536516Y-49813433D01*
X166750000Y-49870634D01*
X166750000Y-49152301D01*
X166769685Y-49085262D01*
X166822489Y-49039507D01*
X166891647Y-49029563D01*
X166964237Y-49040000D01*
X166964238Y-49040000D01*
X167035762Y-49040000D01*
X167035763Y-49040000D01*
X167108353Y-49029563D01*
X167177512Y-49039507D01*
X167230315Y-49085262D01*
X167250000Y-49152301D01*
X167250000Y-49870634D01*
X167463483Y-49813433D01*
X167463492Y-49813429D01*
X167677578Y-49713600D01*
X167871082Y-49578105D01*
X168038105Y-49411082D01*
X168173600Y-49217578D01*
X168273429Y-49003492D01*
X168273432Y-49003486D01*
X168330636Y-48790000D01*
X167613347Y-48790000D01*
X167546308Y-48770315D01*
X167500553Y-48717511D01*
X167490609Y-48648353D01*
X167494369Y-48631067D01*
X167500000Y-48611888D01*
X167500000Y-48468111D01*
X167494369Y-48448933D01*
X167494370Y-48379064D01*
X167532145Y-48320286D01*
X167595701Y-48291262D01*
X167613347Y-48290000D01*
X168330636Y-48290000D01*
X168330635Y-48289999D01*
X168273432Y-48076513D01*
X168273429Y-48076507D01*
X168173600Y-47862422D01*
X168173599Y-47862420D01*
X168038113Y-47668926D01*
X168038108Y-47668920D01*
X167871078Y-47501890D01*
X167685405Y-47371879D01*
X167641780Y-47317302D01*
X167634588Y-47247804D01*
X167666110Y-47185449D01*
X167685406Y-47168730D01*
X167871401Y-47038495D01*
X168038495Y-46871401D01*
X168174035Y-46677830D01*
X168273903Y-46463663D01*
X168335063Y-46235408D01*
X168355659Y-46000000D01*
X170644341Y-46000000D01*
X170664936Y-46235403D01*
X170664938Y-46235413D01*
X170726094Y-46463655D01*
X170726096Y-46463659D01*
X170726097Y-46463663D01*
X170803720Y-46630125D01*
X170825965Y-46677830D01*
X170825967Y-46677834D01*
X170961501Y-46871395D01*
X170961506Y-46871402D01*
X171128597Y-47038493D01*
X171128603Y-47038498D01*
X171314594Y-47168730D01*
X171358219Y-47223307D01*
X171365413Y-47292805D01*
X171333890Y-47355160D01*
X171314595Y-47371880D01*
X171128922Y-47501890D01*
X171128920Y-47501891D01*
X170961891Y-47668920D01*
X170961886Y-47668926D01*
X170826400Y-47862420D01*
X170826399Y-47862422D01*
X170726570Y-48076507D01*
X170726567Y-48076513D01*
X170669364Y-48289999D01*
X170669364Y-48290000D01*
X171386653Y-48290000D01*
X171453692Y-48309685D01*
X171499447Y-48362489D01*
X171509391Y-48431647D01*
X171505631Y-48448933D01*
X171500000Y-48468111D01*
X171500000Y-48611888D01*
X171505631Y-48631067D01*
X171505630Y-48700936D01*
X171467855Y-48759714D01*
X171404299Y-48788738D01*
X171386653Y-48790000D01*
X170669364Y-48790000D01*
X170726567Y-49003486D01*
X170726570Y-49003492D01*
X170826399Y-49217578D01*
X170961894Y-49411082D01*
X171128917Y-49578105D01*
X171322421Y-49713600D01*
X171536507Y-49813429D01*
X171536516Y-49813433D01*
X171750000Y-49870634D01*
X171750000Y-49152301D01*
X171769685Y-49085262D01*
X171822489Y-49039507D01*
X171891647Y-49029563D01*
X171964237Y-49040000D01*
X171964238Y-49040000D01*
X172035762Y-49040000D01*
X172035763Y-49040000D01*
X172108353Y-49029563D01*
X172177512Y-49039507D01*
X172230315Y-49085262D01*
X172250000Y-49152301D01*
X172250000Y-49870634D01*
X172463483Y-49813433D01*
X172463492Y-49813429D01*
X172677578Y-49713600D01*
X172871082Y-49578105D01*
X173038105Y-49411082D01*
X173173600Y-49217578D01*
X173273429Y-49003492D01*
X173273432Y-49003486D01*
X173330636Y-48790000D01*
X172613347Y-48790000D01*
X172546308Y-48770315D01*
X172500553Y-48717511D01*
X172490609Y-48648353D01*
X172494369Y-48631067D01*
X172500000Y-48611888D01*
X172500000Y-48468111D01*
X172494369Y-48448933D01*
X172494370Y-48379064D01*
X172532145Y-48320286D01*
X172595701Y-48291262D01*
X172613347Y-48290000D01*
X173330636Y-48290000D01*
X173330635Y-48289999D01*
X173281333Y-48105999D01*
X180177090Y-48105999D01*
X180184756Y-48203408D01*
X180184947Y-48208274D01*
X180184947Y-48221191D01*
X180183747Y-48225274D01*
X180184432Y-48233971D01*
X180186442Y-48240193D01*
X180188461Y-48252940D01*
X180189033Y-48257773D01*
X180192974Y-48307834D01*
X180196701Y-48355186D01*
X180196702Y-48355189D01*
X180196702Y-48355190D01*
X180219510Y-48450194D01*
X180220457Y-48454955D01*
X180221880Y-48463933D01*
X180222481Y-48467726D01*
X180221935Y-48471949D01*
X180223969Y-48480423D01*
X180226925Y-48486248D01*
X180230922Y-48498548D01*
X180232244Y-48503235D01*
X180255053Y-48598238D01*
X180255054Y-48598241D01*
X180292441Y-48688498D01*
X180294126Y-48693066D01*
X180298118Y-48705352D01*
X180298239Y-48709605D01*
X180301584Y-48717679D01*
X180305420Y-48722978D01*
X180311282Y-48734484D01*
X180313318Y-48738902D01*
X180350706Y-48829166D01*
X180401750Y-48912460D01*
X180404132Y-48916713D01*
X180410004Y-48928239D01*
X180410788Y-48932417D01*
X180415343Y-48939851D01*
X180419962Y-48944485D01*
X180427556Y-48954939D01*
X180430260Y-48958985D01*
X180481305Y-49042284D01*
X180481306Y-49042285D01*
X180481307Y-49042286D01*
X180481309Y-49042289D01*
X180492165Y-49055000D01*
X180544749Y-49116569D01*
X180547763Y-49120391D01*
X180555372Y-49130864D01*
X180556801Y-49134870D01*
X180562463Y-49141499D01*
X180567743Y-49145348D01*
X180576891Y-49154495D01*
X180580196Y-49158071D01*
X180604511Y-49186540D01*
X180643643Y-49232357D01*
X180717926Y-49295801D01*
X180717931Y-49295805D01*
X180721507Y-49299111D01*
X180730650Y-49308254D01*
X180732688Y-49311987D01*
X180739312Y-49317644D01*
X180745125Y-49320618D01*
X180755607Y-49328234D01*
X180759404Y-49331226D01*
X180833711Y-49394691D01*
X180917014Y-49445739D01*
X180921045Y-49448432D01*
X180931515Y-49456038D01*
X180934114Y-49459409D01*
X180941545Y-49463963D01*
X180947755Y-49465992D01*
X180959293Y-49471871D01*
X180963502Y-49474227D01*
X181046834Y-49525293D01*
X181137114Y-49562688D01*
X181141507Y-49564713D01*
X181153024Y-49570581D01*
X181156118Y-49573503D01*
X181164190Y-49576846D01*
X181170638Y-49577878D01*
X181182953Y-49581880D01*
X181187481Y-49583551D01*
X181264196Y-49615327D01*
X181277769Y-49620949D01*
X181316204Y-49630175D01*
X181372781Y-49643758D01*
X181377427Y-49645069D01*
X181389744Y-49649071D01*
X181393255Y-49651472D01*
X181401730Y-49653507D01*
X181408264Y-49653517D01*
X181421068Y-49655545D01*
X181425794Y-49656486D01*
X181520814Y-49679299D01*
X181618245Y-49686966D01*
X181623044Y-49687535D01*
X181635823Y-49689559D01*
X181639666Y-49691381D01*
X181648348Y-49692064D01*
X181654809Y-49691053D01*
X181667725Y-49691053D01*
X181672591Y-49691244D01*
X181682438Y-49692018D01*
X181770000Y-49698910D01*
X181857561Y-49692018D01*
X181867409Y-49691244D01*
X181872275Y-49691053D01*
X181885190Y-49691053D01*
X181889273Y-49692252D01*
X181897958Y-49691568D01*
X181904178Y-49689559D01*
X181916970Y-49687533D01*
X181921745Y-49686967D01*
X182019186Y-49679299D01*
X182114238Y-49656478D01*
X182118921Y-49655547D01*
X182131729Y-49653518D01*
X182135947Y-49654064D01*
X182144425Y-49652028D01*
X182150252Y-49649072D01*
X182162575Y-49645068D01*
X182167215Y-49643759D01*
X182262236Y-49620947D01*
X182352534Y-49583544D01*
X182357050Y-49581878D01*
X182369348Y-49577882D01*
X182373601Y-49577761D01*
X182381672Y-49574418D01*
X182386962Y-49570588D01*
X182398504Y-49564707D01*
X182402859Y-49562698D01*
X182493166Y-49525293D01*
X182576508Y-49474220D01*
X182580692Y-49471878D01*
X182592237Y-49465995D01*
X182596414Y-49465211D01*
X182603849Y-49460655D01*
X182608475Y-49456046D01*
X182609655Y-49455187D01*
X182618965Y-49448423D01*
X182622970Y-49445748D01*
X182706289Y-49394691D01*
X182780603Y-49331219D01*
X182784375Y-49328247D01*
X182794870Y-49320621D01*
X182798873Y-49319193D01*
X182805499Y-49313534D01*
X182809347Y-49308256D01*
X182818509Y-49299094D01*
X182822048Y-49295822D01*
X182896357Y-49232357D01*
X182959822Y-49158048D01*
X182963094Y-49154509D01*
X182972255Y-49145348D01*
X182975986Y-49143311D01*
X182981649Y-49136681D01*
X182984627Y-49130861D01*
X182992244Y-49120378D01*
X182995208Y-49116616D01*
X183058691Y-49042289D01*
X183109748Y-48958970D01*
X183112423Y-48954965D01*
X183119187Y-48945655D01*
X183120046Y-48944475D01*
X183123410Y-48941881D01*
X183127965Y-48934448D01*
X183129994Y-48928239D01*
X183135878Y-48916692D01*
X183138220Y-48912508D01*
X183189293Y-48829166D01*
X183226698Y-48738859D01*
X183228707Y-48734504D01*
X183234586Y-48722966D01*
X183237505Y-48719875D01*
X183240846Y-48711810D01*
X183241880Y-48705356D01*
X183245883Y-48693035D01*
X183247539Y-48688546D01*
X183284947Y-48598236D01*
X183307759Y-48503215D01*
X183309068Y-48498575D01*
X183313071Y-48486253D01*
X183315472Y-48482743D01*
X183317505Y-48474272D01*
X183317517Y-48467735D01*
X183319549Y-48454911D01*
X183320477Y-48450243D01*
X183343299Y-48355186D01*
X183350967Y-48257745D01*
X183351533Y-48252967D01*
X183355053Y-48230746D01*
X183355053Y-48230738D01*
X183356084Y-48224230D01*
X183355287Y-48218788D01*
X183355668Y-48199368D01*
X183355844Y-48195777D01*
X183362910Y-48106000D01*
X183355844Y-48016226D01*
X183355668Y-48012628D01*
X183355287Y-47993210D01*
X183356336Y-47989360D01*
X183355053Y-47981259D01*
X183355053Y-47981254D01*
X183351534Y-47959041D01*
X183350967Y-47954248D01*
X183343299Y-47856814D01*
X183320485Y-47761789D01*
X183319545Y-47757064D01*
X183317520Y-47744281D01*
X183318066Y-47740058D01*
X183316030Y-47731578D01*
X183313071Y-47725744D01*
X183309069Y-47713427D01*
X183307754Y-47708762D01*
X183294175Y-47652204D01*
X183284949Y-47613769D01*
X183284942Y-47613752D01*
X183247550Y-47523481D01*
X183245882Y-47518962D01*
X183241877Y-47506635D01*
X183241756Y-47502387D01*
X183238417Y-47494326D01*
X183234582Y-47489026D01*
X183228713Y-47477507D01*
X183226681Y-47473098D01*
X183189293Y-47382834D01*
X183138228Y-47299504D01*
X183135874Y-47295299D01*
X183129992Y-47283756D01*
X183129208Y-47279577D01*
X183124660Y-47272155D01*
X183120038Y-47267515D01*
X183112432Y-47257045D01*
X183109739Y-47253014D01*
X183058691Y-47169711D01*
X182995242Y-47095422D01*
X182992238Y-47091613D01*
X182984619Y-47081126D01*
X182983190Y-47077122D01*
X182977537Y-47070503D01*
X182972254Y-47066650D01*
X182963111Y-47057507D01*
X182959805Y-47053931D01*
X182946624Y-47038498D01*
X182896357Y-46979643D01*
X182822072Y-46916197D01*
X182822071Y-46916196D01*
X182818495Y-46912891D01*
X182809348Y-46903743D01*
X182807309Y-46900009D01*
X182800686Y-46894352D01*
X182794864Y-46891372D01*
X182784391Y-46883763D01*
X182780569Y-46880749D01*
X182723846Y-46832304D01*
X182706289Y-46817309D01*
X182706287Y-46817307D01*
X182706285Y-46817306D01*
X182706283Y-46817305D01*
X182622988Y-46766261D01*
X182618943Y-46763559D01*
X182613211Y-46759395D01*
X182608487Y-46755963D01*
X182605886Y-46752591D01*
X182598453Y-46748036D01*
X182592239Y-46746004D01*
X182580713Y-46740132D01*
X182576466Y-46737753D01*
X182554927Y-46724554D01*
X182493166Y-46686706D01*
X182402902Y-46649318D01*
X182398484Y-46647282D01*
X182392533Y-46644250D01*
X182386977Y-46641419D01*
X182383881Y-46638496D01*
X182375809Y-46635152D01*
X182369352Y-46634118D01*
X182357066Y-46630126D01*
X182352506Y-46628444D01*
X182328517Y-46618507D01*
X182262241Y-46591054D01*
X182262238Y-46591053D01*
X182167235Y-46568244D01*
X182162548Y-46566922D01*
X182150248Y-46562925D01*
X182146738Y-46560525D01*
X182138277Y-46558494D01*
X182131737Y-46558482D01*
X182130205Y-46558239D01*
X182118960Y-46556458D01*
X182114193Y-46555510D01*
X182019190Y-46532702D01*
X182019186Y-46532701D01*
X181989627Y-46530374D01*
X181921773Y-46525033D01*
X181916940Y-46524461D01*
X181904193Y-46522442D01*
X181900348Y-46520619D01*
X181891652Y-46519935D01*
X181885192Y-46520947D01*
X181872275Y-46520947D01*
X181867409Y-46520756D01*
X181770000Y-46513090D01*
X181672591Y-46520756D01*
X181667725Y-46520947D01*
X181654806Y-46520947D01*
X181650722Y-46519747D01*
X181642040Y-46520431D01*
X181635819Y-46522440D01*
X181630407Y-46523297D01*
X181623056Y-46524461D01*
X181618226Y-46525033D01*
X181520811Y-46532701D01*
X181520809Y-46532702D01*
X181425804Y-46555511D01*
X181421029Y-46556460D01*
X181408271Y-46558481D01*
X181404050Y-46557935D01*
X181395578Y-46559968D01*
X181389753Y-46562924D01*
X181377451Y-46566922D01*
X181372762Y-46568245D01*
X181277766Y-46591052D01*
X181277752Y-46591057D01*
X181187504Y-46628439D01*
X181182934Y-46630125D01*
X181170638Y-46634119D01*
X181166390Y-46634240D01*
X181158326Y-46637580D01*
X181153026Y-46641417D01*
X181141518Y-46647280D01*
X181137098Y-46649317D01*
X181046841Y-46686703D01*
X181046839Y-46686704D01*
X180963529Y-46737755D01*
X180959281Y-46740134D01*
X180947763Y-46746002D01*
X180943583Y-46746786D01*
X180936149Y-46751342D01*
X180931515Y-46755960D01*
X180921060Y-46763555D01*
X180917014Y-46766258D01*
X180847224Y-46809028D01*
X180833711Y-46817309D01*
X180833708Y-46817310D01*
X180833707Y-46817312D01*
X180833702Y-46817315D01*
X180759429Y-46880750D01*
X180755605Y-46883765D01*
X180745130Y-46891376D01*
X180741123Y-46892805D01*
X180734501Y-46898461D01*
X180730651Y-46903742D01*
X180721502Y-46912892D01*
X180717926Y-46916197D01*
X180643642Y-46979642D01*
X180580197Y-47053926D01*
X180576892Y-47057502D01*
X180567742Y-47066651D01*
X180564009Y-47068689D01*
X180558354Y-47075309D01*
X180555376Y-47081130D01*
X180547765Y-47091605D01*
X180544750Y-47095429D01*
X180481315Y-47169702D01*
X180481312Y-47169707D01*
X180481309Y-47169711D01*
X180473028Y-47183224D01*
X180430258Y-47253014D01*
X180427555Y-47257060D01*
X180419960Y-47267515D01*
X180416589Y-47270114D01*
X180412034Y-47277548D01*
X180410004Y-47283759D01*
X180404136Y-47295278D01*
X180401755Y-47299529D01*
X180350709Y-47382829D01*
X180350703Y-47382841D01*
X180313317Y-47473098D01*
X180311280Y-47477518D01*
X180305417Y-47489026D01*
X180302494Y-47492120D01*
X180299152Y-47500188D01*
X180298119Y-47506638D01*
X180294125Y-47518934D01*
X180292439Y-47523504D01*
X180255057Y-47613752D01*
X180255052Y-47613766D01*
X180232245Y-47708762D01*
X180230922Y-47713451D01*
X180226924Y-47725753D01*
X180224525Y-47729260D01*
X180222492Y-47737730D01*
X180222481Y-47744271D01*
X180220461Y-47757026D01*
X180219511Y-47761804D01*
X180196702Y-47856809D01*
X180196701Y-47856812D01*
X180189032Y-47954232D01*
X180188460Y-47959069D01*
X180186441Y-47971814D01*
X180184619Y-47975656D01*
X180183935Y-47984345D01*
X180184947Y-47990806D01*
X180184947Y-48003725D01*
X180184756Y-48008591D01*
X180177090Y-48105999D01*
X173281333Y-48105999D01*
X173273432Y-48076513D01*
X173273429Y-48076507D01*
X173173600Y-47862422D01*
X173173599Y-47862420D01*
X173038113Y-47668926D01*
X173038108Y-47668920D01*
X172871078Y-47501890D01*
X172685405Y-47371879D01*
X172641780Y-47317302D01*
X172634588Y-47247804D01*
X172666110Y-47185449D01*
X172685406Y-47168730D01*
X172871401Y-47038495D01*
X173038495Y-46871401D01*
X173174035Y-46677830D01*
X173273903Y-46463663D01*
X173335063Y-46235408D01*
X173355659Y-46000000D01*
X173335063Y-45764592D01*
X173273903Y-45536337D01*
X173174035Y-45322171D01*
X173038495Y-45128599D01*
X172916567Y-45006671D01*
X172883084Y-44945351D01*
X172888068Y-44875659D01*
X172929939Y-44819725D01*
X172960915Y-44802810D01*
X173092331Y-44753796D01*
X173207546Y-44667546D01*
X173293796Y-44552331D01*
X173344091Y-44417483D01*
X173350500Y-44357873D01*
X173350499Y-42562128D01*
X173344091Y-42502517D01*
X173299391Y-42382671D01*
X173293797Y-42367671D01*
X173293793Y-42367664D01*
X173207547Y-42252455D01*
X173207544Y-42252452D01*
X173092335Y-42166206D01*
X173092328Y-42166202D01*
X172957482Y-42115908D01*
X172957483Y-42115908D01*
X172897883Y-42109501D01*
X172897881Y-42109500D01*
X172897873Y-42109500D01*
X172897864Y-42109500D01*
X171102129Y-42109500D01*
X171102123Y-42109501D01*
X171042516Y-42115908D01*
X170907671Y-42166202D01*
X170907664Y-42166206D01*
X170792455Y-42252452D01*
X170792452Y-42252455D01*
X170706206Y-42367664D01*
X170706202Y-42367671D01*
X170655908Y-42502517D01*
X170649501Y-42562116D01*
X170649501Y-42562123D01*
X170649500Y-42562135D01*
X170649500Y-44357870D01*
X170649501Y-44357876D01*
X170655908Y-44417483D01*
X170706202Y-44552328D01*
X170706206Y-44552335D01*
X170792452Y-44667544D01*
X170792455Y-44667547D01*
X170907664Y-44753793D01*
X170907671Y-44753797D01*
X171039081Y-44802810D01*
X171095015Y-44844681D01*
X171119432Y-44910145D01*
X171104580Y-44978418D01*
X171083430Y-45006673D01*
X170961503Y-45128600D01*
X170825965Y-45322169D01*
X170825964Y-45322171D01*
X170726098Y-45536335D01*
X170726094Y-45536344D01*
X170664938Y-45764586D01*
X170664936Y-45764596D01*
X170644341Y-45999999D01*
X170644341Y-46000000D01*
X168355659Y-46000000D01*
X168335063Y-45764592D01*
X168273903Y-45536337D01*
X168174035Y-45322171D01*
X168038495Y-45128599D01*
X167916567Y-45006671D01*
X167883084Y-44945351D01*
X167888068Y-44875659D01*
X167929939Y-44819725D01*
X167960915Y-44802810D01*
X168092331Y-44753796D01*
X168207546Y-44667546D01*
X168293796Y-44552331D01*
X168344091Y-44417483D01*
X168350500Y-44357873D01*
X168350499Y-42562128D01*
X168344091Y-42502517D01*
X168299391Y-42382671D01*
X168293797Y-42367671D01*
X168293793Y-42367664D01*
X168207547Y-42252455D01*
X168207544Y-42252452D01*
X168092335Y-42166206D01*
X168092328Y-42166202D01*
X167957482Y-42115908D01*
X167957483Y-42115908D01*
X167897883Y-42109501D01*
X167897881Y-42109500D01*
X167897873Y-42109500D01*
X167897864Y-42109500D01*
X166102129Y-42109500D01*
X166102123Y-42109501D01*
X166042516Y-42115908D01*
X165907671Y-42166202D01*
X165907664Y-42166206D01*
X165792455Y-42252452D01*
X165792452Y-42252455D01*
X165706206Y-42367664D01*
X165706202Y-42367671D01*
X165655908Y-42502517D01*
X165649501Y-42562116D01*
X165649501Y-42562123D01*
X165649500Y-42562135D01*
X165649500Y-44357870D01*
X165649501Y-44357876D01*
X165655908Y-44417483D01*
X165706202Y-44552328D01*
X165706206Y-44552335D01*
X165792452Y-44667544D01*
X165792455Y-44667547D01*
X165907664Y-44753793D01*
X165907671Y-44753797D01*
X166039081Y-44802810D01*
X166095015Y-44844681D01*
X166119432Y-44910145D01*
X166104580Y-44978418D01*
X166083430Y-45006673D01*
X165961503Y-45128600D01*
X165825965Y-45322169D01*
X165825964Y-45322171D01*
X165726098Y-45536335D01*
X165726094Y-45536344D01*
X165664938Y-45764586D01*
X165664936Y-45764596D01*
X165644341Y-45999999D01*
X165644341Y-46000000D01*
X163379347Y-46000000D01*
X163360063Y-45779592D01*
X163298903Y-45551337D01*
X163199035Y-45337171D01*
X163063495Y-45143599D01*
X162941567Y-45021671D01*
X162908084Y-44960351D01*
X162913068Y-44890659D01*
X162954939Y-44834725D01*
X162985915Y-44817810D01*
X163117331Y-44768796D01*
X163232546Y-44682546D01*
X163318796Y-44567331D01*
X163369091Y-44432483D01*
X163375500Y-44372873D01*
X163375499Y-42577128D01*
X163369091Y-42517517D01*
X163363496Y-42502517D01*
X163318797Y-42382671D01*
X163318793Y-42382664D01*
X163232547Y-42267455D01*
X163232544Y-42267452D01*
X163117335Y-42181206D01*
X163117328Y-42181202D01*
X162982482Y-42130908D01*
X162982483Y-42130908D01*
X162922883Y-42124501D01*
X162922881Y-42124500D01*
X162922873Y-42124500D01*
X162922864Y-42124500D01*
X161127129Y-42124500D01*
X161127123Y-42124501D01*
X161067516Y-42130908D01*
X160932671Y-42181202D01*
X160932664Y-42181206D01*
X160817455Y-42267452D01*
X160817452Y-42267455D01*
X160731206Y-42382664D01*
X160731202Y-42382671D01*
X160680908Y-42517517D01*
X160674501Y-42577116D01*
X160674501Y-42577123D01*
X160674500Y-42577135D01*
X160674500Y-44372870D01*
X160674501Y-44372876D01*
X160680908Y-44432483D01*
X160731202Y-44567328D01*
X160731206Y-44567335D01*
X160817452Y-44682544D01*
X160817455Y-44682547D01*
X160932664Y-44768793D01*
X160932671Y-44768797D01*
X161064081Y-44817810D01*
X161120015Y-44859681D01*
X161144432Y-44925145D01*
X161129580Y-44993418D01*
X161108430Y-45021673D01*
X160986503Y-45143600D01*
X160850965Y-45337169D01*
X160850964Y-45337171D01*
X160751098Y-45551335D01*
X160751094Y-45551344D01*
X160689938Y-45779586D01*
X160689936Y-45779596D01*
X160669341Y-46014999D01*
X160669341Y-46015000D01*
X158380659Y-46015000D01*
X158360063Y-45779592D01*
X158298903Y-45551337D01*
X158199035Y-45337171D01*
X158063495Y-45143599D01*
X157941567Y-45021671D01*
X157908084Y-44960351D01*
X157913068Y-44890659D01*
X157954939Y-44834725D01*
X157985915Y-44817810D01*
X158117331Y-44768796D01*
X158232546Y-44682546D01*
X158318796Y-44567331D01*
X158369091Y-44432483D01*
X158375500Y-44372873D01*
X158375499Y-42577128D01*
X158369091Y-42517517D01*
X158363496Y-42502517D01*
X158318797Y-42382671D01*
X158318793Y-42382664D01*
X158232547Y-42267455D01*
X158232544Y-42267452D01*
X158117335Y-42181206D01*
X158117328Y-42181202D01*
X157982482Y-42130908D01*
X157982483Y-42130908D01*
X157922883Y-42124501D01*
X157922881Y-42124500D01*
X157922873Y-42124500D01*
X157922864Y-42124500D01*
X156127129Y-42124500D01*
X156127123Y-42124501D01*
X156067516Y-42130908D01*
X155932671Y-42181202D01*
X155932664Y-42181206D01*
X155817455Y-42267452D01*
X155817452Y-42267455D01*
X155731206Y-42382664D01*
X155731202Y-42382671D01*
X155680908Y-42517517D01*
X155674501Y-42577116D01*
X155674501Y-42577123D01*
X155674500Y-42577135D01*
X155674500Y-44372870D01*
X155674501Y-44372876D01*
X155680908Y-44432483D01*
X155731202Y-44567328D01*
X155731206Y-44567335D01*
X155817452Y-44682544D01*
X155817455Y-44682547D01*
X155932664Y-44768793D01*
X155932671Y-44768797D01*
X156064081Y-44817810D01*
X156120015Y-44859681D01*
X156144432Y-44925145D01*
X156129580Y-44993418D01*
X156108430Y-45021673D01*
X155986503Y-45143600D01*
X155850965Y-45337169D01*
X155850964Y-45337171D01*
X155751098Y-45551335D01*
X155751094Y-45551344D01*
X155689938Y-45779586D01*
X155689936Y-45779596D01*
X155669341Y-46014999D01*
X155669341Y-46015000D01*
X153380659Y-46015000D01*
X153360063Y-45779592D01*
X153298903Y-45551337D01*
X153199035Y-45337171D01*
X153063495Y-45143599D01*
X152941567Y-45021671D01*
X152908084Y-44960351D01*
X152913068Y-44890659D01*
X152954939Y-44834725D01*
X152985915Y-44817810D01*
X153117331Y-44768796D01*
X153232546Y-44682546D01*
X153318796Y-44567331D01*
X153369091Y-44432483D01*
X153375500Y-44372873D01*
X153375499Y-42577128D01*
X153369091Y-42517517D01*
X153363496Y-42502517D01*
X153318797Y-42382671D01*
X153318793Y-42382664D01*
X153232547Y-42267455D01*
X153232544Y-42267452D01*
X153117335Y-42181206D01*
X153117328Y-42181202D01*
X152982482Y-42130908D01*
X152982483Y-42130908D01*
X152922883Y-42124501D01*
X152922881Y-42124500D01*
X152922873Y-42124500D01*
X152922864Y-42124500D01*
X151127129Y-42124500D01*
X151127123Y-42124501D01*
X151067516Y-42130908D01*
X150932671Y-42181202D01*
X150932664Y-42181206D01*
X150817455Y-42267452D01*
X150817452Y-42267455D01*
X150731206Y-42382664D01*
X150731202Y-42382671D01*
X150680908Y-42517517D01*
X150674501Y-42577116D01*
X150674501Y-42577123D01*
X150674500Y-42577135D01*
X150674500Y-44372870D01*
X150674501Y-44372876D01*
X150680908Y-44432483D01*
X150731202Y-44567328D01*
X150731206Y-44567335D01*
X150817452Y-44682544D01*
X150817455Y-44682547D01*
X150932664Y-44768793D01*
X150932671Y-44768797D01*
X151064081Y-44817810D01*
X151120015Y-44859681D01*
X151144432Y-44925145D01*
X151129580Y-44993418D01*
X151108430Y-45021673D01*
X150986503Y-45143600D01*
X150850965Y-45337169D01*
X150850964Y-45337171D01*
X150751098Y-45551335D01*
X150751094Y-45551344D01*
X150689938Y-45779586D01*
X150689936Y-45779596D01*
X150669341Y-46014999D01*
X150669341Y-46015000D01*
X148380659Y-46015000D01*
X148360063Y-45779592D01*
X148298903Y-45551337D01*
X148199035Y-45337171D01*
X148063495Y-45143599D01*
X147941567Y-45021671D01*
X147908084Y-44960351D01*
X147913068Y-44890659D01*
X147954939Y-44834725D01*
X147985915Y-44817810D01*
X148117331Y-44768796D01*
X148232546Y-44682546D01*
X148318796Y-44567331D01*
X148369091Y-44432483D01*
X148375500Y-44372873D01*
X148375499Y-42577128D01*
X148369091Y-42517517D01*
X148363496Y-42502517D01*
X148318797Y-42382671D01*
X148318793Y-42382664D01*
X148232547Y-42267455D01*
X148232544Y-42267452D01*
X148117335Y-42181206D01*
X148117328Y-42181202D01*
X147982482Y-42130908D01*
X147982483Y-42130908D01*
X147922883Y-42124501D01*
X147922881Y-42124500D01*
X147922873Y-42124500D01*
X147922864Y-42124500D01*
X146127129Y-42124500D01*
X146127123Y-42124501D01*
X146067516Y-42130908D01*
X145932671Y-42181202D01*
X145932664Y-42181206D01*
X145817455Y-42267452D01*
X145817452Y-42267455D01*
X145731206Y-42382664D01*
X145731202Y-42382671D01*
X145680908Y-42517517D01*
X145674501Y-42577116D01*
X145674501Y-42577123D01*
X145674500Y-42577135D01*
X145674500Y-44372870D01*
X145674501Y-44372876D01*
X145680908Y-44432483D01*
X145731202Y-44567328D01*
X145731206Y-44567335D01*
X145817452Y-44682544D01*
X145817455Y-44682547D01*
X145932664Y-44768793D01*
X145932671Y-44768797D01*
X146064081Y-44817810D01*
X146120015Y-44859681D01*
X146144432Y-44925145D01*
X146129580Y-44993418D01*
X146108430Y-45021673D01*
X145986503Y-45143600D01*
X145850965Y-45337169D01*
X145850964Y-45337171D01*
X145751098Y-45551335D01*
X145751094Y-45551344D01*
X145689938Y-45779586D01*
X145689936Y-45779596D01*
X145669341Y-46014999D01*
X145669341Y-46015000D01*
X145689936Y-46250403D01*
X145689938Y-46250413D01*
X145716856Y-46350872D01*
X145715193Y-46420722D01*
X145684762Y-46470646D01*
X134707180Y-57448228D01*
X134645857Y-57481713D01*
X134576165Y-57476729D01*
X134520232Y-57434857D01*
X134495815Y-57369393D01*
X134495499Y-57360547D01*
X134495499Y-56957129D01*
X134495498Y-56957123D01*
X134495497Y-56957116D01*
X134489091Y-56897517D01*
X134438796Y-56762669D01*
X134438795Y-56762668D01*
X134438793Y-56762664D01*
X134352547Y-56647455D01*
X134352544Y-56647452D01*
X134237335Y-56561206D01*
X134237328Y-56561202D01*
X134102482Y-56510908D01*
X134102483Y-56510908D01*
X134042883Y-56504501D01*
X134042881Y-56504500D01*
X134042873Y-56504500D01*
X134042864Y-56504500D01*
X131347129Y-56504500D01*
X131347123Y-56504501D01*
X131287516Y-56510908D01*
X131152671Y-56561202D01*
X131152664Y-56561206D01*
X131037455Y-56647452D01*
X131037452Y-56647455D01*
X130951206Y-56762664D01*
X130951202Y-56762671D01*
X130900908Y-56897517D01*
X130894501Y-56957116D01*
X130894501Y-56957123D01*
X130894500Y-56957135D01*
X130894500Y-59652870D01*
X127130500Y-59652870D01*
X127130500Y-32865999D01*
X129377090Y-32865999D01*
X129384755Y-32963395D01*
X129384946Y-32968261D01*
X129384946Y-32981191D01*
X129383747Y-32985272D01*
X129384431Y-32993967D01*
X129386443Y-33000195D01*
X129388461Y-33012944D01*
X129389033Y-33017775D01*
X129394459Y-33086697D01*
X129396701Y-33115186D01*
X129396702Y-33115189D01*
X129396702Y-33115190D01*
X129419510Y-33210194D01*
X129420457Y-33214955D01*
X129422481Y-33227726D01*
X129421935Y-33231949D01*
X129423969Y-33240423D01*
X129426925Y-33246248D01*
X129430922Y-33258548D01*
X129432244Y-33263235D01*
X129455053Y-33358238D01*
X129455054Y-33358241D01*
X129492441Y-33448498D01*
X129494126Y-33453066D01*
X129498118Y-33465352D01*
X129498239Y-33469605D01*
X129501584Y-33477679D01*
X129505420Y-33482978D01*
X129511282Y-33494484D01*
X129513318Y-33498902D01*
X129550706Y-33589166D01*
X129601750Y-33672460D01*
X129604132Y-33676713D01*
X129610004Y-33688239D01*
X129610788Y-33692417D01*
X129615343Y-33699851D01*
X129619962Y-33704485D01*
X129627556Y-33714939D01*
X129630260Y-33718985D01*
X129681305Y-33802284D01*
X129681306Y-33802285D01*
X129744749Y-33876569D01*
X129747763Y-33880391D01*
X129755372Y-33890864D01*
X129756801Y-33894870D01*
X129762463Y-33901499D01*
X129767743Y-33905348D01*
X129776891Y-33914495D01*
X129780196Y-33918071D01*
X129780197Y-33918072D01*
X129843643Y-33992357D01*
X129917926Y-34055801D01*
X129917931Y-34055805D01*
X129921507Y-34059111D01*
X129930650Y-34068254D01*
X129932688Y-34071987D01*
X129939312Y-34077644D01*
X129945125Y-34080618D01*
X129955607Y-34088234D01*
X129959404Y-34091226D01*
X130033711Y-34154691D01*
X130117014Y-34205739D01*
X130121045Y-34208432D01*
X130131515Y-34216038D01*
X130134114Y-34219409D01*
X130141545Y-34223963D01*
X130147755Y-34225992D01*
X130159293Y-34231871D01*
X130163502Y-34234227D01*
X130246834Y-34285293D01*
X130337114Y-34322688D01*
X130341507Y-34324713D01*
X130353024Y-34330581D01*
X130356118Y-34333503D01*
X130364190Y-34336846D01*
X130370638Y-34337878D01*
X130382953Y-34341880D01*
X130387481Y-34343551D01*
X130464196Y-34375327D01*
X130477769Y-34380949D01*
X130516204Y-34390175D01*
X130572781Y-34403758D01*
X130577427Y-34405069D01*
X130589744Y-34409071D01*
X130593255Y-34411472D01*
X130601730Y-34413507D01*
X130608264Y-34413517D01*
X130621068Y-34415545D01*
X130625794Y-34416486D01*
X130720814Y-34439299D01*
X130818245Y-34446966D01*
X130823044Y-34447535D01*
X130835823Y-34449559D01*
X130839666Y-34451381D01*
X130848348Y-34452064D01*
X130854809Y-34451053D01*
X130867725Y-34451053D01*
X130872591Y-34451244D01*
X130883012Y-34452064D01*
X130970000Y-34458910D01*
X131063291Y-34451568D01*
X131067409Y-34451244D01*
X131072275Y-34451053D01*
X131085190Y-34451053D01*
X131089273Y-34452252D01*
X131097958Y-34451568D01*
X131104178Y-34449559D01*
X131116970Y-34447533D01*
X131121745Y-34446967D01*
X131219186Y-34439299D01*
X131314238Y-34416478D01*
X131318921Y-34415547D01*
X131331729Y-34413518D01*
X131335947Y-34414064D01*
X131344425Y-34412028D01*
X131350252Y-34409072D01*
X131362575Y-34405068D01*
X131367215Y-34403759D01*
X131462236Y-34380947D01*
X131552534Y-34343544D01*
X131557050Y-34341878D01*
X131569348Y-34337882D01*
X131573601Y-34337761D01*
X131581672Y-34334418D01*
X131586962Y-34330588D01*
X131598504Y-34324707D01*
X131602859Y-34322698D01*
X131693166Y-34285293D01*
X131776508Y-34234220D01*
X131780692Y-34231878D01*
X131792237Y-34225995D01*
X131796414Y-34225211D01*
X131803849Y-34220655D01*
X131808475Y-34216046D01*
X131809655Y-34215187D01*
X131818965Y-34208423D01*
X131822970Y-34205748D01*
X131906289Y-34154691D01*
X131980603Y-34091219D01*
X131984375Y-34088247D01*
X131994870Y-34080621D01*
X131998873Y-34079193D01*
X132005499Y-34073534D01*
X132009347Y-34068256D01*
X132018509Y-34059094D01*
X132022048Y-34055822D01*
X132096357Y-33992357D01*
X132159822Y-33918048D01*
X132163094Y-33914509D01*
X132172255Y-33905348D01*
X132175986Y-33903311D01*
X132181645Y-33896685D01*
X132184621Y-33890870D01*
X132192250Y-33880370D01*
X132195214Y-33876610D01*
X132258691Y-33802289D01*
X132309748Y-33718970D01*
X132312423Y-33714965D01*
X132319187Y-33705655D01*
X132320046Y-33704475D01*
X132323410Y-33701881D01*
X132327965Y-33694448D01*
X132329994Y-33688239D01*
X132335878Y-33676692D01*
X132338220Y-33672508D01*
X132389293Y-33589166D01*
X132426698Y-33498859D01*
X132428707Y-33494504D01*
X132434586Y-33482966D01*
X132437505Y-33479875D01*
X132440846Y-33471810D01*
X132441880Y-33465356D01*
X132445883Y-33453035D01*
X132447539Y-33448546D01*
X132484947Y-33358236D01*
X132507759Y-33263215D01*
X132509068Y-33258575D01*
X132513071Y-33246253D01*
X132515472Y-33242743D01*
X132517505Y-33234272D01*
X132517517Y-33227735D01*
X132519549Y-33214911D01*
X132520477Y-33210243D01*
X132543299Y-33115186D01*
X132550967Y-33017745D01*
X132551533Y-33012967D01*
X132555053Y-32990746D01*
X132555053Y-32990738D01*
X132556084Y-32984230D01*
X132555287Y-32978788D01*
X132555668Y-32959368D01*
X132555844Y-32955777D01*
X132562910Y-32866000D01*
X132562438Y-32860001D01*
X133194532Y-32860001D01*
X133214364Y-33086686D01*
X133214366Y-33086697D01*
X133273258Y-33306488D01*
X133273261Y-33306497D01*
X133369431Y-33512732D01*
X133369432Y-33512734D01*
X133499954Y-33699141D01*
X133660858Y-33860045D01*
X133704873Y-33890864D01*
X133847266Y-33990568D01*
X134053504Y-34086739D01*
X134053509Y-34086740D01*
X134053511Y-34086741D01*
X134106415Y-34100916D01*
X134273308Y-34145635D01*
X134435230Y-34159801D01*
X134499998Y-34165468D01*
X134500000Y-34165468D01*
X134500002Y-34165468D01*
X134556673Y-34160509D01*
X134726692Y-34145635D01*
X134946496Y-34086739D01*
X135152734Y-33990568D01*
X135339139Y-33860047D01*
X135500047Y-33699139D01*
X135630568Y-33512734D01*
X135657618Y-33454724D01*
X135703790Y-33402285D01*
X135770983Y-33383133D01*
X135837865Y-33403348D01*
X135882381Y-33454724D01*
X135895551Y-33482966D01*
X135909429Y-33512728D01*
X135909432Y-33512734D01*
X136039954Y-33699141D01*
X136200858Y-33860045D01*
X136244873Y-33890864D01*
X136387266Y-33990568D01*
X136593504Y-34086739D01*
X136593509Y-34086740D01*
X136593511Y-34086741D01*
X136646415Y-34100916D01*
X136813308Y-34145635D01*
X136975230Y-34159801D01*
X137039998Y-34165468D01*
X137040000Y-34165468D01*
X137040002Y-34165468D01*
X137096673Y-34160509D01*
X137266692Y-34145635D01*
X137486496Y-34086739D01*
X137692734Y-33990568D01*
X137879139Y-33860047D01*
X138040047Y-33699139D01*
X138170568Y-33512734D01*
X138197618Y-33454724D01*
X138243790Y-33402285D01*
X138310983Y-33383133D01*
X138377865Y-33403348D01*
X138422381Y-33454724D01*
X138435551Y-33482966D01*
X138449429Y-33512728D01*
X138449432Y-33512734D01*
X138579954Y-33699141D01*
X138740858Y-33860045D01*
X138784873Y-33890864D01*
X138927266Y-33990568D01*
X139133504Y-34086739D01*
X139133509Y-34086740D01*
X139133511Y-34086741D01*
X139186415Y-34100916D01*
X139353308Y-34145635D01*
X139515230Y-34159801D01*
X139579998Y-34165468D01*
X139580000Y-34165468D01*
X139580002Y-34165468D01*
X139636673Y-34160509D01*
X139806692Y-34145635D01*
X140026496Y-34086739D01*
X140232734Y-33990568D01*
X140419139Y-33860047D01*
X140580047Y-33699139D01*
X140710568Y-33512734D01*
X140737895Y-33454129D01*
X140784064Y-33401695D01*
X140851257Y-33382542D01*
X140918139Y-33402757D01*
X140962657Y-33454133D01*
X140989865Y-33512482D01*
X141120342Y-33698820D01*
X141281179Y-33859657D01*
X141467517Y-33990134D01*
X141673673Y-34086265D01*
X141673682Y-34086269D01*
X141869999Y-34138872D01*
X141870000Y-34138871D01*
X141870000Y-33472301D01*
X141889685Y-33405262D01*
X141942489Y-33359507D01*
X142011647Y-33349563D01*
X142084237Y-33360000D01*
X142084238Y-33360000D01*
X142155762Y-33360000D01*
X142155763Y-33360000D01*
X142228353Y-33349563D01*
X142297512Y-33359507D01*
X142350315Y-33405262D01*
X142370000Y-33472301D01*
X142370000Y-34138872D01*
X142566317Y-34086269D01*
X142566326Y-34086265D01*
X142772482Y-33990134D01*
X142958820Y-33859657D01*
X143119657Y-33698820D01*
X143250132Y-33512484D01*
X143277341Y-33454134D01*
X143323513Y-33401695D01*
X143390707Y-33382542D01*
X143457588Y-33402757D01*
X143502105Y-33454132D01*
X143520922Y-33494484D01*
X143529431Y-33512732D01*
X143529432Y-33512734D01*
X143659954Y-33699141D01*
X143820858Y-33860045D01*
X143864873Y-33890864D01*
X144007266Y-33990568D01*
X144213504Y-34086739D01*
X144213509Y-34086740D01*
X144213511Y-34086741D01*
X144266415Y-34100916D01*
X144433308Y-34145635D01*
X144595230Y-34159801D01*
X144659998Y-34165468D01*
X144660000Y-34165468D01*
X144660002Y-34165468D01*
X144716673Y-34160509D01*
X144886692Y-34145635D01*
X145106496Y-34086739D01*
X145312734Y-33990568D01*
X145499139Y-33860047D01*
X145660047Y-33699139D01*
X145790568Y-33512734D01*
X145817618Y-33454724D01*
X145863790Y-33402285D01*
X145930983Y-33383133D01*
X145997865Y-33403348D01*
X146042381Y-33454724D01*
X146055551Y-33482966D01*
X146069429Y-33512728D01*
X146069432Y-33512734D01*
X146199954Y-33699141D01*
X146360858Y-33860045D01*
X146404873Y-33890864D01*
X146547266Y-33990568D01*
X146753504Y-34086739D01*
X146753509Y-34086740D01*
X146753511Y-34086741D01*
X146806415Y-34100916D01*
X146973308Y-34145635D01*
X147135230Y-34159801D01*
X147199998Y-34165468D01*
X147200000Y-34165468D01*
X147200002Y-34165468D01*
X147256673Y-34160509D01*
X147426692Y-34145635D01*
X147646496Y-34086739D01*
X147852734Y-33990568D01*
X148039139Y-33860047D01*
X148200047Y-33699139D01*
X148330568Y-33512734D01*
X148357618Y-33454724D01*
X148403790Y-33402285D01*
X148470983Y-33383133D01*
X148537865Y-33403348D01*
X148582381Y-33454724D01*
X148595551Y-33482966D01*
X148609429Y-33512728D01*
X148609432Y-33512734D01*
X148739954Y-33699141D01*
X148900858Y-33860045D01*
X148944873Y-33890864D01*
X149087266Y-33990568D01*
X149293504Y-34086739D01*
X149293509Y-34086740D01*
X149293511Y-34086741D01*
X149346415Y-34100916D01*
X149513308Y-34145635D01*
X149675230Y-34159801D01*
X149739998Y-34165468D01*
X149740000Y-34165468D01*
X149740002Y-34165468D01*
X149796673Y-34160509D01*
X149966692Y-34145635D01*
X150186496Y-34086739D01*
X150392734Y-33990568D01*
X150579139Y-33860047D01*
X150740047Y-33699139D01*
X150870568Y-33512734D01*
X150897618Y-33454724D01*
X150943790Y-33402285D01*
X151010983Y-33383133D01*
X151077865Y-33403348D01*
X151122381Y-33454724D01*
X151135551Y-33482966D01*
X151149429Y-33512728D01*
X151149432Y-33512734D01*
X151279954Y-33699141D01*
X151440858Y-33860045D01*
X151484873Y-33890864D01*
X151627266Y-33990568D01*
X151833504Y-34086739D01*
X151833509Y-34086740D01*
X151833511Y-34086741D01*
X151886415Y-34100916D01*
X152053308Y-34145635D01*
X152215230Y-34159801D01*
X152279998Y-34165468D01*
X152280000Y-34165468D01*
X152280002Y-34165468D01*
X152336672Y-34160509D01*
X152506692Y-34145635D01*
X152726496Y-34086739D01*
X152932734Y-33990568D01*
X153119139Y-33860047D01*
X153280047Y-33699139D01*
X153410568Y-33512734D01*
X153437618Y-33454724D01*
X153483790Y-33402285D01*
X153550983Y-33383133D01*
X153617865Y-33403348D01*
X153662381Y-33454724D01*
X153675551Y-33482966D01*
X153689429Y-33512728D01*
X153689432Y-33512734D01*
X153819954Y-33699141D01*
X153980858Y-33860045D01*
X154024873Y-33890864D01*
X154167266Y-33990568D01*
X154373504Y-34086739D01*
X154373509Y-34086740D01*
X154373511Y-34086741D01*
X154426415Y-34100916D01*
X154593308Y-34145635D01*
X154755230Y-34159801D01*
X154819998Y-34165468D01*
X154820000Y-34165468D01*
X154820002Y-34165468D01*
X154876673Y-34160509D01*
X155046692Y-34145635D01*
X155266496Y-34086739D01*
X155472734Y-33990568D01*
X155659139Y-33860047D01*
X155820047Y-33699139D01*
X155950568Y-33512734D01*
X155977618Y-33454724D01*
X156023790Y-33402285D01*
X156090983Y-33383133D01*
X156157865Y-33403348D01*
X156202381Y-33454724D01*
X156215551Y-33482966D01*
X156229429Y-33512728D01*
X156229432Y-33512734D01*
X156359954Y-33699141D01*
X156520858Y-33860045D01*
X156564873Y-33890864D01*
X156707266Y-33990568D01*
X156913504Y-34086739D01*
X156913509Y-34086740D01*
X156913511Y-34086741D01*
X156966415Y-34100916D01*
X157133308Y-34145635D01*
X157295230Y-34159801D01*
X157359998Y-34165468D01*
X157360000Y-34165468D01*
X157360002Y-34165468D01*
X157416673Y-34160509D01*
X157586692Y-34145635D01*
X157806496Y-34086739D01*
X158012734Y-33990568D01*
X158199139Y-33860047D01*
X158360047Y-33699139D01*
X158490568Y-33512734D01*
X158586739Y-33306496D01*
X158645635Y-33086692D01*
X158665468Y-32860001D01*
X160114532Y-32860001D01*
X160134364Y-33086686D01*
X160134366Y-33086697D01*
X160193258Y-33306488D01*
X160193261Y-33306497D01*
X160289431Y-33512732D01*
X160289432Y-33512734D01*
X160419954Y-33699141D01*
X160580858Y-33860045D01*
X160624873Y-33890864D01*
X160767266Y-33990568D01*
X160973504Y-34086739D01*
X160973509Y-34086740D01*
X160973511Y-34086741D01*
X161026415Y-34100916D01*
X161193308Y-34145635D01*
X161355230Y-34159801D01*
X161419998Y-34165468D01*
X161420000Y-34165468D01*
X161420002Y-34165468D01*
X161476673Y-34160509D01*
X161646692Y-34145635D01*
X161866496Y-34086739D01*
X162072734Y-33990568D01*
X162259139Y-33860047D01*
X162420047Y-33699139D01*
X162550568Y-33512734D01*
X162577618Y-33454724D01*
X162623790Y-33402285D01*
X162690983Y-33383133D01*
X162757865Y-33403348D01*
X162802381Y-33454724D01*
X162815551Y-33482966D01*
X162829429Y-33512728D01*
X162829432Y-33512734D01*
X162959954Y-33699141D01*
X163120858Y-33860045D01*
X163164873Y-33890864D01*
X163307266Y-33990568D01*
X163513504Y-34086739D01*
X163513509Y-34086740D01*
X163513511Y-34086741D01*
X163566415Y-34100916D01*
X163733308Y-34145635D01*
X163895230Y-34159801D01*
X163959998Y-34165468D01*
X163960000Y-34165468D01*
X163960002Y-34165468D01*
X164016672Y-34160509D01*
X164186692Y-34145635D01*
X164406496Y-34086739D01*
X164612734Y-33990568D01*
X164799139Y-33860047D01*
X164960047Y-33699139D01*
X165090568Y-33512734D01*
X165117618Y-33454724D01*
X165163790Y-33402285D01*
X165230983Y-33383133D01*
X165297865Y-33403348D01*
X165342381Y-33454724D01*
X165355551Y-33482966D01*
X165369429Y-33512728D01*
X165369432Y-33512734D01*
X165499954Y-33699141D01*
X165660858Y-33860045D01*
X165704873Y-33890864D01*
X165847266Y-33990568D01*
X166053504Y-34086739D01*
X166053509Y-34086740D01*
X166053511Y-34086741D01*
X166106415Y-34100916D01*
X166273308Y-34145635D01*
X166435230Y-34159801D01*
X166499998Y-34165468D01*
X166500000Y-34165468D01*
X166500002Y-34165468D01*
X166556673Y-34160509D01*
X166726692Y-34145635D01*
X166946496Y-34086739D01*
X167152734Y-33990568D01*
X167339139Y-33860047D01*
X167500047Y-33699139D01*
X167630568Y-33512734D01*
X167657618Y-33454724D01*
X167703790Y-33402285D01*
X167770983Y-33383133D01*
X167837865Y-33403348D01*
X167882381Y-33454724D01*
X167895551Y-33482966D01*
X167909429Y-33512728D01*
X167909432Y-33512734D01*
X168039954Y-33699141D01*
X168200858Y-33860045D01*
X168244873Y-33890864D01*
X168387266Y-33990568D01*
X168593504Y-34086739D01*
X168593509Y-34086740D01*
X168593511Y-34086741D01*
X168646415Y-34100916D01*
X168813308Y-34145635D01*
X168975230Y-34159801D01*
X169039998Y-34165468D01*
X169040000Y-34165468D01*
X169040002Y-34165468D01*
X169096673Y-34160509D01*
X169266692Y-34145635D01*
X169486496Y-34086739D01*
X169692734Y-33990568D01*
X169879139Y-33860047D01*
X170040047Y-33699139D01*
X170170568Y-33512734D01*
X170197618Y-33454724D01*
X170243790Y-33402285D01*
X170310983Y-33383133D01*
X170377865Y-33403348D01*
X170422381Y-33454724D01*
X170435551Y-33482966D01*
X170449429Y-33512728D01*
X170449432Y-33512734D01*
X170579954Y-33699141D01*
X170740858Y-33860045D01*
X170784873Y-33890864D01*
X170927266Y-33990568D01*
X171133504Y-34086739D01*
X171133509Y-34086740D01*
X171133511Y-34086741D01*
X171186415Y-34100916D01*
X171353308Y-34145635D01*
X171515230Y-34159801D01*
X171579998Y-34165468D01*
X171580000Y-34165468D01*
X171580002Y-34165468D01*
X171636673Y-34160509D01*
X171806692Y-34145635D01*
X172026496Y-34086739D01*
X172232734Y-33990568D01*
X172419139Y-33860047D01*
X172580047Y-33699139D01*
X172710568Y-33512734D01*
X172737618Y-33454724D01*
X172783790Y-33402285D01*
X172850983Y-33383133D01*
X172917865Y-33403348D01*
X172962381Y-33454724D01*
X172975551Y-33482966D01*
X172989429Y-33512728D01*
X172989432Y-33512734D01*
X173119954Y-33699141D01*
X173280858Y-33860045D01*
X173324873Y-33890864D01*
X173467266Y-33990568D01*
X173673504Y-34086739D01*
X173673509Y-34086740D01*
X173673511Y-34086741D01*
X173726415Y-34100916D01*
X173893308Y-34145635D01*
X174055230Y-34159801D01*
X174119998Y-34165468D01*
X174120000Y-34165468D01*
X174120002Y-34165468D01*
X174176672Y-34160509D01*
X174346692Y-34145635D01*
X174566496Y-34086739D01*
X174772734Y-33990568D01*
X174959139Y-33860047D01*
X175120047Y-33699139D01*
X175250568Y-33512734D01*
X175277618Y-33454724D01*
X175323790Y-33402285D01*
X175390983Y-33383133D01*
X175457865Y-33403348D01*
X175502381Y-33454724D01*
X175515551Y-33482966D01*
X175529429Y-33512728D01*
X175529432Y-33512734D01*
X175659954Y-33699141D01*
X175820858Y-33860045D01*
X175864873Y-33890864D01*
X176007266Y-33990568D01*
X176213504Y-34086739D01*
X176213509Y-34086740D01*
X176213511Y-34086741D01*
X176266415Y-34100916D01*
X176433308Y-34145635D01*
X176595230Y-34159801D01*
X176659998Y-34165468D01*
X176660000Y-34165468D01*
X176660002Y-34165468D01*
X176716673Y-34160509D01*
X176886692Y-34145635D01*
X177106496Y-34086739D01*
X177312734Y-33990568D01*
X177499139Y-33860047D01*
X177660047Y-33699139D01*
X177790568Y-33512734D01*
X177817618Y-33454724D01*
X177863790Y-33402285D01*
X177930983Y-33383133D01*
X177997865Y-33403348D01*
X178042381Y-33454724D01*
X178055551Y-33482966D01*
X178069429Y-33512728D01*
X178069432Y-33512734D01*
X178199954Y-33699141D01*
X178360858Y-33860045D01*
X178404873Y-33890864D01*
X178547266Y-33990568D01*
X178753504Y-34086739D01*
X178753509Y-34086740D01*
X178753511Y-34086741D01*
X178806415Y-34100916D01*
X178973308Y-34145635D01*
X179135230Y-34159801D01*
X179199998Y-34165468D01*
X179200000Y-34165468D01*
X179200002Y-34165468D01*
X179256673Y-34160509D01*
X179426692Y-34145635D01*
X179646496Y-34086739D01*
X179852734Y-33990568D01*
X180039139Y-33860047D01*
X180200047Y-33699139D01*
X180330568Y-33512734D01*
X180426739Y-33306496D01*
X180485635Y-33086692D01*
X180505468Y-32860000D01*
X180485635Y-32633308D01*
X180426739Y-32413504D01*
X180330568Y-32207266D01*
X180200047Y-32020861D01*
X180200045Y-32020858D01*
X180039141Y-31859954D01*
X179852734Y-31729432D01*
X179852732Y-31729431D01*
X179646497Y-31633261D01*
X179646488Y-31633258D01*
X179426697Y-31574366D01*
X179426693Y-31574365D01*
X179426692Y-31574365D01*
X179426691Y-31574364D01*
X179426686Y-31574364D01*
X179200002Y-31554532D01*
X179199998Y-31554532D01*
X178973313Y-31574364D01*
X178973302Y-31574366D01*
X178753511Y-31633258D01*
X178753502Y-31633261D01*
X178547267Y-31729431D01*
X178547265Y-31729432D01*
X178360858Y-31859954D01*
X178199954Y-32020858D01*
X178069432Y-32207265D01*
X178069431Y-32207267D01*
X178057390Y-32233090D01*
X178043729Y-32262387D01*
X178042382Y-32265275D01*
X177996209Y-32317714D01*
X177929016Y-32336866D01*
X177862135Y-32316650D01*
X177817618Y-32265275D01*
X177817618Y-32265274D01*
X177790568Y-32207266D01*
X177660047Y-32020861D01*
X177660045Y-32020858D01*
X177499141Y-31859954D01*
X177312734Y-31729432D01*
X177312732Y-31729431D01*
X177106497Y-31633261D01*
X177106488Y-31633258D01*
X176886697Y-31574366D01*
X176886693Y-31574365D01*
X176886692Y-31574365D01*
X176886691Y-31574364D01*
X176886686Y-31574364D01*
X176660002Y-31554532D01*
X176659998Y-31554532D01*
X176433313Y-31574364D01*
X176433302Y-31574366D01*
X176213511Y-31633258D01*
X176213502Y-31633261D01*
X176007267Y-31729431D01*
X176007265Y-31729432D01*
X175820858Y-31859954D01*
X175659954Y-32020858D01*
X175529432Y-32207265D01*
X175529431Y-32207267D01*
X175517390Y-32233090D01*
X175503729Y-32262387D01*
X175502382Y-32265275D01*
X175456209Y-32317714D01*
X175389016Y-32336866D01*
X175322135Y-32316650D01*
X175277618Y-32265275D01*
X175277618Y-32265274D01*
X175250568Y-32207266D01*
X175120047Y-32020861D01*
X175120045Y-32020858D01*
X174959141Y-31859954D01*
X174772734Y-31729432D01*
X174772732Y-31729431D01*
X174566497Y-31633261D01*
X174566488Y-31633258D01*
X174346697Y-31574366D01*
X174346693Y-31574365D01*
X174346692Y-31574365D01*
X174346691Y-31574364D01*
X174346686Y-31574364D01*
X174120002Y-31554532D01*
X174119998Y-31554532D01*
X173893313Y-31574364D01*
X173893302Y-31574366D01*
X173673511Y-31633258D01*
X173673502Y-31633261D01*
X173467267Y-31729431D01*
X173467265Y-31729432D01*
X173280858Y-31859954D01*
X173119954Y-32020858D01*
X172989432Y-32207265D01*
X172989431Y-32207267D01*
X172977390Y-32233090D01*
X172963729Y-32262387D01*
X172962382Y-32265275D01*
X172916209Y-32317714D01*
X172849016Y-32336866D01*
X172782135Y-32316650D01*
X172737618Y-32265275D01*
X172737618Y-32265274D01*
X172710568Y-32207266D01*
X172580047Y-32020861D01*
X172580045Y-32020858D01*
X172419141Y-31859954D01*
X172232734Y-31729432D01*
X172232732Y-31729431D01*
X172026497Y-31633261D01*
X172026488Y-31633258D01*
X171806697Y-31574366D01*
X171806693Y-31574365D01*
X171806692Y-31574365D01*
X171806691Y-31574364D01*
X171806686Y-31574364D01*
X171580002Y-31554532D01*
X171579998Y-31554532D01*
X171353313Y-31574364D01*
X171353302Y-31574366D01*
X171133511Y-31633258D01*
X171133502Y-31633261D01*
X170927267Y-31729431D01*
X170927265Y-31729432D01*
X170740858Y-31859954D01*
X170579954Y-32020858D01*
X170449432Y-32207265D01*
X170449431Y-32207267D01*
X170437390Y-32233090D01*
X170423729Y-32262387D01*
X170422382Y-32265275D01*
X170376209Y-32317714D01*
X170309016Y-32336866D01*
X170242135Y-32316650D01*
X170197618Y-32265275D01*
X170197618Y-32265274D01*
X170170568Y-32207266D01*
X170040047Y-32020861D01*
X170040045Y-32020858D01*
X169879141Y-31859954D01*
X169692734Y-31729432D01*
X169692732Y-31729431D01*
X169486497Y-31633261D01*
X169486488Y-31633258D01*
X169266697Y-31574366D01*
X169266693Y-31574365D01*
X169266692Y-31574365D01*
X169266691Y-31574364D01*
X169266686Y-31574364D01*
X169040002Y-31554532D01*
X169039998Y-31554532D01*
X168813313Y-31574364D01*
X168813302Y-31574366D01*
X168593511Y-31633258D01*
X168593502Y-31633261D01*
X168387267Y-31729431D01*
X168387265Y-31729432D01*
X168200858Y-31859954D01*
X168039954Y-32020858D01*
X167909432Y-32207265D01*
X167909431Y-32207267D01*
X167897390Y-32233090D01*
X167883729Y-32262387D01*
X167882382Y-32265275D01*
X167836209Y-32317714D01*
X167769016Y-32336866D01*
X167702135Y-32316650D01*
X167657618Y-32265275D01*
X167657618Y-32265274D01*
X167630568Y-32207266D01*
X167500047Y-32020861D01*
X167500045Y-32020858D01*
X167339141Y-31859954D01*
X167152734Y-31729432D01*
X167152732Y-31729431D01*
X166946497Y-31633261D01*
X166946488Y-31633258D01*
X166726697Y-31574366D01*
X166726693Y-31574365D01*
X166726692Y-31574365D01*
X166726691Y-31574364D01*
X166726686Y-31574364D01*
X166500002Y-31554532D01*
X166499998Y-31554532D01*
X166273313Y-31574364D01*
X166273302Y-31574366D01*
X166053511Y-31633258D01*
X166053502Y-31633261D01*
X165847267Y-31729431D01*
X165847265Y-31729432D01*
X165660858Y-31859954D01*
X165499954Y-32020858D01*
X165369432Y-32207265D01*
X165369431Y-32207267D01*
X165357390Y-32233090D01*
X165343729Y-32262387D01*
X165342382Y-32265275D01*
X165296209Y-32317714D01*
X165229016Y-32336866D01*
X165162135Y-32316650D01*
X165117618Y-32265275D01*
X165117618Y-32265274D01*
X165090568Y-32207266D01*
X164960047Y-32020861D01*
X164960045Y-32020858D01*
X164799141Y-31859954D01*
X164612734Y-31729432D01*
X164612732Y-31729431D01*
X164406497Y-31633261D01*
X164406488Y-31633258D01*
X164186697Y-31574366D01*
X164186693Y-31574365D01*
X164186692Y-31574365D01*
X164186691Y-31574364D01*
X164186686Y-31574364D01*
X163960002Y-31554532D01*
X163959998Y-31554532D01*
X163733313Y-31574364D01*
X163733302Y-31574366D01*
X163513511Y-31633258D01*
X163513502Y-31633261D01*
X163307267Y-31729431D01*
X163307265Y-31729432D01*
X163120858Y-31859954D01*
X162959954Y-32020858D01*
X162829432Y-32207265D01*
X162829431Y-32207267D01*
X162817390Y-32233090D01*
X162803729Y-32262387D01*
X162802382Y-32265275D01*
X162756209Y-32317714D01*
X162689016Y-32336866D01*
X162622135Y-32316650D01*
X162577618Y-32265275D01*
X162577618Y-32265274D01*
X162550568Y-32207266D01*
X162420047Y-32020861D01*
X162420045Y-32020858D01*
X162259141Y-31859954D01*
X162072734Y-31729432D01*
X162072732Y-31729431D01*
X161866497Y-31633261D01*
X161866488Y-31633258D01*
X161646697Y-31574366D01*
X161646693Y-31574365D01*
X161646692Y-31574365D01*
X161646691Y-31574364D01*
X161646686Y-31574364D01*
X161420002Y-31554532D01*
X161419998Y-31554532D01*
X161193313Y-31574364D01*
X161193302Y-31574366D01*
X160973511Y-31633258D01*
X160973502Y-31633261D01*
X160767267Y-31729431D01*
X160767265Y-31729432D01*
X160580858Y-31859954D01*
X160419954Y-32020858D01*
X160289432Y-32207265D01*
X160289431Y-32207267D01*
X160193261Y-32413502D01*
X160193258Y-32413511D01*
X160134366Y-32633302D01*
X160134364Y-32633313D01*
X160114532Y-32859998D01*
X160114532Y-32860001D01*
X158665468Y-32860001D01*
X158665468Y-32860000D01*
X158645635Y-32633308D01*
X158586739Y-32413504D01*
X158490568Y-32207266D01*
X158360047Y-32020861D01*
X158360045Y-32020858D01*
X158199141Y-31859954D01*
X158012734Y-31729432D01*
X158012732Y-31729431D01*
X157806497Y-31633261D01*
X157806488Y-31633258D01*
X157586697Y-31574366D01*
X157586693Y-31574365D01*
X157586692Y-31574365D01*
X157586691Y-31574364D01*
X157586686Y-31574364D01*
X157360002Y-31554532D01*
X157359998Y-31554532D01*
X157133313Y-31574364D01*
X157133302Y-31574366D01*
X156913511Y-31633258D01*
X156913502Y-31633261D01*
X156707267Y-31729431D01*
X156707265Y-31729432D01*
X156520858Y-31859954D01*
X156359954Y-32020858D01*
X156229432Y-32207265D01*
X156229430Y-32207268D01*
X156202380Y-32265277D01*
X156156207Y-32317715D01*
X156089013Y-32336866D01*
X156022132Y-32316649D01*
X155977619Y-32265277D01*
X155950568Y-32207266D01*
X155847125Y-32059532D01*
X155820045Y-32020858D01*
X155659141Y-31859954D01*
X155472734Y-31729432D01*
X155472732Y-31729431D01*
X155266497Y-31633261D01*
X155266488Y-31633258D01*
X155046697Y-31574366D01*
X155046693Y-31574365D01*
X155046692Y-31574365D01*
X155046691Y-31574364D01*
X155046686Y-31574364D01*
X154820002Y-31554532D01*
X154819998Y-31554532D01*
X154593313Y-31574364D01*
X154593302Y-31574366D01*
X154373511Y-31633258D01*
X154373502Y-31633261D01*
X154167267Y-31729431D01*
X154167265Y-31729432D01*
X153980858Y-31859954D01*
X153819954Y-32020858D01*
X153689432Y-32207265D01*
X153689430Y-32207268D01*
X153662380Y-32265277D01*
X153616207Y-32317715D01*
X153549013Y-32336866D01*
X153482132Y-32316649D01*
X153437619Y-32265277D01*
X153410568Y-32207266D01*
X153307125Y-32059532D01*
X153280045Y-32020858D01*
X153119141Y-31859954D01*
X152932734Y-31729432D01*
X152932732Y-31729431D01*
X152726497Y-31633261D01*
X152726488Y-31633258D01*
X152506697Y-31574366D01*
X152506693Y-31574365D01*
X152506692Y-31574365D01*
X152506691Y-31574364D01*
X152506686Y-31574364D01*
X152280002Y-31554532D01*
X152279998Y-31554532D01*
X152053313Y-31574364D01*
X152053302Y-31574366D01*
X151833511Y-31633258D01*
X151833502Y-31633261D01*
X151627267Y-31729431D01*
X151627265Y-31729432D01*
X151440858Y-31859954D01*
X151279954Y-32020858D01*
X151149432Y-32207265D01*
X151149430Y-32207268D01*
X151122380Y-32265277D01*
X151076207Y-32317715D01*
X151009013Y-32336866D01*
X150942132Y-32316649D01*
X150897619Y-32265277D01*
X150870568Y-32207266D01*
X150767125Y-32059532D01*
X150740045Y-32020858D01*
X150579141Y-31859954D01*
X150392734Y-31729432D01*
X150392732Y-31729431D01*
X150186497Y-31633261D01*
X150186488Y-31633258D01*
X149966697Y-31574366D01*
X149966693Y-31574365D01*
X149966692Y-31574365D01*
X149966691Y-31574364D01*
X149966686Y-31574364D01*
X149740002Y-31554532D01*
X149739998Y-31554532D01*
X149513313Y-31574364D01*
X149513302Y-31574366D01*
X149293511Y-31633258D01*
X149293502Y-31633261D01*
X149087267Y-31729431D01*
X149087265Y-31729432D01*
X148900858Y-31859954D01*
X148739954Y-32020858D01*
X148609432Y-32207265D01*
X148609431Y-32207267D01*
X148597390Y-32233090D01*
X148583729Y-32262387D01*
X148582382Y-32265275D01*
X148536209Y-32317714D01*
X148469016Y-32336866D01*
X148402135Y-32316650D01*
X148357618Y-32265275D01*
X148357618Y-32265274D01*
X148330568Y-32207266D01*
X148200047Y-32020861D01*
X148200045Y-32020858D01*
X148039141Y-31859954D01*
X147852734Y-31729432D01*
X147852732Y-31729431D01*
X147646497Y-31633261D01*
X147646488Y-31633258D01*
X147426697Y-31574366D01*
X147426693Y-31574365D01*
X147426692Y-31574365D01*
X147426691Y-31574364D01*
X147426686Y-31574364D01*
X147200002Y-31554532D01*
X147199998Y-31554532D01*
X146973313Y-31574364D01*
X146973302Y-31574366D01*
X146753511Y-31633258D01*
X146753502Y-31633261D01*
X146547267Y-31729431D01*
X146547265Y-31729432D01*
X146360858Y-31859954D01*
X146199954Y-32020858D01*
X146069432Y-32207265D01*
X146069431Y-32207267D01*
X146057390Y-32233090D01*
X146043729Y-32262387D01*
X146042382Y-32265275D01*
X145996209Y-32317714D01*
X145929016Y-32336866D01*
X145862135Y-32316650D01*
X145817618Y-32265275D01*
X145817618Y-32265274D01*
X145790568Y-32207266D01*
X145660047Y-32020861D01*
X145660045Y-32020858D01*
X145499141Y-31859954D01*
X145312734Y-31729432D01*
X145312732Y-31729431D01*
X145106497Y-31633261D01*
X145106488Y-31633258D01*
X144886697Y-31574366D01*
X144886693Y-31574365D01*
X144886692Y-31574365D01*
X144886691Y-31574364D01*
X144886686Y-31574364D01*
X144660002Y-31554532D01*
X144659998Y-31554532D01*
X144433313Y-31574364D01*
X144433302Y-31574366D01*
X144213511Y-31633258D01*
X144213502Y-31633261D01*
X144007267Y-31729431D01*
X144007265Y-31729432D01*
X143820858Y-31859954D01*
X143659954Y-32020858D01*
X143529434Y-32207263D01*
X143529432Y-32207266D01*
X143502383Y-32265274D01*
X143502106Y-32265867D01*
X143455933Y-32318306D01*
X143388739Y-32337457D01*
X143321858Y-32317241D01*
X143277342Y-32265865D01*
X143250135Y-32207520D01*
X143250134Y-32207518D01*
X143119657Y-32021179D01*
X142958820Y-31860342D01*
X142772482Y-31729865D01*
X142566328Y-31633734D01*
X142370000Y-31581127D01*
X142370000Y-32247698D01*
X142350315Y-32314737D01*
X142297511Y-32360492D01*
X142228355Y-32370436D01*
X142155766Y-32360000D01*
X142155763Y-32360000D01*
X142084237Y-32360000D01*
X142084233Y-32360000D01*
X142011645Y-32370436D01*
X141942487Y-32360492D01*
X141889684Y-32314736D01*
X141870000Y-32247698D01*
X141870000Y-31581127D01*
X141673671Y-31633734D01*
X141467517Y-31729865D01*
X141281179Y-31860342D01*
X141120342Y-32021179D01*
X140989867Y-32207515D01*
X140962657Y-32265867D01*
X140916484Y-32318306D01*
X140849290Y-32337457D01*
X140782409Y-32317241D01*
X140737893Y-32265865D01*
X140737617Y-32265274D01*
X140710568Y-32207266D01*
X140580047Y-32020861D01*
X140580045Y-32020858D01*
X140419141Y-31859954D01*
X140232734Y-31729432D01*
X140232732Y-31729431D01*
X140026497Y-31633261D01*
X140026488Y-31633258D01*
X139806697Y-31574366D01*
X139806693Y-31574365D01*
X139806692Y-31574365D01*
X139806691Y-31574364D01*
X139806686Y-31574364D01*
X139580002Y-31554532D01*
X139579998Y-31554532D01*
X139353313Y-31574364D01*
X139353302Y-31574366D01*
X139133511Y-31633258D01*
X139133502Y-31633261D01*
X138927267Y-31729431D01*
X138927265Y-31729432D01*
X138740858Y-31859954D01*
X138579954Y-32020858D01*
X138449432Y-32207265D01*
X138449431Y-32207267D01*
X138437390Y-32233090D01*
X138423729Y-32262387D01*
X138422382Y-32265275D01*
X138376209Y-32317714D01*
X138309016Y-32336866D01*
X138242135Y-32316650D01*
X138197618Y-32265275D01*
X138197618Y-32265274D01*
X138170568Y-32207266D01*
X138040047Y-32020861D01*
X138040045Y-32020858D01*
X137879141Y-31859954D01*
X137692734Y-31729432D01*
X137692732Y-31729431D01*
X137486497Y-31633261D01*
X137486488Y-31633258D01*
X137266697Y-31574366D01*
X137266693Y-31574365D01*
X137266692Y-31574365D01*
X137266691Y-31574364D01*
X137266686Y-31574364D01*
X137040002Y-31554532D01*
X137039998Y-31554532D01*
X136813313Y-31574364D01*
X136813302Y-31574366D01*
X136593511Y-31633258D01*
X136593502Y-31633261D01*
X136387267Y-31729431D01*
X136387265Y-31729432D01*
X136200858Y-31859954D01*
X136039954Y-32020858D01*
X135909432Y-32207265D01*
X135909431Y-32207267D01*
X135897390Y-32233090D01*
X135883729Y-32262387D01*
X135882382Y-32265275D01*
X135836209Y-32317714D01*
X135769016Y-32336866D01*
X135702135Y-32316650D01*
X135657618Y-32265275D01*
X135657618Y-32265274D01*
X135630568Y-32207266D01*
X135500047Y-32020861D01*
X135500045Y-32020858D01*
X135339141Y-31859954D01*
X135152734Y-31729432D01*
X135152732Y-31729431D01*
X134946497Y-31633261D01*
X134946488Y-31633258D01*
X134726697Y-31574366D01*
X134726693Y-31574365D01*
X134726692Y-31574365D01*
X134726691Y-31574364D01*
X134726686Y-31574364D01*
X134500002Y-31554532D01*
X134499998Y-31554532D01*
X134273313Y-31574364D01*
X134273302Y-31574366D01*
X134053511Y-31633258D01*
X134053502Y-31633261D01*
X133847267Y-31729431D01*
X133847265Y-31729432D01*
X133660858Y-31859954D01*
X133499954Y-32020858D01*
X133369432Y-32207265D01*
X133369431Y-32207267D01*
X133273261Y-32413502D01*
X133273258Y-32413511D01*
X133214366Y-32633302D01*
X133214364Y-32633313D01*
X133194532Y-32859998D01*
X133194532Y-32860001D01*
X132562438Y-32860001D01*
X132555844Y-32776226D01*
X132555668Y-32772628D01*
X132555287Y-32753210D01*
X132556336Y-32749360D01*
X132555053Y-32741259D01*
X132555053Y-32741254D01*
X132551534Y-32719041D01*
X132550967Y-32714248D01*
X132543299Y-32616814D01*
X132520485Y-32521789D01*
X132519545Y-32517064D01*
X132517520Y-32504281D01*
X132518066Y-32500058D01*
X132516030Y-32491578D01*
X132513071Y-32485744D01*
X132509069Y-32473427D01*
X132507754Y-32468762D01*
X132494175Y-32412204D01*
X132484949Y-32373769D01*
X132484942Y-32373752D01*
X132447550Y-32283481D01*
X132445882Y-32278962D01*
X132441877Y-32266635D01*
X132441756Y-32262387D01*
X132438417Y-32254326D01*
X132434582Y-32249026D01*
X132428713Y-32237507D01*
X132426681Y-32233098D01*
X132389293Y-32142834D01*
X132338228Y-32059504D01*
X132335874Y-32055299D01*
X132329992Y-32043756D01*
X132329208Y-32039577D01*
X132324660Y-32032155D01*
X132320038Y-32027515D01*
X132312432Y-32017045D01*
X132309739Y-32013014D01*
X132258691Y-31929711D01*
X132195242Y-31855422D01*
X132192238Y-31851613D01*
X132184619Y-31841126D01*
X132183190Y-31837122D01*
X132177537Y-31830503D01*
X132172254Y-31826650D01*
X132163111Y-31817507D01*
X132159805Y-31813931D01*
X132159801Y-31813926D01*
X132096357Y-31739643D01*
X132022072Y-31676197D01*
X132022071Y-31676196D01*
X132018495Y-31672891D01*
X132009348Y-31663743D01*
X132007309Y-31660009D01*
X132000686Y-31654352D01*
X131994864Y-31651372D01*
X131984391Y-31643763D01*
X131980569Y-31640749D01*
X131923846Y-31592304D01*
X131906289Y-31577309D01*
X131906287Y-31577307D01*
X131906285Y-31577306D01*
X131906283Y-31577305D01*
X131822988Y-31526261D01*
X131818943Y-31523559D01*
X131813211Y-31519395D01*
X131808487Y-31515963D01*
X131805886Y-31512591D01*
X131798453Y-31508036D01*
X131792239Y-31506004D01*
X131780713Y-31500132D01*
X131776466Y-31497753D01*
X131754927Y-31484554D01*
X131693166Y-31446706D01*
X131602902Y-31409318D01*
X131598484Y-31407282D01*
X131592533Y-31404250D01*
X131586977Y-31401419D01*
X131583881Y-31398496D01*
X131575809Y-31395152D01*
X131569352Y-31394118D01*
X131557066Y-31390126D01*
X131552506Y-31388444D01*
X131528517Y-31378507D01*
X131462241Y-31351054D01*
X131462238Y-31351053D01*
X131367235Y-31328244D01*
X131362548Y-31326922D01*
X131350248Y-31322925D01*
X131346738Y-31320525D01*
X131338277Y-31318494D01*
X131331737Y-31318482D01*
X131330205Y-31318239D01*
X131318960Y-31316458D01*
X131314193Y-31315510D01*
X131219190Y-31292702D01*
X131219186Y-31292701D01*
X131189627Y-31290374D01*
X131121773Y-31285033D01*
X131116940Y-31284461D01*
X131104193Y-31282442D01*
X131100348Y-31280619D01*
X131091652Y-31279935D01*
X131085192Y-31280947D01*
X131072275Y-31280947D01*
X131067409Y-31280756D01*
X130970000Y-31273090D01*
X130872591Y-31280756D01*
X130867725Y-31280947D01*
X130854806Y-31280947D01*
X130850722Y-31279747D01*
X130842040Y-31280431D01*
X130835819Y-31282440D01*
X130830407Y-31283297D01*
X130823056Y-31284461D01*
X130818226Y-31285033D01*
X130720811Y-31292701D01*
X130720809Y-31292702D01*
X130625804Y-31315511D01*
X130621029Y-31316460D01*
X130608271Y-31318481D01*
X130604050Y-31317935D01*
X130595578Y-31319968D01*
X130589753Y-31322924D01*
X130577451Y-31326922D01*
X130572762Y-31328245D01*
X130477766Y-31351052D01*
X130477752Y-31351057D01*
X130387504Y-31388439D01*
X130382934Y-31390125D01*
X130370638Y-31394119D01*
X130366390Y-31394240D01*
X130358326Y-31397580D01*
X130353026Y-31401417D01*
X130341518Y-31407280D01*
X130337098Y-31409317D01*
X130246841Y-31446703D01*
X130246839Y-31446704D01*
X130163529Y-31497755D01*
X130159281Y-31500134D01*
X130147763Y-31506002D01*
X130143583Y-31506786D01*
X130136149Y-31511342D01*
X130131515Y-31515960D01*
X130121060Y-31523555D01*
X130117014Y-31526258D01*
X130047224Y-31569028D01*
X130033711Y-31577309D01*
X130033708Y-31577310D01*
X130033707Y-31577312D01*
X130033702Y-31577315D01*
X129959429Y-31640750D01*
X129955605Y-31643765D01*
X129945130Y-31651376D01*
X129941123Y-31652805D01*
X129934501Y-31658461D01*
X129930651Y-31663742D01*
X129921502Y-31672892D01*
X129917926Y-31676197D01*
X129843642Y-31739642D01*
X129780197Y-31813926D01*
X129776892Y-31817502D01*
X129767742Y-31826651D01*
X129764009Y-31828689D01*
X129758354Y-31835309D01*
X129755376Y-31841130D01*
X129747765Y-31851605D01*
X129744750Y-31855429D01*
X129681315Y-31929702D01*
X129681312Y-31929707D01*
X129681309Y-31929711D01*
X129673028Y-31943224D01*
X129630258Y-32013014D01*
X129627555Y-32017060D01*
X129619960Y-32027515D01*
X129616589Y-32030114D01*
X129612034Y-32037548D01*
X129610004Y-32043759D01*
X129604136Y-32055278D01*
X129601755Y-32059529D01*
X129550709Y-32142829D01*
X129550703Y-32142841D01*
X129513317Y-32233098D01*
X129511280Y-32237518D01*
X129505417Y-32249026D01*
X129502494Y-32252120D01*
X129499152Y-32260188D01*
X129498119Y-32266638D01*
X129494125Y-32278934D01*
X129492439Y-32283504D01*
X129455057Y-32373752D01*
X129455052Y-32373766D01*
X129432245Y-32468762D01*
X129430922Y-32473451D01*
X129426924Y-32485753D01*
X129424525Y-32489260D01*
X129422492Y-32497730D01*
X129422481Y-32504271D01*
X129420461Y-32517026D01*
X129419511Y-32521804D01*
X129396702Y-32616809D01*
X129396701Y-32616812D01*
X129389033Y-32714230D01*
X129388460Y-32719065D01*
X129386441Y-32731812D01*
X129384618Y-32735656D01*
X129383934Y-32744347D01*
X129384946Y-32750806D01*
X129384946Y-32763737D01*
X129384755Y-32768603D01*
X129377090Y-32865999D01*
X127130500Y-32865999D01*
X127130500Y-30412027D01*
X127150185Y-30344988D01*
X127202989Y-30299233D01*
X127254500Y-30288027D01*
X180153638Y-30288027D01*
X180220677Y-30307712D01*
G37*
%TD.AperFunction*%
%TD*%
M02*
