%TF.GenerationSoftware,KiCad,Pcbnew,7.0.9*%
%TF.CreationDate,2023-11-18T00:39:59+09:00*%
%TF.ProjectId,arduino_robotarm_shield,61726475-696e-46f5-9f72-6f626f746172,rev?*%
%TF.SameCoordinates,Original*%
%TF.FileFunction,Copper,L1,Top*%
%TF.FilePolarity,Positive*%
%FSLAX46Y46*%
G04 Gerber Fmt 4.6, Leading zero omitted, Abs format (unit mm)*
G04 Created by KiCad (PCBNEW 7.0.9) date 2023-11-18 00:39:59*
%MOMM*%
%LPD*%
G01*
G04 APERTURE LIST*
%TA.AperFunction,ComponentPad*%
%ADD10O,1.600000X1.600000*%
%TD*%
%TA.AperFunction,ComponentPad*%
%ADD11R,1.600000X1.600000*%
%TD*%
%TA.AperFunction,ComponentPad*%
%ADD12R,1.700000X1.700000*%
%TD*%
%TA.AperFunction,ComponentPad*%
%ADD13O,1.700000X1.700000*%
%TD*%
%TA.AperFunction,ComponentPad*%
%ADD14R,1.800000X1.800000*%
%TD*%
%TA.AperFunction,ComponentPad*%
%ADD15C,1.800000*%
%TD*%
%TA.AperFunction,ComponentPad*%
%ADD16R,2.600000X2.600000*%
%TD*%
%TA.AperFunction,ComponentPad*%
%ADD17C,2.600000*%
%TD*%
%TA.AperFunction,ComponentPad*%
%ADD18C,1.600000*%
%TD*%
%TA.AperFunction,Conductor*%
%ADD19C,0.250000*%
%TD*%
G04 APERTURE END LIST*
D10*
%TO.P,A1,32,SCL/A5*%
%TO.N,unconnected-(A1-SCL{slash}A5-Pad32)*%
X134860000Y-16700000D03*
%TO.P,A1,31,SDA/A4*%
%TO.N,unconnected-(A1-SDA{slash}A4-Pad31)*%
X137400000Y-16700000D03*
%TO.P,A1,30,AREF*%
%TO.N,unconnected-(A1-AREF-Pad30)*%
X139940000Y-16700000D03*
%TO.P,A1,29,GND*%
%TO.N,GND*%
X142480000Y-16700000D03*
%TO.P,A1,28,D13*%
%TO.N,unconnected-(A1-D13-Pad28)*%
X145020000Y-16700000D03*
%TO.P,A1,27,D12*%
%TO.N,unconnected-(A1-D12-Pad27)*%
X147560000Y-16700000D03*
%TO.P,A1,26,D11*%
%TO.N,/S5*%
X150100000Y-16700000D03*
%TO.P,A1,25,D10*%
%TO.N,/S4*%
X152640000Y-16700000D03*
%TO.P,A1,24,D9*%
%TO.N,/S3*%
X155180000Y-16700000D03*
%TO.P,A1,23,D8*%
%TO.N,unconnected-(A1-D8-Pad23)*%
X157720000Y-16700000D03*
%TO.P,A1,22,D7*%
%TO.N,unconnected-(A1-D7-Pad22)*%
X161780000Y-16700000D03*
%TO.P,A1,21,D6*%
%TO.N,/S2*%
X164320000Y-16700000D03*
%TO.P,A1,20,D5*%
%TO.N,/S1*%
X166860000Y-16700000D03*
%TO.P,A1,19,D4*%
%TO.N,unconnected-(A1-D4-Pad19)*%
X169400000Y-16700000D03*
%TO.P,A1,18,D3*%
%TO.N,/S0*%
X171940000Y-16700000D03*
%TO.P,A1,17,D2*%
%TO.N,unconnected-(A1-D2-Pad17)*%
X174480000Y-16700000D03*
%TO.P,A1,16,D1/TX*%
%TO.N,unconnected-(A1-D1{slash}TX-Pad16)*%
X177020000Y-16700000D03*
%TO.P,A1,15,D0/RX*%
%TO.N,unconnected-(A1-D0{slash}RX-Pad15)*%
X179560000Y-16700000D03*
%TO.P,A1,14,SCL/A5*%
%TO.N,unconnected-(A1-SCL{slash}A5-Pad14)*%
X179560000Y-64960000D03*
%TO.P,A1,13,SDA/A4*%
%TO.N,unconnected-(A1-SDA{slash}A4-Pad13)*%
X177020000Y-64960000D03*
%TO.P,A1,12,A3*%
%TO.N,unconnected-(A1-A3-Pad12)*%
X174480000Y-64960000D03*
%TO.P,A1,11,A2*%
%TO.N,unconnected-(A1-A2-Pad11)*%
X171940000Y-64960000D03*
%TO.P,A1,10,A1*%
%TO.N,unconnected-(A1-A1-Pad10)*%
X169400000Y-64960000D03*
%TO.P,A1,9,A0*%
%TO.N,unconnected-(A1-A0-Pad9)*%
X166860000Y-64960000D03*
%TO.P,A1,8,VIN*%
%TO.N,unconnected-(A1-VIN-Pad8)*%
X161780000Y-64960000D03*
%TO.P,A1,7,GND*%
%TO.N,GND*%
X159240000Y-64960000D03*
%TO.P,A1,6,GND*%
X156700000Y-64960000D03*
%TO.P,A1,5,+5V*%
%TO.N,unconnected-(A1-+5V-Pad5)*%
X154160000Y-64960000D03*
%TO.P,A1,4,3V3*%
%TO.N,unconnected-(A1-3V3-Pad4)*%
X151620000Y-64960000D03*
%TO.P,A1,3,~{RESET}*%
%TO.N,unconnected-(A1-~{RESET}-Pad3)*%
X149080000Y-64960000D03*
%TO.P,A1,2,IOREF*%
%TO.N,unconnected-(A1-IOREF-Pad2)*%
X146540000Y-64960000D03*
D11*
%TO.P,A1,1,NC*%
%TO.N,unconnected-(A1-NC-Pad1)*%
X144000000Y-64960000D03*
%TD*%
D12*
%TO.P,J4,1,Pin_1*%
%TO.N,/S2*%
X169000000Y-38960000D03*
D13*
%TO.P,J4,2,Pin_2*%
%TO.N,-5V*%
X169000000Y-41500000D03*
%TO.P,J4,3,Pin_3*%
%TO.N,GND*%
X169000000Y-44040000D03*
%TD*%
D12*
%TO.P,J2,1,Pin_1*%
%TO.N,/S0*%
X178025000Y-38975000D03*
D13*
%TO.P,J2,2,Pin_2*%
%TO.N,-5V*%
X178025000Y-41515000D03*
%TO.P,J2,3,Pin_3*%
%TO.N,GND*%
X178025000Y-44055000D03*
%TD*%
D14*
%TO.P,D1,1,K*%
%TO.N,Net-(D1-K)*%
X133225000Y-36500000D03*
D15*
%TO.P,D1,2,A*%
%TO.N,-5V*%
X135765000Y-36500000D03*
%TD*%
D12*
%TO.P,J5,1,Pin_1*%
%TO.N,/S3*%
X164500000Y-38960000D03*
D13*
%TO.P,J5,2,Pin_2*%
%TO.N,-5V*%
X164500000Y-41500000D03*
%TO.P,J5,3,Pin_3*%
%TO.N,GND*%
X164500000Y-44040000D03*
%TD*%
D16*
%TO.P,J1,1,Pin_1*%
%TO.N,-5V*%
X134195000Y-47500000D03*
D17*
%TO.P,J1,2,Pin_2*%
%TO.N,GND*%
X134195000Y-52500000D03*
%TD*%
D18*
%TO.P,R1,1*%
%TO.N,Net-(D1-K)*%
X133000000Y-29000000D03*
%TO.P,R1,2*%
%TO.N,GND*%
X133000000Y-24000000D03*
%TD*%
D12*
%TO.P,J3,1,Pin_1*%
%TO.N,/S1*%
X173525000Y-38975000D03*
D13*
%TO.P,J3,2,Pin_2*%
%TO.N,-5V*%
X173525000Y-41515000D03*
%TO.P,J3,3,Pin_3*%
%TO.N,GND*%
X173525000Y-44055000D03*
%TD*%
D12*
%TO.P,J7,1,Pin_1*%
%TO.N,/S5*%
X155500000Y-38960000D03*
D13*
%TO.P,J7,2,Pin_2*%
%TO.N,-5V*%
X155500000Y-41500000D03*
%TO.P,J7,3,Pin_3*%
%TO.N,GND*%
X155500000Y-44040000D03*
%TD*%
D12*
%TO.P,J6,1,Pin_1*%
%TO.N,/S4*%
X160000000Y-38960000D03*
D13*
%TO.P,J6,2,Pin_2*%
%TO.N,-5V*%
X160000000Y-41500000D03*
%TO.P,J6,3,Pin_3*%
%TO.N,GND*%
X160000000Y-44040000D03*
%TD*%
D19*
%TO.N,/S1*%
X167260306Y-16818923D02*
X167266469Y-16692549D01*
X173525000Y-22951080D02*
X173392463Y-22951080D01*
X173392463Y-22951080D02*
X167260306Y-16818923D01*
%TO.N,/S2*%
X169000000Y-20966080D02*
X164726469Y-16692549D01*
%TO.N,GND*%
X160000000Y-61260140D02*
X156640000Y-64620140D01*
X156640000Y-64620140D02*
X156597623Y-64637693D01*
X160000000Y-59000000D02*
X160000000Y-63775316D01*
X160000000Y-59000000D02*
X160000000Y-61260140D01*
X160000000Y-44040000D02*
X160000000Y-59000000D01*
%TO.N,Net-(D1-K)*%
X133225000Y-29225000D02*
X133000000Y-29000000D01*
X133225000Y-36500000D02*
X133225000Y-29225000D01*
%TO.N,GND*%
X133000000Y-22000000D02*
X134500000Y-20500000D01*
X133000000Y-24000000D02*
X133000000Y-22000000D01*
X134500000Y-20500000D02*
X139500000Y-20500000D01*
X131500000Y-20500000D02*
X134500000Y-20500000D01*
X142309863Y-16416530D02*
X142381431Y-16386886D01*
X140000000Y-18726393D02*
X142309863Y-16416530D01*
X140000000Y-20000000D02*
X140000000Y-18726393D01*
X139500000Y-20500000D02*
X140000000Y-20000000D01*
X130000000Y-22000000D02*
X131500000Y-20500000D01*
X130000000Y-48305000D02*
X130000000Y-22000000D01*
X134195000Y-52500000D02*
X130000000Y-48305000D01*
%TO.N,-5V*%
X134195000Y-38070000D02*
X135765000Y-36500000D01*
X134195000Y-47500000D02*
X134195000Y-38070000D01*
X140765000Y-41500000D02*
X135765000Y-36500000D01*
X156500000Y-41500000D02*
X140765000Y-41500000D01*
X156500000Y-41500000D02*
X160000000Y-41500000D01*
X155500000Y-41500000D02*
X156500000Y-41500000D01*
%TO.N,GND*%
X147040000Y-52500000D02*
X155500000Y-44040000D01*
X134195000Y-52500000D02*
X147040000Y-52500000D01*
X160000000Y-63775316D02*
X159137623Y-64637693D01*
X160000000Y-44040000D02*
X155500000Y-44040000D01*
X164500000Y-44040000D02*
X160000000Y-44040000D01*
X169000000Y-44040000D02*
X164500000Y-44040000D01*
X169015000Y-44055000D02*
X169000000Y-44040000D01*
X173525000Y-44055000D02*
X169015000Y-44055000D01*
X178025000Y-44055000D02*
X173525000Y-44055000D01*
%TO.N,-5V*%
X173525000Y-41515000D02*
X178025000Y-41515000D01*
X173510000Y-41500000D02*
X173525000Y-41515000D01*
X169000000Y-41500000D02*
X173510000Y-41500000D01*
X164500000Y-41500000D02*
X169000000Y-41500000D01*
X160000000Y-41500000D02*
X164500000Y-41500000D01*
%TO.N,/S5*%
X155500000Y-21660080D02*
X150532469Y-16692549D01*
X155500000Y-38960000D02*
X155500000Y-21660080D01*
%TO.N,/S4*%
X160000000Y-38960000D02*
X160000000Y-23620080D01*
X160000000Y-23620080D02*
X153072469Y-16692549D01*
%TO.N,/S3*%
X164500000Y-25580080D02*
X155612469Y-16692549D01*
X164500000Y-38960000D02*
X164500000Y-25580080D01*
%TO.N,/S2*%
X169000000Y-38960000D02*
X169000000Y-20966080D01*
%TO.N,/S1*%
X173525000Y-38975000D02*
X173525000Y-22951080D01*
%TO.N,/S0*%
X178025000Y-22371080D02*
X172346469Y-16692549D01*
X178025000Y-38975000D02*
X178025000Y-22371080D01*
%TD*%
%TA.AperFunction,Conductor*%
%TO.N,GND*%
G36*
X158780507Y-64750156D02*
G01*
X158740000Y-64888111D01*
X158740000Y-65031889D01*
X158780507Y-65169844D01*
X158806314Y-65210000D01*
X157133686Y-65210000D01*
X157159493Y-65169844D01*
X157200000Y-65031889D01*
X157200000Y-64888111D01*
X157159493Y-64750156D01*
X157133686Y-64710000D01*
X158806314Y-64710000D01*
X158780507Y-64750156D01*
G37*
%TD.AperFunction*%
%TA.AperFunction,Conductor*%
G36*
X180600677Y-14181712D02*
G01*
X180621319Y-14198346D01*
X182113181Y-15690208D01*
X182146666Y-15751531D01*
X182149500Y-15777889D01*
X182149500Y-27149260D01*
X182149458Y-27153997D01*
X182149529Y-27154170D01*
X182149614Y-27154380D01*
X182151977Y-27156741D01*
X184594223Y-29658072D01*
X184626973Y-29719790D01*
X184629500Y-29744698D01*
X184629500Y-62409300D01*
X184609815Y-62476339D01*
X184594223Y-62495927D01*
X182152594Y-64996625D01*
X182149616Y-64999615D01*
X182149597Y-64999663D01*
X182149603Y-64999651D01*
X182149538Y-64999807D01*
X182149457Y-65000004D01*
X182149500Y-65003398D01*
X182149500Y-67415500D01*
X182129815Y-67482539D01*
X182077011Y-67528294D01*
X182025500Y-67539500D01*
X127634500Y-67539500D01*
X127567461Y-67519815D01*
X127521706Y-67467011D01*
X127510500Y-67415500D01*
X127510500Y-65000000D01*
X128457090Y-65000000D01*
X128457098Y-65000103D01*
X128464756Y-65097408D01*
X128464947Y-65102274D01*
X128464947Y-65124746D01*
X128468461Y-65146943D01*
X128469033Y-65151774D01*
X128473603Y-65209822D01*
X128476701Y-65249186D01*
X128476701Y-65249189D01*
X128476702Y-65249191D01*
X128499510Y-65344195D01*
X128500460Y-65348971D01*
X128503976Y-65371170D01*
X128510921Y-65392542D01*
X128512242Y-65397228D01*
X128535052Y-65492235D01*
X128535054Y-65492241D01*
X128559618Y-65551543D01*
X128572446Y-65582512D01*
X128574127Y-65587070D01*
X128581072Y-65608445D01*
X128591280Y-65628480D01*
X128593318Y-65632901D01*
X128630706Y-65723166D01*
X128681751Y-65806462D01*
X128684130Y-65810710D01*
X128684136Y-65810721D01*
X128694341Y-65830749D01*
X128695545Y-65832406D01*
X128707556Y-65848939D01*
X128710260Y-65852987D01*
X128761305Y-65936283D01*
X128761309Y-65936289D01*
X128817718Y-66002335D01*
X128824759Y-66010579D01*
X128827763Y-66014390D01*
X128840989Y-66032593D01*
X128856898Y-66048502D01*
X128860191Y-66052065D01*
X128923643Y-66126357D01*
X128993786Y-66186265D01*
X128997932Y-66189806D01*
X129001495Y-66193099D01*
X129017407Y-66209011D01*
X129035613Y-66222238D01*
X129039407Y-66225229D01*
X129113711Y-66288691D01*
X129113713Y-66288692D01*
X129197014Y-66339739D01*
X129201051Y-66342436D01*
X129219251Y-66355659D01*
X129239309Y-66365879D01*
X129243500Y-66368225D01*
X129326834Y-66419293D01*
X129417133Y-66456696D01*
X129421501Y-66458710D01*
X129441551Y-66468926D01*
X129462951Y-66475879D01*
X129467492Y-66477555D01*
X129557764Y-66514947D01*
X129557766Y-66514947D01*
X129557770Y-66514949D01*
X129619790Y-66529838D01*
X129652773Y-66537757D01*
X129657438Y-66539072D01*
X129672872Y-66544087D01*
X129678828Y-66546023D01*
X129678829Y-66546023D01*
X129678832Y-66546024D01*
X129701049Y-66549542D01*
X129705775Y-66550481D01*
X129800814Y-66573299D01*
X129898234Y-66580966D01*
X129903051Y-66581536D01*
X129919801Y-66584189D01*
X129925253Y-66585053D01*
X129947725Y-66585053D01*
X129952591Y-66585244D01*
X129962438Y-66586018D01*
X130050000Y-66592910D01*
X130137561Y-66586018D01*
X130147409Y-66585244D01*
X130152275Y-66585053D01*
X130174743Y-66585053D01*
X130174746Y-66585053D01*
X130196954Y-66581535D01*
X130201756Y-66580966D01*
X130299186Y-66573299D01*
X130394234Y-66550479D01*
X130398906Y-66549549D01*
X130421168Y-66546024D01*
X130442590Y-66539063D01*
X130447209Y-66537761D01*
X130542236Y-66514947D01*
X130632534Y-66477544D01*
X130637023Y-66475887D01*
X130658449Y-66468926D01*
X130678520Y-66458699D01*
X130682861Y-66456698D01*
X130773166Y-66419293D01*
X130856514Y-66368217D01*
X130860686Y-66365881D01*
X130880749Y-66355659D01*
X130898948Y-66342436D01*
X130902964Y-66339752D01*
X130986289Y-66288691D01*
X131060596Y-66225226D01*
X131064376Y-66222245D01*
X131082593Y-66209011D01*
X131098507Y-66193096D01*
X131102048Y-66189822D01*
X131176357Y-66126357D01*
X131239822Y-66052048D01*
X131243096Y-66048507D01*
X131259011Y-66032593D01*
X131272245Y-66014376D01*
X131275226Y-66010596D01*
X131338691Y-65936289D01*
X131389752Y-65852965D01*
X131392443Y-65848939D01*
X131405659Y-65830749D01*
X131415881Y-65810686D01*
X131417458Y-65807870D01*
X142699500Y-65807870D01*
X142699501Y-65807876D01*
X142705908Y-65867483D01*
X142756202Y-66002328D01*
X142756206Y-66002335D01*
X142842452Y-66117544D01*
X142842455Y-66117547D01*
X142957664Y-66203793D01*
X142957671Y-66203797D01*
X143092517Y-66254091D01*
X143092516Y-66254091D01*
X143099444Y-66254835D01*
X143152127Y-66260500D01*
X144847872Y-66260499D01*
X144907483Y-66254091D01*
X145042331Y-66203796D01*
X145157546Y-66117546D01*
X145243796Y-66002331D01*
X145294091Y-65867483D01*
X145297862Y-65832401D01*
X145324599Y-65767855D01*
X145381990Y-65728006D01*
X145451816Y-65725511D01*
X145511905Y-65761163D01*
X145522726Y-65774536D01*
X145539956Y-65799143D01*
X145700858Y-65960045D01*
X145700861Y-65960047D01*
X145887266Y-66090568D01*
X146093504Y-66186739D01*
X146093509Y-66186740D01*
X146093511Y-66186741D01*
X146104950Y-66189806D01*
X146313308Y-66245635D01*
X146475230Y-66259801D01*
X146539998Y-66265468D01*
X146540000Y-66265468D01*
X146540002Y-66265468D01*
X146596807Y-66260498D01*
X146766692Y-66245635D01*
X146986496Y-66186739D01*
X147192734Y-66090568D01*
X147379139Y-65960047D01*
X147540047Y-65799139D01*
X147670568Y-65612734D01*
X147697618Y-65554724D01*
X147743790Y-65502285D01*
X147810983Y-65483133D01*
X147877865Y-65503348D01*
X147922382Y-65554725D01*
X147949429Y-65612728D01*
X147949432Y-65612734D01*
X148079954Y-65799141D01*
X148240858Y-65960045D01*
X148240861Y-65960047D01*
X148427266Y-66090568D01*
X148633504Y-66186739D01*
X148633509Y-66186740D01*
X148633511Y-66186741D01*
X148644950Y-66189806D01*
X148853308Y-66245635D01*
X149015230Y-66259801D01*
X149079998Y-66265468D01*
X149080000Y-66265468D01*
X149080002Y-66265468D01*
X149136807Y-66260498D01*
X149306692Y-66245635D01*
X149526496Y-66186739D01*
X149732734Y-66090568D01*
X149919139Y-65960047D01*
X150080047Y-65799139D01*
X150210568Y-65612734D01*
X150237618Y-65554724D01*
X150283790Y-65502285D01*
X150350983Y-65483133D01*
X150417865Y-65503348D01*
X150462382Y-65554725D01*
X150489429Y-65612728D01*
X150489432Y-65612734D01*
X150619954Y-65799141D01*
X150780858Y-65960045D01*
X150780861Y-65960047D01*
X150967266Y-66090568D01*
X151173504Y-66186739D01*
X151173509Y-66186740D01*
X151173511Y-66186741D01*
X151184950Y-66189806D01*
X151393308Y-66245635D01*
X151555230Y-66259801D01*
X151619998Y-66265468D01*
X151620000Y-66265468D01*
X151620002Y-66265468D01*
X151676807Y-66260498D01*
X151846692Y-66245635D01*
X152066496Y-66186739D01*
X152272734Y-66090568D01*
X152459139Y-65960047D01*
X152620047Y-65799139D01*
X152750568Y-65612734D01*
X152777618Y-65554724D01*
X152823790Y-65502285D01*
X152890983Y-65483133D01*
X152957865Y-65503348D01*
X153002382Y-65554725D01*
X153029429Y-65612728D01*
X153029432Y-65612734D01*
X153159954Y-65799141D01*
X153320858Y-65960045D01*
X153320861Y-65960047D01*
X153507266Y-66090568D01*
X153713504Y-66186739D01*
X153713509Y-66186740D01*
X153713511Y-66186741D01*
X153724950Y-66189806D01*
X153933308Y-66245635D01*
X154095230Y-66259801D01*
X154159998Y-66265468D01*
X154160000Y-66265468D01*
X154160002Y-66265468D01*
X154216807Y-66260498D01*
X154386692Y-66245635D01*
X154606496Y-66186739D01*
X154812734Y-66090568D01*
X154999139Y-65960047D01*
X155160047Y-65799139D01*
X155290568Y-65612734D01*
X155317895Y-65554129D01*
X155364064Y-65501695D01*
X155431257Y-65482542D01*
X155498139Y-65502757D01*
X155542657Y-65554133D01*
X155569865Y-65612482D01*
X155700342Y-65798820D01*
X155861179Y-65959657D01*
X156047517Y-66090134D01*
X156253673Y-66186265D01*
X156253682Y-66186269D01*
X156449999Y-66238872D01*
X156450000Y-66238871D01*
X156450000Y-65395501D01*
X156557685Y-65444680D01*
X156664237Y-65460000D01*
X156735763Y-65460000D01*
X156842315Y-65444680D01*
X156950000Y-65395501D01*
X156950000Y-66238872D01*
X157146317Y-66186269D01*
X157146326Y-66186265D01*
X157352482Y-66090134D01*
X157538820Y-65959657D01*
X157699657Y-65798820D01*
X157830134Y-65612481D01*
X157830135Y-65612479D01*
X157857618Y-65553543D01*
X157903790Y-65501103D01*
X157970983Y-65481951D01*
X158037864Y-65502166D01*
X158082382Y-65553543D01*
X158109864Y-65612479D01*
X158109865Y-65612481D01*
X158240342Y-65798820D01*
X158401179Y-65959657D01*
X158587517Y-66090134D01*
X158793673Y-66186265D01*
X158793682Y-66186269D01*
X158989999Y-66238872D01*
X158990000Y-66238871D01*
X158990000Y-65395501D01*
X159097685Y-65444680D01*
X159204237Y-65460000D01*
X159275763Y-65460000D01*
X159382315Y-65444680D01*
X159490000Y-65395501D01*
X159490000Y-66238872D01*
X159686317Y-66186269D01*
X159686326Y-66186265D01*
X159892482Y-66090134D01*
X160078820Y-65959657D01*
X160239657Y-65798820D01*
X160370132Y-65612484D01*
X160397341Y-65554134D01*
X160443513Y-65501695D01*
X160510707Y-65482542D01*
X160577588Y-65502757D01*
X160622106Y-65554133D01*
X160649431Y-65612732D01*
X160649432Y-65612734D01*
X160779954Y-65799141D01*
X160940858Y-65960045D01*
X160940861Y-65960047D01*
X161127266Y-66090568D01*
X161333504Y-66186739D01*
X161333509Y-66186740D01*
X161333511Y-66186741D01*
X161344950Y-66189806D01*
X161553308Y-66245635D01*
X161715230Y-66259801D01*
X161779998Y-66265468D01*
X161780000Y-66265468D01*
X161780002Y-66265468D01*
X161836807Y-66260498D01*
X162006692Y-66245635D01*
X162226496Y-66186739D01*
X162432734Y-66090568D01*
X162619139Y-65960047D01*
X162780047Y-65799139D01*
X162910568Y-65612734D01*
X163006739Y-65406496D01*
X163065635Y-65186692D01*
X163082634Y-64992384D01*
X163085468Y-64960001D01*
X165554532Y-64960001D01*
X165574364Y-65186686D01*
X165574366Y-65186697D01*
X165633258Y-65406488D01*
X165633261Y-65406497D01*
X165729431Y-65612732D01*
X165729432Y-65612734D01*
X165859954Y-65799141D01*
X166020858Y-65960045D01*
X166020861Y-65960047D01*
X166207266Y-66090568D01*
X166413504Y-66186739D01*
X166413509Y-66186740D01*
X166413511Y-66186741D01*
X166424950Y-66189806D01*
X166633308Y-66245635D01*
X166795230Y-66259801D01*
X166859998Y-66265468D01*
X166860000Y-66265468D01*
X166860002Y-66265468D01*
X166916807Y-66260498D01*
X167086692Y-66245635D01*
X167306496Y-66186739D01*
X167512734Y-66090568D01*
X167699139Y-65960047D01*
X167860047Y-65799139D01*
X167990568Y-65612734D01*
X168017618Y-65554724D01*
X168063790Y-65502285D01*
X168130983Y-65483133D01*
X168197865Y-65503348D01*
X168242382Y-65554725D01*
X168269429Y-65612728D01*
X168269432Y-65612734D01*
X168399954Y-65799141D01*
X168560858Y-65960045D01*
X168560861Y-65960047D01*
X168747266Y-66090568D01*
X168953504Y-66186739D01*
X168953509Y-66186740D01*
X168953511Y-66186741D01*
X168964950Y-66189806D01*
X169173308Y-66245635D01*
X169335230Y-66259801D01*
X169399998Y-66265468D01*
X169400000Y-66265468D01*
X169400002Y-66265468D01*
X169456807Y-66260498D01*
X169626692Y-66245635D01*
X169846496Y-66186739D01*
X170052734Y-66090568D01*
X170239139Y-65960047D01*
X170400047Y-65799139D01*
X170530568Y-65612734D01*
X170557618Y-65554724D01*
X170603790Y-65502285D01*
X170670983Y-65483133D01*
X170737865Y-65503348D01*
X170782382Y-65554725D01*
X170809429Y-65612728D01*
X170809432Y-65612734D01*
X170939954Y-65799141D01*
X171100858Y-65960045D01*
X171100861Y-65960047D01*
X171287266Y-66090568D01*
X171493504Y-66186739D01*
X171493509Y-66186740D01*
X171493511Y-66186741D01*
X171504950Y-66189806D01*
X171713308Y-66245635D01*
X171875230Y-66259801D01*
X171939998Y-66265468D01*
X171940000Y-66265468D01*
X171940002Y-66265468D01*
X171996807Y-66260498D01*
X172166692Y-66245635D01*
X172386496Y-66186739D01*
X172592734Y-66090568D01*
X172779139Y-65960047D01*
X172940047Y-65799139D01*
X173070568Y-65612734D01*
X173097618Y-65554724D01*
X173143790Y-65502285D01*
X173210983Y-65483133D01*
X173277865Y-65503348D01*
X173322382Y-65554725D01*
X173349429Y-65612728D01*
X173349432Y-65612734D01*
X173479954Y-65799141D01*
X173640858Y-65960045D01*
X173640861Y-65960047D01*
X173827266Y-66090568D01*
X174033504Y-66186739D01*
X174033509Y-66186740D01*
X174033511Y-66186741D01*
X174044950Y-66189806D01*
X174253308Y-66245635D01*
X174415230Y-66259801D01*
X174479998Y-66265468D01*
X174480000Y-66265468D01*
X174480002Y-66265468D01*
X174536807Y-66260498D01*
X174706692Y-66245635D01*
X174926496Y-66186739D01*
X175132734Y-66090568D01*
X175319139Y-65960047D01*
X175480047Y-65799139D01*
X175610568Y-65612734D01*
X175637618Y-65554724D01*
X175683790Y-65502285D01*
X175750983Y-65483133D01*
X175817865Y-65503348D01*
X175862382Y-65554725D01*
X175889429Y-65612728D01*
X175889432Y-65612734D01*
X176019954Y-65799141D01*
X176180858Y-65960045D01*
X176180861Y-65960047D01*
X176367266Y-66090568D01*
X176573504Y-66186739D01*
X176573509Y-66186740D01*
X176573511Y-66186741D01*
X176584950Y-66189806D01*
X176793308Y-66245635D01*
X176955230Y-66259801D01*
X177019998Y-66265468D01*
X177020000Y-66265468D01*
X177020002Y-66265468D01*
X177076807Y-66260498D01*
X177246692Y-66245635D01*
X177466496Y-66186739D01*
X177672734Y-66090568D01*
X177859139Y-65960047D01*
X178020047Y-65799139D01*
X178150568Y-65612734D01*
X178177618Y-65554724D01*
X178223790Y-65502285D01*
X178290983Y-65483133D01*
X178357865Y-65503348D01*
X178402382Y-65554725D01*
X178429429Y-65612728D01*
X178429432Y-65612734D01*
X178559954Y-65799141D01*
X178720858Y-65960045D01*
X178720861Y-65960047D01*
X178907266Y-66090568D01*
X179113504Y-66186739D01*
X179113509Y-66186740D01*
X179113511Y-66186741D01*
X179124950Y-66189806D01*
X179333308Y-66245635D01*
X179495230Y-66259801D01*
X179559998Y-66265468D01*
X179560000Y-66265468D01*
X179560002Y-66265468D01*
X179616807Y-66260498D01*
X179786692Y-66245635D01*
X180006496Y-66186739D01*
X180212734Y-66090568D01*
X180399139Y-65960047D01*
X180560047Y-65799139D01*
X180690568Y-65612734D01*
X180786739Y-65406496D01*
X180845635Y-65186692D01*
X180862634Y-64992384D01*
X180865468Y-64960001D01*
X180865468Y-64959998D01*
X180852915Y-64816516D01*
X180845635Y-64733308D01*
X180786739Y-64513504D01*
X180690568Y-64307266D01*
X180560047Y-64120861D01*
X180560045Y-64120858D01*
X180399141Y-63959954D01*
X180212734Y-63829432D01*
X180212732Y-63829431D01*
X180006497Y-63733261D01*
X180006488Y-63733258D01*
X179786697Y-63674366D01*
X179786693Y-63674365D01*
X179786692Y-63674365D01*
X179786691Y-63674364D01*
X179786686Y-63674364D01*
X179560002Y-63654532D01*
X179559998Y-63654532D01*
X179333313Y-63674364D01*
X179333302Y-63674366D01*
X179113511Y-63733258D01*
X179113502Y-63733261D01*
X178907267Y-63829431D01*
X178907265Y-63829432D01*
X178720858Y-63959954D01*
X178559954Y-64120858D01*
X178429432Y-64307265D01*
X178429431Y-64307267D01*
X178402382Y-64365275D01*
X178356209Y-64417714D01*
X178289016Y-64436866D01*
X178222135Y-64416650D01*
X178177618Y-64365275D01*
X178150686Y-64307520D01*
X178150568Y-64307266D01*
X178020047Y-64120861D01*
X178020045Y-64120858D01*
X177859141Y-63959954D01*
X177672734Y-63829432D01*
X177672732Y-63829431D01*
X177466497Y-63733261D01*
X177466488Y-63733258D01*
X177246697Y-63674366D01*
X177246693Y-63674365D01*
X177246692Y-63674365D01*
X177246691Y-63674364D01*
X177246686Y-63674364D01*
X177020002Y-63654532D01*
X177019998Y-63654532D01*
X176793313Y-63674364D01*
X176793302Y-63674366D01*
X176573511Y-63733258D01*
X176573502Y-63733261D01*
X176367267Y-63829431D01*
X176367265Y-63829432D01*
X176180858Y-63959954D01*
X176019954Y-64120858D01*
X175889432Y-64307265D01*
X175889431Y-64307267D01*
X175862382Y-64365275D01*
X175816209Y-64417714D01*
X175749016Y-64436866D01*
X175682135Y-64416650D01*
X175637618Y-64365275D01*
X175610686Y-64307520D01*
X175610568Y-64307266D01*
X175480047Y-64120861D01*
X175480045Y-64120858D01*
X175319141Y-63959954D01*
X175132734Y-63829432D01*
X175132732Y-63829431D01*
X174926497Y-63733261D01*
X174926488Y-63733258D01*
X174706697Y-63674366D01*
X174706693Y-63674365D01*
X174706692Y-63674365D01*
X174706691Y-63674364D01*
X174706686Y-63674364D01*
X174480002Y-63654532D01*
X174479998Y-63654532D01*
X174253313Y-63674364D01*
X174253302Y-63674366D01*
X174033511Y-63733258D01*
X174033502Y-63733261D01*
X173827267Y-63829431D01*
X173827265Y-63829432D01*
X173640858Y-63959954D01*
X173479954Y-64120858D01*
X173349432Y-64307265D01*
X173349431Y-64307267D01*
X173322382Y-64365275D01*
X173276209Y-64417714D01*
X173209016Y-64436866D01*
X173142135Y-64416650D01*
X173097618Y-64365275D01*
X173070686Y-64307520D01*
X173070568Y-64307266D01*
X172940047Y-64120861D01*
X172940045Y-64120858D01*
X172779141Y-63959954D01*
X172592734Y-63829432D01*
X172592732Y-63829431D01*
X172386497Y-63733261D01*
X172386488Y-63733258D01*
X172166697Y-63674366D01*
X172166693Y-63674365D01*
X172166692Y-63674365D01*
X172166691Y-63674364D01*
X172166686Y-63674364D01*
X171940002Y-63654532D01*
X171939998Y-63654532D01*
X171713313Y-63674364D01*
X171713302Y-63674366D01*
X171493511Y-63733258D01*
X171493502Y-63733261D01*
X171287267Y-63829431D01*
X171287265Y-63829432D01*
X171100858Y-63959954D01*
X170939954Y-64120858D01*
X170809432Y-64307265D01*
X170809431Y-64307267D01*
X170782382Y-64365275D01*
X170736209Y-64417714D01*
X170669016Y-64436866D01*
X170602135Y-64416650D01*
X170557618Y-64365275D01*
X170530686Y-64307520D01*
X170530568Y-64307266D01*
X170400047Y-64120861D01*
X170400045Y-64120858D01*
X170239141Y-63959954D01*
X170052734Y-63829432D01*
X170052732Y-63829431D01*
X169846497Y-63733261D01*
X169846488Y-63733258D01*
X169626697Y-63674366D01*
X169626693Y-63674365D01*
X169626692Y-63674365D01*
X169626691Y-63674364D01*
X169626686Y-63674364D01*
X169400002Y-63654532D01*
X169399998Y-63654532D01*
X169173313Y-63674364D01*
X169173302Y-63674366D01*
X168953511Y-63733258D01*
X168953502Y-63733261D01*
X168747267Y-63829431D01*
X168747265Y-63829432D01*
X168560858Y-63959954D01*
X168399954Y-64120858D01*
X168269432Y-64307265D01*
X168269431Y-64307267D01*
X168242382Y-64365275D01*
X168196209Y-64417714D01*
X168129016Y-64436866D01*
X168062135Y-64416650D01*
X168017618Y-64365275D01*
X167990686Y-64307520D01*
X167990568Y-64307266D01*
X167860047Y-64120861D01*
X167860045Y-64120858D01*
X167699141Y-63959954D01*
X167512734Y-63829432D01*
X167512732Y-63829431D01*
X167306497Y-63733261D01*
X167306488Y-63733258D01*
X167086697Y-63674366D01*
X167086693Y-63674365D01*
X167086692Y-63674365D01*
X167086691Y-63674364D01*
X167086686Y-63674364D01*
X166860002Y-63654532D01*
X166859998Y-63654532D01*
X166633313Y-63674364D01*
X166633302Y-63674366D01*
X166413511Y-63733258D01*
X166413502Y-63733261D01*
X166207267Y-63829431D01*
X166207265Y-63829432D01*
X166020858Y-63959954D01*
X165859954Y-64120858D01*
X165729432Y-64307265D01*
X165729431Y-64307267D01*
X165633261Y-64513502D01*
X165633258Y-64513511D01*
X165574366Y-64733302D01*
X165574364Y-64733313D01*
X165554532Y-64959998D01*
X165554532Y-64960001D01*
X163085468Y-64960001D01*
X163085468Y-64959998D01*
X163072915Y-64816516D01*
X163065635Y-64733308D01*
X163006739Y-64513504D01*
X162910568Y-64307266D01*
X162780047Y-64120861D01*
X162780045Y-64120858D01*
X162619141Y-63959954D01*
X162432734Y-63829432D01*
X162432732Y-63829431D01*
X162226497Y-63733261D01*
X162226488Y-63733258D01*
X162006697Y-63674366D01*
X162006693Y-63674365D01*
X162006692Y-63674365D01*
X162006691Y-63674364D01*
X162006686Y-63674364D01*
X161780002Y-63654532D01*
X161779998Y-63654532D01*
X161553313Y-63674364D01*
X161553302Y-63674366D01*
X161333511Y-63733258D01*
X161333502Y-63733261D01*
X161127267Y-63829431D01*
X161127265Y-63829432D01*
X160940858Y-63959954D01*
X160779954Y-64120858D01*
X160649433Y-64307264D01*
X160649432Y-64307266D01*
X160649315Y-64307518D01*
X160622106Y-64365867D01*
X160575933Y-64418306D01*
X160508739Y-64437457D01*
X160441858Y-64417241D01*
X160397342Y-64365865D01*
X160370135Y-64307520D01*
X160370134Y-64307518D01*
X160239657Y-64121179D01*
X160078820Y-63960342D01*
X159892482Y-63829865D01*
X159686328Y-63733734D01*
X159490000Y-63681127D01*
X159490000Y-64524498D01*
X159382315Y-64475320D01*
X159275763Y-64460000D01*
X159204237Y-64460000D01*
X159097685Y-64475320D01*
X158990000Y-64524498D01*
X158990000Y-63681127D01*
X158793671Y-63733734D01*
X158587517Y-63829865D01*
X158401179Y-63960342D01*
X158240342Y-64121179D01*
X158109865Y-64307517D01*
X158082382Y-64366457D01*
X158036210Y-64418896D01*
X157969016Y-64438048D01*
X157902135Y-64417832D01*
X157857618Y-64366457D01*
X157830134Y-64307517D01*
X157699657Y-64121179D01*
X157538820Y-63960342D01*
X157352482Y-63829865D01*
X157146328Y-63733734D01*
X156950000Y-63681127D01*
X156950000Y-64524498D01*
X156842315Y-64475320D01*
X156735763Y-64460000D01*
X156664237Y-64460000D01*
X156557685Y-64475320D01*
X156450000Y-64524498D01*
X156450000Y-63681127D01*
X156253671Y-63733734D01*
X156047517Y-63829865D01*
X155861179Y-63960342D01*
X155700342Y-64121179D01*
X155569867Y-64307515D01*
X155542657Y-64365867D01*
X155496484Y-64418306D01*
X155429290Y-64437457D01*
X155362409Y-64417241D01*
X155317893Y-64365865D01*
X155290685Y-64307518D01*
X155290568Y-64307266D01*
X155160047Y-64120861D01*
X155160045Y-64120858D01*
X154999141Y-63959954D01*
X154812734Y-63829432D01*
X154812732Y-63829431D01*
X154606497Y-63733261D01*
X154606488Y-63733258D01*
X154386697Y-63674366D01*
X154386693Y-63674365D01*
X154386692Y-63674365D01*
X154386691Y-63674364D01*
X154386686Y-63674364D01*
X154160002Y-63654532D01*
X154159998Y-63654532D01*
X153933313Y-63674364D01*
X153933302Y-63674366D01*
X153713511Y-63733258D01*
X153713502Y-63733261D01*
X153507267Y-63829431D01*
X153507265Y-63829432D01*
X153320858Y-63959954D01*
X153159954Y-64120858D01*
X153029432Y-64307265D01*
X153029431Y-64307267D01*
X153002382Y-64365275D01*
X152956209Y-64417714D01*
X152889016Y-64436866D01*
X152822135Y-64416650D01*
X152777618Y-64365275D01*
X152750686Y-64307520D01*
X152750568Y-64307266D01*
X152620047Y-64120861D01*
X152620045Y-64120858D01*
X152459141Y-63959954D01*
X152272734Y-63829432D01*
X152272732Y-63829431D01*
X152066497Y-63733261D01*
X152066488Y-63733258D01*
X151846697Y-63674366D01*
X151846693Y-63674365D01*
X151846692Y-63674365D01*
X151846691Y-63674364D01*
X151846686Y-63674364D01*
X151620002Y-63654532D01*
X151619998Y-63654532D01*
X151393313Y-63674364D01*
X151393302Y-63674366D01*
X151173511Y-63733258D01*
X151173502Y-63733261D01*
X150967267Y-63829431D01*
X150967265Y-63829432D01*
X150780858Y-63959954D01*
X150619954Y-64120858D01*
X150489432Y-64307265D01*
X150489431Y-64307267D01*
X150462382Y-64365275D01*
X150416209Y-64417714D01*
X150349016Y-64436866D01*
X150282135Y-64416650D01*
X150237618Y-64365275D01*
X150210686Y-64307520D01*
X150210568Y-64307266D01*
X150080047Y-64120861D01*
X150080045Y-64120858D01*
X149919141Y-63959954D01*
X149732734Y-63829432D01*
X149732732Y-63829431D01*
X149526497Y-63733261D01*
X149526488Y-63733258D01*
X149306697Y-63674366D01*
X149306693Y-63674365D01*
X149306692Y-63674365D01*
X149306691Y-63674364D01*
X149306686Y-63674364D01*
X149080002Y-63654532D01*
X149079998Y-63654532D01*
X148853313Y-63674364D01*
X148853302Y-63674366D01*
X148633511Y-63733258D01*
X148633502Y-63733261D01*
X148427267Y-63829431D01*
X148427265Y-63829432D01*
X148240858Y-63959954D01*
X148079954Y-64120858D01*
X147949432Y-64307265D01*
X147949431Y-64307267D01*
X147922382Y-64365275D01*
X147876209Y-64417714D01*
X147809016Y-64436866D01*
X147742135Y-64416650D01*
X147697618Y-64365275D01*
X147670686Y-64307520D01*
X147670568Y-64307266D01*
X147540047Y-64120861D01*
X147540045Y-64120858D01*
X147379141Y-63959954D01*
X147192734Y-63829432D01*
X147192732Y-63829431D01*
X146986497Y-63733261D01*
X146986488Y-63733258D01*
X146766697Y-63674366D01*
X146766693Y-63674365D01*
X146766692Y-63674365D01*
X146766691Y-63674364D01*
X146766686Y-63674364D01*
X146540002Y-63654532D01*
X146539998Y-63654532D01*
X146313313Y-63674364D01*
X146313302Y-63674366D01*
X146093511Y-63733258D01*
X146093502Y-63733261D01*
X145887267Y-63829431D01*
X145887265Y-63829432D01*
X145700858Y-63959954D01*
X145539954Y-64120858D01*
X145522725Y-64145464D01*
X145468147Y-64189088D01*
X145398648Y-64196280D01*
X145336294Y-64164757D01*
X145300882Y-64104526D01*
X145297861Y-64087591D01*
X145295294Y-64063713D01*
X145294091Y-64052517D01*
X145270557Y-63989420D01*
X145243797Y-63917671D01*
X145243793Y-63917664D01*
X145157547Y-63802455D01*
X145157544Y-63802452D01*
X145042335Y-63716206D01*
X145042328Y-63716202D01*
X144907482Y-63665908D01*
X144907483Y-63665908D01*
X144847883Y-63659501D01*
X144847881Y-63659500D01*
X144847873Y-63659500D01*
X144847864Y-63659500D01*
X143152129Y-63659500D01*
X143152123Y-63659501D01*
X143092516Y-63665908D01*
X142957671Y-63716202D01*
X142957664Y-63716206D01*
X142842455Y-63802452D01*
X142842452Y-63802455D01*
X142756206Y-63917664D01*
X142756202Y-63917671D01*
X142705908Y-64052517D01*
X142699501Y-64112116D01*
X142699500Y-64112135D01*
X142699500Y-65807870D01*
X131417458Y-65807870D01*
X131418217Y-65806514D01*
X131469293Y-65723166D01*
X131506698Y-65632861D01*
X131508699Y-65628520D01*
X131518926Y-65608449D01*
X131525887Y-65587023D01*
X131527544Y-65582534D01*
X131564947Y-65492236D01*
X131587761Y-65397209D01*
X131589063Y-65392590D01*
X131596024Y-65371168D01*
X131599549Y-65348906D01*
X131600479Y-65344234D01*
X131623299Y-65249186D01*
X131630966Y-65151759D01*
X131631537Y-65146943D01*
X131635053Y-65124746D01*
X131635668Y-65093371D01*
X131635844Y-65089775D01*
X131642910Y-65000000D01*
X131635844Y-64910227D01*
X131635668Y-64906624D01*
X131635053Y-64875254D01*
X131631537Y-64853054D01*
X131630965Y-64848227D01*
X131630020Y-64836216D01*
X131623299Y-64750814D01*
X131600481Y-64655775D01*
X131599542Y-64651049D01*
X131596024Y-64628832D01*
X131589072Y-64607438D01*
X131587757Y-64602773D01*
X131579838Y-64569790D01*
X131564949Y-64507770D01*
X131564944Y-64507758D01*
X131527555Y-64417492D01*
X131525874Y-64412936D01*
X131518926Y-64391551D01*
X131508710Y-64371501D01*
X131506696Y-64367133D01*
X131469293Y-64276834D01*
X131418225Y-64193500D01*
X131415879Y-64189309D01*
X131405659Y-64169251D01*
X131392436Y-64151051D01*
X131389739Y-64147014D01*
X131338691Y-64063711D01*
X131275229Y-63989407D01*
X131272238Y-63985613D01*
X131259011Y-63967407D01*
X131243099Y-63951495D01*
X131239806Y-63947932D01*
X131239801Y-63947926D01*
X131176357Y-63873643D01*
X131102065Y-63810191D01*
X131098499Y-63806895D01*
X131082593Y-63790989D01*
X131064390Y-63777763D01*
X131060579Y-63774759D01*
X131060578Y-63774758D01*
X130986289Y-63711309D01*
X130986283Y-63711305D01*
X130902987Y-63660260D01*
X130898939Y-63657556D01*
X130889485Y-63650688D01*
X130880749Y-63644341D01*
X130872057Y-63639912D01*
X130860710Y-63634130D01*
X130856462Y-63631751D01*
X130773166Y-63580706D01*
X130682901Y-63543318D01*
X130678480Y-63541280D01*
X130672054Y-63538006D01*
X130658449Y-63531074D01*
X130658446Y-63531073D01*
X130658444Y-63531072D01*
X130658445Y-63531072D01*
X130637070Y-63524127D01*
X130632512Y-63522446D01*
X130601543Y-63509618D01*
X130542241Y-63485054D01*
X130542235Y-63485052D01*
X130447228Y-63462242D01*
X130442542Y-63460921D01*
X130421170Y-63453976D01*
X130398971Y-63450460D01*
X130394195Y-63449510D01*
X130299191Y-63426702D01*
X130299189Y-63426701D01*
X130299186Y-63426701D01*
X130273024Y-63424642D01*
X130201774Y-63419033D01*
X130196943Y-63418461D01*
X130174746Y-63414947D01*
X130152275Y-63414947D01*
X130147409Y-63414756D01*
X130050000Y-63407090D01*
X129952591Y-63414756D01*
X129947725Y-63414947D01*
X129925255Y-63414947D01*
X129925254Y-63414947D01*
X129923088Y-63415290D01*
X129903058Y-63418461D01*
X129898227Y-63419033D01*
X129800811Y-63426701D01*
X129800806Y-63426702D01*
X129705804Y-63449510D01*
X129701029Y-63450460D01*
X129678828Y-63453976D01*
X129657451Y-63460922D01*
X129652767Y-63462243D01*
X129557767Y-63485052D01*
X129557758Y-63485055D01*
X129467501Y-63522440D01*
X129462936Y-63524124D01*
X129441562Y-63531069D01*
X129441545Y-63531076D01*
X129421517Y-63541280D01*
X129417097Y-63543318D01*
X129326841Y-63580703D01*
X129326829Y-63580709D01*
X129243531Y-63631754D01*
X129239285Y-63634132D01*
X129219253Y-63644339D01*
X129219244Y-63644345D01*
X129201057Y-63657557D01*
X129197013Y-63660259D01*
X129113708Y-63711311D01*
X129039420Y-63774758D01*
X129035598Y-63777771D01*
X129017414Y-63790982D01*
X129017408Y-63790987D01*
X129001498Y-63806895D01*
X128997926Y-63810197D01*
X128923642Y-63873642D01*
X128860197Y-63947926D01*
X128856895Y-63951498D01*
X128840987Y-63967408D01*
X128840982Y-63967414D01*
X128827771Y-63985598D01*
X128824758Y-63989420D01*
X128761311Y-64063708D01*
X128710259Y-64147013D01*
X128707557Y-64151057D01*
X128694345Y-64169244D01*
X128694339Y-64169253D01*
X128684132Y-64189285D01*
X128681754Y-64193531D01*
X128630709Y-64276829D01*
X128630703Y-64276841D01*
X128593318Y-64367097D01*
X128591280Y-64371517D01*
X128581076Y-64391545D01*
X128581069Y-64391562D01*
X128574124Y-64412936D01*
X128572440Y-64417501D01*
X128535055Y-64507758D01*
X128535052Y-64507767D01*
X128512243Y-64602767D01*
X128510922Y-64607451D01*
X128503976Y-64628828D01*
X128500460Y-64651029D01*
X128499510Y-64655804D01*
X128476702Y-64750806D01*
X128476701Y-64750811D01*
X128469033Y-64848227D01*
X128468461Y-64853058D01*
X128464947Y-64875254D01*
X128464947Y-64897725D01*
X128464756Y-64902591D01*
X128457112Y-64999720D01*
X128457090Y-65000000D01*
X127510500Y-65000000D01*
X127510500Y-59919999D01*
X180557090Y-59919999D01*
X180564756Y-60017408D01*
X180564947Y-60022274D01*
X180564947Y-60044746D01*
X180568461Y-60066943D01*
X180569033Y-60071774D01*
X180574642Y-60143024D01*
X180576701Y-60169186D01*
X180576701Y-60169189D01*
X180576702Y-60169191D01*
X180599510Y-60264195D01*
X180600460Y-60268971D01*
X180603976Y-60291170D01*
X180610921Y-60312542D01*
X180612242Y-60317228D01*
X180635052Y-60412235D01*
X180635054Y-60412241D01*
X180659618Y-60471543D01*
X180672446Y-60502512D01*
X180674127Y-60507070D01*
X180681072Y-60528445D01*
X180691280Y-60548480D01*
X180693318Y-60552901D01*
X180730706Y-60643166D01*
X180781751Y-60726462D01*
X180784130Y-60730710D01*
X180784136Y-60730721D01*
X180794341Y-60750749D01*
X180800688Y-60759485D01*
X180807556Y-60768939D01*
X180810260Y-60772987D01*
X180861305Y-60856283D01*
X180861309Y-60856289D01*
X180924759Y-60930579D01*
X180927763Y-60934390D01*
X180940989Y-60952593D01*
X180956898Y-60968502D01*
X180960191Y-60972065D01*
X181023643Y-61046357D01*
X181097926Y-61109801D01*
X181097932Y-61109806D01*
X181101495Y-61113099D01*
X181117407Y-61129011D01*
X181135613Y-61142238D01*
X181139407Y-61145229D01*
X181213711Y-61208691D01*
X181213713Y-61208692D01*
X181297014Y-61259739D01*
X181301051Y-61262436D01*
X181319251Y-61275659D01*
X181339309Y-61285879D01*
X181343500Y-61288225D01*
X181426834Y-61339293D01*
X181517133Y-61376696D01*
X181521501Y-61378710D01*
X181541551Y-61388926D01*
X181562951Y-61395879D01*
X181567492Y-61397555D01*
X181657764Y-61434947D01*
X181657766Y-61434947D01*
X181657770Y-61434949D01*
X181719790Y-61449838D01*
X181752773Y-61457757D01*
X181757438Y-61459072D01*
X181772872Y-61464087D01*
X181778828Y-61466023D01*
X181778829Y-61466023D01*
X181778832Y-61466024D01*
X181801049Y-61469542D01*
X181805775Y-61470481D01*
X181900814Y-61493299D01*
X181998234Y-61500966D01*
X182003051Y-61501536D01*
X182019801Y-61504189D01*
X182025253Y-61505053D01*
X182047725Y-61505053D01*
X182052591Y-61505244D01*
X182062438Y-61506018D01*
X182150000Y-61512910D01*
X182237561Y-61506018D01*
X182247409Y-61505244D01*
X182252275Y-61505053D01*
X182274743Y-61505053D01*
X182274746Y-61505053D01*
X182296954Y-61501535D01*
X182301756Y-61500966D01*
X182399186Y-61493299D01*
X182494234Y-61470479D01*
X182498906Y-61469549D01*
X182521168Y-61466024D01*
X182542590Y-61459063D01*
X182547209Y-61457761D01*
X182642236Y-61434947D01*
X182732534Y-61397544D01*
X182737023Y-61395887D01*
X182758449Y-61388926D01*
X182778520Y-61378699D01*
X182782861Y-61376698D01*
X182873166Y-61339293D01*
X182956514Y-61288217D01*
X182960686Y-61285881D01*
X182980749Y-61275659D01*
X182998948Y-61262436D01*
X183002964Y-61259752D01*
X183086289Y-61208691D01*
X183160596Y-61145226D01*
X183164376Y-61142245D01*
X183182593Y-61129011D01*
X183198507Y-61113096D01*
X183202048Y-61109822D01*
X183276357Y-61046357D01*
X183339822Y-60972048D01*
X183343096Y-60968507D01*
X183359011Y-60952593D01*
X183372245Y-60934376D01*
X183375226Y-60930596D01*
X183438691Y-60856289D01*
X183489752Y-60772965D01*
X183492443Y-60768939D01*
X183505659Y-60750749D01*
X183515881Y-60730686D01*
X183518217Y-60726514D01*
X183569293Y-60643166D01*
X183606698Y-60552861D01*
X183608699Y-60548520D01*
X183618926Y-60528449D01*
X183625887Y-60507023D01*
X183627544Y-60502534D01*
X183664947Y-60412236D01*
X183687761Y-60317209D01*
X183689063Y-60312590D01*
X183696024Y-60291168D01*
X183699549Y-60268906D01*
X183700479Y-60264234D01*
X183723299Y-60169186D01*
X183730966Y-60071759D01*
X183731537Y-60066943D01*
X183735053Y-60044746D01*
X183735668Y-60013371D01*
X183735844Y-60009775D01*
X183742910Y-59920000D01*
X183735844Y-59830227D01*
X183735668Y-59826624D01*
X183735053Y-59795254D01*
X183731537Y-59773054D01*
X183730965Y-59768227D01*
X183723299Y-59670814D01*
X183700481Y-59575775D01*
X183699542Y-59571049D01*
X183696024Y-59548832D01*
X183689072Y-59527438D01*
X183687757Y-59522773D01*
X183679838Y-59489790D01*
X183664949Y-59427770D01*
X183664944Y-59427758D01*
X183627555Y-59337492D01*
X183625874Y-59332936D01*
X183618926Y-59311551D01*
X183608710Y-59291501D01*
X183606696Y-59287133D01*
X183569293Y-59196834D01*
X183518225Y-59113500D01*
X183515879Y-59109309D01*
X183505659Y-59089251D01*
X183492436Y-59071051D01*
X183489739Y-59067014D01*
X183438691Y-58983711D01*
X183375229Y-58909407D01*
X183372238Y-58905613D01*
X183359011Y-58887407D01*
X183343099Y-58871495D01*
X183339806Y-58867932D01*
X183339801Y-58867926D01*
X183276357Y-58793643D01*
X183202065Y-58730191D01*
X183198499Y-58726895D01*
X183182593Y-58710989D01*
X183164390Y-58697763D01*
X183160579Y-58694759D01*
X183160578Y-58694758D01*
X183086289Y-58631309D01*
X183086283Y-58631305D01*
X183002987Y-58580260D01*
X182998939Y-58577556D01*
X182989485Y-58570688D01*
X182980749Y-58564341D01*
X182972057Y-58559912D01*
X182960710Y-58554130D01*
X182956462Y-58551751D01*
X182873166Y-58500706D01*
X182782901Y-58463318D01*
X182778480Y-58461280D01*
X182772054Y-58458006D01*
X182758449Y-58451074D01*
X182758446Y-58451073D01*
X182758444Y-58451072D01*
X182758445Y-58451072D01*
X182737070Y-58444127D01*
X182732512Y-58442446D01*
X182701543Y-58429618D01*
X182642241Y-58405054D01*
X182642235Y-58405052D01*
X182547228Y-58382242D01*
X182542542Y-58380921D01*
X182521170Y-58373976D01*
X182498971Y-58370460D01*
X182494195Y-58369510D01*
X182399191Y-58346702D01*
X182399189Y-58346701D01*
X182399186Y-58346701D01*
X182373024Y-58344642D01*
X182301774Y-58339033D01*
X182296943Y-58338461D01*
X182274746Y-58334947D01*
X182252275Y-58334947D01*
X182247409Y-58334756D01*
X182150000Y-58327090D01*
X182052591Y-58334756D01*
X182047725Y-58334947D01*
X182025255Y-58334947D01*
X182025254Y-58334947D01*
X182023088Y-58335290D01*
X182003058Y-58338461D01*
X181998227Y-58339033D01*
X181900811Y-58346701D01*
X181900806Y-58346702D01*
X181805804Y-58369510D01*
X181801029Y-58370460D01*
X181778828Y-58373976D01*
X181757451Y-58380922D01*
X181752767Y-58382243D01*
X181657767Y-58405052D01*
X181657758Y-58405055D01*
X181567501Y-58442440D01*
X181562936Y-58444124D01*
X181541562Y-58451069D01*
X181541545Y-58451076D01*
X181521517Y-58461280D01*
X181517097Y-58463318D01*
X181426841Y-58500703D01*
X181426829Y-58500709D01*
X181343531Y-58551754D01*
X181339285Y-58554132D01*
X181319253Y-58564339D01*
X181319244Y-58564345D01*
X181301057Y-58577557D01*
X181297013Y-58580259D01*
X181213708Y-58631311D01*
X181139420Y-58694758D01*
X181135598Y-58697771D01*
X181117414Y-58710982D01*
X181117408Y-58710987D01*
X181101498Y-58726895D01*
X181097926Y-58730197D01*
X181023642Y-58793642D01*
X180960197Y-58867926D01*
X180956895Y-58871498D01*
X180940987Y-58887408D01*
X180940982Y-58887414D01*
X180927771Y-58905598D01*
X180924758Y-58909420D01*
X180861311Y-58983708D01*
X180810259Y-59067013D01*
X180807557Y-59071057D01*
X180794345Y-59089244D01*
X180794339Y-59089253D01*
X180784132Y-59109285D01*
X180781754Y-59113531D01*
X180730709Y-59196829D01*
X180730703Y-59196841D01*
X180693318Y-59287097D01*
X180691280Y-59291517D01*
X180681076Y-59311545D01*
X180681069Y-59311562D01*
X180674124Y-59332936D01*
X180672440Y-59337501D01*
X180635055Y-59427758D01*
X180635052Y-59427767D01*
X180612243Y-59522767D01*
X180610922Y-59527451D01*
X180603976Y-59548828D01*
X180600460Y-59571029D01*
X180599510Y-59575804D01*
X180576702Y-59670806D01*
X180576701Y-59670811D01*
X180569033Y-59768227D01*
X180568461Y-59773058D01*
X180564947Y-59795254D01*
X180564947Y-59817725D01*
X180564756Y-59822591D01*
X180557090Y-59919999D01*
X127510500Y-59919999D01*
X127510500Y-52500004D01*
X132389953Y-52500004D01*
X132410113Y-52769026D01*
X132410113Y-52769028D01*
X132470142Y-53032033D01*
X132470148Y-53032052D01*
X132568709Y-53283181D01*
X132568708Y-53283181D01*
X132703602Y-53516822D01*
X132757294Y-53584151D01*
X132757295Y-53584151D01*
X133592452Y-52748993D01*
X133602188Y-52778956D01*
X133690186Y-52917619D01*
X133809903Y-53030040D01*
X133944510Y-53104041D01*
X133109848Y-53938702D01*
X133292483Y-54063220D01*
X133292485Y-54063221D01*
X133535539Y-54180269D01*
X133535537Y-54180269D01*
X133793337Y-54259790D01*
X133793343Y-54259792D01*
X134060101Y-54299999D01*
X134060110Y-54300000D01*
X134329890Y-54300000D01*
X134329898Y-54299999D01*
X134596656Y-54259792D01*
X134596662Y-54259790D01*
X134854461Y-54180269D01*
X135097521Y-54063218D01*
X135280150Y-53938702D01*
X134442534Y-53101086D01*
X134510629Y-53074126D01*
X134643492Y-52977595D01*
X134748175Y-52851055D01*
X134796631Y-52748079D01*
X135632703Y-53584151D01*
X135632704Y-53584150D01*
X135686393Y-53516828D01*
X135686400Y-53516817D01*
X135821290Y-53283181D01*
X135919851Y-53032052D01*
X135919857Y-53032033D01*
X135979886Y-52769028D01*
X135979886Y-52769026D01*
X136000047Y-52500004D01*
X136000047Y-52499995D01*
X135979886Y-52230973D01*
X135979886Y-52230971D01*
X135919857Y-51967966D01*
X135919851Y-51967947D01*
X135821290Y-51716818D01*
X135821291Y-51716818D01*
X135686397Y-51483177D01*
X135632704Y-51415847D01*
X134797546Y-52251004D01*
X134787812Y-52221044D01*
X134699814Y-52082381D01*
X134580097Y-51969960D01*
X134445489Y-51895958D01*
X135280150Y-51061296D01*
X135097517Y-50936779D01*
X135097516Y-50936778D01*
X134854460Y-50819730D01*
X134854462Y-50819730D01*
X134596662Y-50740209D01*
X134596656Y-50740207D01*
X134329898Y-50700000D01*
X134060101Y-50700000D01*
X133793343Y-50740207D01*
X133793337Y-50740209D01*
X133535538Y-50819730D01*
X133292485Y-50936778D01*
X133292476Y-50936783D01*
X133109848Y-51061296D01*
X133947465Y-51898913D01*
X133879371Y-51925874D01*
X133746508Y-52022405D01*
X133641825Y-52148945D01*
X133593368Y-52251921D01*
X132757295Y-51415848D01*
X132703600Y-51483180D01*
X132568709Y-51716818D01*
X132470148Y-51967947D01*
X132470142Y-51967966D01*
X132410113Y-52230971D01*
X132410113Y-52230973D01*
X132389953Y-52499995D01*
X132389953Y-52500004D01*
X127510500Y-52500004D01*
X127510500Y-29000001D01*
X131694532Y-29000001D01*
X131714364Y-29226686D01*
X131714366Y-29226697D01*
X131773258Y-29446488D01*
X131773261Y-29446497D01*
X131869431Y-29652732D01*
X131869432Y-29652734D01*
X131999954Y-29839141D01*
X132160858Y-30000045D01*
X132160861Y-30000047D01*
X132347266Y-30130568D01*
X132527907Y-30214802D01*
X132580344Y-30260973D01*
X132599500Y-30327183D01*
X132599500Y-34975500D01*
X132579815Y-35042539D01*
X132527011Y-35088294D01*
X132475501Y-35099500D01*
X132277130Y-35099500D01*
X132277123Y-35099501D01*
X132217516Y-35105908D01*
X132082671Y-35156202D01*
X132082664Y-35156206D01*
X131967455Y-35242452D01*
X131967452Y-35242455D01*
X131881206Y-35357664D01*
X131881202Y-35357671D01*
X131830908Y-35492517D01*
X131824501Y-35552116D01*
X131824500Y-35552135D01*
X131824500Y-37447870D01*
X131824501Y-37447876D01*
X131830908Y-37507483D01*
X131881202Y-37642328D01*
X131881206Y-37642335D01*
X131967452Y-37757544D01*
X131967455Y-37757547D01*
X132082664Y-37843793D01*
X132082671Y-37843797D01*
X132217517Y-37894091D01*
X132217516Y-37894091D01*
X132224444Y-37894835D01*
X132277127Y-37900500D01*
X133443364Y-37900499D01*
X133510403Y-37920184D01*
X133556158Y-37972987D01*
X133566102Y-38042146D01*
X133565839Y-38043888D01*
X133564840Y-38050196D01*
X133565968Y-38062127D01*
X133569225Y-38096583D01*
X133569500Y-38102421D01*
X133569500Y-45575500D01*
X133549815Y-45642539D01*
X133497011Y-45688294D01*
X133445500Y-45699500D01*
X132847129Y-45699500D01*
X132847123Y-45699501D01*
X132787516Y-45705908D01*
X132652671Y-45756202D01*
X132652664Y-45756206D01*
X132537455Y-45842452D01*
X132537452Y-45842455D01*
X132451206Y-45957664D01*
X132451202Y-45957671D01*
X132400908Y-46092517D01*
X132394501Y-46152116D01*
X132394501Y-46152123D01*
X132394500Y-46152135D01*
X132394500Y-48847870D01*
X132394501Y-48847876D01*
X132400908Y-48907483D01*
X132451202Y-49042328D01*
X132451206Y-49042335D01*
X132537452Y-49157544D01*
X132537455Y-49157547D01*
X132652664Y-49243793D01*
X132652671Y-49243797D01*
X132787517Y-49294091D01*
X132787516Y-49294091D01*
X132794444Y-49294835D01*
X132847127Y-49300500D01*
X135542872Y-49300499D01*
X135602483Y-49294091D01*
X135737331Y-49243796D01*
X135852546Y-49157546D01*
X135938796Y-49042331D01*
X135989091Y-48907483D01*
X135995500Y-48847873D01*
X135995499Y-46152128D01*
X135989091Y-46092517D01*
X135938796Y-45957669D01*
X135938795Y-45957668D01*
X135938793Y-45957664D01*
X135852547Y-45842455D01*
X135852544Y-45842452D01*
X135737335Y-45756206D01*
X135737328Y-45756202D01*
X135602482Y-45705908D01*
X135602483Y-45705908D01*
X135542883Y-45699501D01*
X135542881Y-45699500D01*
X135542873Y-45699500D01*
X135542865Y-45699500D01*
X134944500Y-45699500D01*
X134877461Y-45679815D01*
X134831706Y-45627011D01*
X134820500Y-45575500D01*
X134820500Y-38380451D01*
X134840185Y-38313412D01*
X134856815Y-38292774D01*
X135266480Y-37883108D01*
X135327801Y-37849625D01*
X135394420Y-37853509D01*
X135420019Y-37862298D01*
X135648951Y-37900500D01*
X135648952Y-37900500D01*
X135881048Y-37900500D01*
X135881049Y-37900500D01*
X136109981Y-37862298D01*
X136135576Y-37853510D01*
X136205371Y-37850359D01*
X136263519Y-37883109D01*
X138297891Y-39917482D01*
X140264197Y-41883788D01*
X140274022Y-41896051D01*
X140274243Y-41895869D01*
X140279214Y-41901878D01*
X140305217Y-41926295D01*
X140329635Y-41949226D01*
X140350529Y-41970120D01*
X140356011Y-41974373D01*
X140360443Y-41978157D01*
X140394418Y-42010062D01*
X140411976Y-42019714D01*
X140428233Y-42030393D01*
X140444064Y-42042673D01*
X140463737Y-42051186D01*
X140486833Y-42061182D01*
X140492077Y-42063750D01*
X140532908Y-42086197D01*
X140545523Y-42089435D01*
X140552305Y-42091177D01*
X140570719Y-42097481D01*
X140589104Y-42105438D01*
X140635157Y-42112732D01*
X140640826Y-42113906D01*
X140685981Y-42125500D01*
X140706016Y-42125500D01*
X140725413Y-42127026D01*
X140745196Y-42130160D01*
X140791584Y-42125775D01*
X140797422Y-42125500D01*
X154224773Y-42125500D01*
X154291812Y-42145185D01*
X154326348Y-42178377D01*
X154461501Y-42371396D01*
X154461506Y-42371402D01*
X154628597Y-42538493D01*
X154628603Y-42538498D01*
X154814594Y-42668730D01*
X154858219Y-42723307D01*
X154865413Y-42792805D01*
X154833890Y-42855160D01*
X154814595Y-42871880D01*
X154628922Y-43001890D01*
X154628920Y-43001891D01*
X154461891Y-43168920D01*
X154461886Y-43168926D01*
X154326400Y-43362420D01*
X154326399Y-43362422D01*
X154226570Y-43576507D01*
X154226567Y-43576513D01*
X154169364Y-43789999D01*
X154169364Y-43790000D01*
X155066314Y-43790000D01*
X155040507Y-43830156D01*
X155000000Y-43968111D01*
X155000000Y-44111889D01*
X155040507Y-44249844D01*
X155066314Y-44290000D01*
X154169364Y-44290000D01*
X154226567Y-44503486D01*
X154226570Y-44503492D01*
X154326399Y-44717578D01*
X154461894Y-44911082D01*
X154628917Y-45078105D01*
X154822421Y-45213600D01*
X155036507Y-45313429D01*
X155036516Y-45313433D01*
X155250000Y-45370634D01*
X155250000Y-44475501D01*
X155357685Y-44524680D01*
X155464237Y-44540000D01*
X155535763Y-44540000D01*
X155642315Y-44524680D01*
X155750000Y-44475501D01*
X155750000Y-45370633D01*
X155963483Y-45313433D01*
X155963492Y-45313429D01*
X156177578Y-45213600D01*
X156371082Y-45078105D01*
X156538105Y-44911082D01*
X156673600Y-44717578D01*
X156773429Y-44503492D01*
X156773432Y-44503486D01*
X156830636Y-44290000D01*
X155933686Y-44290000D01*
X155959493Y-44249844D01*
X156000000Y-44111889D01*
X156000000Y-43968111D01*
X155959493Y-43830156D01*
X155933686Y-43790000D01*
X156830636Y-43790000D01*
X156830635Y-43789999D01*
X156773432Y-43576513D01*
X156773429Y-43576507D01*
X156673600Y-43362422D01*
X156673599Y-43362420D01*
X156538113Y-43168926D01*
X156538108Y-43168920D01*
X156371078Y-43001890D01*
X156185405Y-42871879D01*
X156141780Y-42817302D01*
X156134588Y-42747804D01*
X156166110Y-42685449D01*
X156185406Y-42668730D01*
X156371401Y-42538495D01*
X156538495Y-42371401D01*
X156673652Y-42178377D01*
X156728229Y-42134752D01*
X156775227Y-42125500D01*
X158724773Y-42125500D01*
X158791812Y-42145185D01*
X158826348Y-42178377D01*
X158961501Y-42371396D01*
X158961506Y-42371402D01*
X159128597Y-42538493D01*
X159128603Y-42538498D01*
X159314594Y-42668730D01*
X159358219Y-42723307D01*
X159365413Y-42792805D01*
X159333890Y-42855160D01*
X159314595Y-42871880D01*
X159128922Y-43001890D01*
X159128920Y-43001891D01*
X158961891Y-43168920D01*
X158961886Y-43168926D01*
X158826400Y-43362420D01*
X158826399Y-43362422D01*
X158726570Y-43576507D01*
X158726567Y-43576513D01*
X158669364Y-43789999D01*
X158669364Y-43790000D01*
X159566314Y-43790000D01*
X159540507Y-43830156D01*
X159500000Y-43968111D01*
X159500000Y-44111889D01*
X159540507Y-44249844D01*
X159566314Y-44290000D01*
X158669364Y-44290000D01*
X158726567Y-44503486D01*
X158726570Y-44503492D01*
X158826399Y-44717578D01*
X158961894Y-44911082D01*
X159128917Y-45078105D01*
X159322421Y-45213600D01*
X159536507Y-45313429D01*
X159536516Y-45313433D01*
X159750000Y-45370634D01*
X159750000Y-44475501D01*
X159857685Y-44524680D01*
X159964237Y-44540000D01*
X160035763Y-44540000D01*
X160142315Y-44524680D01*
X160250000Y-44475501D01*
X160250000Y-45370633D01*
X160463483Y-45313433D01*
X160463492Y-45313429D01*
X160677578Y-45213600D01*
X160871082Y-45078105D01*
X161038105Y-44911082D01*
X161173600Y-44717578D01*
X161273429Y-44503492D01*
X161273432Y-44503486D01*
X161330636Y-44290000D01*
X160433686Y-44290000D01*
X160459493Y-44249844D01*
X160500000Y-44111889D01*
X160500000Y-43968111D01*
X160459493Y-43830156D01*
X160433686Y-43790000D01*
X161330636Y-43790000D01*
X161330635Y-43789999D01*
X161273432Y-43576513D01*
X161273429Y-43576507D01*
X161173600Y-43362422D01*
X161173599Y-43362420D01*
X161038113Y-43168926D01*
X161038108Y-43168920D01*
X160871078Y-43001890D01*
X160685405Y-42871879D01*
X160641780Y-42817302D01*
X160634588Y-42747804D01*
X160666110Y-42685449D01*
X160685406Y-42668730D01*
X160871401Y-42538495D01*
X161038495Y-42371401D01*
X161173652Y-42178377D01*
X161228229Y-42134752D01*
X161275227Y-42125500D01*
X163224773Y-42125500D01*
X163291812Y-42145185D01*
X163326348Y-42178377D01*
X163461501Y-42371396D01*
X163461506Y-42371402D01*
X163628597Y-42538493D01*
X163628603Y-42538498D01*
X163814594Y-42668730D01*
X163858219Y-42723307D01*
X163865413Y-42792805D01*
X163833890Y-42855160D01*
X163814595Y-42871880D01*
X163628922Y-43001890D01*
X163628920Y-43001891D01*
X163461891Y-43168920D01*
X163461886Y-43168926D01*
X163326400Y-43362420D01*
X163326399Y-43362422D01*
X163226570Y-43576507D01*
X163226567Y-43576513D01*
X163169364Y-43789999D01*
X163169364Y-43790000D01*
X164066314Y-43790000D01*
X164040507Y-43830156D01*
X164000000Y-43968111D01*
X164000000Y-44111889D01*
X164040507Y-44249844D01*
X164066314Y-44290000D01*
X163169364Y-44290000D01*
X163226567Y-44503486D01*
X163226570Y-44503492D01*
X163326399Y-44717578D01*
X163461894Y-44911082D01*
X163628917Y-45078105D01*
X163822421Y-45213600D01*
X164036507Y-45313429D01*
X164036516Y-45313433D01*
X164250000Y-45370634D01*
X164250000Y-44475501D01*
X164357685Y-44524680D01*
X164464237Y-44540000D01*
X164535763Y-44540000D01*
X164642315Y-44524680D01*
X164750000Y-44475501D01*
X164750000Y-45370633D01*
X164963483Y-45313433D01*
X164963492Y-45313429D01*
X165177578Y-45213600D01*
X165371082Y-45078105D01*
X165538105Y-44911082D01*
X165673600Y-44717578D01*
X165773429Y-44503492D01*
X165773432Y-44503486D01*
X165830636Y-44290000D01*
X164933686Y-44290000D01*
X164959493Y-44249844D01*
X165000000Y-44111889D01*
X165000000Y-43968111D01*
X164959493Y-43830156D01*
X164933686Y-43790000D01*
X165830636Y-43790000D01*
X165830635Y-43789999D01*
X165773432Y-43576513D01*
X165773429Y-43576507D01*
X165673600Y-43362422D01*
X165673599Y-43362420D01*
X165538113Y-43168926D01*
X165538108Y-43168920D01*
X165371078Y-43001890D01*
X165185405Y-42871879D01*
X165141780Y-42817302D01*
X165134588Y-42747804D01*
X165166110Y-42685449D01*
X165185406Y-42668730D01*
X165371401Y-42538495D01*
X165538495Y-42371401D01*
X165673652Y-42178377D01*
X165728229Y-42134752D01*
X165775227Y-42125500D01*
X167724773Y-42125500D01*
X167791812Y-42145185D01*
X167826348Y-42178377D01*
X167961501Y-42371396D01*
X167961506Y-42371402D01*
X168128597Y-42538493D01*
X168128603Y-42538498D01*
X168314594Y-42668730D01*
X168358219Y-42723307D01*
X168365413Y-42792805D01*
X168333890Y-42855160D01*
X168314595Y-42871880D01*
X168128922Y-43001890D01*
X168128920Y-43001891D01*
X167961891Y-43168920D01*
X167961886Y-43168926D01*
X167826400Y-43362420D01*
X167826399Y-43362422D01*
X167726570Y-43576507D01*
X167726567Y-43576513D01*
X167669364Y-43789999D01*
X167669364Y-43790000D01*
X168566314Y-43790000D01*
X168540507Y-43830156D01*
X168500000Y-43968111D01*
X168500000Y-44111889D01*
X168540507Y-44249844D01*
X168566314Y-44290000D01*
X167669364Y-44290000D01*
X167726567Y-44503486D01*
X167726570Y-44503492D01*
X167826399Y-44717578D01*
X167961894Y-44911082D01*
X168128917Y-45078105D01*
X168322421Y-45213600D01*
X168536507Y-45313429D01*
X168536516Y-45313433D01*
X168750000Y-45370634D01*
X168750000Y-44475501D01*
X168857685Y-44524680D01*
X168964237Y-44540000D01*
X169035763Y-44540000D01*
X169142315Y-44524680D01*
X169250000Y-44475501D01*
X169250000Y-45370634D01*
X169463483Y-45313433D01*
X169463492Y-45313429D01*
X169677578Y-45213600D01*
X169871082Y-45078105D01*
X170038105Y-44911082D01*
X170173600Y-44717578D01*
X170273429Y-44503492D01*
X170273432Y-44503486D01*
X170330636Y-44290000D01*
X169433686Y-44290000D01*
X169459493Y-44249844D01*
X169500000Y-44111889D01*
X169500000Y-43968111D01*
X169459493Y-43830156D01*
X169433686Y-43790000D01*
X170330636Y-43790000D01*
X170330635Y-43789999D01*
X170273432Y-43576513D01*
X170273429Y-43576507D01*
X170173600Y-43362422D01*
X170173599Y-43362420D01*
X170038113Y-43168926D01*
X170038108Y-43168920D01*
X169871078Y-43001890D01*
X169685405Y-42871879D01*
X169641780Y-42817302D01*
X169634588Y-42747804D01*
X169666110Y-42685449D01*
X169685406Y-42668730D01*
X169871401Y-42538495D01*
X170038495Y-42371401D01*
X170173652Y-42178377D01*
X170228229Y-42134752D01*
X170275227Y-42125500D01*
X172240572Y-42125500D01*
X172307611Y-42145185D01*
X172346167Y-42189346D01*
X172348257Y-42188140D01*
X172350965Y-42192831D01*
X172456242Y-42343182D01*
X172486505Y-42386401D01*
X172653599Y-42553495D01*
X172818171Y-42668730D01*
X172839594Y-42683730D01*
X172883219Y-42738307D01*
X172890413Y-42807805D01*
X172858890Y-42870160D01*
X172839595Y-42886880D01*
X172653922Y-43016890D01*
X172653920Y-43016891D01*
X172486891Y-43183920D01*
X172486886Y-43183926D01*
X172351400Y-43377420D01*
X172351399Y-43377422D01*
X172251570Y-43591507D01*
X172251567Y-43591513D01*
X172194364Y-43804999D01*
X172194364Y-43805000D01*
X173091314Y-43805000D01*
X173065507Y-43845156D01*
X173025000Y-43983111D01*
X173025000Y-44126889D01*
X173065507Y-44264844D01*
X173091314Y-44305000D01*
X172194364Y-44305000D01*
X172251567Y-44518486D01*
X172251570Y-44518492D01*
X172351399Y-44732578D01*
X172486894Y-44926082D01*
X172653917Y-45093105D01*
X172847421Y-45228600D01*
X173061507Y-45328429D01*
X173061516Y-45328433D01*
X173275000Y-45385634D01*
X173275000Y-44490501D01*
X173382685Y-44539680D01*
X173489237Y-44555000D01*
X173560763Y-44555000D01*
X173667315Y-44539680D01*
X173775000Y-44490501D01*
X173775000Y-45385634D01*
X173988483Y-45328433D01*
X173988492Y-45328429D01*
X174202578Y-45228600D01*
X174396082Y-45093105D01*
X174563105Y-44926082D01*
X174698600Y-44732578D01*
X174798429Y-44518492D01*
X174798432Y-44518486D01*
X174855636Y-44305000D01*
X173958686Y-44305000D01*
X173984493Y-44264844D01*
X174025000Y-44126889D01*
X174025000Y-43983111D01*
X173984493Y-43845156D01*
X173958686Y-43805000D01*
X174855636Y-43805000D01*
X174855635Y-43804999D01*
X174798432Y-43591513D01*
X174798429Y-43591507D01*
X174698600Y-43377422D01*
X174698599Y-43377420D01*
X174563113Y-43183926D01*
X174563108Y-43183920D01*
X174396078Y-43016890D01*
X174210405Y-42886879D01*
X174166780Y-42832302D01*
X174159588Y-42762804D01*
X174191110Y-42700449D01*
X174210406Y-42683730D01*
X174224252Y-42674035D01*
X174396401Y-42553495D01*
X174563495Y-42386401D01*
X174698652Y-42193377D01*
X174753229Y-42149752D01*
X174800227Y-42140500D01*
X176749773Y-42140500D01*
X176816812Y-42160185D01*
X176851348Y-42193377D01*
X176986500Y-42386395D01*
X176986505Y-42386401D01*
X177153599Y-42553495D01*
X177318171Y-42668730D01*
X177339594Y-42683730D01*
X177383219Y-42738307D01*
X177390413Y-42807805D01*
X177358890Y-42870160D01*
X177339595Y-42886880D01*
X177153922Y-43016890D01*
X177153920Y-43016891D01*
X176986891Y-43183920D01*
X176986886Y-43183926D01*
X176851400Y-43377420D01*
X176851399Y-43377422D01*
X176751570Y-43591507D01*
X176751567Y-43591513D01*
X176694364Y-43804999D01*
X176694364Y-43805000D01*
X177591314Y-43805000D01*
X177565507Y-43845156D01*
X177525000Y-43983111D01*
X177525000Y-44126889D01*
X177565507Y-44264844D01*
X177591314Y-44305000D01*
X176694364Y-44305000D01*
X176751567Y-44518486D01*
X176751570Y-44518492D01*
X176851399Y-44732578D01*
X176986894Y-44926082D01*
X177153917Y-45093105D01*
X177347421Y-45228600D01*
X177561507Y-45328429D01*
X177561516Y-45328433D01*
X177775000Y-45385634D01*
X177775000Y-44490501D01*
X177882685Y-44539680D01*
X177989237Y-44555000D01*
X178060763Y-44555000D01*
X178167315Y-44539680D01*
X178275000Y-44490501D01*
X178275000Y-45385634D01*
X178488483Y-45328433D01*
X178488492Y-45328429D01*
X178702578Y-45228600D01*
X178896082Y-45093105D01*
X179063105Y-44926082D01*
X179198600Y-44732578D01*
X179298429Y-44518492D01*
X179298432Y-44518486D01*
X179355636Y-44305000D01*
X178458686Y-44305000D01*
X178484493Y-44264844D01*
X178525000Y-44126889D01*
X178525000Y-43983111D01*
X178484493Y-43845156D01*
X178458686Y-43805000D01*
X179355636Y-43805000D01*
X179355635Y-43804999D01*
X179298432Y-43591513D01*
X179298429Y-43591507D01*
X179198600Y-43377422D01*
X179198599Y-43377420D01*
X179063113Y-43183926D01*
X179063108Y-43183920D01*
X178896078Y-43016890D01*
X178710405Y-42886879D01*
X178666780Y-42832302D01*
X178659588Y-42762804D01*
X178691110Y-42700449D01*
X178710406Y-42683730D01*
X178724252Y-42674035D01*
X178896401Y-42553495D01*
X179063495Y-42386401D01*
X179199035Y-42192830D01*
X179298903Y-41978663D01*
X179360063Y-41750408D01*
X179380659Y-41515000D01*
X179360063Y-41279592D01*
X179298903Y-41051337D01*
X179199035Y-40837171D01*
X179198651Y-40836623D01*
X179063496Y-40643600D01*
X179048495Y-40628599D01*
X178941567Y-40521671D01*
X178908084Y-40460351D01*
X178913068Y-40390659D01*
X178954939Y-40334725D01*
X178985915Y-40317810D01*
X179117331Y-40268796D01*
X179232546Y-40182546D01*
X179318796Y-40067331D01*
X179369091Y-39932483D01*
X179375500Y-39872873D01*
X179375499Y-38077128D01*
X179369091Y-38017517D01*
X179363496Y-38002517D01*
X179318797Y-37882671D01*
X179318793Y-37882664D01*
X179232547Y-37767455D01*
X179232544Y-37767452D01*
X179117335Y-37681206D01*
X179117328Y-37681202D01*
X178982482Y-37630908D01*
X178982483Y-37630908D01*
X178922883Y-37624501D01*
X178922881Y-37624500D01*
X178922873Y-37624500D01*
X178922865Y-37624500D01*
X178774500Y-37624500D01*
X178707461Y-37604815D01*
X178661706Y-37552011D01*
X178650500Y-37500500D01*
X178650500Y-31979999D01*
X180557090Y-31979999D01*
X180564756Y-32077408D01*
X180564947Y-32082274D01*
X180564947Y-32104746D01*
X180568461Y-32126943D01*
X180569033Y-32131774D01*
X180574642Y-32203024D01*
X180576701Y-32229186D01*
X180576701Y-32229189D01*
X180576702Y-32229191D01*
X180599510Y-32324195D01*
X180600460Y-32328971D01*
X180603976Y-32351170D01*
X180610921Y-32372542D01*
X180612242Y-32377228D01*
X180635052Y-32472235D01*
X180635054Y-32472241D01*
X180659618Y-32531543D01*
X180672446Y-32562512D01*
X180674127Y-32567070D01*
X180681072Y-32588445D01*
X180691280Y-32608480D01*
X180693318Y-32612901D01*
X180730706Y-32703166D01*
X180781751Y-32786462D01*
X180784130Y-32790710D01*
X180784136Y-32790721D01*
X180794341Y-32810749D01*
X180800688Y-32819485D01*
X180807556Y-32828939D01*
X180810260Y-32832987D01*
X180861305Y-32916283D01*
X180861309Y-32916289D01*
X180924759Y-32990579D01*
X180927763Y-32994390D01*
X180940989Y-33012593D01*
X180956898Y-33028502D01*
X180960191Y-33032065D01*
X181023643Y-33106357D01*
X181097926Y-33169801D01*
X181097932Y-33169806D01*
X181101495Y-33173099D01*
X181117407Y-33189011D01*
X181135613Y-33202238D01*
X181139407Y-33205229D01*
X181213711Y-33268691D01*
X181213713Y-33268692D01*
X181297014Y-33319739D01*
X181301051Y-33322436D01*
X181319251Y-33335659D01*
X181339309Y-33345879D01*
X181343500Y-33348225D01*
X181426834Y-33399293D01*
X181517133Y-33436696D01*
X181521501Y-33438710D01*
X181541551Y-33448926D01*
X181562951Y-33455879D01*
X181567492Y-33457555D01*
X181657764Y-33494947D01*
X181657766Y-33494947D01*
X181657770Y-33494949D01*
X181719790Y-33509838D01*
X181752773Y-33517757D01*
X181757438Y-33519072D01*
X181772872Y-33524087D01*
X181778828Y-33526023D01*
X181778829Y-33526023D01*
X181778832Y-33526024D01*
X181801049Y-33529542D01*
X181805775Y-33530481D01*
X181900814Y-33553299D01*
X181998234Y-33560966D01*
X182003051Y-33561536D01*
X182019801Y-33564189D01*
X182025253Y-33565053D01*
X182047725Y-33565053D01*
X182052591Y-33565244D01*
X182062438Y-33566018D01*
X182150000Y-33572910D01*
X182237561Y-33566018D01*
X182247409Y-33565244D01*
X182252275Y-33565053D01*
X182274743Y-33565053D01*
X182274746Y-33565053D01*
X182296954Y-33561535D01*
X182301756Y-33560966D01*
X182399186Y-33553299D01*
X182494234Y-33530479D01*
X182498906Y-33529549D01*
X182521168Y-33526024D01*
X182542590Y-33519063D01*
X182547209Y-33517761D01*
X182642236Y-33494947D01*
X182732534Y-33457544D01*
X182737023Y-33455887D01*
X182758449Y-33448926D01*
X182778520Y-33438699D01*
X182782861Y-33436698D01*
X182873166Y-33399293D01*
X182956514Y-33348217D01*
X182960686Y-33345881D01*
X182980749Y-33335659D01*
X182998948Y-33322436D01*
X183002964Y-33319752D01*
X183086289Y-33268691D01*
X183160596Y-33205226D01*
X183164376Y-33202245D01*
X183182593Y-33189011D01*
X183198507Y-33173096D01*
X183202048Y-33169822D01*
X183276357Y-33106357D01*
X183339822Y-33032048D01*
X183343096Y-33028507D01*
X183359011Y-33012593D01*
X183372245Y-32994376D01*
X183375226Y-32990596D01*
X183438691Y-32916289D01*
X183489752Y-32832965D01*
X183492443Y-32828939D01*
X183505659Y-32810749D01*
X183515881Y-32790686D01*
X183518217Y-32786514D01*
X183569293Y-32703166D01*
X183606698Y-32612861D01*
X183608699Y-32608520D01*
X183618926Y-32588449D01*
X183625887Y-32567023D01*
X183627544Y-32562534D01*
X183664947Y-32472236D01*
X183687761Y-32377209D01*
X183689063Y-32372590D01*
X183696024Y-32351168D01*
X183699549Y-32328906D01*
X183700479Y-32324234D01*
X183723299Y-32229186D01*
X183730966Y-32131759D01*
X183731537Y-32126943D01*
X183735053Y-32104746D01*
X183735668Y-32073371D01*
X183735844Y-32069775D01*
X183742910Y-31980000D01*
X183735844Y-31890227D01*
X183735668Y-31886624D01*
X183735053Y-31855254D01*
X183731537Y-31833054D01*
X183730965Y-31828227D01*
X183723299Y-31730814D01*
X183700481Y-31635775D01*
X183699542Y-31631049D01*
X183696024Y-31608832D01*
X183689072Y-31587438D01*
X183687757Y-31582773D01*
X183679838Y-31549790D01*
X183664949Y-31487770D01*
X183664944Y-31487758D01*
X183627555Y-31397492D01*
X183625874Y-31392936D01*
X183618926Y-31371551D01*
X183608710Y-31351501D01*
X183606696Y-31347133D01*
X183569293Y-31256834D01*
X183518225Y-31173500D01*
X183515879Y-31169309D01*
X183505659Y-31149251D01*
X183492436Y-31131051D01*
X183489739Y-31127014D01*
X183438691Y-31043711D01*
X183375229Y-30969407D01*
X183372238Y-30965613D01*
X183359011Y-30947407D01*
X183343099Y-30931495D01*
X183339806Y-30927932D01*
X183339801Y-30927926D01*
X183276357Y-30853643D01*
X183202065Y-30790191D01*
X183198499Y-30786895D01*
X183182593Y-30770989D01*
X183164390Y-30757763D01*
X183160579Y-30754759D01*
X183160578Y-30754758D01*
X183086289Y-30691309D01*
X183086283Y-30691305D01*
X183002987Y-30640260D01*
X182998939Y-30637556D01*
X182989485Y-30630688D01*
X182980749Y-30624341D01*
X182972057Y-30619912D01*
X182960710Y-30614130D01*
X182956462Y-30611751D01*
X182873166Y-30560706D01*
X182782901Y-30523318D01*
X182778480Y-30521280D01*
X182772054Y-30518006D01*
X182758449Y-30511074D01*
X182758446Y-30511073D01*
X182758444Y-30511072D01*
X182758445Y-30511072D01*
X182737070Y-30504127D01*
X182732512Y-30502446D01*
X182701543Y-30489618D01*
X182642241Y-30465054D01*
X182642235Y-30465052D01*
X182547228Y-30442242D01*
X182542542Y-30440921D01*
X182521170Y-30433976D01*
X182498971Y-30430460D01*
X182494195Y-30429510D01*
X182399191Y-30406702D01*
X182399189Y-30406701D01*
X182399186Y-30406701D01*
X182373024Y-30404642D01*
X182301774Y-30399033D01*
X182296943Y-30398461D01*
X182274746Y-30394947D01*
X182252275Y-30394947D01*
X182247409Y-30394756D01*
X182150000Y-30387090D01*
X182052591Y-30394756D01*
X182047725Y-30394947D01*
X182025255Y-30394947D01*
X182025254Y-30394947D01*
X182023088Y-30395290D01*
X182003058Y-30398461D01*
X181998227Y-30399033D01*
X181900811Y-30406701D01*
X181900806Y-30406702D01*
X181805804Y-30429510D01*
X181801029Y-30430460D01*
X181778828Y-30433976D01*
X181757451Y-30440922D01*
X181752767Y-30442243D01*
X181657767Y-30465052D01*
X181657758Y-30465055D01*
X181567501Y-30502440D01*
X181562936Y-30504124D01*
X181541562Y-30511069D01*
X181541545Y-30511076D01*
X181521517Y-30521280D01*
X181517097Y-30523318D01*
X181426841Y-30560703D01*
X181426829Y-30560709D01*
X181343531Y-30611754D01*
X181339285Y-30614132D01*
X181319253Y-30624339D01*
X181319244Y-30624345D01*
X181301057Y-30637557D01*
X181297013Y-30640259D01*
X181213708Y-30691311D01*
X181139420Y-30754758D01*
X181135598Y-30757771D01*
X181117414Y-30770982D01*
X181117408Y-30770987D01*
X181101498Y-30786895D01*
X181097926Y-30790197D01*
X181023642Y-30853642D01*
X180960197Y-30927926D01*
X180956895Y-30931498D01*
X180940987Y-30947408D01*
X180940982Y-30947414D01*
X180927771Y-30965598D01*
X180924758Y-30969420D01*
X180861311Y-31043708D01*
X180810259Y-31127013D01*
X180807557Y-31131057D01*
X180794345Y-31149244D01*
X180794339Y-31149253D01*
X180784132Y-31169285D01*
X180781754Y-31173531D01*
X180730709Y-31256829D01*
X180730703Y-31256841D01*
X180693318Y-31347097D01*
X180691280Y-31351517D01*
X180681076Y-31371545D01*
X180681069Y-31371562D01*
X180674124Y-31392936D01*
X180672440Y-31397501D01*
X180635055Y-31487758D01*
X180635052Y-31487767D01*
X180612243Y-31582767D01*
X180610922Y-31587451D01*
X180603976Y-31608828D01*
X180600460Y-31631029D01*
X180599510Y-31635804D01*
X180576702Y-31730806D01*
X180576701Y-31730811D01*
X180569033Y-31828227D01*
X180568461Y-31833058D01*
X180564947Y-31855254D01*
X180564947Y-31877725D01*
X180564756Y-31882591D01*
X180557090Y-31979999D01*
X178650500Y-31979999D01*
X178650500Y-22453822D01*
X178652224Y-22438202D01*
X178651939Y-22438175D01*
X178652673Y-22430413D01*
X178650500Y-22361252D01*
X178650500Y-22331736D01*
X178650500Y-22331730D01*
X178649631Y-22324859D01*
X178649173Y-22319032D01*
X178647710Y-22272453D01*
X178642119Y-22253210D01*
X178638173Y-22234158D01*
X178635664Y-22214288D01*
X178618504Y-22170947D01*
X178616624Y-22165459D01*
X178603618Y-22120690D01*
X178593422Y-22103450D01*
X178584861Y-22085974D01*
X178577487Y-22067350D01*
X178577486Y-22067348D01*
X178550079Y-22029625D01*
X178546888Y-22024766D01*
X178523172Y-21984663D01*
X178523165Y-21984654D01*
X178509006Y-21970495D01*
X178496368Y-21955699D01*
X178484594Y-21939493D01*
X178448688Y-21909789D01*
X178444376Y-21905866D01*
X174714590Y-18176079D01*
X174681105Y-18114756D01*
X174686089Y-18045064D01*
X174727961Y-17989131D01*
X174770175Y-17968624D01*
X174881675Y-17938748D01*
X174926486Y-17926742D01*
X174926489Y-17926740D01*
X174926496Y-17926739D01*
X175132734Y-17830568D01*
X175319139Y-17700047D01*
X175480047Y-17539139D01*
X175610568Y-17352734D01*
X175637618Y-17294724D01*
X175683790Y-17242285D01*
X175750983Y-17223133D01*
X175817865Y-17243348D01*
X175862382Y-17294725D01*
X175889429Y-17352728D01*
X175889432Y-17352734D01*
X176019954Y-17539141D01*
X176180858Y-17700045D01*
X176180861Y-17700047D01*
X176367266Y-17830568D01*
X176573504Y-17926739D01*
X176573509Y-17926740D01*
X176573511Y-17926741D01*
X176584950Y-17929806D01*
X176793308Y-17985635D01*
X176937258Y-17998229D01*
X177019998Y-18005468D01*
X177020000Y-18005468D01*
X177020002Y-18005468D01*
X177078842Y-18000320D01*
X177246692Y-17985635D01*
X177466496Y-17926739D01*
X177672734Y-17830568D01*
X177859139Y-17700047D01*
X178020047Y-17539139D01*
X178150568Y-17352734D01*
X178177618Y-17294724D01*
X178223790Y-17242285D01*
X178290983Y-17223133D01*
X178357865Y-17243348D01*
X178402382Y-17294725D01*
X178429429Y-17352728D01*
X178429432Y-17352734D01*
X178559954Y-17539141D01*
X178720858Y-17700045D01*
X178720861Y-17700047D01*
X178907266Y-17830568D01*
X179113504Y-17926739D01*
X179113509Y-17926740D01*
X179113511Y-17926741D01*
X179124950Y-17929806D01*
X179333308Y-17985635D01*
X179477258Y-17998229D01*
X179559998Y-18005468D01*
X179560000Y-18005468D01*
X179560002Y-18005468D01*
X179618842Y-18000320D01*
X179786692Y-17985635D01*
X180006496Y-17926739D01*
X180212734Y-17830568D01*
X180399139Y-17700047D01*
X180560047Y-17539139D01*
X180690568Y-17352734D01*
X180786739Y-17146496D01*
X180845635Y-16926692D01*
X180865468Y-16700000D01*
X180845635Y-16473308D01*
X180786739Y-16253504D01*
X180690568Y-16047266D01*
X180560047Y-15860861D01*
X180560045Y-15860858D01*
X180399141Y-15699954D01*
X180212734Y-15569432D01*
X180212732Y-15569431D01*
X180006497Y-15473261D01*
X180006488Y-15473258D01*
X179786697Y-15414366D01*
X179786693Y-15414365D01*
X179786692Y-15414365D01*
X179786691Y-15414364D01*
X179786686Y-15414364D01*
X179560002Y-15394532D01*
X179559998Y-15394532D01*
X179333313Y-15414364D01*
X179333302Y-15414366D01*
X179113511Y-15473258D01*
X179113502Y-15473261D01*
X178907267Y-15569431D01*
X178907265Y-15569432D01*
X178720858Y-15699954D01*
X178559954Y-15860858D01*
X178429432Y-16047265D01*
X178429431Y-16047267D01*
X178402382Y-16105275D01*
X178356209Y-16157714D01*
X178289016Y-16176866D01*
X178222135Y-16156650D01*
X178177618Y-16105275D01*
X178150686Y-16047520D01*
X178150568Y-16047266D01*
X178020047Y-15860861D01*
X178020045Y-15860858D01*
X177859141Y-15699954D01*
X177672734Y-15569432D01*
X177672732Y-15569431D01*
X177466497Y-15473261D01*
X177466488Y-15473258D01*
X177246697Y-15414366D01*
X177246693Y-15414365D01*
X177246692Y-15414365D01*
X177246691Y-15414364D01*
X177246686Y-15414364D01*
X177020002Y-15394532D01*
X177019998Y-15394532D01*
X176793313Y-15414364D01*
X176793302Y-15414366D01*
X176573511Y-15473258D01*
X176573502Y-15473261D01*
X176367267Y-15569431D01*
X176367265Y-15569432D01*
X176180858Y-15699954D01*
X176019954Y-15860858D01*
X175889432Y-16047265D01*
X175889431Y-16047267D01*
X175862382Y-16105275D01*
X175816209Y-16157714D01*
X175749016Y-16176866D01*
X175682135Y-16156650D01*
X175637618Y-16105275D01*
X175610686Y-16047520D01*
X175610568Y-16047266D01*
X175480047Y-15860861D01*
X175480045Y-15860858D01*
X175319141Y-15699954D01*
X175132734Y-15569432D01*
X175132732Y-15569431D01*
X174926497Y-15473261D01*
X174926488Y-15473258D01*
X174706697Y-15414366D01*
X174706693Y-15414365D01*
X174706692Y-15414365D01*
X174706691Y-15414364D01*
X174706686Y-15414364D01*
X174480002Y-15394532D01*
X174479998Y-15394532D01*
X174253313Y-15414364D01*
X174253302Y-15414366D01*
X174033511Y-15473258D01*
X174033502Y-15473261D01*
X173827267Y-15569431D01*
X173827265Y-15569432D01*
X173640858Y-15699954D01*
X173479954Y-15860858D01*
X173349432Y-16047265D01*
X173349431Y-16047267D01*
X173322382Y-16105275D01*
X173276209Y-16157714D01*
X173209016Y-16176866D01*
X173142135Y-16156650D01*
X173097618Y-16105275D01*
X173070686Y-16047520D01*
X173070568Y-16047266D01*
X172940047Y-15860861D01*
X172940045Y-15860858D01*
X172779141Y-15699954D01*
X172592734Y-15569432D01*
X172592732Y-15569431D01*
X172386497Y-15473261D01*
X172386488Y-15473258D01*
X172166697Y-15414366D01*
X172166693Y-15414365D01*
X172166692Y-15414365D01*
X172166691Y-15414364D01*
X172166686Y-15414364D01*
X171940002Y-15394532D01*
X171939998Y-15394532D01*
X171713313Y-15414364D01*
X171713302Y-15414366D01*
X171493511Y-15473258D01*
X171493502Y-15473261D01*
X171287267Y-15569431D01*
X171287265Y-15569432D01*
X171100858Y-15699954D01*
X170939954Y-15860858D01*
X170809432Y-16047265D01*
X170809431Y-16047267D01*
X170782382Y-16105275D01*
X170736209Y-16157714D01*
X170669016Y-16176866D01*
X170602135Y-16156650D01*
X170557618Y-16105275D01*
X170530686Y-16047520D01*
X170530568Y-16047266D01*
X170400047Y-15860861D01*
X170400045Y-15860858D01*
X170239141Y-15699954D01*
X170052734Y-15569432D01*
X170052732Y-15569431D01*
X169846497Y-15473261D01*
X169846488Y-15473258D01*
X169626697Y-15414366D01*
X169626693Y-15414365D01*
X169626692Y-15414365D01*
X169626691Y-15414364D01*
X169626686Y-15414364D01*
X169400002Y-15394532D01*
X169399998Y-15394532D01*
X169173313Y-15414364D01*
X169173302Y-15414366D01*
X168953511Y-15473258D01*
X168953502Y-15473261D01*
X168747267Y-15569431D01*
X168747265Y-15569432D01*
X168560858Y-15699954D01*
X168399954Y-15860858D01*
X168269432Y-16047265D01*
X168269431Y-16047267D01*
X168242382Y-16105275D01*
X168196209Y-16157714D01*
X168129016Y-16176866D01*
X168062135Y-16156650D01*
X168017618Y-16105275D01*
X167990686Y-16047520D01*
X167990568Y-16047266D01*
X167860047Y-15860861D01*
X167860045Y-15860858D01*
X167699141Y-15699954D01*
X167512734Y-15569432D01*
X167512732Y-15569431D01*
X167306497Y-15473261D01*
X167306488Y-15473258D01*
X167086697Y-15414366D01*
X167086693Y-15414365D01*
X167086692Y-15414365D01*
X167086691Y-15414364D01*
X167086686Y-15414364D01*
X166860002Y-15394532D01*
X166859998Y-15394532D01*
X166633313Y-15414364D01*
X166633302Y-15414366D01*
X166413511Y-15473258D01*
X166413502Y-15473261D01*
X166207267Y-15569431D01*
X166207265Y-15569432D01*
X166020858Y-15699954D01*
X165859954Y-15860858D01*
X165729432Y-16047265D01*
X165729431Y-16047267D01*
X165702382Y-16105275D01*
X165656209Y-16157714D01*
X165589016Y-16176866D01*
X165522135Y-16156650D01*
X165477618Y-16105275D01*
X165450686Y-16047520D01*
X165450568Y-16047266D01*
X165320047Y-15860861D01*
X165320045Y-15860858D01*
X165159141Y-15699954D01*
X164972734Y-15569432D01*
X164972732Y-15569431D01*
X164766497Y-15473261D01*
X164766488Y-15473258D01*
X164546697Y-15414366D01*
X164546693Y-15414365D01*
X164546692Y-15414365D01*
X164546691Y-15414364D01*
X164546686Y-15414364D01*
X164320002Y-15394532D01*
X164319998Y-15394532D01*
X164093313Y-15414364D01*
X164093302Y-15414366D01*
X163873511Y-15473258D01*
X163873502Y-15473261D01*
X163667267Y-15569431D01*
X163667265Y-15569432D01*
X163480858Y-15699954D01*
X163319954Y-15860858D01*
X163189432Y-16047265D01*
X163189431Y-16047267D01*
X163162382Y-16105275D01*
X163116209Y-16157714D01*
X163049016Y-16176866D01*
X162982135Y-16156650D01*
X162937618Y-16105275D01*
X162910686Y-16047520D01*
X162910568Y-16047266D01*
X162780047Y-15860861D01*
X162780045Y-15860858D01*
X162619141Y-15699954D01*
X162432734Y-15569432D01*
X162432732Y-15569431D01*
X162226497Y-15473261D01*
X162226488Y-15473258D01*
X162006697Y-15414366D01*
X162006693Y-15414365D01*
X162006692Y-15414365D01*
X162006691Y-15414364D01*
X162006686Y-15414364D01*
X161780002Y-15394532D01*
X161779998Y-15394532D01*
X161553313Y-15414364D01*
X161553302Y-15414366D01*
X161333511Y-15473258D01*
X161333502Y-15473261D01*
X161127267Y-15569431D01*
X161127265Y-15569432D01*
X160940858Y-15699954D01*
X160779954Y-15860858D01*
X160649432Y-16047265D01*
X160649431Y-16047267D01*
X160553261Y-16253502D01*
X160553258Y-16253511D01*
X160494366Y-16473302D01*
X160494364Y-16473313D01*
X160474532Y-16699998D01*
X160474532Y-16700001D01*
X160494364Y-16926686D01*
X160494366Y-16926697D01*
X160553258Y-17146488D01*
X160553261Y-17146497D01*
X160649431Y-17352732D01*
X160649432Y-17352734D01*
X160779954Y-17539141D01*
X160940858Y-17700045D01*
X160940861Y-17700047D01*
X161127266Y-17830568D01*
X161333504Y-17926739D01*
X161333509Y-17926740D01*
X161333511Y-17926741D01*
X161344950Y-17929806D01*
X161553308Y-17985635D01*
X161697258Y-17998229D01*
X161779998Y-18005468D01*
X161780000Y-18005468D01*
X161780002Y-18005468D01*
X161838842Y-18000320D01*
X162006692Y-17985635D01*
X162226496Y-17926739D01*
X162432734Y-17830568D01*
X162619139Y-17700047D01*
X162780047Y-17539139D01*
X162910568Y-17352734D01*
X162937618Y-17294724D01*
X162983790Y-17242285D01*
X163050983Y-17223133D01*
X163117865Y-17243348D01*
X163162382Y-17294725D01*
X163189429Y-17352728D01*
X163189432Y-17352734D01*
X163319954Y-17539141D01*
X163480858Y-17700045D01*
X163480861Y-17700047D01*
X163667266Y-17830568D01*
X163873504Y-17926739D01*
X163873509Y-17926740D01*
X163873511Y-17926741D01*
X163884950Y-17929806D01*
X164093308Y-17985635D01*
X164237258Y-17998229D01*
X164319998Y-18005468D01*
X164320000Y-18005468D01*
X164320002Y-18005468D01*
X164378842Y-18000320D01*
X164546692Y-17985635D01*
X164766496Y-17926739D01*
X164898929Y-17864983D01*
X164968007Y-17854492D01*
X165031791Y-17883012D01*
X165039015Y-17889685D01*
X168338181Y-21188851D01*
X168371666Y-21250174D01*
X168374500Y-21276532D01*
X168374500Y-37485500D01*
X168354815Y-37552539D01*
X168302011Y-37598294D01*
X168250501Y-37609500D01*
X168102130Y-37609500D01*
X168102123Y-37609501D01*
X168042516Y-37615908D01*
X167907671Y-37666202D01*
X167907664Y-37666206D01*
X167792455Y-37752452D01*
X167792452Y-37752455D01*
X167706206Y-37867664D01*
X167706202Y-37867671D01*
X167655908Y-38002517D01*
X167649501Y-38062116D01*
X167649501Y-38062123D01*
X167649500Y-38062135D01*
X167649500Y-39857870D01*
X167649501Y-39857876D01*
X167655908Y-39917483D01*
X167706202Y-40052328D01*
X167706206Y-40052335D01*
X167792452Y-40167544D01*
X167792455Y-40167547D01*
X167907664Y-40253793D01*
X167907671Y-40253797D01*
X168039081Y-40302810D01*
X168095015Y-40344681D01*
X168119432Y-40410145D01*
X168104580Y-40478418D01*
X168083430Y-40506673D01*
X167961503Y-40628600D01*
X167826348Y-40821623D01*
X167771771Y-40865248D01*
X167724773Y-40874500D01*
X165775227Y-40874500D01*
X165708188Y-40854815D01*
X165673652Y-40821623D01*
X165538496Y-40628600D01*
X165538495Y-40628599D01*
X165416567Y-40506671D01*
X165383084Y-40445351D01*
X165388068Y-40375659D01*
X165429939Y-40319725D01*
X165460915Y-40302810D01*
X165592331Y-40253796D01*
X165707546Y-40167546D01*
X165793796Y-40052331D01*
X165844091Y-39917483D01*
X165850500Y-39857873D01*
X165850499Y-38062128D01*
X165844091Y-38002517D01*
X165839788Y-37990981D01*
X165793797Y-37867671D01*
X165793793Y-37867664D01*
X165707547Y-37752455D01*
X165707544Y-37752452D01*
X165592335Y-37666206D01*
X165592328Y-37666202D01*
X165457482Y-37615908D01*
X165457483Y-37615908D01*
X165397883Y-37609501D01*
X165397881Y-37609500D01*
X165397873Y-37609500D01*
X165397865Y-37609500D01*
X165249500Y-37609500D01*
X165182461Y-37589815D01*
X165136706Y-37537011D01*
X165125500Y-37485500D01*
X165125500Y-25662822D01*
X165127224Y-25647202D01*
X165126939Y-25647176D01*
X165127671Y-25639420D01*
X165127673Y-25639413D01*
X165125500Y-25570265D01*
X165125500Y-25540730D01*
X165124631Y-25533852D01*
X165124172Y-25528023D01*
X165122709Y-25481452D01*
X165117122Y-25462224D01*
X165113174Y-25443164D01*
X165110663Y-25423284D01*
X165093512Y-25379967D01*
X165091619Y-25374438D01*
X165078618Y-25329689D01*
X165078616Y-25329686D01*
X165068423Y-25312451D01*
X165059861Y-25294974D01*
X165052487Y-25276350D01*
X165052486Y-25276348D01*
X165025079Y-25238625D01*
X165021888Y-25233766D01*
X165017454Y-25226269D01*
X164998170Y-25193660D01*
X164998168Y-25193658D01*
X164998165Y-25193654D01*
X164984006Y-25179495D01*
X164971368Y-25164699D01*
X164959594Y-25148493D01*
X164937400Y-25130133D01*
X164923688Y-25118789D01*
X164919376Y-25114866D01*
X157975095Y-18170585D01*
X157941610Y-18109262D01*
X157946594Y-18039570D01*
X157988466Y-17983637D01*
X158030681Y-17963130D01*
X158115170Y-17940491D01*
X158166486Y-17926742D01*
X158166489Y-17926740D01*
X158166496Y-17926739D01*
X158372734Y-17830568D01*
X158559139Y-17700047D01*
X158720047Y-17539139D01*
X158850568Y-17352734D01*
X158946739Y-17146496D01*
X159005635Y-16926692D01*
X159025468Y-16700000D01*
X159005635Y-16473308D01*
X158946739Y-16253504D01*
X158850568Y-16047266D01*
X158720047Y-15860861D01*
X158720045Y-15860858D01*
X158559141Y-15699954D01*
X158372734Y-15569432D01*
X158372732Y-15569431D01*
X158166497Y-15473261D01*
X158166488Y-15473258D01*
X157946697Y-15414366D01*
X157946693Y-15414365D01*
X157946692Y-15414365D01*
X157946691Y-15414364D01*
X157946686Y-15414364D01*
X157720002Y-15394532D01*
X157719998Y-15394532D01*
X157493313Y-15414364D01*
X157493302Y-15414366D01*
X157273511Y-15473258D01*
X157273502Y-15473261D01*
X157067267Y-15569431D01*
X157067265Y-15569432D01*
X156880858Y-15699954D01*
X156719954Y-15860858D01*
X156589432Y-16047265D01*
X156589431Y-16047267D01*
X156562382Y-16105275D01*
X156516209Y-16157714D01*
X156449016Y-16176866D01*
X156382135Y-16156650D01*
X156337618Y-16105275D01*
X156310686Y-16047520D01*
X156310568Y-16047266D01*
X156180047Y-15860861D01*
X156180045Y-15860858D01*
X156019141Y-15699954D01*
X155832734Y-15569432D01*
X155832732Y-15569431D01*
X155626497Y-15473261D01*
X155626488Y-15473258D01*
X155406697Y-15414366D01*
X155406693Y-15414365D01*
X155406692Y-15414365D01*
X155406691Y-15414364D01*
X155406686Y-15414364D01*
X155180002Y-15394532D01*
X155179998Y-15394532D01*
X154953313Y-15414364D01*
X154953302Y-15414366D01*
X154733511Y-15473258D01*
X154733502Y-15473261D01*
X154527267Y-15569431D01*
X154527265Y-15569432D01*
X154340858Y-15699954D01*
X154179954Y-15860858D01*
X154049432Y-16047265D01*
X154049431Y-16047267D01*
X154022382Y-16105275D01*
X153976209Y-16157714D01*
X153909016Y-16176866D01*
X153842135Y-16156650D01*
X153797618Y-16105275D01*
X153770686Y-16047520D01*
X153770568Y-16047266D01*
X153640047Y-15860861D01*
X153640045Y-15860858D01*
X153479141Y-15699954D01*
X153292734Y-15569432D01*
X153292732Y-15569431D01*
X153086497Y-15473261D01*
X153086488Y-15473258D01*
X152866697Y-15414366D01*
X152866693Y-15414365D01*
X152866692Y-15414365D01*
X152866691Y-15414364D01*
X152866686Y-15414364D01*
X152640002Y-15394532D01*
X152639998Y-15394532D01*
X152413313Y-15414364D01*
X152413302Y-15414366D01*
X152193511Y-15473258D01*
X152193502Y-15473261D01*
X151987267Y-15569431D01*
X151987265Y-15569432D01*
X151800858Y-15699954D01*
X151639954Y-15860858D01*
X151509432Y-16047265D01*
X151509431Y-16047267D01*
X151482382Y-16105275D01*
X151436209Y-16157714D01*
X151369016Y-16176866D01*
X151302135Y-16156650D01*
X151257618Y-16105275D01*
X151230686Y-16047520D01*
X151230568Y-16047266D01*
X151100047Y-15860861D01*
X151100045Y-15860858D01*
X150939141Y-15699954D01*
X150752734Y-15569432D01*
X150752732Y-15569431D01*
X150546497Y-15473261D01*
X150546488Y-15473258D01*
X150326697Y-15414366D01*
X150326693Y-15414365D01*
X150326692Y-15414365D01*
X150326691Y-15414364D01*
X150326686Y-15414364D01*
X150100002Y-15394532D01*
X150099998Y-15394532D01*
X149873313Y-15414364D01*
X149873302Y-15414366D01*
X149653511Y-15473258D01*
X149653502Y-15473261D01*
X149447267Y-15569431D01*
X149447265Y-15569432D01*
X149260858Y-15699954D01*
X149099954Y-15860858D01*
X148969432Y-16047265D01*
X148969431Y-16047267D01*
X148942382Y-16105275D01*
X148896209Y-16157714D01*
X148829016Y-16176866D01*
X148762135Y-16156650D01*
X148717618Y-16105275D01*
X148690686Y-16047520D01*
X148690568Y-16047266D01*
X148560047Y-15860861D01*
X148560045Y-15860858D01*
X148399141Y-15699954D01*
X148212734Y-15569432D01*
X148212732Y-15569431D01*
X148006497Y-15473261D01*
X148006488Y-15473258D01*
X147786697Y-15414366D01*
X147786693Y-15414365D01*
X147786692Y-15414365D01*
X147786691Y-15414364D01*
X147786686Y-15414364D01*
X147560002Y-15394532D01*
X147559998Y-15394532D01*
X147333313Y-15414364D01*
X147333302Y-15414366D01*
X147113511Y-15473258D01*
X147113502Y-15473261D01*
X146907267Y-15569431D01*
X146907265Y-15569432D01*
X146720858Y-15699954D01*
X146559954Y-15860858D01*
X146429432Y-16047265D01*
X146429431Y-16047267D01*
X146402382Y-16105275D01*
X146356209Y-16157714D01*
X146289016Y-16176866D01*
X146222135Y-16156650D01*
X146177618Y-16105275D01*
X146150686Y-16047520D01*
X146150568Y-16047266D01*
X146020047Y-15860861D01*
X146020045Y-15860858D01*
X145859141Y-15699954D01*
X145672734Y-15569432D01*
X145672732Y-15569431D01*
X145466497Y-15473261D01*
X145466488Y-15473258D01*
X145246697Y-15414366D01*
X145246693Y-15414365D01*
X145246692Y-15414365D01*
X145246691Y-15414364D01*
X145246686Y-15414364D01*
X145020002Y-15394532D01*
X145019998Y-15394532D01*
X144793313Y-15414364D01*
X144793302Y-15414366D01*
X144573511Y-15473258D01*
X144573502Y-15473261D01*
X144367267Y-15569431D01*
X144367265Y-15569432D01*
X144180858Y-15699954D01*
X144019954Y-15860858D01*
X143889433Y-16047264D01*
X143889432Y-16047266D01*
X143889315Y-16047518D01*
X143862106Y-16105867D01*
X143815933Y-16158306D01*
X143748739Y-16177457D01*
X143681858Y-16157241D01*
X143637342Y-16105865D01*
X143610135Y-16047520D01*
X143610134Y-16047518D01*
X143479657Y-15861179D01*
X143318820Y-15700342D01*
X143132482Y-15569865D01*
X142926328Y-15473734D01*
X142730000Y-15421127D01*
X142730000Y-16264498D01*
X142622315Y-16215320D01*
X142515763Y-16200000D01*
X142444237Y-16200000D01*
X142337685Y-16215320D01*
X142230000Y-16264498D01*
X142230000Y-15421127D01*
X142033671Y-15473734D01*
X141827517Y-15569865D01*
X141641179Y-15700342D01*
X141480342Y-15861179D01*
X141349867Y-16047515D01*
X141322657Y-16105867D01*
X141276484Y-16158306D01*
X141209290Y-16177457D01*
X141142409Y-16157241D01*
X141097893Y-16105865D01*
X141070685Y-16047518D01*
X141070568Y-16047266D01*
X140940047Y-15860861D01*
X140940045Y-15860858D01*
X140779141Y-15699954D01*
X140592734Y-15569432D01*
X140592732Y-15569431D01*
X140386497Y-15473261D01*
X140386488Y-15473258D01*
X140166697Y-15414366D01*
X140166693Y-15414365D01*
X140166692Y-15414365D01*
X140166691Y-15414364D01*
X140166686Y-15414364D01*
X139940002Y-15394532D01*
X139939998Y-15394532D01*
X139713313Y-15414364D01*
X139713302Y-15414366D01*
X139493511Y-15473258D01*
X139493502Y-15473261D01*
X139287267Y-15569431D01*
X139287265Y-15569432D01*
X139100858Y-15699954D01*
X138939954Y-15860858D01*
X138809432Y-16047265D01*
X138809431Y-16047267D01*
X138782382Y-16105275D01*
X138736209Y-16157714D01*
X138669016Y-16176866D01*
X138602135Y-16156650D01*
X138557618Y-16105275D01*
X138530686Y-16047520D01*
X138530568Y-16047266D01*
X138400047Y-15860861D01*
X138400045Y-15860858D01*
X138239141Y-15699954D01*
X138052734Y-15569432D01*
X138052732Y-15569431D01*
X137846497Y-15473261D01*
X137846488Y-15473258D01*
X137626697Y-15414366D01*
X137626693Y-15414365D01*
X137626692Y-15414365D01*
X137626691Y-15414364D01*
X137626686Y-15414364D01*
X137400002Y-15394532D01*
X137399998Y-15394532D01*
X137173313Y-15414364D01*
X137173302Y-15414366D01*
X136953511Y-15473258D01*
X136953502Y-15473261D01*
X136747267Y-15569431D01*
X136747265Y-15569432D01*
X136560858Y-15699954D01*
X136399954Y-15860858D01*
X136269432Y-16047265D01*
X136269431Y-16047267D01*
X136242382Y-16105275D01*
X136196209Y-16157714D01*
X136129016Y-16176866D01*
X136062135Y-16156650D01*
X136017618Y-16105275D01*
X135990686Y-16047520D01*
X135990568Y-16047266D01*
X135860047Y-15860861D01*
X135860045Y-15860858D01*
X135699141Y-15699954D01*
X135512734Y-15569432D01*
X135512732Y-15569431D01*
X135306497Y-15473261D01*
X135306488Y-15473258D01*
X135086697Y-15414366D01*
X135086693Y-15414365D01*
X135086692Y-15414365D01*
X135086691Y-15414364D01*
X135086686Y-15414364D01*
X134860002Y-15394532D01*
X134859998Y-15394532D01*
X134633313Y-15414364D01*
X134633302Y-15414366D01*
X134413511Y-15473258D01*
X134413502Y-15473261D01*
X134207267Y-15569431D01*
X134207265Y-15569432D01*
X134020858Y-15699954D01*
X133859954Y-15860858D01*
X133729432Y-16047265D01*
X133729431Y-16047267D01*
X133633261Y-16253502D01*
X133633258Y-16253511D01*
X133574366Y-16473302D01*
X133574364Y-16473313D01*
X133554532Y-16699998D01*
X133554532Y-16700001D01*
X133574364Y-16926686D01*
X133574366Y-16926697D01*
X133633258Y-17146488D01*
X133633261Y-17146497D01*
X133729431Y-17352732D01*
X133729432Y-17352734D01*
X133859954Y-17539141D01*
X134020858Y-17700045D01*
X134020861Y-17700047D01*
X134207266Y-17830568D01*
X134413504Y-17926739D01*
X134413509Y-17926740D01*
X134413511Y-17926741D01*
X134424950Y-17929806D01*
X134633308Y-17985635D01*
X134777258Y-17998229D01*
X134859998Y-18005468D01*
X134860000Y-18005468D01*
X134860002Y-18005468D01*
X134918842Y-18000320D01*
X135086692Y-17985635D01*
X135306496Y-17926739D01*
X135512734Y-17830568D01*
X135699139Y-17700047D01*
X135860047Y-17539139D01*
X135990568Y-17352734D01*
X136017618Y-17294724D01*
X136063790Y-17242285D01*
X136130983Y-17223133D01*
X136197865Y-17243348D01*
X136242382Y-17294725D01*
X136269429Y-17352728D01*
X136269432Y-17352734D01*
X136399954Y-17539141D01*
X136560858Y-17700045D01*
X136560861Y-17700047D01*
X136747266Y-17830568D01*
X136953504Y-17926739D01*
X136953509Y-17926740D01*
X136953511Y-17926741D01*
X136964950Y-17929806D01*
X137173308Y-17985635D01*
X137317258Y-17998229D01*
X137399998Y-18005468D01*
X137400000Y-18005468D01*
X137400002Y-18005468D01*
X137458842Y-18000320D01*
X137626692Y-17985635D01*
X137846496Y-17926739D01*
X138052734Y-17830568D01*
X138239139Y-17700047D01*
X138400047Y-17539139D01*
X138530568Y-17352734D01*
X138557618Y-17294724D01*
X138603790Y-17242285D01*
X138670983Y-17223133D01*
X138737865Y-17243348D01*
X138782382Y-17294725D01*
X138809429Y-17352728D01*
X138809432Y-17352734D01*
X138939954Y-17539141D01*
X139100858Y-17700045D01*
X139100861Y-17700047D01*
X139287266Y-17830568D01*
X139493504Y-17926739D01*
X139493509Y-17926740D01*
X139493511Y-17926741D01*
X139504950Y-17929806D01*
X139713308Y-17985635D01*
X139857258Y-17998229D01*
X139939998Y-18005468D01*
X139940000Y-18005468D01*
X139940002Y-18005468D01*
X139998842Y-18000320D01*
X140166692Y-17985635D01*
X140386496Y-17926739D01*
X140592734Y-17830568D01*
X140779139Y-17700047D01*
X140940047Y-17539139D01*
X141070568Y-17352734D01*
X141097895Y-17294129D01*
X141144064Y-17241695D01*
X141211257Y-17222542D01*
X141278139Y-17242757D01*
X141322657Y-17294133D01*
X141349865Y-17352482D01*
X141480342Y-17538820D01*
X141641179Y-17699657D01*
X141827517Y-17830134D01*
X142033673Y-17926265D01*
X142033682Y-17926269D01*
X142229999Y-17978872D01*
X142230000Y-17978871D01*
X142230000Y-17135501D01*
X142337685Y-17184680D01*
X142444237Y-17200000D01*
X142515763Y-17200000D01*
X142622315Y-17184680D01*
X142730000Y-17135501D01*
X142730000Y-17978872D01*
X142926317Y-17926269D01*
X142926326Y-17926265D01*
X143132482Y-17830134D01*
X143318820Y-17699657D01*
X143479657Y-17538820D01*
X143610132Y-17352484D01*
X143637341Y-17294134D01*
X143683513Y-17241695D01*
X143750707Y-17222542D01*
X143817588Y-17242757D01*
X143862106Y-17294133D01*
X143889431Y-17352732D01*
X143889432Y-17352734D01*
X144019954Y-17539141D01*
X144180858Y-17700045D01*
X144180861Y-17700047D01*
X144367266Y-17830568D01*
X144573504Y-17926739D01*
X144573509Y-17926740D01*
X144573511Y-17926741D01*
X144584950Y-17929806D01*
X144793308Y-17985635D01*
X144937258Y-17998229D01*
X145019998Y-18005468D01*
X145020000Y-18005468D01*
X145020002Y-18005468D01*
X145078842Y-18000320D01*
X145246692Y-17985635D01*
X145466496Y-17926739D01*
X145672734Y-17830568D01*
X145859139Y-17700047D01*
X146020047Y-17539139D01*
X146150568Y-17352734D01*
X146177618Y-17294724D01*
X146223790Y-17242285D01*
X146290983Y-17223133D01*
X146357865Y-17243348D01*
X146402382Y-17294725D01*
X146429429Y-17352728D01*
X146429432Y-17352734D01*
X146559954Y-17539141D01*
X146720858Y-17700045D01*
X146720861Y-17700047D01*
X146907266Y-17830568D01*
X147113504Y-17926739D01*
X147113509Y-17926740D01*
X147113511Y-17926741D01*
X147124950Y-17929806D01*
X147333308Y-17985635D01*
X147477258Y-17998229D01*
X147559998Y-18005468D01*
X147560000Y-18005468D01*
X147560002Y-18005468D01*
X147618842Y-18000320D01*
X147786692Y-17985635D01*
X148006496Y-17926739D01*
X148212734Y-17830568D01*
X148399139Y-17700047D01*
X148560047Y-17539139D01*
X148690568Y-17352734D01*
X148717618Y-17294724D01*
X148763790Y-17242285D01*
X148830983Y-17223133D01*
X148897865Y-17243348D01*
X148942382Y-17294725D01*
X148969429Y-17352728D01*
X148969432Y-17352734D01*
X149099954Y-17539141D01*
X149260858Y-17700045D01*
X149260861Y-17700047D01*
X149447266Y-17830568D01*
X149653504Y-17926739D01*
X149653509Y-17926740D01*
X149653511Y-17926741D01*
X149664950Y-17929806D01*
X149873308Y-17985635D01*
X150017258Y-17998229D01*
X150099998Y-18005468D01*
X150100000Y-18005468D01*
X150100002Y-18005468D01*
X150158842Y-18000320D01*
X150326692Y-17985635D01*
X150546496Y-17926739D01*
X150696662Y-17856714D01*
X150765737Y-17846223D01*
X150829521Y-17874742D01*
X150836746Y-17881416D01*
X154838181Y-21882851D01*
X154871666Y-21944174D01*
X154874500Y-21970532D01*
X154874500Y-37485500D01*
X154854815Y-37552539D01*
X154802011Y-37598294D01*
X154750501Y-37609500D01*
X154602130Y-37609500D01*
X154602123Y-37609501D01*
X154542516Y-37615908D01*
X154407671Y-37666202D01*
X154407664Y-37666206D01*
X154292455Y-37752452D01*
X154292452Y-37752455D01*
X154206206Y-37867664D01*
X154206202Y-37867671D01*
X154155908Y-38002517D01*
X154149501Y-38062116D01*
X154149501Y-38062123D01*
X154149500Y-38062135D01*
X154149500Y-39857870D01*
X154149501Y-39857876D01*
X154155908Y-39917483D01*
X154206202Y-40052328D01*
X154206206Y-40052335D01*
X154292452Y-40167544D01*
X154292455Y-40167547D01*
X154407664Y-40253793D01*
X154407671Y-40253797D01*
X154539081Y-40302810D01*
X154595015Y-40344681D01*
X154619432Y-40410145D01*
X154604580Y-40478418D01*
X154583430Y-40506673D01*
X154461503Y-40628600D01*
X154326348Y-40821623D01*
X154271771Y-40865248D01*
X154224773Y-40874500D01*
X141075452Y-40874500D01*
X141008413Y-40854815D01*
X140987771Y-40838181D01*
X137146349Y-36996758D01*
X137112864Y-36935435D01*
X137113824Y-36878636D01*
X137151134Y-36731305D01*
X137170300Y-36500000D01*
X137170300Y-36499993D01*
X137151135Y-36268702D01*
X137151133Y-36268691D01*
X137094157Y-36043699D01*
X137000924Y-35831151D01*
X136873983Y-35636852D01*
X136873980Y-35636849D01*
X136873979Y-35636847D01*
X136716784Y-35466087D01*
X136716779Y-35466083D01*
X136716777Y-35466081D01*
X136533634Y-35323535D01*
X136533628Y-35323531D01*
X136329504Y-35213064D01*
X136329495Y-35213061D01*
X136109984Y-35137702D01*
X135919450Y-35105908D01*
X135881049Y-35099500D01*
X135648951Y-35099500D01*
X135610550Y-35105908D01*
X135420015Y-35137702D01*
X135200504Y-35213061D01*
X135200495Y-35213064D01*
X134996371Y-35323531D01*
X134996365Y-35323535D01*
X134813222Y-35466081D01*
X134813218Y-35466085D01*
X134804866Y-35475158D01*
X134744979Y-35511148D01*
X134675141Y-35509047D01*
X134617525Y-35469522D01*
X134597455Y-35434507D01*
X134568797Y-35357671D01*
X134568793Y-35357664D01*
X134482547Y-35242455D01*
X134482544Y-35242452D01*
X134367335Y-35156206D01*
X134367328Y-35156202D01*
X134232482Y-35105908D01*
X134232483Y-35105908D01*
X134172883Y-35099501D01*
X134172881Y-35099500D01*
X134172873Y-35099500D01*
X134172865Y-35099500D01*
X133974500Y-35099500D01*
X133907461Y-35079815D01*
X133861706Y-35027011D01*
X133850500Y-34975500D01*
X133850500Y-30040048D01*
X133870185Y-29973009D01*
X133886814Y-29952371D01*
X134000047Y-29839139D01*
X134130568Y-29652734D01*
X134226739Y-29446496D01*
X134285635Y-29226692D01*
X134305468Y-29000000D01*
X134285635Y-28773308D01*
X134226739Y-28553504D01*
X134130568Y-28347266D01*
X134000047Y-28160861D01*
X134000045Y-28160858D01*
X133839141Y-27999954D01*
X133652734Y-27869432D01*
X133652732Y-27869431D01*
X133446497Y-27773261D01*
X133446488Y-27773258D01*
X133226697Y-27714366D01*
X133226693Y-27714365D01*
X133226692Y-27714365D01*
X133226691Y-27714364D01*
X133226686Y-27714364D01*
X133000002Y-27694532D01*
X132999998Y-27694532D01*
X132773313Y-27714364D01*
X132773302Y-27714366D01*
X132553511Y-27773258D01*
X132553502Y-27773261D01*
X132347267Y-27869431D01*
X132347265Y-27869432D01*
X132160858Y-27999954D01*
X131999954Y-28160858D01*
X131869432Y-28347265D01*
X131869431Y-28347267D01*
X131773261Y-28553502D01*
X131773258Y-28553511D01*
X131714366Y-28773302D01*
X131714364Y-28773313D01*
X131694532Y-28999998D01*
X131694532Y-29000001D01*
X127510500Y-29000001D01*
X127510500Y-24000002D01*
X131695034Y-24000002D01*
X131714858Y-24226599D01*
X131714860Y-24226610D01*
X131773730Y-24446317D01*
X131773734Y-24446326D01*
X131869865Y-24652481D01*
X131869866Y-24652483D01*
X131920973Y-24725471D01*
X131920974Y-24725472D01*
X132602046Y-24044399D01*
X132614835Y-24125148D01*
X132672359Y-24238045D01*
X132761955Y-24327641D01*
X132874852Y-24385165D01*
X132955599Y-24397953D01*
X132274526Y-25079025D01*
X132274526Y-25079026D01*
X132347512Y-25130131D01*
X132347516Y-25130133D01*
X132553673Y-25226265D01*
X132553682Y-25226269D01*
X132773389Y-25285139D01*
X132773400Y-25285141D01*
X132999998Y-25304966D01*
X133000002Y-25304966D01*
X133226599Y-25285141D01*
X133226610Y-25285139D01*
X133446317Y-25226269D01*
X133446331Y-25226264D01*
X133652478Y-25130136D01*
X133725472Y-25079025D01*
X133044401Y-24397953D01*
X133125148Y-24385165D01*
X133238045Y-24327641D01*
X133327641Y-24238045D01*
X133385165Y-24125148D01*
X133397953Y-24044400D01*
X134079025Y-24725472D01*
X134130136Y-24652478D01*
X134226264Y-24446331D01*
X134226269Y-24446317D01*
X134285139Y-24226610D01*
X134285141Y-24226599D01*
X134304966Y-24000002D01*
X134304966Y-23999997D01*
X134285141Y-23773400D01*
X134285139Y-23773389D01*
X134226269Y-23553682D01*
X134226265Y-23553673D01*
X134130133Y-23347516D01*
X134130131Y-23347512D01*
X134079026Y-23274526D01*
X134079025Y-23274526D01*
X133397953Y-23955598D01*
X133385165Y-23874852D01*
X133327641Y-23761955D01*
X133238045Y-23672359D01*
X133125148Y-23614835D01*
X133044400Y-23602046D01*
X133725472Y-22920974D01*
X133725471Y-22920973D01*
X133652483Y-22869866D01*
X133652481Y-22869865D01*
X133446326Y-22773734D01*
X133446317Y-22773730D01*
X133226610Y-22714860D01*
X133226599Y-22714858D01*
X133000002Y-22695034D01*
X132999998Y-22695034D01*
X132773400Y-22714858D01*
X132773389Y-22714860D01*
X132553682Y-22773730D01*
X132553673Y-22773734D01*
X132347513Y-22869868D01*
X132274527Y-22920972D01*
X132274526Y-22920973D01*
X132955600Y-23602046D01*
X132874852Y-23614835D01*
X132761955Y-23672359D01*
X132672359Y-23761955D01*
X132614835Y-23874852D01*
X132602046Y-23955599D01*
X131920973Y-23274526D01*
X131920972Y-23274527D01*
X131869868Y-23347513D01*
X131773734Y-23553673D01*
X131773730Y-23553682D01*
X131714860Y-23773389D01*
X131714858Y-23773400D01*
X131695034Y-23999997D01*
X131695034Y-24000002D01*
X127510500Y-24000002D01*
X127510500Y-16739999D01*
X129757090Y-16739999D01*
X129764756Y-16837408D01*
X129764947Y-16842274D01*
X129764947Y-16864746D01*
X129768461Y-16886943D01*
X129769033Y-16891774D01*
X129774211Y-16957553D01*
X129776701Y-16989186D01*
X129776701Y-16989189D01*
X129776702Y-16989191D01*
X129799510Y-17084195D01*
X129800460Y-17088971D01*
X129803976Y-17111170D01*
X129810921Y-17132542D01*
X129812242Y-17137228D01*
X129835052Y-17232235D01*
X129835054Y-17232241D01*
X129859618Y-17291543D01*
X129872446Y-17322512D01*
X129874127Y-17327070D01*
X129881072Y-17348445D01*
X129891280Y-17368480D01*
X129893318Y-17372901D01*
X129930706Y-17463166D01*
X129981751Y-17546462D01*
X129984130Y-17550710D01*
X129984136Y-17550721D01*
X129994341Y-17570749D01*
X130000688Y-17579485D01*
X130007556Y-17588939D01*
X130010260Y-17592987D01*
X130061305Y-17676283D01*
X130061309Y-17676289D01*
X130124759Y-17750579D01*
X130127763Y-17754390D01*
X130140989Y-17772593D01*
X130156898Y-17788502D01*
X130160191Y-17792065D01*
X130223643Y-17866357D01*
X130297926Y-17929801D01*
X130297932Y-17929806D01*
X130301495Y-17933099D01*
X130317407Y-17949011D01*
X130335613Y-17962238D01*
X130339407Y-17965229D01*
X130413711Y-18028691D01*
X130477859Y-18068001D01*
X130497014Y-18079739D01*
X130501051Y-18082436D01*
X130519251Y-18095659D01*
X130539309Y-18105879D01*
X130543500Y-18108225D01*
X130626834Y-18159293D01*
X130717133Y-18196696D01*
X130721501Y-18198710D01*
X130741551Y-18208926D01*
X130762951Y-18215879D01*
X130767492Y-18217555D01*
X130857764Y-18254947D01*
X130857766Y-18254947D01*
X130857770Y-18254949D01*
X130919790Y-18269838D01*
X130952773Y-18277757D01*
X130957438Y-18279072D01*
X130972872Y-18284087D01*
X130978828Y-18286023D01*
X130978829Y-18286023D01*
X130978832Y-18286024D01*
X131001049Y-18289542D01*
X131005775Y-18290481D01*
X131100814Y-18313299D01*
X131198234Y-18320966D01*
X131203051Y-18321536D01*
X131219801Y-18324189D01*
X131225253Y-18325053D01*
X131247725Y-18325053D01*
X131252591Y-18325244D01*
X131262438Y-18326018D01*
X131350000Y-18332910D01*
X131437561Y-18326018D01*
X131447409Y-18325244D01*
X131452275Y-18325053D01*
X131474743Y-18325053D01*
X131474746Y-18325053D01*
X131496954Y-18321535D01*
X131501756Y-18320966D01*
X131599186Y-18313299D01*
X131694234Y-18290479D01*
X131698906Y-18289549D01*
X131721168Y-18286024D01*
X131742590Y-18279063D01*
X131747209Y-18277761D01*
X131842236Y-18254947D01*
X131932534Y-18217544D01*
X131937023Y-18215887D01*
X131958449Y-18208926D01*
X131978520Y-18198699D01*
X131982861Y-18196698D01*
X132073166Y-18159293D01*
X132156514Y-18108217D01*
X132160686Y-18105881D01*
X132180749Y-18095659D01*
X132198948Y-18082436D01*
X132202964Y-18079752D01*
X132286289Y-18028691D01*
X132360596Y-17965226D01*
X132364376Y-17962245D01*
X132382593Y-17949011D01*
X132398507Y-17933096D01*
X132402048Y-17929822D01*
X132476357Y-17866357D01*
X132539822Y-17792048D01*
X132543096Y-17788507D01*
X132559011Y-17772593D01*
X132572245Y-17754376D01*
X132575226Y-17750596D01*
X132638691Y-17676289D01*
X132689752Y-17592965D01*
X132692443Y-17588939D01*
X132705659Y-17570749D01*
X132715881Y-17550686D01*
X132718217Y-17546514D01*
X132769293Y-17463166D01*
X132806698Y-17372861D01*
X132808699Y-17368520D01*
X132818926Y-17348449D01*
X132825887Y-17327023D01*
X132827544Y-17322534D01*
X132864947Y-17232236D01*
X132887761Y-17137209D01*
X132889063Y-17132590D01*
X132896024Y-17111168D01*
X132899549Y-17088906D01*
X132900479Y-17084234D01*
X132923299Y-16989186D01*
X132930966Y-16891759D01*
X132931537Y-16886943D01*
X132935053Y-16864746D01*
X132935668Y-16833371D01*
X132935844Y-16829775D01*
X132942910Y-16740000D01*
X132935844Y-16650227D01*
X132935668Y-16646624D01*
X132935053Y-16615254D01*
X132931537Y-16593054D01*
X132930965Y-16588227D01*
X132923299Y-16490814D01*
X132900481Y-16395775D01*
X132899542Y-16391049D01*
X132896024Y-16368832D01*
X132889072Y-16347438D01*
X132887757Y-16342773D01*
X132879838Y-16309790D01*
X132864949Y-16247770D01*
X132864944Y-16247758D01*
X132827555Y-16157492D01*
X132825874Y-16152936D01*
X132818926Y-16131551D01*
X132808710Y-16111501D01*
X132806696Y-16107133D01*
X132769293Y-16016834D01*
X132718225Y-15933500D01*
X132715879Y-15929309D01*
X132705659Y-15909251D01*
X132692436Y-15891051D01*
X132689739Y-15887014D01*
X132638691Y-15803711D01*
X132575229Y-15729407D01*
X132572238Y-15725613D01*
X132559011Y-15707407D01*
X132543099Y-15691495D01*
X132539806Y-15687932D01*
X132539801Y-15687926D01*
X132476357Y-15613643D01*
X132402065Y-15550191D01*
X132398499Y-15546895D01*
X132382593Y-15530989D01*
X132364390Y-15517763D01*
X132360579Y-15514759D01*
X132360578Y-15514758D01*
X132286289Y-15451309D01*
X132286283Y-15451305D01*
X132202987Y-15400260D01*
X132198939Y-15397556D01*
X132189485Y-15390688D01*
X132180749Y-15384341D01*
X132172057Y-15379912D01*
X132160710Y-15374130D01*
X132156462Y-15371751D01*
X132073166Y-15320706D01*
X131982901Y-15283318D01*
X131978480Y-15281280D01*
X131972054Y-15278006D01*
X131958449Y-15271074D01*
X131958446Y-15271073D01*
X131958444Y-15271072D01*
X131958445Y-15271072D01*
X131937070Y-15264127D01*
X131932512Y-15262446D01*
X131901543Y-15249618D01*
X131842241Y-15225054D01*
X131842235Y-15225052D01*
X131747228Y-15202242D01*
X131742542Y-15200921D01*
X131721170Y-15193976D01*
X131698971Y-15190460D01*
X131694195Y-15189510D01*
X131599191Y-15166702D01*
X131599189Y-15166701D01*
X131599186Y-15166701D01*
X131573024Y-15164642D01*
X131501774Y-15159033D01*
X131496943Y-15158461D01*
X131474746Y-15154947D01*
X131452275Y-15154947D01*
X131447409Y-15154756D01*
X131350000Y-15147090D01*
X131252591Y-15154756D01*
X131247725Y-15154947D01*
X131225255Y-15154947D01*
X131225254Y-15154947D01*
X131223088Y-15155290D01*
X131203058Y-15158461D01*
X131198227Y-15159033D01*
X131100811Y-15166701D01*
X131100806Y-15166702D01*
X131005804Y-15189510D01*
X131001029Y-15190460D01*
X130978828Y-15193976D01*
X130957451Y-15200922D01*
X130952767Y-15202243D01*
X130857767Y-15225052D01*
X130857758Y-15225055D01*
X130767501Y-15262440D01*
X130762936Y-15264124D01*
X130741562Y-15271069D01*
X130741545Y-15271076D01*
X130721517Y-15281280D01*
X130717097Y-15283318D01*
X130626841Y-15320703D01*
X130626829Y-15320709D01*
X130543531Y-15371754D01*
X130539285Y-15374132D01*
X130519253Y-15384339D01*
X130519244Y-15384345D01*
X130501057Y-15397557D01*
X130497013Y-15400259D01*
X130413708Y-15451311D01*
X130339420Y-15514758D01*
X130335598Y-15517771D01*
X130317414Y-15530982D01*
X130317408Y-15530987D01*
X130301498Y-15546895D01*
X130297926Y-15550197D01*
X130223642Y-15613642D01*
X130160197Y-15687926D01*
X130156895Y-15691498D01*
X130140987Y-15707408D01*
X130140982Y-15707414D01*
X130127771Y-15725598D01*
X130124758Y-15729420D01*
X130061311Y-15803708D01*
X130010259Y-15887013D01*
X130007557Y-15891057D01*
X129994345Y-15909244D01*
X129994339Y-15909253D01*
X129984132Y-15929285D01*
X129981754Y-15933531D01*
X129930709Y-16016829D01*
X129930703Y-16016841D01*
X129893318Y-16107097D01*
X129891280Y-16111517D01*
X129881076Y-16131545D01*
X129881069Y-16131562D01*
X129874124Y-16152936D01*
X129872440Y-16157501D01*
X129835055Y-16247758D01*
X129835052Y-16247767D01*
X129812243Y-16342767D01*
X129810922Y-16347451D01*
X129803976Y-16368828D01*
X129800460Y-16391029D01*
X129799510Y-16395804D01*
X129776702Y-16490806D01*
X129776701Y-16490811D01*
X129769033Y-16588227D01*
X129768461Y-16593058D01*
X129764947Y-16615254D01*
X129764947Y-16637725D01*
X129764756Y-16642591D01*
X129757090Y-16739999D01*
X127510500Y-16739999D01*
X127510500Y-14286027D01*
X127530185Y-14218988D01*
X127582989Y-14173233D01*
X127634500Y-14162027D01*
X180533638Y-14162027D01*
X180600677Y-14181712D01*
G37*
%TD.AperFunction*%
%TD*%
M02*
