%TF.GenerationSoftware,KiCad,Pcbnew,7.0.9*%
%TF.CreationDate,2023-11-18T00:39:59+09:00*%
%TF.ProjectId,arduino_robotarm_shield,61726475-696e-46f5-9f72-6f626f746172,rev?*%
%TF.SameCoordinates,Original*%
%TF.FileFunction,Copper,L2,Bot*%
%TF.FilePolarity,Positive*%
%FSLAX46Y46*%
G04 Gerber Fmt 4.6, Leading zero omitted, Abs format (unit mm)*
G04 Created by KiCad (PCBNEW 7.0.9) date 2023-11-18 00:39:59*
%MOMM*%
%LPD*%
G01*
G04 APERTURE LIST*
%TA.AperFunction,ComponentPad*%
%ADD10O,1.600000X1.600000*%
%TD*%
%TA.AperFunction,ComponentPad*%
%ADD11R,1.600000X1.600000*%
%TD*%
%TA.AperFunction,ComponentPad*%
%ADD12R,1.700000X1.700000*%
%TD*%
%TA.AperFunction,ComponentPad*%
%ADD13O,1.700000X1.700000*%
%TD*%
%TA.AperFunction,ComponentPad*%
%ADD14R,1.800000X1.800000*%
%TD*%
%TA.AperFunction,ComponentPad*%
%ADD15C,1.800000*%
%TD*%
%TA.AperFunction,ComponentPad*%
%ADD16R,2.600000X2.600000*%
%TD*%
%TA.AperFunction,ComponentPad*%
%ADD17C,2.600000*%
%TD*%
%TA.AperFunction,ComponentPad*%
%ADD18C,1.600000*%
%TD*%
G04 APERTURE END LIST*
D10*
%TO.P,A1,32,SCL/A5*%
%TO.N,unconnected-(A1-SCL{slash}A5-Pad32)*%
X134860000Y-16700000D03*
%TO.P,A1,31,SDA/A4*%
%TO.N,unconnected-(A1-SDA{slash}A4-Pad31)*%
X137400000Y-16700000D03*
%TO.P,A1,30,AREF*%
%TO.N,unconnected-(A1-AREF-Pad30)*%
X139940000Y-16700000D03*
%TO.P,A1,29,GND*%
%TO.N,GND*%
X142480000Y-16700000D03*
%TO.P,A1,28,D13*%
%TO.N,unconnected-(A1-D13-Pad28)*%
X145020000Y-16700000D03*
%TO.P,A1,27,D12*%
%TO.N,unconnected-(A1-D12-Pad27)*%
X147560000Y-16700000D03*
%TO.P,A1,26,D11*%
%TO.N,/S5*%
X150100000Y-16700000D03*
%TO.P,A1,25,D10*%
%TO.N,/S4*%
X152640000Y-16700000D03*
%TO.P,A1,24,D9*%
%TO.N,/S3*%
X155180000Y-16700000D03*
%TO.P,A1,23,D8*%
%TO.N,unconnected-(A1-D8-Pad23)*%
X157720000Y-16700000D03*
%TO.P,A1,22,D7*%
%TO.N,unconnected-(A1-D7-Pad22)*%
X161780000Y-16700000D03*
%TO.P,A1,21,D6*%
%TO.N,/S2*%
X164320000Y-16700000D03*
%TO.P,A1,20,D5*%
%TO.N,/S1*%
X166860000Y-16700000D03*
%TO.P,A1,19,D4*%
%TO.N,unconnected-(A1-D4-Pad19)*%
X169400000Y-16700000D03*
%TO.P,A1,18,D3*%
%TO.N,/S0*%
X171940000Y-16700000D03*
%TO.P,A1,17,D2*%
%TO.N,unconnected-(A1-D2-Pad17)*%
X174480000Y-16700000D03*
%TO.P,A1,16,D1/TX*%
%TO.N,unconnected-(A1-D1{slash}TX-Pad16)*%
X177020000Y-16700000D03*
%TO.P,A1,15,D0/RX*%
%TO.N,unconnected-(A1-D0{slash}RX-Pad15)*%
X179560000Y-16700000D03*
%TO.P,A1,14,SCL/A5*%
%TO.N,unconnected-(A1-SCL{slash}A5-Pad14)*%
X179560000Y-64960000D03*
%TO.P,A1,13,SDA/A4*%
%TO.N,unconnected-(A1-SDA{slash}A4-Pad13)*%
X177020000Y-64960000D03*
%TO.P,A1,12,A3*%
%TO.N,unconnected-(A1-A3-Pad12)*%
X174480000Y-64960000D03*
%TO.P,A1,11,A2*%
%TO.N,unconnected-(A1-A2-Pad11)*%
X171940000Y-64960000D03*
%TO.P,A1,10,A1*%
%TO.N,unconnected-(A1-A1-Pad10)*%
X169400000Y-64960000D03*
%TO.P,A1,9,A0*%
%TO.N,unconnected-(A1-A0-Pad9)*%
X166860000Y-64960000D03*
%TO.P,A1,8,VIN*%
%TO.N,unconnected-(A1-VIN-Pad8)*%
X161780000Y-64960000D03*
%TO.P,A1,7,GND*%
%TO.N,GND*%
X159240000Y-64960000D03*
%TO.P,A1,6,GND*%
X156700000Y-64960000D03*
%TO.P,A1,5,+5V*%
%TO.N,unconnected-(A1-+5V-Pad5)*%
X154160000Y-64960000D03*
%TO.P,A1,4,3V3*%
%TO.N,unconnected-(A1-3V3-Pad4)*%
X151620000Y-64960000D03*
%TO.P,A1,3,~{RESET}*%
%TO.N,unconnected-(A1-~{RESET}-Pad3)*%
X149080000Y-64960000D03*
%TO.P,A1,2,IOREF*%
%TO.N,unconnected-(A1-IOREF-Pad2)*%
X146540000Y-64960000D03*
D11*
%TO.P,A1,1,NC*%
%TO.N,unconnected-(A1-NC-Pad1)*%
X144000000Y-64960000D03*
%TD*%
D12*
%TO.P,J4,1,Pin_1*%
%TO.N,/S2*%
X169000000Y-38960000D03*
D13*
%TO.P,J4,2,Pin_2*%
%TO.N,-5V*%
X169000000Y-41500000D03*
%TO.P,J4,3,Pin_3*%
%TO.N,GND*%
X169000000Y-44040000D03*
%TD*%
D12*
%TO.P,J2,1,Pin_1*%
%TO.N,/S0*%
X178025000Y-38975000D03*
D13*
%TO.P,J2,2,Pin_2*%
%TO.N,-5V*%
X178025000Y-41515000D03*
%TO.P,J2,3,Pin_3*%
%TO.N,GND*%
X178025000Y-44055000D03*
%TD*%
D14*
%TO.P,D1,1,K*%
%TO.N,Net-(D1-K)*%
X133225000Y-36500000D03*
D15*
%TO.P,D1,2,A*%
%TO.N,-5V*%
X135765000Y-36500000D03*
%TD*%
D12*
%TO.P,J5,1,Pin_1*%
%TO.N,/S3*%
X164500000Y-38960000D03*
D13*
%TO.P,J5,2,Pin_2*%
%TO.N,-5V*%
X164500000Y-41500000D03*
%TO.P,J5,3,Pin_3*%
%TO.N,GND*%
X164500000Y-44040000D03*
%TD*%
D16*
%TO.P,J1,1,Pin_1*%
%TO.N,-5V*%
X134195000Y-47500000D03*
D17*
%TO.P,J1,2,Pin_2*%
%TO.N,GND*%
X134195000Y-52500000D03*
%TD*%
D18*
%TO.P,R1,1*%
%TO.N,Net-(D1-K)*%
X133000000Y-29000000D03*
%TO.P,R1,2*%
%TO.N,GND*%
X133000000Y-24000000D03*
%TD*%
D12*
%TO.P,J3,1,Pin_1*%
%TO.N,/S1*%
X173525000Y-38975000D03*
D13*
%TO.P,J3,2,Pin_2*%
%TO.N,-5V*%
X173525000Y-41515000D03*
%TO.P,J3,3,Pin_3*%
%TO.N,GND*%
X173525000Y-44055000D03*
%TD*%
D12*
%TO.P,J7,1,Pin_1*%
%TO.N,/S5*%
X155500000Y-38960000D03*
D13*
%TO.P,J7,2,Pin_2*%
%TO.N,-5V*%
X155500000Y-41500000D03*
%TO.P,J7,3,Pin_3*%
%TO.N,GND*%
X155500000Y-44040000D03*
%TD*%
D12*
%TO.P,J6,1,Pin_1*%
%TO.N,/S4*%
X160000000Y-38960000D03*
D13*
%TO.P,J6,2,Pin_2*%
%TO.N,-5V*%
X160000000Y-41500000D03*
%TO.P,J6,3,Pin_3*%
%TO.N,GND*%
X160000000Y-44040000D03*
%TD*%
M02*
