%TF.GenerationSoftware,KiCad,Pcbnew,7.0.7*%
%TF.CreationDate,2023-12-25T18:53:56+09:00*%
%TF.ProjectId,arduino_robotarm_shield,61726475-696e-46f5-9f72-6f626f746172,rev?*%
%TF.SameCoordinates,Original*%
%TF.FileFunction,Legend,Top*%
%TF.FilePolarity,Positive*%
%FSLAX46Y46*%
G04 Gerber Fmt 4.6, Leading zero omitted, Abs format (unit mm)*
G04 Created by KiCad (PCBNEW 7.0.7) date 2023-12-25 18:53:56*
%MOMM*%
%LPD*%
G01*
G04 APERTURE LIST*
%ADD10C,0.150000*%
%ADD11C,0.120000*%
G04 APERTURE END LIST*
D10*
X177212666Y-62910819D02*
X177212666Y-63625104D01*
X177212666Y-63625104D02*
X177165047Y-63767961D01*
X177165047Y-63767961D02*
X177069809Y-63863200D01*
X177069809Y-63863200D02*
X176926952Y-63910819D01*
X176926952Y-63910819D02*
X176831714Y-63910819D01*
X177831714Y-63339390D02*
X177736476Y-63291771D01*
X177736476Y-63291771D02*
X177688857Y-63244152D01*
X177688857Y-63244152D02*
X177641238Y-63148914D01*
X177641238Y-63148914D02*
X177641238Y-63101295D01*
X177641238Y-63101295D02*
X177688857Y-63006057D01*
X177688857Y-63006057D02*
X177736476Y-62958438D01*
X177736476Y-62958438D02*
X177831714Y-62910819D01*
X177831714Y-62910819D02*
X178022190Y-62910819D01*
X178022190Y-62910819D02*
X178117428Y-62958438D01*
X178117428Y-62958438D02*
X178165047Y-63006057D01*
X178165047Y-63006057D02*
X178212666Y-63101295D01*
X178212666Y-63101295D02*
X178212666Y-63148914D01*
X178212666Y-63148914D02*
X178165047Y-63244152D01*
X178165047Y-63244152D02*
X178117428Y-63291771D01*
X178117428Y-63291771D02*
X178022190Y-63339390D01*
X178022190Y-63339390D02*
X177831714Y-63339390D01*
X177831714Y-63339390D02*
X177736476Y-63387009D01*
X177736476Y-63387009D02*
X177688857Y-63434628D01*
X177688857Y-63434628D02*
X177641238Y-63529866D01*
X177641238Y-63529866D02*
X177641238Y-63720342D01*
X177641238Y-63720342D02*
X177688857Y-63815580D01*
X177688857Y-63815580D02*
X177736476Y-63863200D01*
X177736476Y-63863200D02*
X177831714Y-63910819D01*
X177831714Y-63910819D02*
X178022190Y-63910819D01*
X178022190Y-63910819D02*
X178117428Y-63863200D01*
X178117428Y-63863200D02*
X178165047Y-63815580D01*
X178165047Y-63815580D02*
X178212666Y-63720342D01*
X178212666Y-63720342D02*
X178212666Y-63529866D01*
X178212666Y-63529866D02*
X178165047Y-63434628D01*
X178165047Y-63434628D02*
X178117428Y-63387009D01*
X178117428Y-63387009D02*
X178022190Y-63339390D01*
X161691666Y-40159819D02*
X161691666Y-40874104D01*
X161691666Y-40874104D02*
X161644047Y-41016961D01*
X161644047Y-41016961D02*
X161548809Y-41112200D01*
X161548809Y-41112200D02*
X161405952Y-41159819D01*
X161405952Y-41159819D02*
X161310714Y-41159819D01*
X162596428Y-40493152D02*
X162596428Y-41159819D01*
X162358333Y-40112200D02*
X162120238Y-40826485D01*
X162120238Y-40826485D02*
X162739285Y-40826485D01*
X138409819Y-61138333D02*
X139124104Y-61138333D01*
X139124104Y-61138333D02*
X139266961Y-61185952D01*
X139266961Y-61185952D02*
X139362200Y-61281190D01*
X139362200Y-61281190D02*
X139409819Y-61424047D01*
X139409819Y-61424047D02*
X139409819Y-61519285D01*
X139409819Y-60138333D02*
X139409819Y-60709761D01*
X139409819Y-60424047D02*
X138409819Y-60424047D01*
X138409819Y-60424047D02*
X138552676Y-60519285D01*
X138552676Y-60519285D02*
X138647914Y-60614523D01*
X138647914Y-60614523D02*
X138695533Y-60709761D01*
X165991905Y-62494819D02*
X165991905Y-61494819D01*
X165991905Y-61494819D02*
X166230000Y-61494819D01*
X166230000Y-61494819D02*
X166372857Y-61542438D01*
X166372857Y-61542438D02*
X166468095Y-61637676D01*
X166468095Y-61637676D02*
X166515714Y-61732914D01*
X166515714Y-61732914D02*
X166563333Y-61923390D01*
X166563333Y-61923390D02*
X166563333Y-62066247D01*
X166563333Y-62066247D02*
X166515714Y-62256723D01*
X166515714Y-62256723D02*
X166468095Y-62351961D01*
X166468095Y-62351961D02*
X166372857Y-62447200D01*
X166372857Y-62447200D02*
X166230000Y-62494819D01*
X166230000Y-62494819D02*
X165991905Y-62494819D01*
X167515714Y-62494819D02*
X166944286Y-62494819D01*
X167230000Y-62494819D02*
X167230000Y-61494819D01*
X167230000Y-61494819D02*
X167134762Y-61637676D01*
X167134762Y-61637676D02*
X167039524Y-61732914D01*
X167039524Y-61732914D02*
X166944286Y-61780533D01*
X146691666Y-40159819D02*
X146691666Y-40874104D01*
X146691666Y-40874104D02*
X146644047Y-41016961D01*
X146644047Y-41016961D02*
X146548809Y-41112200D01*
X146548809Y-41112200D02*
X146405952Y-41159819D01*
X146405952Y-41159819D02*
X146310714Y-41159819D01*
X147072619Y-40159819D02*
X147739285Y-40159819D01*
X147739285Y-40159819D02*
X147310714Y-41159819D01*
X151833333Y-68954819D02*
X151500000Y-68478628D01*
X151261905Y-68954819D02*
X151261905Y-67954819D01*
X151261905Y-67954819D02*
X151642857Y-67954819D01*
X151642857Y-67954819D02*
X151738095Y-68002438D01*
X151738095Y-68002438D02*
X151785714Y-68050057D01*
X151785714Y-68050057D02*
X151833333Y-68145295D01*
X151833333Y-68145295D02*
X151833333Y-68288152D01*
X151833333Y-68288152D02*
X151785714Y-68383390D01*
X151785714Y-68383390D02*
X151738095Y-68431009D01*
X151738095Y-68431009D02*
X151642857Y-68478628D01*
X151642857Y-68478628D02*
X151261905Y-68478628D01*
X152785714Y-68954819D02*
X152214286Y-68954819D01*
X152500000Y-68954819D02*
X152500000Y-67954819D01*
X152500000Y-67954819D02*
X152404762Y-68097676D01*
X152404762Y-68097676D02*
X152309524Y-68192914D01*
X152309524Y-68192914D02*
X152214286Y-68240533D01*
X166666666Y-40144819D02*
X166666666Y-40859104D01*
X166666666Y-40859104D02*
X166619047Y-41001961D01*
X166619047Y-41001961D02*
X166523809Y-41097200D01*
X166523809Y-41097200D02*
X166380952Y-41144819D01*
X166380952Y-41144819D02*
X166285714Y-41144819D01*
X167047619Y-40144819D02*
X167666666Y-40144819D01*
X167666666Y-40144819D02*
X167333333Y-40525771D01*
X167333333Y-40525771D02*
X167476190Y-40525771D01*
X167476190Y-40525771D02*
X167571428Y-40573390D01*
X167571428Y-40573390D02*
X167619047Y-40621009D01*
X167619047Y-40621009D02*
X167666666Y-40716247D01*
X167666666Y-40716247D02*
X167666666Y-40954342D01*
X167666666Y-40954342D02*
X167619047Y-41049580D01*
X167619047Y-41049580D02*
X167571428Y-41097200D01*
X167571428Y-41097200D02*
X167476190Y-41144819D01*
X167476190Y-41144819D02*
X167190476Y-41144819D01*
X167190476Y-41144819D02*
X167095238Y-41097200D01*
X167095238Y-41097200D02*
X167047619Y-41049580D01*
X156691666Y-40159819D02*
X156691666Y-40874104D01*
X156691666Y-40874104D02*
X156644047Y-41016961D01*
X156644047Y-41016961D02*
X156548809Y-41112200D01*
X156548809Y-41112200D02*
X156405952Y-41159819D01*
X156405952Y-41159819D02*
X156310714Y-41159819D01*
X157644047Y-40159819D02*
X157167857Y-40159819D01*
X157167857Y-40159819D02*
X157120238Y-40636009D01*
X157120238Y-40636009D02*
X157167857Y-40588390D01*
X157167857Y-40588390D02*
X157263095Y-40540771D01*
X157263095Y-40540771D02*
X157501190Y-40540771D01*
X157501190Y-40540771D02*
X157596428Y-40588390D01*
X157596428Y-40588390D02*
X157644047Y-40636009D01*
X157644047Y-40636009D02*
X157691666Y-40731247D01*
X157691666Y-40731247D02*
X157691666Y-40969342D01*
X157691666Y-40969342D02*
X157644047Y-41064580D01*
X157644047Y-41064580D02*
X157596428Y-41112200D01*
X157596428Y-41112200D02*
X157501190Y-41159819D01*
X157501190Y-41159819D02*
X157263095Y-41159819D01*
X157263095Y-41159819D02*
X157167857Y-41112200D01*
X157167857Y-41112200D02*
X157120238Y-41064580D01*
X151691666Y-40159819D02*
X151691666Y-40874104D01*
X151691666Y-40874104D02*
X151644047Y-41016961D01*
X151644047Y-41016961D02*
X151548809Y-41112200D01*
X151548809Y-41112200D02*
X151405952Y-41159819D01*
X151405952Y-41159819D02*
X151310714Y-41159819D01*
X152596428Y-40159819D02*
X152405952Y-40159819D01*
X152405952Y-40159819D02*
X152310714Y-40207438D01*
X152310714Y-40207438D02*
X152263095Y-40255057D01*
X152263095Y-40255057D02*
X152167857Y-40397914D01*
X152167857Y-40397914D02*
X152120238Y-40588390D01*
X152120238Y-40588390D02*
X152120238Y-40969342D01*
X152120238Y-40969342D02*
X152167857Y-41064580D01*
X152167857Y-41064580D02*
X152215476Y-41112200D01*
X152215476Y-41112200D02*
X152310714Y-41159819D01*
X152310714Y-41159819D02*
X152501190Y-41159819D01*
X152501190Y-41159819D02*
X152596428Y-41112200D01*
X152596428Y-41112200D02*
X152644047Y-41064580D01*
X152644047Y-41064580D02*
X152691666Y-40969342D01*
X152691666Y-40969342D02*
X152691666Y-40731247D01*
X152691666Y-40731247D02*
X152644047Y-40636009D01*
X152644047Y-40636009D02*
X152596428Y-40588390D01*
X152596428Y-40588390D02*
X152501190Y-40540771D01*
X152501190Y-40540771D02*
X152310714Y-40540771D01*
X152310714Y-40540771D02*
X152215476Y-40588390D01*
X152215476Y-40588390D02*
X152167857Y-40636009D01*
X152167857Y-40636009D02*
X152120238Y-40731247D01*
X171666666Y-40144819D02*
X171666666Y-40859104D01*
X171666666Y-40859104D02*
X171619047Y-41001961D01*
X171619047Y-41001961D02*
X171523809Y-41097200D01*
X171523809Y-41097200D02*
X171380952Y-41144819D01*
X171380952Y-41144819D02*
X171285714Y-41144819D01*
X172095238Y-40240057D02*
X172142857Y-40192438D01*
X172142857Y-40192438D02*
X172238095Y-40144819D01*
X172238095Y-40144819D02*
X172476190Y-40144819D01*
X172476190Y-40144819D02*
X172571428Y-40192438D01*
X172571428Y-40192438D02*
X172619047Y-40240057D01*
X172619047Y-40240057D02*
X172666666Y-40335295D01*
X172666666Y-40335295D02*
X172666666Y-40430533D01*
X172666666Y-40430533D02*
X172619047Y-40573390D01*
X172619047Y-40573390D02*
X172047619Y-41144819D01*
X172047619Y-41144819D02*
X172666666Y-41144819D01*
D11*
%TO.C,J8*%
X178876000Y-67056000D02*
X178876000Y-74736000D01*
X176216000Y-65786000D02*
X176216000Y-64456000D01*
X176216000Y-74736000D02*
X178876000Y-74736000D01*
X176216000Y-67056000D02*
X178876000Y-67056000D01*
X176216000Y-64456000D02*
X177546000Y-64456000D01*
X176216000Y-67056000D02*
X176216000Y-74736000D01*
%TO.C,J4*%
X160695000Y-44745000D02*
X160695000Y-49885000D01*
X160695000Y-44745000D02*
X163355000Y-44745000D01*
X160695000Y-49885000D02*
X163355000Y-49885000D01*
X162025000Y-42145000D02*
X163355000Y-42145000D01*
X163355000Y-42145000D02*
X163355000Y-43475000D01*
X163355000Y-44745000D02*
X163355000Y-49885000D01*
%TO.C,J1*%
X128535000Y-55505000D02*
X127795000Y-55505000D01*
X127795000Y-55505000D02*
X127795000Y-56005000D01*
X137956000Y-55745000D02*
X128035000Y-55745000D01*
X137956000Y-55745000D02*
X137956000Y-65865000D01*
X134996000Y-55745000D02*
X134996000Y-65865000D01*
X130095000Y-55745000D02*
X130095000Y-65865000D01*
X128595000Y-55745000D02*
X128595000Y-65865000D01*
X128035000Y-55745000D02*
X128035000Y-65865000D01*
X131672000Y-62078000D02*
X131626000Y-62031000D01*
X131456000Y-62271000D02*
X131421000Y-62236000D01*
X133970000Y-64375000D02*
X133934000Y-64340000D01*
X133764000Y-64580000D02*
X133718000Y-64533000D01*
X137956000Y-65865000D02*
X128035000Y-65865000D01*
X133378999Y-56770001D02*
G75*
G03*
X132011958Y-56769574I-684000J-1534992D01*
G01*
X134229999Y-58988999D02*
G75*
G03*
X134230426Y-57621958I-1534992J684000D01*
G01*
X131160001Y-57621000D02*
G75*
G03*
X131014748Y-58333805I1535000J-683999D01*
G01*
X131015001Y-58305000D02*
G75*
G03*
X131160245Y-58988318I1679999J0D01*
G01*
X132011000Y-59840000D02*
G75*
G03*
X133378042Y-59840426I684000J1535000D01*
G01*
X134375000Y-63305000D02*
G75*
G03*
X134375000Y-63305000I-1680000J0D01*
G01*
%TO.C,D1*%
X164170000Y-64455000D02*
X164170000Y-67545000D01*
X169719999Y-66000462D02*
G75*
G03*
X164170001Y-64455170I-2989999J462D01*
G01*
X164170000Y-67544830D02*
G75*
G03*
X169720000Y-65999538I2560000J1544830D01*
G01*
X169230000Y-66000000D02*
G75*
G03*
X169230000Y-66000000I-2500000J0D01*
G01*
%TO.C,J7*%
X145695000Y-44745000D02*
X145695000Y-49885000D01*
X145695000Y-44745000D02*
X148355000Y-44745000D01*
X145695000Y-49885000D02*
X148355000Y-49885000D01*
X147025000Y-42145000D02*
X148355000Y-42145000D01*
X148355000Y-42145000D02*
X148355000Y-43475000D01*
X148355000Y-44745000D02*
X148355000Y-49885000D01*
%TO.C,R1*%
X154620000Y-67370000D02*
X154620000Y-67055000D01*
X154620000Y-67370000D02*
X149380000Y-67370000D01*
X154620000Y-64945000D02*
X154620000Y-64630000D01*
X154620000Y-64630000D02*
X149380000Y-64630000D01*
X149380000Y-67370000D02*
X149380000Y-67055000D01*
X149380000Y-64945000D02*
X149380000Y-64630000D01*
%TO.C,J3*%
X165670000Y-44730000D02*
X165670000Y-49870000D01*
X165670000Y-44730000D02*
X168330000Y-44730000D01*
X165670000Y-49870000D02*
X168330000Y-49870000D01*
X167000000Y-42130000D02*
X168330000Y-42130000D01*
X168330000Y-42130000D02*
X168330000Y-43460000D01*
X168330000Y-44730000D02*
X168330000Y-49870000D01*
%TO.C,J5*%
X155695000Y-44745000D02*
X155695000Y-49885000D01*
X155695000Y-44745000D02*
X158355000Y-44745000D01*
X155695000Y-49885000D02*
X158355000Y-49885000D01*
X157025000Y-42145000D02*
X158355000Y-42145000D01*
X158355000Y-42145000D02*
X158355000Y-43475000D01*
X158355000Y-44745000D02*
X158355000Y-49885000D01*
%TO.C,J6*%
X150695000Y-44745000D02*
X150695000Y-49885000D01*
X150695000Y-44745000D02*
X153355000Y-44745000D01*
X150695000Y-49885000D02*
X153355000Y-49885000D01*
X152025000Y-42145000D02*
X153355000Y-42145000D01*
X153355000Y-42145000D02*
X153355000Y-43475000D01*
X153355000Y-44745000D02*
X153355000Y-49885000D01*
%TO.C,J2*%
X170670000Y-44730000D02*
X170670000Y-49870000D01*
X170670000Y-44730000D02*
X173330000Y-44730000D01*
X170670000Y-49870000D02*
X173330000Y-49870000D01*
X172000000Y-42130000D02*
X173330000Y-42130000D01*
X173330000Y-42130000D02*
X173330000Y-43460000D01*
X173330000Y-44730000D02*
X173330000Y-49870000D01*
%TD*%
M02*
