%TF.GenerationSoftware,KiCad,Pcbnew,7.0.9*%
%TF.CreationDate,2023-11-14T02:28:07+09:00*%
%TF.ProjectId,coincall,636f696e-6361-46c6-9c2e-6b696361645f,rev?*%
%TF.SameCoordinates,Original*%
%TF.FileFunction,Legend,Bot*%
%TF.FilePolarity,Positive*%
%FSLAX46Y46*%
G04 Gerber Fmt 4.6, Leading zero omitted, Abs format (unit mm)*
G04 Created by KiCad (PCBNEW 7.0.9) date 2023-11-14 02:28:07*
%MOMM*%
%LPD*%
G01*
G04 APERTURE LIST*
%ADD10C,0.150000*%
%ADD11C,0.120000*%
G04 APERTURE END LIST*
D10*
X127785714Y-81211009D02*
X127642857Y-81258628D01*
X127642857Y-81258628D02*
X127595238Y-81306247D01*
X127595238Y-81306247D02*
X127547619Y-81401485D01*
X127547619Y-81401485D02*
X127547619Y-81544342D01*
X127547619Y-81544342D02*
X127595238Y-81639580D01*
X127595238Y-81639580D02*
X127642857Y-81687200D01*
X127642857Y-81687200D02*
X127738095Y-81734819D01*
X127738095Y-81734819D02*
X128119047Y-81734819D01*
X128119047Y-81734819D02*
X128119047Y-80734819D01*
X128119047Y-80734819D02*
X127785714Y-80734819D01*
X127785714Y-80734819D02*
X127690476Y-80782438D01*
X127690476Y-80782438D02*
X127642857Y-80830057D01*
X127642857Y-80830057D02*
X127595238Y-80925295D01*
X127595238Y-80925295D02*
X127595238Y-81020533D01*
X127595238Y-81020533D02*
X127642857Y-81115771D01*
X127642857Y-81115771D02*
X127690476Y-81163390D01*
X127690476Y-81163390D02*
X127785714Y-81211009D01*
X127785714Y-81211009D02*
X128119047Y-81211009D01*
X127261904Y-80734819D02*
X126690476Y-80734819D01*
X126976190Y-81734819D02*
X126976190Y-80734819D01*
X125833333Y-81734819D02*
X126404761Y-81734819D01*
X126119047Y-81734819D02*
X126119047Y-80734819D01*
X126119047Y-80734819D02*
X126214285Y-80877676D01*
X126214285Y-80877676D02*
X126309523Y-80972914D01*
X126309523Y-80972914D02*
X126404761Y-81020533D01*
D11*
%TO.C,BT1*%
X128660000Y-79570000D02*
X130860000Y-81770000D01*
X112690000Y-71760000D02*
X112690000Y-70050000D01*
X141310000Y-75560000D02*
X141310000Y-77270000D01*
X125340000Y-79570000D02*
X128660000Y-79570000D01*
X134847300Y-65550000D02*
X119152700Y-65550000D01*
X112690000Y-77270000D02*
X116308000Y-77270000D01*
X116308000Y-70050000D02*
X112690000Y-70050000D01*
X137692000Y-77270000D02*
X141310000Y-77270000D01*
X119152700Y-81770000D02*
X123140000Y-81770000D01*
X125340000Y-79570000D02*
X123140000Y-81770000D01*
X141310000Y-70050000D02*
X137692000Y-70050000D01*
X141310000Y-71760000D02*
X141310000Y-70050000D01*
X130860000Y-81770000D02*
X134847300Y-81770000D01*
X112690000Y-75560000D02*
X112690000Y-77270000D01*
X116308000Y-77270000D02*
G75*
G03*
X119154629Y-81771789I10692020J3610012D01*
G01*
X119154629Y-65548211D02*
G75*
G03*
X116308000Y-70050000I7845371J-8111789D01*
G01*
X137691998Y-70050001D02*
G75*
G03*
X134845371Y-65548211I-10692018J-3610009D01*
G01*
X134845371Y-81771789D02*
G75*
G03*
X137692000Y-77270000I-7845366J8111785D01*
G01*
%TD*%
M02*
