%TF.GenerationSoftware,KiCad,Pcbnew,7.0.9*%
%TF.CreationDate,2023-11-14T02:28:07+09:00*%
%TF.ProjectId,coincall,636f696e-6361-46c6-9c2e-6b696361645f,rev?*%
%TF.SameCoordinates,Original*%
%TF.FileFunction,Legend,Top*%
%TF.FilePolarity,Positive*%
%FSLAX46Y46*%
G04 Gerber Fmt 4.6, Leading zero omitted, Abs format (unit mm)*
G04 Created by KiCad (PCBNEW 7.0.9) date 2023-11-14 02:28:07*
%MOMM*%
%LPD*%
G01*
G04 APERTURE LIST*
%ADD10C,0.150000*%
%ADD11C,0.120000*%
G04 APERTURE END LIST*
D10*
X139533333Y-85704819D02*
X139200000Y-85228628D01*
X138961905Y-85704819D02*
X138961905Y-84704819D01*
X138961905Y-84704819D02*
X139342857Y-84704819D01*
X139342857Y-84704819D02*
X139438095Y-84752438D01*
X139438095Y-84752438D02*
X139485714Y-84800057D01*
X139485714Y-84800057D02*
X139533333Y-84895295D01*
X139533333Y-84895295D02*
X139533333Y-85038152D01*
X139533333Y-85038152D02*
X139485714Y-85133390D01*
X139485714Y-85133390D02*
X139438095Y-85181009D01*
X139438095Y-85181009D02*
X139342857Y-85228628D01*
X139342857Y-85228628D02*
X138961905Y-85228628D01*
X140485714Y-85704819D02*
X139914286Y-85704819D01*
X140200000Y-85704819D02*
X140200000Y-84704819D01*
X140200000Y-84704819D02*
X140104762Y-84847676D01*
X140104762Y-84847676D02*
X140009524Y-84942914D01*
X140009524Y-84942914D02*
X139914286Y-84990533D01*
X111809405Y-82844819D02*
X111809405Y-81844819D01*
X111809405Y-81844819D02*
X112047500Y-81844819D01*
X112047500Y-81844819D02*
X112190357Y-81892438D01*
X112190357Y-81892438D02*
X112285595Y-81987676D01*
X112285595Y-81987676D02*
X112333214Y-82082914D01*
X112333214Y-82082914D02*
X112380833Y-82273390D01*
X112380833Y-82273390D02*
X112380833Y-82416247D01*
X112380833Y-82416247D02*
X112333214Y-82606723D01*
X112333214Y-82606723D02*
X112285595Y-82701961D01*
X112285595Y-82701961D02*
X112190357Y-82797200D01*
X112190357Y-82797200D02*
X112047500Y-82844819D01*
X112047500Y-82844819D02*
X111809405Y-82844819D01*
X113333214Y-82844819D02*
X112761786Y-82844819D01*
X113047500Y-82844819D02*
X113047500Y-81844819D01*
X113047500Y-81844819D02*
X112952262Y-81987676D01*
X112952262Y-81987676D02*
X112857024Y-82082914D01*
X112857024Y-82082914D02*
X112761786Y-82130533D01*
D11*
%TO.C,R1*%
X139937258Y-83297500D02*
X139462742Y-83297500D01*
X139937258Y-84342500D02*
X139462742Y-84342500D01*
%TO.C,D1*%
X113347500Y-83085000D02*
X111062500Y-83085000D01*
X111062500Y-84555000D02*
X113347500Y-84555000D01*
X111062500Y-83085000D02*
X111062500Y-84555000D01*
%TD*%
M02*
