%TF.GenerationSoftware,KiCad,Pcbnew,7.0.9*%
%TF.CreationDate,2023-11-14T02:28:07+09:00*%
%TF.ProjectId,coincall,636f696e-6361-46c6-9c2e-6b696361645f,rev?*%
%TF.SameCoordinates,Original*%
%TF.FileFunction,Copper,L2,Bot*%
%TF.FilePolarity,Positive*%
%FSLAX46Y46*%
G04 Gerber Fmt 4.6, Leading zero omitted, Abs format (unit mm)*
G04 Created by KiCad (PCBNEW 7.0.9) date 2023-11-14 02:28:07*
%MOMM*%
%LPD*%
G01*
G04 APERTURE LIST*
%TA.AperFunction,SMDPad,CuDef*%
%ADD10R,2.540000X3.510000*%
%TD*%
%TA.AperFunction,ViaPad*%
%ADD11C,0.800000*%
%TD*%
%TA.AperFunction,Conductor*%
%ADD12C,0.250000*%
%TD*%
G04 APERTURE END LIST*
D10*
%TO.P,BT1,1,+*%
%TO.N,VCC*%
X141680000Y-73660000D03*
%TO.P,BT1,2,-*%
%TO.N,GND*%
X112320000Y-73660000D03*
%TD*%
D11*
%TO.N,GND*%
X112500000Y-79500000D03*
%TO.N,VCC*%
X141500000Y-79000000D03*
%TD*%
D12*
%TO.N,GND*%
X112320000Y-79320000D02*
X112500000Y-79500000D01*
X112320000Y-73660000D02*
X112320000Y-79320000D01*
%TO.N,VCC*%
X141500000Y-79000000D02*
X141680000Y-78820000D01*
X141680000Y-78820000D02*
X141680000Y-73660000D01*
%TD*%
%TA.AperFunction,Conductor*%
%TO.N,GND*%
G36*
X146443039Y-61519685D02*
G01*
X146488794Y-61572489D01*
X146500000Y-61624000D01*
X146500000Y-87876000D01*
X146480315Y-87943039D01*
X146427511Y-87988794D01*
X146376000Y-88000000D01*
X107624000Y-88000000D01*
X107556961Y-87980315D01*
X107511206Y-87927511D01*
X107500000Y-87876000D01*
X107500000Y-73910000D01*
X110550000Y-73910000D01*
X110550000Y-75462844D01*
X110556401Y-75522372D01*
X110556403Y-75522379D01*
X110606645Y-75657086D01*
X110606649Y-75657093D01*
X110692809Y-75772187D01*
X110692812Y-75772190D01*
X110807906Y-75858350D01*
X110807913Y-75858354D01*
X110942620Y-75908596D01*
X110942627Y-75908598D01*
X111002155Y-75914999D01*
X111002172Y-75915000D01*
X112070000Y-75915000D01*
X112070000Y-73910000D01*
X112570000Y-73910000D01*
X112570000Y-75915000D01*
X113637828Y-75915000D01*
X113637844Y-75914999D01*
X113697372Y-75908598D01*
X113697379Y-75908596D01*
X113832086Y-75858354D01*
X113832093Y-75858350D01*
X113947187Y-75772190D01*
X113947190Y-75772187D01*
X114033350Y-75657093D01*
X114033354Y-75657086D01*
X114083596Y-75522379D01*
X114083598Y-75522372D01*
X114089996Y-75462870D01*
X139909500Y-75462870D01*
X139909501Y-75462876D01*
X139915908Y-75522483D01*
X139966202Y-75657328D01*
X139966206Y-75657335D01*
X140052452Y-75772544D01*
X140052455Y-75772547D01*
X140167664Y-75858793D01*
X140167671Y-75858797D01*
X140212618Y-75875561D01*
X140302517Y-75909091D01*
X140362127Y-75915500D01*
X140930500Y-75915499D01*
X140997539Y-75935183D01*
X141043294Y-75987987D01*
X141054500Y-76039499D01*
X141054500Y-78147414D01*
X141034815Y-78214453D01*
X141003386Y-78247732D01*
X140894127Y-78327113D01*
X140767466Y-78467785D01*
X140672821Y-78631715D01*
X140672818Y-78631722D01*
X140614327Y-78811740D01*
X140614326Y-78811744D01*
X140594540Y-79000000D01*
X140614326Y-79188256D01*
X140614327Y-79188259D01*
X140672818Y-79368277D01*
X140672821Y-79368284D01*
X140767467Y-79532216D01*
X140894129Y-79672888D01*
X141047265Y-79784148D01*
X141047270Y-79784151D01*
X141220192Y-79861142D01*
X141220197Y-79861144D01*
X141405354Y-79900500D01*
X141405355Y-79900500D01*
X141594644Y-79900500D01*
X141594646Y-79900500D01*
X141779803Y-79861144D01*
X141952730Y-79784151D01*
X142105871Y-79672888D01*
X142232533Y-79532216D01*
X142327179Y-79368284D01*
X142385674Y-79188256D01*
X142405460Y-79000000D01*
X142385674Y-78811744D01*
X142327179Y-78631716D01*
X142322110Y-78622936D01*
X142305500Y-78560940D01*
X142305500Y-76039499D01*
X142325185Y-75972460D01*
X142377989Y-75926705D01*
X142429500Y-75915499D01*
X142997871Y-75915499D01*
X142997872Y-75915499D01*
X143057483Y-75909091D01*
X143192331Y-75858796D01*
X143307546Y-75772546D01*
X143393796Y-75657331D01*
X143444091Y-75522483D01*
X143450500Y-75462873D01*
X143450499Y-71857128D01*
X143444091Y-71797517D01*
X143393884Y-71662906D01*
X143393797Y-71662671D01*
X143393793Y-71662664D01*
X143307547Y-71547455D01*
X143307544Y-71547452D01*
X143192335Y-71461206D01*
X143192328Y-71461202D01*
X143057482Y-71410908D01*
X143057483Y-71410908D01*
X142997883Y-71404501D01*
X142997881Y-71404500D01*
X142997873Y-71404500D01*
X142997864Y-71404500D01*
X140362129Y-71404500D01*
X140362123Y-71404501D01*
X140302516Y-71410908D01*
X140167671Y-71461202D01*
X140167664Y-71461206D01*
X140052455Y-71547452D01*
X140052452Y-71547455D01*
X139966206Y-71662664D01*
X139966202Y-71662671D01*
X139915908Y-71797517D01*
X139909501Y-71857116D01*
X139909501Y-71857123D01*
X139909500Y-71857135D01*
X139909500Y-75462870D01*
X114089996Y-75462870D01*
X114089999Y-75462844D01*
X114090000Y-75462827D01*
X114090000Y-73910000D01*
X112570000Y-73910000D01*
X112070000Y-73910000D01*
X110550000Y-73910000D01*
X107500000Y-73910000D01*
X107500000Y-73410000D01*
X110550000Y-73410000D01*
X112070000Y-73410000D01*
X112070000Y-71405000D01*
X112570000Y-71405000D01*
X112570000Y-73410000D01*
X114090000Y-73410000D01*
X114090000Y-71857172D01*
X114089999Y-71857155D01*
X114083598Y-71797627D01*
X114083596Y-71797620D01*
X114033354Y-71662913D01*
X114033350Y-71662906D01*
X113947190Y-71547812D01*
X113947187Y-71547809D01*
X113832093Y-71461649D01*
X113832086Y-71461645D01*
X113697379Y-71411403D01*
X113697372Y-71411401D01*
X113637844Y-71405000D01*
X112570000Y-71405000D01*
X112070000Y-71405000D01*
X111002155Y-71405000D01*
X110942627Y-71411401D01*
X110942620Y-71411403D01*
X110807913Y-71461645D01*
X110807906Y-71461649D01*
X110692812Y-71547809D01*
X110692809Y-71547812D01*
X110606649Y-71662906D01*
X110606645Y-71662913D01*
X110556403Y-71797620D01*
X110556401Y-71797627D01*
X110550000Y-71857155D01*
X110550000Y-73410000D01*
X107500000Y-73410000D01*
X107500000Y-61624000D01*
X107519685Y-61556961D01*
X107572489Y-61511206D01*
X107624000Y-61500000D01*
X146376000Y-61500000D01*
X146443039Y-61519685D01*
G37*
%TD.AperFunction*%
%TD*%
M02*
