%TF.GenerationSoftware,KiCad,Pcbnew,7.0.7*%
%TF.CreationDate,2024-01-23T09:59:48+09:00*%
%TF.ProjectId,arduino_sheild,61726475-696e-46f5-9f73-6865696c642e,rev?*%
%TF.SameCoordinates,Original*%
%TF.FileFunction,Copper,L1,Top*%
%TF.FilePolarity,Positive*%
%FSLAX46Y46*%
G04 Gerber Fmt 4.6, Leading zero omitted, Abs format (unit mm)*
G04 Created by KiCad (PCBNEW 7.0.7) date 2024-01-23 09:59:48*
%MOMM*%
%LPD*%
G01*
G04 APERTURE LIST*
%TA.AperFunction,ComponentPad*%
%ADD10O,1.600000X1.600000*%
%TD*%
%TA.AperFunction,ComponentPad*%
%ADD11R,1.600000X1.600000*%
%TD*%
%TA.AperFunction,ComponentPad*%
%ADD12O,1.700000X1.700000*%
%TD*%
%TA.AperFunction,ComponentPad*%
%ADD13R,1.700000X1.700000*%
%TD*%
%TA.AperFunction,ComponentPad*%
%ADD14C,1.600000*%
%TD*%
%TA.AperFunction,ComponentPad*%
%ADD15R,3.000000X3.000000*%
%TD*%
%TA.AperFunction,ComponentPad*%
%ADD16C,3.000000*%
%TD*%
%TA.AperFunction,ComponentPad*%
%ADD17C,1.800000*%
%TD*%
%TA.AperFunction,ComponentPad*%
%ADD18R,1.800000X1.800000*%
%TD*%
%TA.AperFunction,ViaPad*%
%ADD19C,0.800000*%
%TD*%
%TA.AperFunction,Conductor*%
%ADD20C,0.250000*%
%TD*%
G04 APERTURE END LIST*
D10*
%TO.P,A1,32,SCL/A5*%
%TO.N,unconnected-(A1-SCL{slash}A5-Pad32)*%
X196346000Y-109982000D03*
%TO.P,A1,31,SDA/A4*%
%TO.N,unconnected-(A1-SDA{slash}A4-Pad31)*%
X198886000Y-109982000D03*
%TO.P,A1,30,AREF*%
%TO.N,unconnected-(A1-AREF-Pad30)*%
X201426000Y-109982000D03*
%TO.P,A1,29,GND*%
%TO.N,GND*%
X203966000Y-109982000D03*
%TO.P,A1,28,D13*%
%TO.N,unconnected-(A1-D13-Pad28)*%
X206506000Y-109982000D03*
%TO.P,A1,27,D12*%
%TO.N,/D12*%
X209046000Y-109982000D03*
%TO.P,A1,26,D11*%
%TO.N,/D11*%
X211586000Y-109982000D03*
%TO.P,A1,25,D10*%
%TO.N,/D10*%
X214126000Y-109982000D03*
%TO.P,A1,24,D9*%
%TO.N,/D9*%
X216666000Y-109982000D03*
%TO.P,A1,23,D8*%
%TO.N,unconnected-(A1-D8-Pad23)*%
X219206000Y-109982000D03*
%TO.P,A1,22,D7*%
%TO.N,unconnected-(A1-D7-Pad22)*%
X223266000Y-109982000D03*
%TO.P,A1,21,D6*%
%TO.N,unconnected-(A1-D6-Pad21)*%
X225806000Y-109982000D03*
%TO.P,A1,20,D5*%
%TO.N,/D5*%
X228346000Y-109982000D03*
%TO.P,A1,19,D4*%
%TO.N,unconnected-(A1-D4-Pad19)*%
X230886000Y-109982000D03*
%TO.P,A1,18,D3*%
%TO.N,/D3*%
X233426000Y-109982000D03*
%TO.P,A1,17,D2*%
%TO.N,unconnected-(A1-D2-Pad17)*%
X235966000Y-109982000D03*
%TO.P,A1,16,D1/TX*%
%TO.N,unconnected-(A1-D1{slash}TX-Pad16)*%
X238506000Y-109982000D03*
%TO.P,A1,15,D0/RX*%
%TO.N,unconnected-(A1-D0{slash}RX-Pad15)*%
X241046000Y-109982000D03*
%TO.P,A1,14,SCL/A5*%
%TO.N,unconnected-(A1-SCL{slash}A5-Pad14)*%
X241046000Y-61722000D03*
%TO.P,A1,13,SDA/A4*%
%TO.N,unconnected-(A1-SDA{slash}A4-Pad13)*%
X238506000Y-61722000D03*
%TO.P,A1,12,A3*%
%TO.N,unconnected-(A1-A3-Pad12)*%
X235966000Y-61722000D03*
%TO.P,A1,11,A2*%
%TO.N,unconnected-(A1-A2-Pad11)*%
X233426000Y-61722000D03*
%TO.P,A1,10,A1*%
%TO.N,unconnected-(A1-A1-Pad10)*%
X230886000Y-61722000D03*
%TO.P,A1,9,A0*%
%TO.N,unconnected-(A1-A0-Pad9)*%
X228346000Y-61722000D03*
%TO.P,A1,8,VIN*%
%TO.N,unconnected-(A1-VIN-Pad8)*%
X223266000Y-61722000D03*
%TO.P,A1,7,GND*%
%TO.N,GND*%
X220726000Y-61722000D03*
%TO.P,A1,6,GND*%
X218186000Y-61722000D03*
%TO.P,A1,5,+5V*%
%TO.N,unconnected-(A1-+5V-Pad5)*%
X215646000Y-61722000D03*
%TO.P,A1,4,3V3*%
%TO.N,unconnected-(A1-3V3-Pad4)*%
X213106000Y-61722000D03*
%TO.P,A1,3,~{RESET}*%
%TO.N,unconnected-(A1-~{RESET}-Pad3)*%
X210566000Y-61722000D03*
%TO.P,A1,2,IOREF*%
%TO.N,unconnected-(A1-IOREF-Pad2)*%
X208026000Y-61722000D03*
D11*
%TO.P,A1,1,NC*%
%TO.N,unconnected-(A1-NC-Pad1)*%
X205486000Y-61722000D03*
%TD*%
D12*
%TO.P,J4,3,Pin_3*%
%TO.N,GND*%
X218186000Y-96759000D03*
%TO.P,J4,2,Pin_2*%
%TO.N,+5V*%
X218186000Y-99299000D03*
D13*
%TO.P,J4,1,Pin_1*%
%TO.N,/D9*%
X218186000Y-101839000D03*
%TD*%
D12*
%TO.P,J5,3,Pin_3*%
%TO.N,GND*%
X214122000Y-96759000D03*
%TO.P,J5,2,Pin_2*%
%TO.N,+5V*%
X214122000Y-99299000D03*
D13*
%TO.P,J5,1,Pin_1*%
%TO.N,/D10*%
X214122000Y-101839000D03*
%TD*%
D10*
%TO.P,R1,2*%
%TO.N,GND*%
X210058000Y-71882000D03*
D14*
%TO.P,R1,1*%
%TO.N,Net-(D1-K)*%
X210058000Y-74422000D03*
%TD*%
D12*
%TO.P,J3,3,Pin_3*%
%TO.N,GND*%
X222250000Y-96774000D03*
%TO.P,J3,2,Pin_2*%
%TO.N,+5V*%
X222250000Y-99314000D03*
D13*
%TO.P,J3,1,Pin_1*%
%TO.N,/D5*%
X222250000Y-101854000D03*
%TD*%
D12*
%TO.P,J2,3,Pin_3*%
%TO.N,GND*%
X226568000Y-96774000D03*
%TO.P,J2,2,Pin_2*%
%TO.N,+5V*%
X226568000Y-99314000D03*
D13*
%TO.P,J2,1,Pin_1*%
%TO.N,/D3*%
X226568000Y-101854000D03*
%TD*%
%TO.P,J7,1,Pin_1*%
%TO.N,/D12*%
X205232000Y-101839000D03*
D12*
%TO.P,J7,2,Pin_2*%
%TO.N,+5V*%
X205232000Y-99299000D03*
%TO.P,J7,3,Pin_3*%
%TO.N,GND*%
X205232000Y-96759000D03*
%TD*%
D15*
%TO.P,J1,1,Pin_1*%
%TO.N,+5V*%
X195687500Y-86527500D03*
D16*
%TO.P,J1,2,Pin_2*%
%TO.N,GND*%
X195687500Y-91527500D03*
%TD*%
D17*
%TO.P,D1,2,A*%
%TO.N,+5V*%
X210058000Y-81788000D03*
D18*
%TO.P,D1,1,K*%
%TO.N,Net-(D1-K)*%
X210058000Y-84328000D03*
%TD*%
D13*
%TO.P,J6,1,Pin_1*%
%TO.N,/D11*%
X209550000Y-101854000D03*
D12*
%TO.P,J6,2,Pin_2*%
%TO.N,+5V*%
X209550000Y-99314000D03*
%TO.P,J6,3,Pin_3*%
%TO.N,GND*%
X209550000Y-96774000D03*
%TD*%
D19*
%TO.N,GND*%
X195580000Y-104140000D03*
X195580000Y-99060000D03*
X241300000Y-83820000D03*
X241300000Y-78740000D03*
X236220000Y-101600000D03*
X236220000Y-96520000D03*
X231140000Y-88900000D03*
X226060000Y-88900000D03*
X220980000Y-88900000D03*
X195580000Y-76200000D03*
X195580000Y-71120000D03*
X233680000Y-76200000D03*
X228600000Y-76200000D03*
X223520000Y-76200000D03*
X233680000Y-71120000D03*
X228600000Y-71120000D03*
X223520000Y-71120000D03*
%TO.N,+5V*%
X199390000Y-81788000D03*
%TD*%
D20*
%TO.N,+5V*%
X195687500Y-85490500D02*
X199390000Y-81788000D01*
X195687500Y-86527500D02*
X195687500Y-85490500D01*
%TO.N,Net-(D1-K)*%
X211283000Y-75647000D02*
X210058000Y-74422000D01*
X211283000Y-83103000D02*
X211283000Y-75647000D01*
X210058000Y-84328000D02*
X211283000Y-83103000D01*
%TO.N,GND*%
X221232679Y-61730978D02*
X221112468Y-61730978D01*
X221238842Y-61737141D02*
X221232679Y-61730978D01*
X221238842Y-62987158D02*
X221238842Y-61737141D01*
X220726000Y-63500000D02*
X221238842Y-62987158D01*
X218440000Y-63500000D02*
X220726000Y-63500000D01*
X218440000Y-63500000D02*
X218572468Y-63367532D01*
X210058000Y-71882000D02*
X218440000Y-63500000D01*
X218572468Y-63367532D02*
X218572468Y-61730978D01*
X204978000Y-71882000D02*
X210058000Y-71882000D01*
X202438000Y-74422000D02*
X204978000Y-71882000D01*
X202438000Y-84777000D02*
X202438000Y-74422000D01*
X195687500Y-91527500D02*
X202438000Y-84777000D01*
X218210179Y-61805087D02*
X218254856Y-61786581D01*
X218289053Y-61752384D02*
X218308813Y-61704680D01*
X218186000Y-61805087D02*
X218210179Y-61805087D01*
X218186000Y-61722000D02*
X218186000Y-61805087D01*
X218254856Y-61786581D02*
X218289053Y-61752384D01*
X218291493Y-61722000D02*
X218308813Y-61704680D01*
X218186000Y-61722000D02*
X218291493Y-61722000D01*
X220829053Y-61752384D02*
X220848813Y-61704680D01*
X220756384Y-61752384D02*
X220829053Y-61752384D01*
X220726000Y-61722000D02*
X220756384Y-61752384D01*
X204378468Y-109790389D02*
X204378468Y-109990978D01*
X201168000Y-106579921D02*
X204378468Y-109790389D01*
X201168000Y-96759000D02*
X201168000Y-106579921D01*
X201168000Y-96759000D02*
X200919000Y-96759000D01*
X205232000Y-96759000D02*
X201168000Y-96759000D01*
X200919000Y-96759000D02*
X195687500Y-91527500D01*
%TO.N,/D3*%
X233812468Y-109098468D02*
X233812468Y-109990978D01*
X226568000Y-101854000D02*
X233812468Y-109098468D01*
%TO.N,/D5*%
X222250000Y-101854000D02*
X228732468Y-108336468D01*
X228732468Y-108336468D02*
X228732468Y-109990978D01*
%TO.N,/D9*%
X218186000Y-108883446D02*
X217078468Y-109990978D01*
X218186000Y-101839000D02*
X218186000Y-108883446D01*
%TO.N,/D10*%
X214538468Y-102255468D02*
X214538468Y-109990978D01*
X214122000Y-101839000D02*
X214538468Y-102255468D01*
%TO.N,/D11*%
X211998468Y-104302468D02*
X211998468Y-109990978D01*
X209550000Y-101854000D02*
X211998468Y-104302468D01*
%TO.N,/D12*%
X209458468Y-106065468D02*
X209458468Y-109990978D01*
X205232000Y-101839000D02*
X209458468Y-106065468D01*
%TO.N,+5V*%
X222250000Y-99314000D02*
X226568000Y-99314000D01*
X218186000Y-99299000D02*
X222235000Y-99299000D01*
X222235000Y-99299000D02*
X222250000Y-99314000D01*
X214122000Y-99299000D02*
X218186000Y-99299000D01*
X214107000Y-99314000D02*
X214122000Y-99299000D01*
X209550000Y-99314000D02*
X214107000Y-99314000D01*
X209535000Y-99299000D02*
X209550000Y-99314000D01*
X205232000Y-99299000D02*
X209535000Y-99299000D01*
%TO.N,GND*%
X222250000Y-96774000D02*
X226568000Y-96774000D01*
X222235000Y-96759000D02*
X222250000Y-96774000D01*
X218186000Y-96759000D02*
X222235000Y-96759000D01*
X214122000Y-96759000D02*
X218186000Y-96759000D01*
X214107000Y-96774000D02*
X214122000Y-96759000D01*
X209550000Y-96774000D02*
X214107000Y-96774000D01*
X209535000Y-96759000D02*
X209550000Y-96774000D01*
X205232000Y-96759000D02*
X209535000Y-96759000D01*
%TD*%
%TA.AperFunction,Conductor*%
%TO.N,GND*%
G36*
X220179692Y-61491685D02*
G01*
X220225447Y-61544489D01*
X220235391Y-61613647D01*
X220231631Y-61630933D01*
X220226000Y-61650111D01*
X220226000Y-61793889D01*
X220227418Y-61798718D01*
X220231631Y-61813067D01*
X220231630Y-61882936D01*
X220193855Y-61941714D01*
X220130299Y-61970738D01*
X220112653Y-61972000D01*
X218799347Y-61972000D01*
X218732308Y-61952315D01*
X218686553Y-61899511D01*
X218676609Y-61830353D01*
X218680369Y-61813067D01*
X218684582Y-61798718D01*
X218686000Y-61793889D01*
X218686000Y-61650111D01*
X218680368Y-61630933D01*
X218680370Y-61561064D01*
X218718145Y-61502286D01*
X218781701Y-61473262D01*
X218799347Y-61472000D01*
X220112653Y-61472000D01*
X220179692Y-61491685D01*
G37*
%TD.AperFunction*%
%TA.AperFunction,Conductor*%
G36*
X243558538Y-59163712D02*
G01*
X243604293Y-59216516D01*
X243615498Y-59268026D01*
X243615498Y-60471879D01*
X243615498Y-61674524D01*
X243615457Y-61683524D01*
X243615528Y-61683697D01*
X243615613Y-61683907D01*
X243617976Y-61686268D01*
X244183378Y-62265348D01*
X246060222Y-64187599D01*
X246092972Y-64249317D01*
X246095499Y-64274225D01*
X246095499Y-96938827D01*
X246075814Y-97005866D01*
X246060222Y-97025454D01*
X243618593Y-99526152D01*
X243615615Y-99529142D01*
X243615596Y-99529190D01*
X243615602Y-99529178D01*
X243615537Y-99529334D01*
X243615456Y-99529531D01*
X243615499Y-99532925D01*
X243615499Y-110905638D01*
X243595814Y-110972677D01*
X243579180Y-110993319D01*
X242087318Y-112485181D01*
X242025995Y-112518666D01*
X241999637Y-112521500D01*
X189100499Y-112521500D01*
X189033460Y-112501815D01*
X188987705Y-112449011D01*
X188976499Y-112397500D01*
X188976499Y-109943526D01*
X191223089Y-109943526D01*
X191230755Y-110040935D01*
X191230946Y-110045801D01*
X191230946Y-110058718D01*
X191229746Y-110062801D01*
X191230431Y-110071498D01*
X191232441Y-110077720D01*
X191234460Y-110090467D01*
X191235032Y-110095300D01*
X191240373Y-110163154D01*
X191242700Y-110192713D01*
X191242701Y-110192716D01*
X191242701Y-110192717D01*
X191265509Y-110287721D01*
X191266456Y-110292482D01*
X191268480Y-110305253D01*
X191267934Y-110309476D01*
X191269968Y-110317950D01*
X191272924Y-110323775D01*
X191276921Y-110336075D01*
X191278243Y-110340762D01*
X191301052Y-110435765D01*
X191301053Y-110435768D01*
X191320204Y-110482000D01*
X191338159Y-110525348D01*
X191338440Y-110526025D01*
X191340125Y-110530593D01*
X191344117Y-110542879D01*
X191344238Y-110547132D01*
X191347583Y-110555206D01*
X191351419Y-110560505D01*
X191357281Y-110572011D01*
X191359317Y-110576429D01*
X191396705Y-110666693D01*
X191447749Y-110749987D01*
X191450131Y-110754240D01*
X191456003Y-110765766D01*
X191456787Y-110769944D01*
X191461342Y-110777378D01*
X191465961Y-110782012D01*
X191473555Y-110792466D01*
X191476259Y-110796512D01*
X191527304Y-110879811D01*
X191527305Y-110879812D01*
X191590748Y-110954096D01*
X191593762Y-110957918D01*
X191601371Y-110968391D01*
X191602800Y-110972397D01*
X191608462Y-110979026D01*
X191613742Y-110982875D01*
X191622890Y-110992022D01*
X191626195Y-110995598D01*
X191626196Y-110995599D01*
X191689642Y-111069884D01*
X191763925Y-111133328D01*
X191763930Y-111133332D01*
X191767506Y-111136638D01*
X191776649Y-111145781D01*
X191778687Y-111149514D01*
X191785311Y-111155171D01*
X191791124Y-111158145D01*
X191801606Y-111165761D01*
X191805403Y-111168753D01*
X191879710Y-111232218D01*
X191963013Y-111283266D01*
X191967044Y-111285959D01*
X191977514Y-111293565D01*
X191980113Y-111296936D01*
X191987544Y-111301490D01*
X191993754Y-111303519D01*
X192005292Y-111309398D01*
X192009501Y-111311754D01*
X192092833Y-111362820D01*
X192183113Y-111400215D01*
X192187506Y-111402240D01*
X192199023Y-111408108D01*
X192202117Y-111411030D01*
X192210189Y-111414373D01*
X192216637Y-111415405D01*
X192228952Y-111419407D01*
X192233480Y-111421078D01*
X192310195Y-111452854D01*
X192323768Y-111458476D01*
X192362203Y-111467702D01*
X192418780Y-111481285D01*
X192423426Y-111482596D01*
X192435743Y-111486598D01*
X192439254Y-111488999D01*
X192447729Y-111491034D01*
X192454263Y-111491044D01*
X192467067Y-111493072D01*
X192471793Y-111494013D01*
X192566813Y-111516826D01*
X192664244Y-111524493D01*
X192669043Y-111525062D01*
X192681822Y-111527086D01*
X192685665Y-111528908D01*
X192694347Y-111529591D01*
X192700808Y-111528580D01*
X192713724Y-111528580D01*
X192718590Y-111528771D01*
X192728437Y-111529545D01*
X192815999Y-111536437D01*
X192903560Y-111529545D01*
X192913408Y-111528771D01*
X192918274Y-111528580D01*
X192931189Y-111528580D01*
X192935272Y-111529779D01*
X192943957Y-111529095D01*
X192950177Y-111527086D01*
X192962969Y-111525060D01*
X192967744Y-111524494D01*
X193065185Y-111516826D01*
X193160237Y-111494005D01*
X193164920Y-111493074D01*
X193177728Y-111491045D01*
X193181946Y-111491591D01*
X193190424Y-111489555D01*
X193196251Y-111486599D01*
X193208574Y-111482595D01*
X193213214Y-111481286D01*
X193308235Y-111458474D01*
X193398533Y-111421071D01*
X193403049Y-111419405D01*
X193415347Y-111415409D01*
X193419600Y-111415288D01*
X193427671Y-111411945D01*
X193432961Y-111408115D01*
X193444503Y-111402234D01*
X193448858Y-111400225D01*
X193539165Y-111362820D01*
X193622507Y-111311747D01*
X193626691Y-111309405D01*
X193638236Y-111303522D01*
X193642413Y-111302738D01*
X193649848Y-111298182D01*
X193654474Y-111293573D01*
X193655654Y-111292714D01*
X193664964Y-111285950D01*
X193668969Y-111283275D01*
X193752288Y-111232218D01*
X193826602Y-111168746D01*
X193830374Y-111165774D01*
X193840869Y-111158148D01*
X193844872Y-111156720D01*
X193851498Y-111151061D01*
X193855346Y-111145783D01*
X193864508Y-111136621D01*
X193868047Y-111133349D01*
X193942356Y-111069884D01*
X194005821Y-110995575D01*
X194009093Y-110992036D01*
X194018254Y-110982875D01*
X194021985Y-110980838D01*
X194027648Y-110974208D01*
X194030626Y-110968388D01*
X194038243Y-110957905D01*
X194041207Y-110954143D01*
X194104690Y-110879816D01*
X194155747Y-110796497D01*
X194158422Y-110792492D01*
X194165186Y-110783182D01*
X194166045Y-110782002D01*
X194169409Y-110779408D01*
X194173964Y-110771975D01*
X194175993Y-110765766D01*
X194181877Y-110754219D01*
X194184219Y-110750035D01*
X194235292Y-110666693D01*
X194272697Y-110576386D01*
X194274706Y-110572031D01*
X194280585Y-110560493D01*
X194283504Y-110557402D01*
X194286845Y-110549337D01*
X194287879Y-110542883D01*
X194291882Y-110530562D01*
X194293538Y-110526073D01*
X194330946Y-110435763D01*
X194353758Y-110340742D01*
X194355067Y-110336102D01*
X194359070Y-110323780D01*
X194361471Y-110320270D01*
X194363504Y-110311799D01*
X194363516Y-110305262D01*
X194365548Y-110292438D01*
X194366476Y-110287770D01*
X194389298Y-110192713D01*
X194396966Y-110095272D01*
X194397532Y-110090494D01*
X194401052Y-110068273D01*
X194401052Y-110068265D01*
X194402083Y-110061757D01*
X194401286Y-110056315D01*
X194401667Y-110036895D01*
X194401843Y-110033304D01*
X194405881Y-109982001D01*
X195040532Y-109982001D01*
X195060364Y-110208686D01*
X195060366Y-110208697D01*
X195119258Y-110428488D01*
X195119261Y-110428497D01*
X195215431Y-110634732D01*
X195215432Y-110634734D01*
X195345954Y-110821141D01*
X195506858Y-110982045D01*
X195521107Y-110992022D01*
X195693266Y-111112568D01*
X195899504Y-111208739D01*
X196119308Y-111267635D01*
X196281230Y-111281801D01*
X196345998Y-111287468D01*
X196346000Y-111287468D01*
X196346002Y-111287468D01*
X196402673Y-111282509D01*
X196572692Y-111267635D01*
X196792496Y-111208739D01*
X196998734Y-111112568D01*
X197185139Y-110982047D01*
X197346047Y-110821139D01*
X197476568Y-110634734D01*
X197503619Y-110576721D01*
X197549788Y-110524286D01*
X197616981Y-110505133D01*
X197683862Y-110525348D01*
X197728380Y-110576722D01*
X197755432Y-110634734D01*
X197775931Y-110664010D01*
X197885954Y-110821141D01*
X198046858Y-110982045D01*
X198061107Y-110992022D01*
X198233266Y-111112568D01*
X198439504Y-111208739D01*
X198659308Y-111267635D01*
X198821230Y-111281801D01*
X198885998Y-111287468D01*
X198886000Y-111287468D01*
X198886002Y-111287468D01*
X198942673Y-111282509D01*
X199112692Y-111267635D01*
X199332496Y-111208739D01*
X199538734Y-111112568D01*
X199725139Y-110982047D01*
X199886047Y-110821139D01*
X200016568Y-110634734D01*
X200043619Y-110576721D01*
X200089788Y-110524286D01*
X200156981Y-110505133D01*
X200223862Y-110525348D01*
X200268380Y-110576722D01*
X200295432Y-110634734D01*
X200315931Y-110664010D01*
X200425954Y-110821141D01*
X200586858Y-110982045D01*
X200601107Y-110992022D01*
X200773266Y-111112568D01*
X200979504Y-111208739D01*
X201199308Y-111267635D01*
X201361230Y-111281801D01*
X201425998Y-111287468D01*
X201426000Y-111287468D01*
X201426002Y-111287468D01*
X201482672Y-111282509D01*
X201652692Y-111267635D01*
X201872496Y-111208739D01*
X202078734Y-111112568D01*
X202265139Y-110982047D01*
X202426047Y-110821139D01*
X202556568Y-110634734D01*
X202583895Y-110576129D01*
X202630064Y-110523695D01*
X202697257Y-110504542D01*
X202764139Y-110524757D01*
X202808657Y-110576133D01*
X202835865Y-110634482D01*
X202966342Y-110820820D01*
X203127179Y-110981657D01*
X203313517Y-111112134D01*
X203519673Y-111208265D01*
X203519682Y-111208269D01*
X203715999Y-111260872D01*
X203716000Y-111260871D01*
X203716000Y-110594301D01*
X203735685Y-110527262D01*
X203788489Y-110481507D01*
X203857647Y-110471563D01*
X203930237Y-110482000D01*
X203930238Y-110482000D01*
X204001762Y-110482000D01*
X204001763Y-110482000D01*
X204074352Y-110471563D01*
X204143510Y-110481507D01*
X204196314Y-110527261D01*
X204215999Y-110594301D01*
X204215999Y-111260871D01*
X204216000Y-111260872D01*
X204412317Y-111208269D01*
X204412326Y-111208265D01*
X204618482Y-111112134D01*
X204804820Y-110981657D01*
X204965657Y-110820820D01*
X205096132Y-110634484D01*
X205123341Y-110576134D01*
X205169513Y-110523695D01*
X205236707Y-110504542D01*
X205303588Y-110524757D01*
X205348105Y-110576132D01*
X205356578Y-110594301D01*
X205375431Y-110634732D01*
X205375432Y-110634734D01*
X205505954Y-110821141D01*
X205666858Y-110982045D01*
X205681107Y-110992022D01*
X205853266Y-111112568D01*
X206059504Y-111208739D01*
X206279308Y-111267635D01*
X206441230Y-111281801D01*
X206505998Y-111287468D01*
X206506000Y-111287468D01*
X206506002Y-111287468D01*
X206562673Y-111282509D01*
X206732692Y-111267635D01*
X206952496Y-111208739D01*
X207158734Y-111112568D01*
X207345139Y-110982047D01*
X207506047Y-110821139D01*
X207636568Y-110634734D01*
X207663618Y-110576724D01*
X207709790Y-110524285D01*
X207776983Y-110505133D01*
X207843865Y-110525348D01*
X207888382Y-110576725D01*
X207915429Y-110634728D01*
X207915432Y-110634734D01*
X208045954Y-110821141D01*
X208206858Y-110982045D01*
X208221107Y-110992022D01*
X208393266Y-111112568D01*
X208599504Y-111208739D01*
X208819308Y-111267635D01*
X208981230Y-111281801D01*
X209045998Y-111287468D01*
X209046000Y-111287468D01*
X209046002Y-111287468D01*
X209102672Y-111282509D01*
X209272692Y-111267635D01*
X209492496Y-111208739D01*
X209698734Y-111112568D01*
X209885139Y-110982047D01*
X210046047Y-110821139D01*
X210176568Y-110634734D01*
X210203618Y-110576724D01*
X210249790Y-110524285D01*
X210316983Y-110505133D01*
X210383865Y-110525348D01*
X210428382Y-110576725D01*
X210455429Y-110634728D01*
X210455432Y-110634734D01*
X210585954Y-110821141D01*
X210746858Y-110982045D01*
X210761107Y-110992022D01*
X210933266Y-111112568D01*
X211139504Y-111208739D01*
X211359308Y-111267635D01*
X211521230Y-111281801D01*
X211585998Y-111287468D01*
X211586000Y-111287468D01*
X211586002Y-111287468D01*
X211642672Y-111282509D01*
X211812692Y-111267635D01*
X212032496Y-111208739D01*
X212238734Y-111112568D01*
X212425139Y-110982047D01*
X212586047Y-110821139D01*
X212716568Y-110634734D01*
X212743618Y-110576724D01*
X212789790Y-110524285D01*
X212856983Y-110505133D01*
X212923865Y-110525348D01*
X212968382Y-110576725D01*
X212995429Y-110634728D01*
X212995432Y-110634734D01*
X213125954Y-110821141D01*
X213286858Y-110982045D01*
X213301107Y-110992022D01*
X213473266Y-111112568D01*
X213679504Y-111208739D01*
X213899308Y-111267635D01*
X214061230Y-111281801D01*
X214125998Y-111287468D01*
X214126000Y-111287468D01*
X214126002Y-111287468D01*
X214182672Y-111282509D01*
X214352692Y-111267635D01*
X214572496Y-111208739D01*
X214778734Y-111112568D01*
X214965139Y-110982047D01*
X215126047Y-110821139D01*
X215256568Y-110634734D01*
X215283618Y-110576724D01*
X215329790Y-110524285D01*
X215396983Y-110505133D01*
X215463865Y-110525348D01*
X215508382Y-110576725D01*
X215535429Y-110634728D01*
X215535432Y-110634734D01*
X215665954Y-110821141D01*
X215826858Y-110982045D01*
X215841107Y-110992022D01*
X216013266Y-111112568D01*
X216219504Y-111208739D01*
X216439308Y-111267635D01*
X216601230Y-111281801D01*
X216665998Y-111287468D01*
X216666000Y-111287468D01*
X216666002Y-111287468D01*
X216722673Y-111282509D01*
X216892692Y-111267635D01*
X217112496Y-111208739D01*
X217318734Y-111112568D01*
X217505139Y-110982047D01*
X217666047Y-110821139D01*
X217796568Y-110634734D01*
X217823618Y-110576724D01*
X217869790Y-110524285D01*
X217936983Y-110505133D01*
X218003865Y-110525348D01*
X218048382Y-110576725D01*
X218075429Y-110634728D01*
X218075432Y-110634734D01*
X218205954Y-110821141D01*
X218366858Y-110982045D01*
X218381107Y-110992022D01*
X218553266Y-111112568D01*
X218759504Y-111208739D01*
X218979308Y-111267635D01*
X219141230Y-111281801D01*
X219205998Y-111287468D01*
X219206000Y-111287468D01*
X219206002Y-111287468D01*
X219262673Y-111282509D01*
X219432692Y-111267635D01*
X219652496Y-111208739D01*
X219858734Y-111112568D01*
X220045139Y-110982047D01*
X220206047Y-110821139D01*
X220336568Y-110634734D01*
X220432739Y-110428496D01*
X220491635Y-110208692D01*
X220511468Y-109982000D01*
X220491635Y-109755308D01*
X220435629Y-109546289D01*
X220432741Y-109535511D01*
X220432738Y-109535502D01*
X220408019Y-109482492D01*
X220336568Y-109329266D01*
X220206047Y-109142861D01*
X220206045Y-109142858D01*
X220045141Y-108981954D01*
X219858734Y-108851432D01*
X219858732Y-108851431D01*
X219652497Y-108755261D01*
X219652488Y-108755258D01*
X219432697Y-108696366D01*
X219432693Y-108696365D01*
X219432692Y-108696365D01*
X219432691Y-108696364D01*
X219432686Y-108696364D01*
X219206002Y-108676532D01*
X219205998Y-108676532D01*
X218979313Y-108696364D01*
X218979302Y-108696366D01*
X218967593Y-108699504D01*
X218897743Y-108697841D01*
X218839881Y-108658678D01*
X218812377Y-108594449D01*
X218811500Y-108579729D01*
X218811500Y-103313499D01*
X218831185Y-103246460D01*
X218883989Y-103200705D01*
X218935500Y-103189499D01*
X219083871Y-103189499D01*
X219083872Y-103189499D01*
X219143483Y-103183091D01*
X219278331Y-103132796D01*
X219393546Y-103046546D01*
X219479796Y-102931331D01*
X219530091Y-102796483D01*
X219536500Y-102736873D01*
X219536499Y-100941128D01*
X219530091Y-100881517D01*
X219485391Y-100761671D01*
X219479797Y-100746671D01*
X219479793Y-100746664D01*
X219393547Y-100631455D01*
X219393544Y-100631452D01*
X219278335Y-100545206D01*
X219278328Y-100545202D01*
X219146917Y-100496189D01*
X219090983Y-100454318D01*
X219066566Y-100388853D01*
X219081418Y-100320580D01*
X219102563Y-100292332D01*
X219224495Y-100170401D01*
X219359651Y-99977377D01*
X219414229Y-99933752D01*
X219461227Y-99924500D01*
X220965572Y-99924500D01*
X221032611Y-99944185D01*
X221071167Y-99988346D01*
X221073257Y-99987140D01*
X221075965Y-99991831D01*
X221181242Y-100142182D01*
X221211501Y-100185396D01*
X221211506Y-100185402D01*
X221333430Y-100307326D01*
X221366915Y-100368649D01*
X221361931Y-100438341D01*
X221320059Y-100494274D01*
X221289083Y-100511189D01*
X221157669Y-100560203D01*
X221157664Y-100560206D01*
X221042455Y-100646452D01*
X221042452Y-100646455D01*
X220956206Y-100761664D01*
X220956202Y-100761671D01*
X220905908Y-100896517D01*
X220899501Y-100956116D01*
X220899501Y-100956123D01*
X220899500Y-100956135D01*
X220899500Y-102751870D01*
X220899501Y-102751876D01*
X220905908Y-102811483D01*
X220956202Y-102946328D01*
X220956206Y-102946335D01*
X221042452Y-103061544D01*
X221042455Y-103061547D01*
X221157664Y-103147793D01*
X221157671Y-103147797D01*
X221292517Y-103198091D01*
X221292516Y-103198091D01*
X221299444Y-103198835D01*
X221352127Y-103204500D01*
X222664547Y-103204499D01*
X222731586Y-103224184D01*
X222752228Y-103240818D01*
X228037210Y-108525800D01*
X228070695Y-108587123D01*
X228065711Y-108656815D01*
X228023839Y-108712748D01*
X227981624Y-108733255D01*
X227899517Y-108755256D01*
X227899502Y-108755261D01*
X227693267Y-108851431D01*
X227693265Y-108851432D01*
X227506858Y-108981954D01*
X227345954Y-109142858D01*
X227215432Y-109329265D01*
X227215431Y-109329267D01*
X227188382Y-109387275D01*
X227142209Y-109439714D01*
X227075016Y-109458866D01*
X227008135Y-109438650D01*
X226963618Y-109387275D01*
X226951380Y-109361031D01*
X226936568Y-109329266D01*
X226806047Y-109142861D01*
X226806045Y-109142858D01*
X226645141Y-108981954D01*
X226458734Y-108851432D01*
X226458732Y-108851431D01*
X226252497Y-108755261D01*
X226252488Y-108755258D01*
X226032697Y-108696366D01*
X226032693Y-108696365D01*
X226032692Y-108696365D01*
X226032691Y-108696364D01*
X226032686Y-108696364D01*
X225806002Y-108676532D01*
X225805998Y-108676532D01*
X225579313Y-108696364D01*
X225579302Y-108696366D01*
X225359511Y-108755258D01*
X225359502Y-108755261D01*
X225153267Y-108851431D01*
X225153265Y-108851432D01*
X224966858Y-108981954D01*
X224805954Y-109142858D01*
X224675432Y-109329265D01*
X224675431Y-109329267D01*
X224648382Y-109387275D01*
X224602209Y-109439714D01*
X224535016Y-109458866D01*
X224468135Y-109438650D01*
X224423618Y-109387275D01*
X224411380Y-109361031D01*
X224396568Y-109329266D01*
X224266047Y-109142861D01*
X224266045Y-109142858D01*
X224105141Y-108981954D01*
X223918734Y-108851432D01*
X223918732Y-108851431D01*
X223712497Y-108755261D01*
X223712488Y-108755258D01*
X223492697Y-108696366D01*
X223492693Y-108696365D01*
X223492692Y-108696365D01*
X223492691Y-108696364D01*
X223492686Y-108696364D01*
X223266002Y-108676532D01*
X223265998Y-108676532D01*
X223039313Y-108696364D01*
X223039302Y-108696366D01*
X222819511Y-108755258D01*
X222819502Y-108755261D01*
X222613267Y-108851431D01*
X222613265Y-108851432D01*
X222426858Y-108981954D01*
X222265954Y-109142858D01*
X222135432Y-109329265D01*
X222135431Y-109329267D01*
X222039261Y-109535502D01*
X222039258Y-109535511D01*
X221980366Y-109755302D01*
X221980364Y-109755313D01*
X221960532Y-109981998D01*
X221960532Y-109982001D01*
X221980364Y-110208686D01*
X221980366Y-110208697D01*
X222039258Y-110428488D01*
X222039261Y-110428497D01*
X222135431Y-110634732D01*
X222135432Y-110634734D01*
X222265954Y-110821141D01*
X222426858Y-110982045D01*
X222441107Y-110992022D01*
X222613266Y-111112568D01*
X222819504Y-111208739D01*
X223039308Y-111267635D01*
X223201230Y-111281801D01*
X223265998Y-111287468D01*
X223266000Y-111287468D01*
X223266002Y-111287468D01*
X223322672Y-111282509D01*
X223492692Y-111267635D01*
X223712496Y-111208739D01*
X223918734Y-111112568D01*
X224105139Y-110982047D01*
X224266047Y-110821139D01*
X224396568Y-110634734D01*
X224423619Y-110576721D01*
X224469788Y-110524286D01*
X224536981Y-110505133D01*
X224603862Y-110525348D01*
X224648380Y-110576722D01*
X224675432Y-110634734D01*
X224695931Y-110664010D01*
X224805954Y-110821141D01*
X224966858Y-110982045D01*
X224981107Y-110992022D01*
X225153266Y-111112568D01*
X225359504Y-111208739D01*
X225579308Y-111267635D01*
X225741230Y-111281801D01*
X225805998Y-111287468D01*
X225806000Y-111287468D01*
X225806002Y-111287468D01*
X225862672Y-111282509D01*
X226032692Y-111267635D01*
X226252496Y-111208739D01*
X226458734Y-111112568D01*
X226645139Y-110982047D01*
X226806047Y-110821139D01*
X226936568Y-110634734D01*
X226963619Y-110576721D01*
X227009788Y-110524286D01*
X227076981Y-110505133D01*
X227143862Y-110525348D01*
X227188380Y-110576722D01*
X227215432Y-110634734D01*
X227235931Y-110664010D01*
X227345954Y-110821141D01*
X227506858Y-110982045D01*
X227521107Y-110992022D01*
X227693266Y-111112568D01*
X227899504Y-111208739D01*
X228119308Y-111267635D01*
X228281230Y-111281801D01*
X228345998Y-111287468D01*
X228346000Y-111287468D01*
X228346002Y-111287468D01*
X228402673Y-111282509D01*
X228572692Y-111267635D01*
X228792496Y-111208739D01*
X228998734Y-111112568D01*
X229185139Y-110982047D01*
X229346047Y-110821139D01*
X229476568Y-110634734D01*
X229503619Y-110576721D01*
X229549788Y-110524286D01*
X229616981Y-110505133D01*
X229683862Y-110525348D01*
X229728380Y-110576722D01*
X229755432Y-110634734D01*
X229775931Y-110664010D01*
X229885954Y-110821141D01*
X230046858Y-110982045D01*
X230061107Y-110992022D01*
X230233266Y-111112568D01*
X230439504Y-111208739D01*
X230659308Y-111267635D01*
X230821230Y-111281801D01*
X230885998Y-111287468D01*
X230886000Y-111287468D01*
X230886002Y-111287468D01*
X230942673Y-111282509D01*
X231112692Y-111267635D01*
X231332496Y-111208739D01*
X231538734Y-111112568D01*
X231725139Y-110982047D01*
X231886047Y-110821139D01*
X232016568Y-110634734D01*
X232043619Y-110576721D01*
X232089788Y-110524286D01*
X232156981Y-110505133D01*
X232223862Y-110525348D01*
X232268380Y-110576722D01*
X232295432Y-110634734D01*
X232315931Y-110664010D01*
X232425954Y-110821141D01*
X232586858Y-110982045D01*
X232601107Y-110992022D01*
X232773266Y-111112568D01*
X232979504Y-111208739D01*
X233199308Y-111267635D01*
X233361230Y-111281801D01*
X233425998Y-111287468D01*
X233426000Y-111287468D01*
X233426002Y-111287468D01*
X233482672Y-111282509D01*
X233652692Y-111267635D01*
X233872496Y-111208739D01*
X234078734Y-111112568D01*
X234265139Y-110982047D01*
X234426047Y-110821139D01*
X234556568Y-110634734D01*
X234583618Y-110576724D01*
X234629790Y-110524285D01*
X234696983Y-110505133D01*
X234763865Y-110525348D01*
X234808382Y-110576725D01*
X234835429Y-110634728D01*
X234835432Y-110634734D01*
X234965954Y-110821141D01*
X235126858Y-110982045D01*
X235141107Y-110992022D01*
X235313266Y-111112568D01*
X235519504Y-111208739D01*
X235739308Y-111267635D01*
X235901230Y-111281801D01*
X235965998Y-111287468D01*
X235966000Y-111287468D01*
X235966002Y-111287468D01*
X236022672Y-111282509D01*
X236192692Y-111267635D01*
X236412496Y-111208739D01*
X236618734Y-111112568D01*
X236805139Y-110982047D01*
X236966047Y-110821139D01*
X237096568Y-110634734D01*
X237123618Y-110576724D01*
X237169790Y-110524285D01*
X237236983Y-110505133D01*
X237303865Y-110525348D01*
X237348382Y-110576725D01*
X237375429Y-110634728D01*
X237375432Y-110634734D01*
X237505954Y-110821141D01*
X237666858Y-110982045D01*
X237681107Y-110992022D01*
X237853266Y-111112568D01*
X238059504Y-111208739D01*
X238279308Y-111267635D01*
X238441230Y-111281801D01*
X238505998Y-111287468D01*
X238506000Y-111287468D01*
X238506002Y-111287468D01*
X238562673Y-111282509D01*
X238732692Y-111267635D01*
X238952496Y-111208739D01*
X239158734Y-111112568D01*
X239345139Y-110982047D01*
X239506047Y-110821139D01*
X239636568Y-110634734D01*
X239663618Y-110576724D01*
X239709790Y-110524285D01*
X239776983Y-110505133D01*
X239843865Y-110525348D01*
X239888382Y-110576725D01*
X239915429Y-110634728D01*
X239915432Y-110634734D01*
X240045954Y-110821141D01*
X240206858Y-110982045D01*
X240221107Y-110992022D01*
X240393266Y-111112568D01*
X240599504Y-111208739D01*
X240819308Y-111267635D01*
X240981230Y-111281801D01*
X241045998Y-111287468D01*
X241046000Y-111287468D01*
X241046002Y-111287468D01*
X241102672Y-111282509D01*
X241272692Y-111267635D01*
X241492496Y-111208739D01*
X241698734Y-111112568D01*
X241885139Y-110982047D01*
X242046047Y-110821139D01*
X242176568Y-110634734D01*
X242272739Y-110428496D01*
X242331635Y-110208692D01*
X242351468Y-109982000D01*
X242331635Y-109755308D01*
X242275629Y-109546289D01*
X242272741Y-109535511D01*
X242272738Y-109535502D01*
X242248019Y-109482492D01*
X242176568Y-109329266D01*
X242046047Y-109142861D01*
X242046045Y-109142858D01*
X241885141Y-108981954D01*
X241698734Y-108851432D01*
X241698732Y-108851431D01*
X241492497Y-108755261D01*
X241492488Y-108755258D01*
X241272697Y-108696366D01*
X241272693Y-108696365D01*
X241272692Y-108696365D01*
X241272691Y-108696364D01*
X241272686Y-108696364D01*
X241046002Y-108676532D01*
X241045998Y-108676532D01*
X240819313Y-108696364D01*
X240819302Y-108696366D01*
X240599511Y-108755258D01*
X240599502Y-108755261D01*
X240393267Y-108851431D01*
X240393265Y-108851432D01*
X240206858Y-108981954D01*
X240045954Y-109142858D01*
X239915432Y-109329265D01*
X239915431Y-109329267D01*
X239888382Y-109387275D01*
X239842209Y-109439714D01*
X239775016Y-109458866D01*
X239708135Y-109438650D01*
X239663618Y-109387275D01*
X239651380Y-109361031D01*
X239636568Y-109329266D01*
X239506047Y-109142861D01*
X239506045Y-109142858D01*
X239345141Y-108981954D01*
X239158734Y-108851432D01*
X239158732Y-108851431D01*
X238952497Y-108755261D01*
X238952488Y-108755258D01*
X238732697Y-108696366D01*
X238732693Y-108696365D01*
X238732692Y-108696365D01*
X238732691Y-108696364D01*
X238732686Y-108696364D01*
X238506002Y-108676532D01*
X238505998Y-108676532D01*
X238279313Y-108696364D01*
X238279302Y-108696366D01*
X238059511Y-108755258D01*
X238059502Y-108755261D01*
X237853267Y-108851431D01*
X237853265Y-108851432D01*
X237666858Y-108981954D01*
X237505954Y-109142858D01*
X237375432Y-109329265D01*
X237375431Y-109329267D01*
X237348382Y-109387275D01*
X237302209Y-109439714D01*
X237235016Y-109458866D01*
X237168135Y-109438650D01*
X237123618Y-109387275D01*
X237111380Y-109361031D01*
X237096568Y-109329266D01*
X236966047Y-109142861D01*
X236966045Y-109142858D01*
X236805141Y-108981954D01*
X236618734Y-108851432D01*
X236618732Y-108851431D01*
X236412497Y-108755261D01*
X236412488Y-108755258D01*
X236192697Y-108696366D01*
X236192693Y-108696365D01*
X236192692Y-108696365D01*
X236192691Y-108696364D01*
X236192686Y-108696364D01*
X235966002Y-108676532D01*
X235965998Y-108676532D01*
X235739313Y-108696364D01*
X235739302Y-108696366D01*
X235519511Y-108755258D01*
X235519502Y-108755261D01*
X235313267Y-108851431D01*
X235313265Y-108851432D01*
X235126858Y-108981954D01*
X234965954Y-109142858D01*
X234835432Y-109329265D01*
X234835431Y-109329267D01*
X234808382Y-109387275D01*
X234762209Y-109439714D01*
X234695016Y-109458866D01*
X234628135Y-109438650D01*
X234583618Y-109387275D01*
X234571380Y-109361031D01*
X234556568Y-109329266D01*
X234461513Y-109193513D01*
X234439187Y-109127308D01*
X234439154Y-109126404D01*
X234437968Y-109088653D01*
X234437968Y-109059118D01*
X234437099Y-109052240D01*
X234436640Y-109046411D01*
X234435177Y-108999840D01*
X234429590Y-108980612D01*
X234425642Y-108961552D01*
X234423131Y-108941672D01*
X234405980Y-108898355D01*
X234404087Y-108892826D01*
X234391086Y-108848077D01*
X234391084Y-108848074D01*
X234380891Y-108830839D01*
X234372329Y-108813362D01*
X234364955Y-108794738D01*
X234364954Y-108794736D01*
X234337547Y-108757013D01*
X234334356Y-108752154D01*
X234333329Y-108750418D01*
X234310638Y-108712048D01*
X234310636Y-108712046D01*
X234310633Y-108712042D01*
X234296474Y-108697883D01*
X234283836Y-108683087D01*
X234272062Y-108666881D01*
X234269297Y-108664594D01*
X234236156Y-108637177D01*
X234231844Y-108633254D01*
X227954818Y-102356227D01*
X227921333Y-102294904D01*
X227918499Y-102268546D01*
X227918499Y-100956129D01*
X227918498Y-100956123D01*
X227918497Y-100956116D01*
X227912091Y-100896517D01*
X227906496Y-100881517D01*
X227861797Y-100761671D01*
X227861793Y-100761664D01*
X227775547Y-100646455D01*
X227775544Y-100646452D01*
X227660335Y-100560206D01*
X227660328Y-100560202D01*
X227528917Y-100511189D01*
X227472983Y-100469318D01*
X227448566Y-100403853D01*
X227463418Y-100335580D01*
X227484563Y-100307332D01*
X227606495Y-100185401D01*
X227742035Y-99991830D01*
X227841903Y-99777663D01*
X227903063Y-99549408D01*
X227923659Y-99314000D01*
X227903063Y-99078592D01*
X227841903Y-98850337D01*
X227742035Y-98636171D01*
X227741652Y-98635623D01*
X227606494Y-98442597D01*
X227439402Y-98275506D01*
X227439401Y-98275505D01*
X227253405Y-98145269D01*
X227209781Y-98090692D01*
X227202588Y-98021193D01*
X227234110Y-97958839D01*
X227253405Y-97942119D01*
X227439082Y-97812105D01*
X227606105Y-97645082D01*
X227741600Y-97451578D01*
X227841429Y-97237492D01*
X227841432Y-97237486D01*
X227898636Y-97024000D01*
X227181347Y-97024000D01*
X227114308Y-97004315D01*
X227068553Y-96951511D01*
X227058609Y-96882353D01*
X227062369Y-96865067D01*
X227068000Y-96845888D01*
X227068000Y-96702111D01*
X227062369Y-96682933D01*
X227062370Y-96613064D01*
X227100145Y-96554286D01*
X227163701Y-96525262D01*
X227181347Y-96524000D01*
X227898636Y-96524000D01*
X227898635Y-96523999D01*
X227841432Y-96310513D01*
X227841429Y-96310507D01*
X227741600Y-96096422D01*
X227741599Y-96096420D01*
X227606113Y-95902926D01*
X227606108Y-95902920D01*
X227439082Y-95735894D01*
X227245578Y-95600399D01*
X227031492Y-95500570D01*
X227031486Y-95500567D01*
X226818000Y-95443364D01*
X226818000Y-96161698D01*
X226798315Y-96228737D01*
X226745511Y-96274492D01*
X226676355Y-96284436D01*
X226603766Y-96274000D01*
X226603763Y-96274000D01*
X226532237Y-96274000D01*
X226532233Y-96274000D01*
X226459645Y-96284436D01*
X226390487Y-96274492D01*
X226337684Y-96228736D01*
X226318000Y-96161698D01*
X226318000Y-95443364D01*
X226317999Y-95443364D01*
X226104513Y-95500567D01*
X226104507Y-95500570D01*
X225890422Y-95600399D01*
X225890420Y-95600400D01*
X225696926Y-95735886D01*
X225696920Y-95735891D01*
X225529891Y-95902920D01*
X225529886Y-95902926D01*
X225394400Y-96096420D01*
X225394399Y-96096422D01*
X225294570Y-96310507D01*
X225294567Y-96310513D01*
X225237364Y-96523999D01*
X225237364Y-96524000D01*
X225954653Y-96524000D01*
X226021692Y-96543685D01*
X226067447Y-96596489D01*
X226077391Y-96665647D01*
X226073631Y-96682933D01*
X226068000Y-96702111D01*
X226068000Y-96845888D01*
X226073631Y-96865067D01*
X226073630Y-96934936D01*
X226035855Y-96993714D01*
X225972299Y-97022738D01*
X225954653Y-97024000D01*
X225237364Y-97024000D01*
X225294567Y-97237486D01*
X225294570Y-97237492D01*
X225394399Y-97451578D01*
X225529894Y-97645082D01*
X225696917Y-97812105D01*
X225882595Y-97942119D01*
X225926219Y-97996696D01*
X225933412Y-98066195D01*
X225901890Y-98128549D01*
X225882595Y-98145269D01*
X225696594Y-98275508D01*
X225529505Y-98442597D01*
X225394348Y-98635623D01*
X225339771Y-98679248D01*
X225292773Y-98688500D01*
X223525227Y-98688500D01*
X223458188Y-98668815D01*
X223423652Y-98635623D01*
X223288494Y-98442597D01*
X223121402Y-98275506D01*
X223121401Y-98275505D01*
X222935405Y-98145269D01*
X222891781Y-98090692D01*
X222884588Y-98021193D01*
X222916110Y-97958839D01*
X222935405Y-97942119D01*
X223121082Y-97812105D01*
X223288105Y-97645082D01*
X223423600Y-97451578D01*
X223523429Y-97237492D01*
X223523432Y-97237486D01*
X223580636Y-97024000D01*
X222863347Y-97024000D01*
X222796308Y-97004315D01*
X222750553Y-96951511D01*
X222740609Y-96882353D01*
X222744369Y-96865067D01*
X222750000Y-96845888D01*
X222750000Y-96702111D01*
X222744369Y-96682933D01*
X222744370Y-96613064D01*
X222782145Y-96554286D01*
X222845701Y-96525262D01*
X222863347Y-96524000D01*
X223580636Y-96524000D01*
X223580635Y-96523999D01*
X223523432Y-96310513D01*
X223523429Y-96310507D01*
X223423600Y-96096422D01*
X223423599Y-96096420D01*
X223288113Y-95902926D01*
X223288108Y-95902920D01*
X223121082Y-95735894D01*
X222927578Y-95600399D01*
X222713492Y-95500570D01*
X222713486Y-95500567D01*
X222500000Y-95443364D01*
X222500000Y-96161698D01*
X222480315Y-96228737D01*
X222427511Y-96274492D01*
X222358355Y-96284436D01*
X222285766Y-96274000D01*
X222285763Y-96274000D01*
X222214237Y-96274000D01*
X222214233Y-96274000D01*
X222141645Y-96284436D01*
X222072487Y-96274492D01*
X222019684Y-96228736D01*
X222000000Y-96161698D01*
X222000000Y-95443364D01*
X221999999Y-95443364D01*
X221786513Y-95500567D01*
X221786507Y-95500570D01*
X221572422Y-95600399D01*
X221572420Y-95600400D01*
X221378926Y-95735886D01*
X221378920Y-95735891D01*
X221211891Y-95902920D01*
X221211886Y-95902926D01*
X221076400Y-96096420D01*
X221076399Y-96096422D01*
X220976570Y-96310507D01*
X220976567Y-96310513D01*
X220919364Y-96523999D01*
X220919364Y-96524000D01*
X221636653Y-96524000D01*
X221703692Y-96543685D01*
X221749447Y-96596489D01*
X221759391Y-96665647D01*
X221755631Y-96682933D01*
X221750000Y-96702111D01*
X221750000Y-96845888D01*
X221755631Y-96865067D01*
X221755630Y-96934936D01*
X221717855Y-96993714D01*
X221654299Y-97022738D01*
X221636653Y-97024000D01*
X220919364Y-97024000D01*
X220976567Y-97237486D01*
X220976570Y-97237492D01*
X221076399Y-97451578D01*
X221211894Y-97645082D01*
X221378917Y-97812105D01*
X221564595Y-97942119D01*
X221608219Y-97996696D01*
X221615412Y-98066195D01*
X221583890Y-98128549D01*
X221564595Y-98145269D01*
X221378594Y-98275508D01*
X221211505Y-98442597D01*
X221086851Y-98620623D01*
X221032274Y-98664248D01*
X220985276Y-98673500D01*
X219461227Y-98673500D01*
X219394188Y-98653815D01*
X219359652Y-98620623D01*
X219224494Y-98427597D01*
X219057402Y-98260506D01*
X219057401Y-98260505D01*
X218871405Y-98130269D01*
X218827781Y-98075692D01*
X218820588Y-98006193D01*
X218852110Y-97943839D01*
X218871405Y-97927119D01*
X219057082Y-97797105D01*
X219224105Y-97630082D01*
X219359600Y-97436578D01*
X219459429Y-97222492D01*
X219459432Y-97222486D01*
X219516636Y-97009000D01*
X218799347Y-97009000D01*
X218732308Y-96989315D01*
X218686553Y-96936511D01*
X218676609Y-96867353D01*
X218680369Y-96850067D01*
X218686000Y-96830888D01*
X218686000Y-96687111D01*
X218680369Y-96667933D01*
X218680370Y-96598064D01*
X218718145Y-96539286D01*
X218781701Y-96510262D01*
X218799347Y-96509000D01*
X219516636Y-96509000D01*
X219516635Y-96508999D01*
X219459432Y-96295513D01*
X219459429Y-96295507D01*
X219359600Y-96081422D01*
X219359599Y-96081420D01*
X219224113Y-95887926D01*
X219224108Y-95887920D01*
X219057082Y-95720894D01*
X218863578Y-95585399D01*
X218649492Y-95485570D01*
X218649486Y-95485567D01*
X218436000Y-95428364D01*
X218436000Y-96146698D01*
X218416315Y-96213737D01*
X218363511Y-96259492D01*
X218294355Y-96269436D01*
X218221766Y-96259000D01*
X218221763Y-96259000D01*
X218150237Y-96259000D01*
X218150233Y-96259000D01*
X218077645Y-96269436D01*
X218008487Y-96259492D01*
X217955684Y-96213736D01*
X217936000Y-96146698D01*
X217936000Y-95428364D01*
X217935999Y-95428364D01*
X217722513Y-95485567D01*
X217722507Y-95485570D01*
X217508422Y-95585399D01*
X217508420Y-95585400D01*
X217314926Y-95720886D01*
X217314920Y-95720891D01*
X217147891Y-95887920D01*
X217147886Y-95887926D01*
X217012400Y-96081420D01*
X217012399Y-96081422D01*
X216912570Y-96295507D01*
X216912567Y-96295513D01*
X216855364Y-96508999D01*
X216855364Y-96509000D01*
X217572653Y-96509000D01*
X217639692Y-96528685D01*
X217685447Y-96581489D01*
X217695391Y-96650647D01*
X217691631Y-96667933D01*
X217686000Y-96687111D01*
X217686000Y-96830888D01*
X217691631Y-96850067D01*
X217691630Y-96919936D01*
X217653855Y-96978714D01*
X217590299Y-97007738D01*
X217572653Y-97009000D01*
X216855364Y-97009000D01*
X216912567Y-97222486D01*
X216912570Y-97222492D01*
X217012399Y-97436578D01*
X217147894Y-97630082D01*
X217314917Y-97797105D01*
X217500595Y-97927119D01*
X217544219Y-97981696D01*
X217551412Y-98051195D01*
X217519890Y-98113549D01*
X217500595Y-98130269D01*
X217314594Y-98260508D01*
X217147505Y-98427597D01*
X217012348Y-98620623D01*
X216957771Y-98664248D01*
X216910773Y-98673500D01*
X215397227Y-98673500D01*
X215330188Y-98653815D01*
X215295652Y-98620623D01*
X215160494Y-98427597D01*
X214993402Y-98260506D01*
X214993401Y-98260505D01*
X214807405Y-98130269D01*
X214763781Y-98075692D01*
X214756588Y-98006193D01*
X214788110Y-97943839D01*
X214807405Y-97927119D01*
X214993082Y-97797105D01*
X215160105Y-97630082D01*
X215295600Y-97436578D01*
X215395429Y-97222492D01*
X215395432Y-97222486D01*
X215452636Y-97009000D01*
X214735347Y-97009000D01*
X214668308Y-96989315D01*
X214622553Y-96936511D01*
X214612609Y-96867353D01*
X214616369Y-96850067D01*
X214622000Y-96830888D01*
X214622000Y-96687111D01*
X214616369Y-96667933D01*
X214616370Y-96598064D01*
X214654145Y-96539286D01*
X214717701Y-96510262D01*
X214735347Y-96509000D01*
X215452636Y-96509000D01*
X215452635Y-96508999D01*
X215395432Y-96295513D01*
X215395429Y-96295507D01*
X215295600Y-96081422D01*
X215295599Y-96081420D01*
X215160113Y-95887926D01*
X215160108Y-95887920D01*
X214993082Y-95720894D01*
X214799578Y-95585399D01*
X214585492Y-95485570D01*
X214585486Y-95485567D01*
X214372000Y-95428364D01*
X214372000Y-96146698D01*
X214352315Y-96213737D01*
X214299511Y-96259492D01*
X214230355Y-96269436D01*
X214157766Y-96259000D01*
X214157763Y-96259000D01*
X214086237Y-96259000D01*
X214086233Y-96259000D01*
X214013645Y-96269436D01*
X213944487Y-96259492D01*
X213891684Y-96213736D01*
X213872000Y-96146698D01*
X213872000Y-95428364D01*
X213871999Y-95428364D01*
X213658513Y-95485567D01*
X213658507Y-95485570D01*
X213444422Y-95585399D01*
X213444420Y-95585400D01*
X213250926Y-95720886D01*
X213250920Y-95720891D01*
X213083891Y-95887920D01*
X213083886Y-95887926D01*
X212948400Y-96081420D01*
X212948399Y-96081422D01*
X212848570Y-96295507D01*
X212848567Y-96295513D01*
X212791364Y-96508999D01*
X212791364Y-96509000D01*
X213508653Y-96509000D01*
X213575692Y-96528685D01*
X213621447Y-96581489D01*
X213631391Y-96650647D01*
X213627631Y-96667933D01*
X213622000Y-96687111D01*
X213622000Y-96830888D01*
X213627631Y-96850067D01*
X213627630Y-96919936D01*
X213589855Y-96978714D01*
X213526299Y-97007738D01*
X213508653Y-97009000D01*
X212791364Y-97009000D01*
X212848567Y-97222486D01*
X212848570Y-97222492D01*
X212948399Y-97436578D01*
X213083894Y-97630082D01*
X213250917Y-97797105D01*
X213436595Y-97927119D01*
X213480219Y-97981696D01*
X213487412Y-98051195D01*
X213455890Y-98113549D01*
X213436595Y-98130269D01*
X213250594Y-98260508D01*
X213083506Y-98427596D01*
X212947965Y-98621170D01*
X212945257Y-98625862D01*
X212943131Y-98624634D01*
X212903842Y-98669307D01*
X212837573Y-98688500D01*
X210825227Y-98688500D01*
X210758188Y-98668815D01*
X210723652Y-98635623D01*
X210588494Y-98442597D01*
X210421402Y-98275506D01*
X210421401Y-98275505D01*
X210235405Y-98145269D01*
X210191781Y-98090692D01*
X210184588Y-98021193D01*
X210216110Y-97958839D01*
X210235405Y-97942119D01*
X210421082Y-97812105D01*
X210588105Y-97645082D01*
X210723600Y-97451578D01*
X210823429Y-97237492D01*
X210823432Y-97237486D01*
X210880636Y-97024000D01*
X210163347Y-97024000D01*
X210096308Y-97004315D01*
X210050553Y-96951511D01*
X210040609Y-96882353D01*
X210044369Y-96865067D01*
X210050000Y-96845888D01*
X210050000Y-96702111D01*
X210044369Y-96682933D01*
X210044370Y-96613064D01*
X210082145Y-96554286D01*
X210145701Y-96525262D01*
X210163347Y-96524000D01*
X210880636Y-96524000D01*
X210880635Y-96523999D01*
X210823432Y-96310513D01*
X210823429Y-96310507D01*
X210723600Y-96096422D01*
X210723599Y-96096420D01*
X210588113Y-95902926D01*
X210588108Y-95902920D01*
X210421082Y-95735894D01*
X210227578Y-95600399D01*
X210013492Y-95500570D01*
X210013486Y-95500567D01*
X209799999Y-95443364D01*
X209799999Y-96161698D01*
X209780314Y-96228737D01*
X209727510Y-96274492D01*
X209658353Y-96284436D01*
X209585764Y-96274000D01*
X209585763Y-96274000D01*
X209514237Y-96274000D01*
X209514233Y-96274000D01*
X209441645Y-96284436D01*
X209372487Y-96274492D01*
X209319684Y-96228736D01*
X209300000Y-96161698D01*
X209300000Y-95443364D01*
X209299999Y-95443364D01*
X209086513Y-95500567D01*
X209086507Y-95500570D01*
X208872422Y-95600399D01*
X208872420Y-95600400D01*
X208678926Y-95735886D01*
X208678920Y-95735891D01*
X208511891Y-95902920D01*
X208511886Y-95902926D01*
X208376400Y-96096420D01*
X208376399Y-96096422D01*
X208276570Y-96310507D01*
X208276567Y-96310513D01*
X208219364Y-96523999D01*
X208219364Y-96524000D01*
X208936653Y-96524000D01*
X209003692Y-96543685D01*
X209049447Y-96596489D01*
X209059391Y-96665647D01*
X209055631Y-96682933D01*
X209050000Y-96702111D01*
X209050000Y-96845888D01*
X209055631Y-96865067D01*
X209055630Y-96934936D01*
X209017855Y-96993714D01*
X208954299Y-97022738D01*
X208936653Y-97024000D01*
X208219364Y-97024000D01*
X208276567Y-97237486D01*
X208276570Y-97237492D01*
X208376399Y-97451578D01*
X208511894Y-97645082D01*
X208678917Y-97812105D01*
X208864595Y-97942119D01*
X208908219Y-97996696D01*
X208915412Y-98066195D01*
X208883890Y-98128549D01*
X208864595Y-98145269D01*
X208678594Y-98275508D01*
X208511505Y-98442597D01*
X208386851Y-98620623D01*
X208332274Y-98664248D01*
X208285276Y-98673500D01*
X206507227Y-98673500D01*
X206440188Y-98653815D01*
X206405652Y-98620623D01*
X206270494Y-98427597D01*
X206103402Y-98260506D01*
X206103401Y-98260505D01*
X205917405Y-98130269D01*
X205873781Y-98075692D01*
X205866588Y-98006193D01*
X205898110Y-97943839D01*
X205917405Y-97927119D01*
X206103082Y-97797105D01*
X206270105Y-97630082D01*
X206405600Y-97436578D01*
X206505429Y-97222492D01*
X206505432Y-97222486D01*
X206562636Y-97009000D01*
X205845347Y-97009000D01*
X205778308Y-96989315D01*
X205732553Y-96936511D01*
X205722609Y-96867353D01*
X205726369Y-96850067D01*
X205732000Y-96830888D01*
X205732000Y-96687111D01*
X205726369Y-96667933D01*
X205726370Y-96598064D01*
X205764145Y-96539286D01*
X205827701Y-96510262D01*
X205845347Y-96509000D01*
X206562636Y-96509000D01*
X206562635Y-96508999D01*
X206505432Y-96295513D01*
X206505429Y-96295507D01*
X206405600Y-96081422D01*
X206405599Y-96081420D01*
X206270113Y-95887926D01*
X206270108Y-95887920D01*
X206103082Y-95720894D01*
X205909578Y-95585399D01*
X205695492Y-95485570D01*
X205695486Y-95485567D01*
X205482000Y-95428364D01*
X205482000Y-96146698D01*
X205462315Y-96213737D01*
X205409511Y-96259492D01*
X205340355Y-96269436D01*
X205267766Y-96259000D01*
X205267763Y-96259000D01*
X205196237Y-96259000D01*
X205196233Y-96259000D01*
X205123644Y-96269436D01*
X205054486Y-96259492D01*
X205001683Y-96213736D01*
X204981999Y-96146698D01*
X204981999Y-95428364D01*
X204981998Y-95428364D01*
X204768505Y-95485570D01*
X204554422Y-95585399D01*
X204554420Y-95585400D01*
X204360926Y-95720886D01*
X204360920Y-95720891D01*
X204193891Y-95887920D01*
X204193886Y-95887926D01*
X204058400Y-96081420D01*
X204058399Y-96081422D01*
X203958570Y-96295507D01*
X203958567Y-96295513D01*
X203901364Y-96508999D01*
X203901364Y-96509000D01*
X204618653Y-96509000D01*
X204685692Y-96528685D01*
X204731447Y-96581489D01*
X204741391Y-96650647D01*
X204737631Y-96667933D01*
X204732000Y-96687111D01*
X204732000Y-96830888D01*
X204737631Y-96850067D01*
X204737630Y-96919936D01*
X204699855Y-96978714D01*
X204636299Y-97007738D01*
X204618653Y-97009000D01*
X203901364Y-97009000D01*
X203958567Y-97222486D01*
X203958570Y-97222492D01*
X204058399Y-97436578D01*
X204193894Y-97630082D01*
X204360917Y-97797105D01*
X204546595Y-97927119D01*
X204590219Y-97981696D01*
X204597412Y-98051195D01*
X204565890Y-98113549D01*
X204546595Y-98130269D01*
X204360594Y-98260508D01*
X204193505Y-98427597D01*
X204057965Y-98621169D01*
X204057964Y-98621171D01*
X203958098Y-98835335D01*
X203958094Y-98835344D01*
X203896938Y-99063586D01*
X203896936Y-99063596D01*
X203876341Y-99298999D01*
X203876341Y-99299000D01*
X203896936Y-99534403D01*
X203896938Y-99534413D01*
X203958094Y-99762655D01*
X203958096Y-99762659D01*
X203958097Y-99762663D01*
X204033563Y-99924500D01*
X204057965Y-99976830D01*
X204057967Y-99976834D01*
X204166281Y-100131521D01*
X204193501Y-100170396D01*
X204193506Y-100170402D01*
X204315430Y-100292326D01*
X204348915Y-100353649D01*
X204343931Y-100423341D01*
X204302059Y-100479274D01*
X204271083Y-100496189D01*
X204139669Y-100545203D01*
X204139664Y-100545206D01*
X204024455Y-100631452D01*
X204024452Y-100631455D01*
X203938206Y-100746664D01*
X203938202Y-100746671D01*
X203887908Y-100881517D01*
X203881501Y-100941116D01*
X203881501Y-100941123D01*
X203881500Y-100941135D01*
X203881500Y-102736870D01*
X203881501Y-102736876D01*
X203887908Y-102796483D01*
X203938202Y-102931328D01*
X203938206Y-102931335D01*
X204024452Y-103046544D01*
X204024455Y-103046547D01*
X204139664Y-103132793D01*
X204139671Y-103132797D01*
X204274517Y-103183091D01*
X204274516Y-103183091D01*
X204281444Y-103183835D01*
X204334127Y-103189500D01*
X205646547Y-103189499D01*
X205713586Y-103209184D01*
X205734228Y-103225818D01*
X208796649Y-106288239D01*
X208830134Y-106349562D01*
X208832968Y-106375920D01*
X208832968Y-108597555D01*
X208813283Y-108664594D01*
X208760479Y-108710349D01*
X208741062Y-108717330D01*
X208599509Y-108755259D01*
X208599502Y-108755261D01*
X208393267Y-108851431D01*
X208393265Y-108851432D01*
X208206858Y-108981954D01*
X208045954Y-109142858D01*
X207915432Y-109329265D01*
X207915431Y-109329267D01*
X207888382Y-109387275D01*
X207842209Y-109439714D01*
X207775016Y-109458866D01*
X207708135Y-109438650D01*
X207663618Y-109387275D01*
X207651380Y-109361031D01*
X207636568Y-109329266D01*
X207506047Y-109142861D01*
X207506045Y-109142858D01*
X207345141Y-108981954D01*
X207158734Y-108851432D01*
X207158732Y-108851431D01*
X206952497Y-108755261D01*
X206952488Y-108755258D01*
X206732697Y-108696366D01*
X206732693Y-108696365D01*
X206732692Y-108696365D01*
X206732691Y-108696364D01*
X206732686Y-108696364D01*
X206506002Y-108676532D01*
X206505998Y-108676532D01*
X206279313Y-108696364D01*
X206279302Y-108696366D01*
X206059511Y-108755258D01*
X206059502Y-108755261D01*
X205853267Y-108851431D01*
X205853265Y-108851432D01*
X205666858Y-108981954D01*
X205505954Y-109142858D01*
X205375434Y-109329263D01*
X205375432Y-109329266D01*
X205348383Y-109387274D01*
X205348106Y-109387867D01*
X205301933Y-109440306D01*
X205234739Y-109459457D01*
X205167858Y-109439241D01*
X205123342Y-109387865D01*
X205096135Y-109329520D01*
X205096134Y-109329518D01*
X204965657Y-109143179D01*
X204804820Y-108982342D01*
X204618482Y-108851865D01*
X204412328Y-108755734D01*
X204215999Y-108703127D01*
X204215999Y-109369698D01*
X204196314Y-109436738D01*
X204143510Y-109482492D01*
X204074353Y-109492436D01*
X204001764Y-109482000D01*
X204001763Y-109482000D01*
X203930237Y-109482000D01*
X203930233Y-109482000D01*
X203857645Y-109492436D01*
X203788487Y-109482492D01*
X203735684Y-109436736D01*
X203716000Y-109369698D01*
X203715999Y-108703127D01*
X203519671Y-108755734D01*
X203313517Y-108851865D01*
X203127179Y-108982342D01*
X202966342Y-109143179D01*
X202835867Y-109329515D01*
X202808657Y-109387867D01*
X202762484Y-109440306D01*
X202695290Y-109459457D01*
X202628409Y-109439241D01*
X202583893Y-109387865D01*
X202583617Y-109387274D01*
X202556568Y-109329266D01*
X202426047Y-109142861D01*
X202426045Y-109142858D01*
X202265141Y-108981954D01*
X202078734Y-108851432D01*
X202078732Y-108851431D01*
X201872497Y-108755261D01*
X201872488Y-108755258D01*
X201652697Y-108696366D01*
X201652693Y-108696365D01*
X201652692Y-108696365D01*
X201652691Y-108696364D01*
X201652686Y-108696364D01*
X201426002Y-108676532D01*
X201425998Y-108676532D01*
X201199313Y-108696364D01*
X201199302Y-108696366D01*
X200979511Y-108755258D01*
X200979502Y-108755261D01*
X200773267Y-108851431D01*
X200773265Y-108851432D01*
X200586858Y-108981954D01*
X200425954Y-109142858D01*
X200295432Y-109329265D01*
X200295430Y-109329268D01*
X200268380Y-109387277D01*
X200222207Y-109439715D01*
X200155013Y-109458866D01*
X200088132Y-109438649D01*
X200043619Y-109387277D01*
X200016568Y-109329266D01*
X200006611Y-109315045D01*
X199886045Y-109142858D01*
X199725141Y-108981954D01*
X199538734Y-108851432D01*
X199538732Y-108851431D01*
X199332497Y-108755261D01*
X199332488Y-108755258D01*
X199112697Y-108696366D01*
X199112693Y-108696365D01*
X199112692Y-108696365D01*
X199112691Y-108696364D01*
X199112686Y-108696364D01*
X198886002Y-108676532D01*
X198885998Y-108676532D01*
X198659313Y-108696364D01*
X198659302Y-108696366D01*
X198439511Y-108755258D01*
X198439502Y-108755261D01*
X198233267Y-108851431D01*
X198233265Y-108851432D01*
X198046858Y-108981954D01*
X197885954Y-109142858D01*
X197755432Y-109329265D01*
X197755430Y-109329268D01*
X197728380Y-109387277D01*
X197682207Y-109439715D01*
X197615013Y-109458866D01*
X197548132Y-109438649D01*
X197503619Y-109387277D01*
X197476568Y-109329266D01*
X197466611Y-109315045D01*
X197346045Y-109142858D01*
X197185141Y-108981954D01*
X196998734Y-108851432D01*
X196998732Y-108851431D01*
X196792497Y-108755261D01*
X196792488Y-108755258D01*
X196572697Y-108696366D01*
X196572693Y-108696365D01*
X196572692Y-108696365D01*
X196572691Y-108696364D01*
X196572686Y-108696364D01*
X196346002Y-108676532D01*
X196345998Y-108676532D01*
X196119313Y-108696364D01*
X196119302Y-108696366D01*
X195899511Y-108755258D01*
X195899502Y-108755261D01*
X195693267Y-108851431D01*
X195693265Y-108851432D01*
X195506858Y-108981954D01*
X195345954Y-109142858D01*
X195215432Y-109329265D01*
X195215431Y-109329267D01*
X195119261Y-109535502D01*
X195119258Y-109535511D01*
X195060366Y-109755302D01*
X195060364Y-109755313D01*
X195040532Y-109981998D01*
X195040532Y-109982001D01*
X194405881Y-109982001D01*
X194408909Y-109943527D01*
X194401843Y-109853753D01*
X194401667Y-109850155D01*
X194401286Y-109830737D01*
X194402335Y-109826887D01*
X194401052Y-109818786D01*
X194401052Y-109818781D01*
X194397533Y-109796568D01*
X194396966Y-109791775D01*
X194389298Y-109694341D01*
X194366484Y-109599316D01*
X194365544Y-109594591D01*
X194363519Y-109581808D01*
X194364065Y-109577585D01*
X194362029Y-109569105D01*
X194359070Y-109563271D01*
X194355068Y-109550954D01*
X194353753Y-109546289D01*
X194332765Y-109458866D01*
X194330948Y-109451296D01*
X194325710Y-109438650D01*
X194293549Y-109361008D01*
X194291881Y-109356489D01*
X194287876Y-109344162D01*
X194287755Y-109339914D01*
X194284416Y-109331853D01*
X194280581Y-109326553D01*
X194274712Y-109315034D01*
X194272680Y-109310625D01*
X194235292Y-109220361D01*
X194184227Y-109137031D01*
X194181873Y-109132826D01*
X194175991Y-109121283D01*
X194175207Y-109117104D01*
X194170659Y-109109682D01*
X194166037Y-109105042D01*
X194158431Y-109094572D01*
X194155738Y-109090541D01*
X194104690Y-109007238D01*
X194041241Y-108932949D01*
X194038237Y-108929140D01*
X194030618Y-108918653D01*
X194029189Y-108914649D01*
X194023536Y-108908030D01*
X194018253Y-108904177D01*
X194009110Y-108895034D01*
X194005804Y-108891458D01*
X194005800Y-108891453D01*
X193942356Y-108817170D01*
X193896539Y-108778038D01*
X193868070Y-108753723D01*
X193864494Y-108750418D01*
X193855347Y-108741270D01*
X193853308Y-108737536D01*
X193846685Y-108731879D01*
X193840863Y-108728899D01*
X193830390Y-108721290D01*
X193826568Y-108718276D01*
X193759123Y-108660674D01*
X193752288Y-108654836D01*
X193752286Y-108654834D01*
X193752284Y-108654833D01*
X193752282Y-108654832D01*
X193668987Y-108603788D01*
X193664942Y-108601086D01*
X193659210Y-108596922D01*
X193654486Y-108593490D01*
X193651885Y-108590118D01*
X193644452Y-108585563D01*
X193638238Y-108583531D01*
X193626712Y-108577659D01*
X193622465Y-108575280D01*
X193600926Y-108562081D01*
X193539165Y-108524233D01*
X193448901Y-108486845D01*
X193444483Y-108484809D01*
X193438532Y-108481777D01*
X193432976Y-108478946D01*
X193429880Y-108476023D01*
X193421808Y-108472679D01*
X193415351Y-108471645D01*
X193403065Y-108467653D01*
X193398505Y-108465971D01*
X193374516Y-108456034D01*
X193308240Y-108428581D01*
X193308237Y-108428580D01*
X193213234Y-108405771D01*
X193208547Y-108404449D01*
X193196247Y-108400452D01*
X193192737Y-108398052D01*
X193184276Y-108396021D01*
X193177736Y-108396009D01*
X193176204Y-108395766D01*
X193164959Y-108393985D01*
X193160192Y-108393037D01*
X193065189Y-108370229D01*
X193065185Y-108370228D01*
X193035626Y-108367901D01*
X192967772Y-108362560D01*
X192962939Y-108361988D01*
X192950192Y-108359969D01*
X192946347Y-108358146D01*
X192937651Y-108357462D01*
X192931191Y-108358474D01*
X192918274Y-108358474D01*
X192913408Y-108358283D01*
X192815999Y-108350617D01*
X192718590Y-108358283D01*
X192713724Y-108358474D01*
X192700805Y-108358474D01*
X192696721Y-108357274D01*
X192688039Y-108357958D01*
X192681818Y-108359967D01*
X192676406Y-108360824D01*
X192669055Y-108361988D01*
X192664225Y-108362560D01*
X192566810Y-108370228D01*
X192566808Y-108370229D01*
X192471803Y-108393038D01*
X192467028Y-108393987D01*
X192454270Y-108396008D01*
X192450049Y-108395462D01*
X192441577Y-108397495D01*
X192435752Y-108400451D01*
X192423450Y-108404449D01*
X192418761Y-108405772D01*
X192323765Y-108428579D01*
X192323751Y-108428584D01*
X192233503Y-108465966D01*
X192228933Y-108467652D01*
X192216637Y-108471646D01*
X192212389Y-108471767D01*
X192204325Y-108475107D01*
X192199025Y-108478944D01*
X192187517Y-108484807D01*
X192183097Y-108486844D01*
X192092840Y-108524230D01*
X192092838Y-108524231D01*
X192009528Y-108575282D01*
X192005280Y-108577661D01*
X191993762Y-108583529D01*
X191989582Y-108584313D01*
X191982148Y-108588869D01*
X191977514Y-108593487D01*
X191967059Y-108601082D01*
X191963013Y-108603785D01*
X191893223Y-108646555D01*
X191879710Y-108654836D01*
X191879707Y-108654837D01*
X191879706Y-108654839D01*
X191879701Y-108654842D01*
X191805428Y-108718277D01*
X191801604Y-108721292D01*
X191791129Y-108728903D01*
X191787122Y-108730332D01*
X191780500Y-108735988D01*
X191776650Y-108741269D01*
X191767501Y-108750419D01*
X191763925Y-108753724D01*
X191689641Y-108817169D01*
X191626196Y-108891453D01*
X191622891Y-108895029D01*
X191613741Y-108904178D01*
X191610008Y-108906216D01*
X191604353Y-108912836D01*
X191601375Y-108918657D01*
X191593764Y-108929132D01*
X191590749Y-108932956D01*
X191527314Y-109007229D01*
X191527311Y-109007234D01*
X191527308Y-109007238D01*
X191519027Y-109020751D01*
X191476257Y-109090541D01*
X191473554Y-109094587D01*
X191465959Y-109105042D01*
X191462588Y-109107641D01*
X191458033Y-109115075D01*
X191456003Y-109121286D01*
X191450135Y-109132805D01*
X191447754Y-109137056D01*
X191396708Y-109220356D01*
X191396702Y-109220368D01*
X191359316Y-109310625D01*
X191357279Y-109315045D01*
X191351416Y-109326553D01*
X191348493Y-109329647D01*
X191345151Y-109337715D01*
X191344118Y-109344165D01*
X191340124Y-109356461D01*
X191338438Y-109361031D01*
X191301056Y-109451279D01*
X191301051Y-109451293D01*
X191278244Y-109546289D01*
X191276921Y-109550978D01*
X191272923Y-109563280D01*
X191270524Y-109566787D01*
X191268491Y-109575257D01*
X191268480Y-109581798D01*
X191266460Y-109594553D01*
X191265510Y-109599331D01*
X191242701Y-109694336D01*
X191242700Y-109694339D01*
X191235031Y-109791759D01*
X191234459Y-109796596D01*
X191232440Y-109809341D01*
X191230618Y-109813183D01*
X191229934Y-109821872D01*
X191230946Y-109828333D01*
X191230946Y-109841252D01*
X191230755Y-109846118D01*
X191223089Y-109943526D01*
X188976499Y-109943526D01*
X188976499Y-94703526D01*
X242023089Y-94703526D01*
X242030754Y-94800922D01*
X242030945Y-94805788D01*
X242030945Y-94818718D01*
X242029746Y-94822799D01*
X242030430Y-94831494D01*
X242032442Y-94837722D01*
X242034460Y-94850471D01*
X242035032Y-94855302D01*
X242040525Y-94925081D01*
X242042700Y-94952713D01*
X242042701Y-94952716D01*
X242042701Y-94952717D01*
X242065509Y-95047721D01*
X242066456Y-95052482D01*
X242068480Y-95065253D01*
X242067934Y-95069476D01*
X242069968Y-95077950D01*
X242072924Y-95083775D01*
X242076921Y-95096075D01*
X242078243Y-95100762D01*
X242101052Y-95195765D01*
X242101053Y-95195768D01*
X242138440Y-95286025D01*
X242140125Y-95290593D01*
X242144117Y-95302879D01*
X242144238Y-95307132D01*
X242147583Y-95315206D01*
X242151419Y-95320505D01*
X242157281Y-95332011D01*
X242159317Y-95336429D01*
X242196705Y-95426693D01*
X242247749Y-95509987D01*
X242250131Y-95514240D01*
X242256003Y-95525766D01*
X242256787Y-95529944D01*
X242261342Y-95537378D01*
X242265961Y-95542012D01*
X242273555Y-95552466D01*
X242276259Y-95556512D01*
X242327304Y-95639811D01*
X242327305Y-95639812D01*
X242390748Y-95714096D01*
X242393762Y-95717918D01*
X242401371Y-95728391D01*
X242402800Y-95732397D01*
X242408462Y-95739026D01*
X242413742Y-95742875D01*
X242422890Y-95752022D01*
X242426195Y-95755598D01*
X242426196Y-95755599D01*
X242489642Y-95829884D01*
X242557593Y-95887920D01*
X242563930Y-95893332D01*
X242567506Y-95896638D01*
X242576649Y-95905781D01*
X242578687Y-95909514D01*
X242585311Y-95915171D01*
X242591124Y-95918145D01*
X242601606Y-95925761D01*
X242605403Y-95928753D01*
X242679710Y-95992218D01*
X242763013Y-96043266D01*
X242767044Y-96045959D01*
X242777514Y-96053565D01*
X242780113Y-96056936D01*
X242787544Y-96061490D01*
X242793754Y-96063519D01*
X242805292Y-96069398D01*
X242809501Y-96071754D01*
X242892833Y-96122820D01*
X242983113Y-96160215D01*
X242987506Y-96162240D01*
X242999023Y-96168108D01*
X243002117Y-96171030D01*
X243010189Y-96174373D01*
X243016637Y-96175405D01*
X243028952Y-96179407D01*
X243033480Y-96181078D01*
X243112327Y-96213737D01*
X243123768Y-96218476D01*
X243162203Y-96227702D01*
X243218780Y-96241285D01*
X243223426Y-96242596D01*
X243235743Y-96246598D01*
X243239254Y-96248999D01*
X243247729Y-96251034D01*
X243254263Y-96251044D01*
X243267067Y-96253072D01*
X243271793Y-96254013D01*
X243366813Y-96276826D01*
X243464244Y-96284493D01*
X243469043Y-96285062D01*
X243481822Y-96287086D01*
X243485665Y-96288908D01*
X243494347Y-96289591D01*
X243500808Y-96288580D01*
X243513724Y-96288580D01*
X243518590Y-96288771D01*
X243525567Y-96289320D01*
X243615999Y-96296437D01*
X243706431Y-96289320D01*
X243713408Y-96288771D01*
X243718274Y-96288580D01*
X243731189Y-96288580D01*
X243735272Y-96289779D01*
X243743957Y-96289095D01*
X243750177Y-96287086D01*
X243762969Y-96285060D01*
X243767744Y-96284494D01*
X243865185Y-96276826D01*
X243960237Y-96254005D01*
X243964920Y-96253074D01*
X243977728Y-96251045D01*
X243981946Y-96251591D01*
X243990424Y-96249555D01*
X243996251Y-96246599D01*
X244008574Y-96242595D01*
X244013214Y-96241286D01*
X244108235Y-96218474D01*
X244198533Y-96181071D01*
X244203049Y-96179405D01*
X244215347Y-96175409D01*
X244219600Y-96175288D01*
X244227671Y-96171945D01*
X244232961Y-96168115D01*
X244244503Y-96162234D01*
X244248858Y-96160225D01*
X244339165Y-96122820D01*
X244422507Y-96071747D01*
X244426691Y-96069405D01*
X244438236Y-96063522D01*
X244442413Y-96062738D01*
X244449848Y-96058182D01*
X244454474Y-96053573D01*
X244455654Y-96052714D01*
X244464964Y-96045950D01*
X244468969Y-96043275D01*
X244552288Y-95992218D01*
X244626602Y-95928746D01*
X244630374Y-95925774D01*
X244640869Y-95918148D01*
X244644872Y-95916720D01*
X244651498Y-95911061D01*
X244655346Y-95905783D01*
X244664508Y-95896621D01*
X244668047Y-95893349D01*
X244742356Y-95829884D01*
X244805821Y-95755575D01*
X244809093Y-95752036D01*
X244818254Y-95742875D01*
X244821985Y-95740838D01*
X244827648Y-95734208D01*
X244830626Y-95728388D01*
X244838243Y-95717905D01*
X244841207Y-95714143D01*
X244904690Y-95639816D01*
X244955747Y-95556497D01*
X244958422Y-95552492D01*
X244965186Y-95543182D01*
X244966045Y-95542002D01*
X244969409Y-95539408D01*
X244973964Y-95531975D01*
X244975993Y-95525766D01*
X244981877Y-95514219D01*
X244984219Y-95510035D01*
X245035292Y-95426693D01*
X245072697Y-95336386D01*
X245074706Y-95332031D01*
X245080585Y-95320493D01*
X245083504Y-95317402D01*
X245086845Y-95309337D01*
X245087879Y-95302883D01*
X245091882Y-95290562D01*
X245093538Y-95286073D01*
X245130946Y-95195763D01*
X245153758Y-95100742D01*
X245155067Y-95096102D01*
X245159070Y-95083780D01*
X245161471Y-95080270D01*
X245163504Y-95071799D01*
X245163516Y-95065262D01*
X245165548Y-95052438D01*
X245166476Y-95047770D01*
X245189298Y-94952713D01*
X245196966Y-94855272D01*
X245197532Y-94850494D01*
X245201052Y-94828273D01*
X245201052Y-94828265D01*
X245202083Y-94821757D01*
X245201286Y-94816315D01*
X245201667Y-94796895D01*
X245201843Y-94793304D01*
X245208909Y-94703527D01*
X245201843Y-94613753D01*
X245201667Y-94610155D01*
X245201286Y-94590737D01*
X245202335Y-94586887D01*
X245201052Y-94578786D01*
X245201052Y-94578781D01*
X245197533Y-94556568D01*
X245196966Y-94551775D01*
X245189298Y-94454341D01*
X245166484Y-94359316D01*
X245165544Y-94354591D01*
X245163519Y-94341808D01*
X245164065Y-94337585D01*
X245162029Y-94329105D01*
X245159070Y-94323271D01*
X245155068Y-94310954D01*
X245153753Y-94306289D01*
X245140174Y-94249731D01*
X245130948Y-94211296D01*
X245130941Y-94211279D01*
X245093549Y-94121008D01*
X245091881Y-94116489D01*
X245087876Y-94104162D01*
X245087755Y-94099914D01*
X245084416Y-94091853D01*
X245080581Y-94086553D01*
X245074712Y-94075034D01*
X245072680Y-94070625D01*
X245035292Y-93980361D01*
X244984227Y-93897031D01*
X244981873Y-93892826D01*
X244975991Y-93881283D01*
X244975207Y-93877104D01*
X244970659Y-93869682D01*
X244966037Y-93865042D01*
X244958431Y-93854572D01*
X244955738Y-93850541D01*
X244904690Y-93767238D01*
X244841241Y-93692949D01*
X244838237Y-93689140D01*
X244830618Y-93678653D01*
X244829189Y-93674649D01*
X244823536Y-93668030D01*
X244818253Y-93664177D01*
X244809110Y-93655034D01*
X244805804Y-93651458D01*
X244805800Y-93651453D01*
X244742356Y-93577170D01*
X244668071Y-93513724D01*
X244668070Y-93513723D01*
X244664494Y-93510418D01*
X244655347Y-93501270D01*
X244653308Y-93497536D01*
X244646685Y-93491879D01*
X244640863Y-93488899D01*
X244630390Y-93481290D01*
X244626568Y-93478276D01*
X244569845Y-93429831D01*
X244552288Y-93414836D01*
X244552286Y-93414834D01*
X244552284Y-93414833D01*
X244552282Y-93414832D01*
X244468987Y-93363788D01*
X244464942Y-93361086D01*
X244459210Y-93356922D01*
X244454486Y-93353490D01*
X244451885Y-93350118D01*
X244444452Y-93345563D01*
X244438238Y-93343531D01*
X244426712Y-93337659D01*
X244422465Y-93335280D01*
X244400926Y-93322081D01*
X244339165Y-93284233D01*
X244248901Y-93246845D01*
X244244483Y-93244809D01*
X244238532Y-93241777D01*
X244232976Y-93238946D01*
X244229880Y-93236023D01*
X244221808Y-93232679D01*
X244215351Y-93231645D01*
X244203065Y-93227653D01*
X244198505Y-93225971D01*
X244170336Y-93214303D01*
X244108240Y-93188581D01*
X244108237Y-93188580D01*
X244013234Y-93165771D01*
X244008547Y-93164449D01*
X243996247Y-93160452D01*
X243992737Y-93158052D01*
X243984276Y-93156021D01*
X243977736Y-93156009D01*
X243976204Y-93155766D01*
X243964959Y-93153985D01*
X243960192Y-93153037D01*
X243865189Y-93130229D01*
X243865185Y-93130228D01*
X243835626Y-93127901D01*
X243767772Y-93122560D01*
X243762939Y-93121988D01*
X243750192Y-93119969D01*
X243746347Y-93118146D01*
X243737651Y-93117462D01*
X243731191Y-93118474D01*
X243718274Y-93118474D01*
X243713408Y-93118283D01*
X243656101Y-93113773D01*
X243615999Y-93110617D01*
X243615998Y-93110617D01*
X243518590Y-93118283D01*
X243513724Y-93118474D01*
X243500805Y-93118474D01*
X243496721Y-93117274D01*
X243488039Y-93117958D01*
X243481818Y-93119967D01*
X243476406Y-93120824D01*
X243469055Y-93121988D01*
X243464225Y-93122560D01*
X243366810Y-93130228D01*
X243366808Y-93130229D01*
X243271803Y-93153038D01*
X243267028Y-93153987D01*
X243254270Y-93156008D01*
X243250049Y-93155462D01*
X243241577Y-93157495D01*
X243235752Y-93160451D01*
X243223450Y-93164449D01*
X243218761Y-93165772D01*
X243123765Y-93188579D01*
X243123751Y-93188584D01*
X243033503Y-93225966D01*
X243028933Y-93227652D01*
X243016637Y-93231646D01*
X243012389Y-93231767D01*
X243004325Y-93235107D01*
X242999025Y-93238944D01*
X242987517Y-93244807D01*
X242983097Y-93246844D01*
X242892840Y-93284230D01*
X242892838Y-93284231D01*
X242809528Y-93335282D01*
X242805280Y-93337661D01*
X242793762Y-93343529D01*
X242789582Y-93344313D01*
X242782148Y-93348869D01*
X242777514Y-93353487D01*
X242767059Y-93361082D01*
X242763013Y-93363785D01*
X242693223Y-93406555D01*
X242679710Y-93414836D01*
X242679707Y-93414837D01*
X242679706Y-93414839D01*
X242679701Y-93414842D01*
X242605428Y-93478277D01*
X242601604Y-93481292D01*
X242591129Y-93488903D01*
X242587122Y-93490332D01*
X242580500Y-93495988D01*
X242576650Y-93501269D01*
X242567501Y-93510419D01*
X242563925Y-93513724D01*
X242489641Y-93577169D01*
X242426196Y-93651453D01*
X242422891Y-93655029D01*
X242413741Y-93664178D01*
X242410008Y-93666216D01*
X242404353Y-93672836D01*
X242401375Y-93678657D01*
X242393764Y-93689132D01*
X242390749Y-93692956D01*
X242327314Y-93767229D01*
X242327311Y-93767234D01*
X242327308Y-93767238D01*
X242319027Y-93780751D01*
X242276257Y-93850541D01*
X242273554Y-93854587D01*
X242265959Y-93865042D01*
X242262588Y-93867641D01*
X242258033Y-93875075D01*
X242256003Y-93881286D01*
X242250135Y-93892805D01*
X242247754Y-93897056D01*
X242196708Y-93980356D01*
X242196702Y-93980368D01*
X242159316Y-94070625D01*
X242157279Y-94075045D01*
X242151416Y-94086553D01*
X242148493Y-94089647D01*
X242145151Y-94097715D01*
X242144118Y-94104165D01*
X242140124Y-94116461D01*
X242138438Y-94121031D01*
X242101056Y-94211279D01*
X242101051Y-94211293D01*
X242078244Y-94306289D01*
X242076921Y-94310978D01*
X242072923Y-94323280D01*
X242070524Y-94326787D01*
X242068491Y-94335257D01*
X242068480Y-94341798D01*
X242066460Y-94354553D01*
X242065510Y-94359331D01*
X242042701Y-94454336D01*
X242042700Y-94454339D01*
X242035032Y-94551757D01*
X242034459Y-94556592D01*
X242032440Y-94569339D01*
X242030617Y-94573183D01*
X242029933Y-94581874D01*
X242030945Y-94588333D01*
X242030945Y-94601264D01*
X242030754Y-94606130D01*
X242023089Y-94703526D01*
X188976499Y-94703526D01*
X188976499Y-91527501D01*
X193682391Y-91527501D01*
X193702800Y-91812862D01*
X193763609Y-92092395D01*
X193863591Y-92360458D01*
X194000691Y-92611538D01*
X194000696Y-92611546D01*
X194107382Y-92754061D01*
X194107383Y-92754062D01*
X194899167Y-91962278D01*
X194960490Y-91928793D01*
X195030181Y-91933777D01*
X195086115Y-91975649D01*
X195086311Y-91975911D01*
X195138256Y-92045685D01*
X195243723Y-92134183D01*
X195282425Y-92192354D01*
X195283533Y-92262215D01*
X195251698Y-92316853D01*
X194460936Y-93107614D01*
X194460936Y-93107615D01*
X194603460Y-93214307D01*
X194603461Y-93214308D01*
X194854542Y-93351408D01*
X194854541Y-93351408D01*
X195122604Y-93451390D01*
X195402137Y-93512199D01*
X195687499Y-93532609D01*
X195687501Y-93532609D01*
X195972862Y-93512199D01*
X196252395Y-93451390D01*
X196520458Y-93351408D01*
X196771547Y-93214303D01*
X196914061Y-93107616D01*
X196914062Y-93107615D01*
X196123375Y-92316928D01*
X196089890Y-92255605D01*
X196094874Y-92185913D01*
X196136746Y-92129980D01*
X196142898Y-92125659D01*
X196172873Y-92105945D01*
X196293188Y-91978418D01*
X196293187Y-91978418D01*
X196298145Y-91973164D01*
X196299342Y-91974293D01*
X196348129Y-91937552D01*
X196417806Y-91932366D01*
X196479226Y-91965673D01*
X197267615Y-92754062D01*
X197267616Y-92754061D01*
X197374303Y-92611547D01*
X197511408Y-92360458D01*
X197611390Y-92092395D01*
X197672199Y-91812862D01*
X197692609Y-91527501D01*
X197692609Y-91527498D01*
X197672199Y-91242137D01*
X197611390Y-90962604D01*
X197511408Y-90694541D01*
X197374308Y-90443461D01*
X197374307Y-90443460D01*
X197267615Y-90300936D01*
X197267614Y-90300936D01*
X196475831Y-91092720D01*
X196414508Y-91126205D01*
X196344816Y-91121221D01*
X196288883Y-91079349D01*
X196288791Y-91079226D01*
X196236744Y-91009315D01*
X196131273Y-90920813D01*
X196092572Y-90862644D01*
X196091464Y-90792783D01*
X196123299Y-90738145D01*
X196914062Y-89947383D01*
X196914061Y-89947382D01*
X196771546Y-89840696D01*
X196771538Y-89840691D01*
X196520457Y-89703591D01*
X196520458Y-89703591D01*
X196252395Y-89603609D01*
X195972862Y-89542800D01*
X195687501Y-89522391D01*
X195687499Y-89522391D01*
X195402137Y-89542800D01*
X195122604Y-89603609D01*
X194854541Y-89703591D01*
X194603461Y-89840691D01*
X194603453Y-89840696D01*
X194460936Y-89947382D01*
X194460936Y-89947383D01*
X195251624Y-90738071D01*
X195285109Y-90799394D01*
X195280125Y-90869086D01*
X195238253Y-90925019D01*
X195232083Y-90929352D01*
X195202127Y-90949054D01*
X195076855Y-91081835D01*
X195075663Y-91080710D01*
X195026824Y-91117462D01*
X194957146Y-91122622D01*
X194895738Y-91089291D01*
X194107383Y-90300936D01*
X194107382Y-90300936D01*
X194000696Y-90443453D01*
X194000691Y-90443461D01*
X193863591Y-90694541D01*
X193763609Y-90962604D01*
X193702800Y-91242137D01*
X193682391Y-91527498D01*
X193682391Y-91527501D01*
X188976499Y-91527501D01*
X188976499Y-88075370D01*
X193687000Y-88075370D01*
X193687001Y-88075376D01*
X193693408Y-88134983D01*
X193743702Y-88269828D01*
X193743706Y-88269835D01*
X193829952Y-88385044D01*
X193829955Y-88385047D01*
X193945164Y-88471293D01*
X193945171Y-88471297D01*
X194080017Y-88521591D01*
X194080016Y-88521591D01*
X194086944Y-88522335D01*
X194139627Y-88528000D01*
X197235372Y-88527999D01*
X197294983Y-88521591D01*
X197429831Y-88471296D01*
X197545046Y-88385046D01*
X197631296Y-88269831D01*
X197681591Y-88134983D01*
X197688000Y-88075373D01*
X197687999Y-84979628D01*
X197681591Y-84920017D01*
X197631296Y-84785169D01*
X197545046Y-84669954D01*
X197545045Y-84669953D01*
X197544187Y-84668807D01*
X197519770Y-84603343D01*
X197534621Y-84535070D01*
X197555769Y-84506819D01*
X199337770Y-82724819D01*
X199399094Y-82691334D01*
X199425452Y-82688500D01*
X199484644Y-82688500D01*
X199484646Y-82688500D01*
X199669803Y-82649144D01*
X199842730Y-82572151D01*
X199995871Y-82460888D01*
X200122533Y-82320216D01*
X200217179Y-82156284D01*
X200275674Y-81976256D01*
X200295459Y-81788006D01*
X208652700Y-81788006D01*
X208671864Y-82019297D01*
X208671866Y-82019308D01*
X208728842Y-82244300D01*
X208822075Y-82456848D01*
X208949016Y-82651147D01*
X208949019Y-82651151D01*
X208949021Y-82651153D01*
X209043803Y-82754114D01*
X209074724Y-82816767D01*
X209066864Y-82886193D01*
X209022716Y-82940348D01*
X208995906Y-82954277D01*
X208915669Y-82984203D01*
X208915664Y-82984206D01*
X208800455Y-83070452D01*
X208800452Y-83070455D01*
X208714206Y-83185664D01*
X208714202Y-83185671D01*
X208663908Y-83320517D01*
X208657501Y-83380116D01*
X208657500Y-83380135D01*
X208657500Y-85275870D01*
X208657501Y-85275876D01*
X208663908Y-85335483D01*
X208714202Y-85470328D01*
X208714206Y-85470335D01*
X208800452Y-85585544D01*
X208800455Y-85585547D01*
X208915664Y-85671793D01*
X208915671Y-85671797D01*
X209050517Y-85722091D01*
X209050516Y-85722091D01*
X209057444Y-85722835D01*
X209110127Y-85728500D01*
X211005872Y-85728499D01*
X211065483Y-85722091D01*
X211200331Y-85671796D01*
X211315546Y-85585546D01*
X211401796Y-85470331D01*
X211452091Y-85335483D01*
X211458500Y-85275873D01*
X211458499Y-83863450D01*
X211478184Y-83796412D01*
X211494813Y-83775775D01*
X211666786Y-83603802D01*
X211679048Y-83593980D01*
X211678865Y-83593759D01*
X211684867Y-83588792D01*
X211684877Y-83588786D01*
X211732241Y-83538348D01*
X211753120Y-83517470D01*
X211757373Y-83511986D01*
X211761150Y-83507563D01*
X211793062Y-83473582D01*
X211802714Y-83456023D01*
X211813389Y-83439772D01*
X211825674Y-83423936D01*
X211844186Y-83381152D01*
X211846742Y-83375935D01*
X211869197Y-83335092D01*
X211874180Y-83315680D01*
X211880477Y-83297291D01*
X211888438Y-83278895D01*
X211895729Y-83232853D01*
X211896908Y-83227162D01*
X211908500Y-83182019D01*
X211908500Y-83161983D01*
X211910027Y-83142582D01*
X211913160Y-83122804D01*
X211908775Y-83076415D01*
X211908500Y-83070577D01*
X211908500Y-75729742D01*
X211910224Y-75714122D01*
X211909939Y-75714095D01*
X211910673Y-75706333D01*
X211909556Y-75670790D01*
X211908500Y-75637171D01*
X211908500Y-75607650D01*
X211907631Y-75600779D01*
X211907173Y-75594952D01*
X211905710Y-75548373D01*
X211900119Y-75529130D01*
X211896173Y-75510078D01*
X211893664Y-75490208D01*
X211876504Y-75446867D01*
X211874624Y-75441379D01*
X211861618Y-75396610D01*
X211851422Y-75379370D01*
X211842861Y-75361894D01*
X211835487Y-75343270D01*
X211835486Y-75343268D01*
X211808079Y-75305545D01*
X211804888Y-75300686D01*
X211781172Y-75260583D01*
X211781165Y-75260574D01*
X211767006Y-75246415D01*
X211754368Y-75231619D01*
X211742594Y-75215413D01*
X211706688Y-75185709D01*
X211702376Y-75181786D01*
X211357413Y-74836822D01*
X211323928Y-74775499D01*
X211325319Y-74717048D01*
X211343635Y-74648692D01*
X211363468Y-74422000D01*
X211343635Y-74195308D01*
X211284739Y-73975504D01*
X211188568Y-73769266D01*
X211058047Y-73582861D01*
X211058045Y-73582858D01*
X210897141Y-73421954D01*
X210710734Y-73291432D01*
X210710732Y-73291431D01*
X210699275Y-73286088D01*
X210652132Y-73264105D01*
X210599694Y-73217934D01*
X210580542Y-73150740D01*
X210600758Y-73083859D01*
X210652134Y-73039341D01*
X210710484Y-73012132D01*
X210896820Y-72881657D01*
X211057657Y-72720820D01*
X211188134Y-72534482D01*
X211284265Y-72328326D01*
X211284269Y-72328317D01*
X211336872Y-72132000D01*
X210568576Y-72132000D01*
X210501537Y-72112315D01*
X210455782Y-72059511D01*
X210445838Y-71990353D01*
X210446103Y-71988603D01*
X210462986Y-71882003D01*
X210462986Y-71881996D01*
X210446103Y-71775397D01*
X210455058Y-71706104D01*
X210500054Y-71652652D01*
X210566806Y-71632013D01*
X210568576Y-71632000D01*
X211336872Y-71632000D01*
X211336872Y-71631999D01*
X211284269Y-71435682D01*
X211284265Y-71435673D01*
X211188134Y-71229517D01*
X211057657Y-71043179D01*
X210896820Y-70882342D01*
X210710482Y-70751865D01*
X210504328Y-70655734D01*
X210308000Y-70603127D01*
X210308000Y-71371424D01*
X210288315Y-71438463D01*
X210235511Y-71484218D01*
X210166353Y-71494162D01*
X210164602Y-71493897D01*
X210089486Y-71482000D01*
X210089481Y-71482000D01*
X210026519Y-71482000D01*
X210026514Y-71482000D01*
X209951398Y-71493897D01*
X209882104Y-71484942D01*
X209828652Y-71439946D01*
X209808013Y-71373194D01*
X209808000Y-71371424D01*
X209808000Y-70603127D01*
X209611671Y-70655734D01*
X209405517Y-70751865D01*
X209219179Y-70882342D01*
X209058342Y-71043179D01*
X208927865Y-71229517D01*
X208831734Y-71435673D01*
X208831730Y-71435682D01*
X208779127Y-71631999D01*
X208779128Y-71632000D01*
X209547424Y-71632000D01*
X209614463Y-71651685D01*
X209660218Y-71704489D01*
X209670162Y-71773647D01*
X209669897Y-71775397D01*
X209653013Y-71881996D01*
X209653013Y-71882003D01*
X209669897Y-71988603D01*
X209660942Y-72057896D01*
X209615946Y-72111348D01*
X209549194Y-72131987D01*
X209547424Y-72132000D01*
X208779128Y-72132000D01*
X208831730Y-72328317D01*
X208831734Y-72328326D01*
X208927865Y-72534482D01*
X209058342Y-72720820D01*
X209219179Y-72881657D01*
X209405518Y-73012134D01*
X209405520Y-73012135D01*
X209463865Y-73039342D01*
X209516305Y-73085514D01*
X209535457Y-73152707D01*
X209515242Y-73219589D01*
X209463867Y-73264105D01*
X209405268Y-73291431D01*
X209405264Y-73291433D01*
X209218858Y-73421954D01*
X209057954Y-73582858D01*
X208927432Y-73769265D01*
X208927431Y-73769267D01*
X208831261Y-73975502D01*
X208831258Y-73975511D01*
X208772366Y-74195302D01*
X208772364Y-74195313D01*
X208752532Y-74421998D01*
X208752532Y-74422001D01*
X208772364Y-74648686D01*
X208772366Y-74648697D01*
X208831258Y-74868488D01*
X208831261Y-74868497D01*
X208927431Y-75074732D01*
X208927432Y-75074734D01*
X209057954Y-75261141D01*
X209218858Y-75422045D01*
X209218861Y-75422047D01*
X209405266Y-75552568D01*
X209611504Y-75648739D01*
X209831308Y-75707635D01*
X209988780Y-75721412D01*
X210057998Y-75727468D01*
X210058000Y-75727468D01*
X210058002Y-75727468D01*
X210127220Y-75721412D01*
X210284692Y-75707635D01*
X210353051Y-75689318D01*
X210422897Y-75690981D01*
X210472820Y-75721410D01*
X210621181Y-75869770D01*
X210654666Y-75931093D01*
X210657500Y-75957451D01*
X210657500Y-80339405D01*
X210637815Y-80406444D01*
X210585011Y-80452199D01*
X210515853Y-80462143D01*
X210493238Y-80456686D01*
X210402986Y-80425702D01*
X210212204Y-80393867D01*
X210174049Y-80387500D01*
X209941951Y-80387500D01*
X209896164Y-80395140D01*
X209713015Y-80425702D01*
X209493504Y-80501061D01*
X209493495Y-80501064D01*
X209289371Y-80611531D01*
X209289365Y-80611535D01*
X209106222Y-80754081D01*
X209106219Y-80754084D01*
X208949016Y-80924852D01*
X208822075Y-81119151D01*
X208728842Y-81331699D01*
X208671866Y-81556691D01*
X208671864Y-81556702D01*
X208652700Y-81787993D01*
X208652700Y-81788006D01*
X200295459Y-81788006D01*
X200295460Y-81788000D01*
X200275674Y-81599744D01*
X200217179Y-81419716D01*
X200122533Y-81255784D01*
X199995871Y-81115112D01*
X199995870Y-81115111D01*
X199842734Y-81003851D01*
X199842729Y-81003848D01*
X199669807Y-80926857D01*
X199669802Y-80926855D01*
X199524001Y-80895865D01*
X199484646Y-80887500D01*
X199295354Y-80887500D01*
X199262897Y-80894398D01*
X199110197Y-80926855D01*
X199110192Y-80926857D01*
X198937270Y-81003848D01*
X198937265Y-81003851D01*
X198784129Y-81115111D01*
X198657466Y-81255785D01*
X198562821Y-81419715D01*
X198562818Y-81419722D01*
X198518311Y-81556702D01*
X198504326Y-81599744D01*
X198496405Y-81675105D01*
X198486678Y-81767651D01*
X198460093Y-81832266D01*
X198451038Y-81842370D01*
X195802726Y-84490681D01*
X195741403Y-84524166D01*
X195715045Y-84527000D01*
X194139629Y-84527000D01*
X194139623Y-84527001D01*
X194080016Y-84533408D01*
X193945171Y-84583702D01*
X193945164Y-84583706D01*
X193829955Y-84669952D01*
X193829952Y-84669955D01*
X193743706Y-84785164D01*
X193743702Y-84785171D01*
X193693408Y-84920017D01*
X193687001Y-84979616D01*
X193687001Y-84979623D01*
X193687000Y-84979635D01*
X193687000Y-88075370D01*
X188976499Y-88075370D01*
X188976499Y-66763526D01*
X242023089Y-66763526D01*
X242030754Y-66860922D01*
X242030945Y-66865788D01*
X242030945Y-66878718D01*
X242029746Y-66882799D01*
X242030430Y-66891494D01*
X242032442Y-66897722D01*
X242034460Y-66910471D01*
X242035032Y-66915302D01*
X242040525Y-66985081D01*
X242042700Y-67012713D01*
X242042701Y-67012716D01*
X242042701Y-67012717D01*
X242065509Y-67107721D01*
X242066456Y-67112482D01*
X242068480Y-67125253D01*
X242067934Y-67129476D01*
X242069968Y-67137950D01*
X242072924Y-67143775D01*
X242076921Y-67156075D01*
X242078243Y-67160762D01*
X242101052Y-67255765D01*
X242101053Y-67255768D01*
X242138440Y-67346025D01*
X242140125Y-67350593D01*
X242144117Y-67362879D01*
X242144238Y-67367132D01*
X242147583Y-67375206D01*
X242151419Y-67380505D01*
X242157281Y-67392011D01*
X242159317Y-67396429D01*
X242196705Y-67486693D01*
X242247749Y-67569987D01*
X242250131Y-67574240D01*
X242256003Y-67585766D01*
X242256787Y-67589944D01*
X242261342Y-67597378D01*
X242265961Y-67602012D01*
X242273555Y-67612466D01*
X242276259Y-67616512D01*
X242327304Y-67699811D01*
X242327305Y-67699812D01*
X242390748Y-67774096D01*
X242393762Y-67777918D01*
X242401371Y-67788391D01*
X242402800Y-67792397D01*
X242408462Y-67799026D01*
X242413742Y-67802875D01*
X242422890Y-67812022D01*
X242426195Y-67815598D01*
X242426196Y-67815599D01*
X242489642Y-67889884D01*
X242563925Y-67953328D01*
X242563930Y-67953332D01*
X242567506Y-67956638D01*
X242576649Y-67965781D01*
X242578687Y-67969514D01*
X242585311Y-67975171D01*
X242591124Y-67978145D01*
X242601606Y-67985761D01*
X242605403Y-67988753D01*
X242679710Y-68052218D01*
X242763013Y-68103266D01*
X242767044Y-68105959D01*
X242777514Y-68113565D01*
X242780113Y-68116936D01*
X242787544Y-68121490D01*
X242793754Y-68123519D01*
X242805292Y-68129398D01*
X242809501Y-68131754D01*
X242892833Y-68182820D01*
X242983113Y-68220215D01*
X242987506Y-68222240D01*
X242999023Y-68228108D01*
X243002117Y-68231030D01*
X243010189Y-68234373D01*
X243016637Y-68235405D01*
X243028952Y-68239407D01*
X243033480Y-68241078D01*
X243110195Y-68272854D01*
X243123768Y-68278476D01*
X243162203Y-68287702D01*
X243218780Y-68301285D01*
X243223426Y-68302596D01*
X243235743Y-68306598D01*
X243239254Y-68308999D01*
X243247729Y-68311034D01*
X243254263Y-68311044D01*
X243267067Y-68313072D01*
X243271793Y-68314013D01*
X243366813Y-68336826D01*
X243464244Y-68344493D01*
X243469043Y-68345062D01*
X243481822Y-68347086D01*
X243485665Y-68348908D01*
X243494347Y-68349591D01*
X243500808Y-68348580D01*
X243513724Y-68348580D01*
X243518590Y-68348771D01*
X243528437Y-68349545D01*
X243615999Y-68356437D01*
X243703560Y-68349545D01*
X243713408Y-68348771D01*
X243718274Y-68348580D01*
X243731189Y-68348580D01*
X243735272Y-68349779D01*
X243743957Y-68349095D01*
X243750177Y-68347086D01*
X243762969Y-68345060D01*
X243767744Y-68344494D01*
X243865185Y-68336826D01*
X243960237Y-68314005D01*
X243964920Y-68313074D01*
X243977728Y-68311045D01*
X243981946Y-68311591D01*
X243990424Y-68309555D01*
X243996251Y-68306599D01*
X244008574Y-68302595D01*
X244013214Y-68301286D01*
X244108235Y-68278474D01*
X244198533Y-68241071D01*
X244203049Y-68239405D01*
X244215347Y-68235409D01*
X244219600Y-68235288D01*
X244227671Y-68231945D01*
X244232961Y-68228115D01*
X244244503Y-68222234D01*
X244248858Y-68220225D01*
X244339165Y-68182820D01*
X244422507Y-68131747D01*
X244426691Y-68129405D01*
X244438236Y-68123522D01*
X244442413Y-68122738D01*
X244449848Y-68118182D01*
X244454474Y-68113573D01*
X244455654Y-68112714D01*
X244464964Y-68105950D01*
X244468969Y-68103275D01*
X244552288Y-68052218D01*
X244626602Y-67988746D01*
X244630374Y-67985774D01*
X244640869Y-67978148D01*
X244644872Y-67976720D01*
X244651498Y-67971061D01*
X244655346Y-67965783D01*
X244664508Y-67956621D01*
X244668047Y-67953349D01*
X244742356Y-67889884D01*
X244805821Y-67815575D01*
X244809093Y-67812036D01*
X244818254Y-67802875D01*
X244821985Y-67800838D01*
X244827648Y-67794208D01*
X244830626Y-67788388D01*
X244838243Y-67777905D01*
X244841207Y-67774143D01*
X244904690Y-67699816D01*
X244955747Y-67616497D01*
X244958422Y-67612492D01*
X244965186Y-67603182D01*
X244966045Y-67602002D01*
X244969409Y-67599408D01*
X244973964Y-67591975D01*
X244975993Y-67585766D01*
X244981877Y-67574219D01*
X244984219Y-67570035D01*
X245035292Y-67486693D01*
X245072697Y-67396386D01*
X245074706Y-67392031D01*
X245080585Y-67380493D01*
X245083504Y-67377402D01*
X245086845Y-67369337D01*
X245087879Y-67362883D01*
X245091882Y-67350562D01*
X245093538Y-67346073D01*
X245130946Y-67255763D01*
X245153758Y-67160742D01*
X245155067Y-67156102D01*
X245159070Y-67143780D01*
X245161471Y-67140270D01*
X245163504Y-67131799D01*
X245163516Y-67125262D01*
X245165548Y-67112438D01*
X245166476Y-67107770D01*
X245189298Y-67012713D01*
X245196966Y-66915272D01*
X245197532Y-66910494D01*
X245201052Y-66888273D01*
X245201052Y-66888265D01*
X245202083Y-66881757D01*
X245201286Y-66876315D01*
X245201667Y-66856895D01*
X245201843Y-66853304D01*
X245208909Y-66763527D01*
X245201843Y-66673753D01*
X245201667Y-66670155D01*
X245201286Y-66650737D01*
X245202335Y-66646887D01*
X245201052Y-66638786D01*
X245201052Y-66638781D01*
X245197533Y-66616568D01*
X245196966Y-66611775D01*
X245189298Y-66514341D01*
X245166484Y-66419316D01*
X245165544Y-66414591D01*
X245163519Y-66401808D01*
X245164065Y-66397585D01*
X245162029Y-66389105D01*
X245159070Y-66383271D01*
X245155068Y-66370954D01*
X245153753Y-66366289D01*
X245140174Y-66309731D01*
X245130948Y-66271296D01*
X245130941Y-66271279D01*
X245093549Y-66181008D01*
X245091881Y-66176489D01*
X245087876Y-66164162D01*
X245087755Y-66159914D01*
X245084416Y-66151853D01*
X245080581Y-66146553D01*
X245074712Y-66135034D01*
X245072680Y-66130625D01*
X245035292Y-66040361D01*
X244984227Y-65957031D01*
X244981873Y-65952826D01*
X244975991Y-65941283D01*
X244975207Y-65937104D01*
X244970659Y-65929682D01*
X244966037Y-65925042D01*
X244958431Y-65914572D01*
X244955738Y-65910541D01*
X244904690Y-65827238D01*
X244841241Y-65752949D01*
X244838237Y-65749140D01*
X244830618Y-65738653D01*
X244829189Y-65734649D01*
X244823536Y-65728030D01*
X244818253Y-65724177D01*
X244809110Y-65715034D01*
X244805804Y-65711458D01*
X244805800Y-65711453D01*
X244742356Y-65637170D01*
X244668071Y-65573724D01*
X244668070Y-65573723D01*
X244664494Y-65570418D01*
X244655347Y-65561270D01*
X244653308Y-65557536D01*
X244646685Y-65551879D01*
X244640863Y-65548899D01*
X244630390Y-65541290D01*
X244626568Y-65538276D01*
X244569845Y-65489831D01*
X244552288Y-65474836D01*
X244552286Y-65474834D01*
X244552284Y-65474833D01*
X244552282Y-65474832D01*
X244468987Y-65423788D01*
X244464942Y-65421086D01*
X244459210Y-65416922D01*
X244454486Y-65413490D01*
X244451885Y-65410118D01*
X244444452Y-65405563D01*
X244438238Y-65403531D01*
X244426712Y-65397659D01*
X244422465Y-65395280D01*
X244400926Y-65382081D01*
X244339165Y-65344233D01*
X244248901Y-65306845D01*
X244244483Y-65304809D01*
X244238532Y-65301777D01*
X244232976Y-65298946D01*
X244229880Y-65296023D01*
X244221808Y-65292679D01*
X244215351Y-65291645D01*
X244203065Y-65287653D01*
X244198505Y-65285971D01*
X244174516Y-65276034D01*
X244108240Y-65248581D01*
X244108237Y-65248580D01*
X244013234Y-65225771D01*
X244008547Y-65224449D01*
X243996247Y-65220452D01*
X243992737Y-65218052D01*
X243984276Y-65216021D01*
X243977736Y-65216009D01*
X243976204Y-65215766D01*
X243964959Y-65213985D01*
X243960192Y-65213037D01*
X243865189Y-65190229D01*
X243865185Y-65190228D01*
X243835626Y-65187901D01*
X243767772Y-65182560D01*
X243762939Y-65181988D01*
X243750192Y-65179969D01*
X243746347Y-65178146D01*
X243737651Y-65177462D01*
X243731191Y-65178474D01*
X243718274Y-65178474D01*
X243713408Y-65178283D01*
X243615999Y-65170617D01*
X243518590Y-65178283D01*
X243513724Y-65178474D01*
X243500805Y-65178474D01*
X243496721Y-65177274D01*
X243488039Y-65177958D01*
X243481818Y-65179967D01*
X243476406Y-65180824D01*
X243469055Y-65181988D01*
X243464225Y-65182560D01*
X243366810Y-65190228D01*
X243366808Y-65190229D01*
X243271803Y-65213038D01*
X243267028Y-65213987D01*
X243254270Y-65216008D01*
X243250049Y-65215462D01*
X243241577Y-65217495D01*
X243235752Y-65220451D01*
X243223450Y-65224449D01*
X243218761Y-65225772D01*
X243123765Y-65248579D01*
X243123751Y-65248584D01*
X243033503Y-65285966D01*
X243028933Y-65287652D01*
X243016637Y-65291646D01*
X243012389Y-65291767D01*
X243004325Y-65295107D01*
X242999025Y-65298944D01*
X242987517Y-65304807D01*
X242983097Y-65306844D01*
X242892840Y-65344230D01*
X242892838Y-65344231D01*
X242809528Y-65395282D01*
X242805280Y-65397661D01*
X242793762Y-65403529D01*
X242789582Y-65404313D01*
X242782148Y-65408869D01*
X242777514Y-65413487D01*
X242767059Y-65421082D01*
X242763013Y-65423785D01*
X242693223Y-65466555D01*
X242679710Y-65474836D01*
X242679707Y-65474837D01*
X242679706Y-65474839D01*
X242679701Y-65474842D01*
X242605428Y-65538277D01*
X242601604Y-65541292D01*
X242591129Y-65548903D01*
X242587122Y-65550332D01*
X242580500Y-65555988D01*
X242576650Y-65561269D01*
X242567501Y-65570419D01*
X242563925Y-65573724D01*
X242489641Y-65637169D01*
X242426196Y-65711453D01*
X242422891Y-65715029D01*
X242413741Y-65724178D01*
X242410008Y-65726216D01*
X242404353Y-65732836D01*
X242401375Y-65738657D01*
X242393764Y-65749132D01*
X242390749Y-65752956D01*
X242327314Y-65827229D01*
X242327311Y-65827234D01*
X242327308Y-65827238D01*
X242319027Y-65840751D01*
X242276257Y-65910541D01*
X242273554Y-65914587D01*
X242265959Y-65925042D01*
X242262588Y-65927641D01*
X242258033Y-65935075D01*
X242256003Y-65941286D01*
X242250135Y-65952805D01*
X242247754Y-65957056D01*
X242196708Y-66040356D01*
X242196702Y-66040368D01*
X242159316Y-66130625D01*
X242157279Y-66135045D01*
X242151416Y-66146553D01*
X242148493Y-66149647D01*
X242145151Y-66157715D01*
X242144118Y-66164165D01*
X242140124Y-66176461D01*
X242138438Y-66181031D01*
X242101056Y-66271279D01*
X242101051Y-66271293D01*
X242078244Y-66366289D01*
X242076921Y-66370978D01*
X242072923Y-66383280D01*
X242070524Y-66386787D01*
X242068491Y-66395257D01*
X242068480Y-66401798D01*
X242066460Y-66414553D01*
X242065510Y-66419331D01*
X242042701Y-66514336D01*
X242042700Y-66514339D01*
X242035032Y-66611757D01*
X242034459Y-66616592D01*
X242032440Y-66629339D01*
X242030617Y-66633183D01*
X242029933Y-66641874D01*
X242030945Y-66648333D01*
X242030945Y-66661264D01*
X242030754Y-66666130D01*
X242023089Y-66763526D01*
X188976499Y-66763526D01*
X188976499Y-61683526D01*
X189923089Y-61683526D01*
X189930755Y-61780935D01*
X189930946Y-61785801D01*
X189930946Y-61798718D01*
X189929746Y-61802801D01*
X189930431Y-61811498D01*
X189932441Y-61817720D01*
X189934460Y-61830467D01*
X189935032Y-61835300D01*
X189940087Y-61899511D01*
X189942700Y-61932713D01*
X189942701Y-61932716D01*
X189942701Y-61932717D01*
X189965509Y-62027721D01*
X189966456Y-62032482D01*
X189968480Y-62045253D01*
X189967934Y-62049476D01*
X189969968Y-62057950D01*
X189972924Y-62063775D01*
X189976921Y-62076075D01*
X189978243Y-62080762D01*
X190001052Y-62175765D01*
X190001053Y-62175768D01*
X190020204Y-62222000D01*
X190038159Y-62265348D01*
X190038440Y-62266025D01*
X190040125Y-62270593D01*
X190044117Y-62282879D01*
X190044238Y-62287132D01*
X190047583Y-62295206D01*
X190051419Y-62300505D01*
X190057281Y-62312011D01*
X190059317Y-62316429D01*
X190096705Y-62406693D01*
X190134553Y-62468454D01*
X190146231Y-62487511D01*
X190147749Y-62489987D01*
X190150131Y-62494240D01*
X190156003Y-62505766D01*
X190156787Y-62509944D01*
X190161342Y-62517378D01*
X190165961Y-62522012D01*
X190173555Y-62532466D01*
X190176259Y-62536512D01*
X190227304Y-62619811D01*
X190227305Y-62619812D01*
X190227306Y-62619813D01*
X190227308Y-62619816D01*
X190235567Y-62629486D01*
X190290748Y-62694096D01*
X190293762Y-62697918D01*
X190301371Y-62708391D01*
X190302800Y-62712397D01*
X190308462Y-62719026D01*
X190313742Y-62722875D01*
X190322890Y-62732022D01*
X190326195Y-62735598D01*
X190326196Y-62735599D01*
X190389642Y-62809884D01*
X190463925Y-62873328D01*
X190463930Y-62873332D01*
X190467506Y-62876638D01*
X190476649Y-62885781D01*
X190478687Y-62889514D01*
X190485311Y-62895171D01*
X190491124Y-62898145D01*
X190501606Y-62905761D01*
X190505403Y-62908753D01*
X190579710Y-62972218D01*
X190663013Y-63023266D01*
X190667044Y-63025959D01*
X190677514Y-63033565D01*
X190680113Y-63036936D01*
X190687544Y-63041490D01*
X190693754Y-63043519D01*
X190705292Y-63049398D01*
X190709501Y-63051754D01*
X190792833Y-63102820D01*
X190883113Y-63140215D01*
X190887506Y-63142240D01*
X190899023Y-63148108D01*
X190902117Y-63151030D01*
X190910189Y-63154373D01*
X190916637Y-63155405D01*
X190928952Y-63159407D01*
X190933480Y-63161078D01*
X191010195Y-63192854D01*
X191023768Y-63198476D01*
X191062203Y-63207702D01*
X191118780Y-63221285D01*
X191123426Y-63222596D01*
X191135743Y-63226598D01*
X191139254Y-63228999D01*
X191147729Y-63231034D01*
X191154263Y-63231044D01*
X191167067Y-63233072D01*
X191171793Y-63234013D01*
X191266813Y-63256826D01*
X191364244Y-63264493D01*
X191369043Y-63265062D01*
X191381822Y-63267086D01*
X191385665Y-63268908D01*
X191394347Y-63269591D01*
X191400808Y-63268580D01*
X191413724Y-63268580D01*
X191418590Y-63268771D01*
X191429011Y-63269591D01*
X191515999Y-63276437D01*
X191609290Y-63269095D01*
X191613408Y-63268771D01*
X191618274Y-63268580D01*
X191631189Y-63268580D01*
X191635272Y-63269779D01*
X191643957Y-63269095D01*
X191650177Y-63267086D01*
X191662969Y-63265060D01*
X191667744Y-63264494D01*
X191765185Y-63256826D01*
X191860237Y-63234005D01*
X191864920Y-63233074D01*
X191877728Y-63231045D01*
X191881946Y-63231591D01*
X191890424Y-63229555D01*
X191896251Y-63226599D01*
X191908574Y-63222595D01*
X191913214Y-63221286D01*
X192008235Y-63198474D01*
X192098533Y-63161071D01*
X192103049Y-63159405D01*
X192115347Y-63155409D01*
X192119600Y-63155288D01*
X192127671Y-63151945D01*
X192132961Y-63148115D01*
X192144503Y-63142234D01*
X192148858Y-63140225D01*
X192239165Y-63102820D01*
X192322507Y-63051747D01*
X192326691Y-63049405D01*
X192338236Y-63043522D01*
X192342413Y-63042738D01*
X192349848Y-63038182D01*
X192354474Y-63033573D01*
X192355654Y-63032714D01*
X192364964Y-63025950D01*
X192368969Y-63023275D01*
X192452288Y-62972218D01*
X192526602Y-62908746D01*
X192530374Y-62905774D01*
X192540869Y-62898148D01*
X192544872Y-62896720D01*
X192551498Y-62891061D01*
X192555346Y-62885783D01*
X192564508Y-62876621D01*
X192568047Y-62873349D01*
X192642356Y-62809884D01*
X192705821Y-62735575D01*
X192709093Y-62732036D01*
X192718254Y-62722875D01*
X192721985Y-62720838D01*
X192727648Y-62714208D01*
X192730626Y-62708388D01*
X192738243Y-62697905D01*
X192741207Y-62694143D01*
X192804690Y-62619816D01*
X192835296Y-62569870D01*
X204185500Y-62569870D01*
X204185501Y-62569876D01*
X204191908Y-62629483D01*
X204242202Y-62764328D01*
X204242206Y-62764335D01*
X204328452Y-62879544D01*
X204328455Y-62879547D01*
X204443664Y-62965793D01*
X204443671Y-62965797D01*
X204578517Y-63016091D01*
X204578516Y-63016091D01*
X204585444Y-63016835D01*
X204638127Y-63022500D01*
X206333872Y-63022499D01*
X206393483Y-63016091D01*
X206528331Y-62965796D01*
X206643546Y-62879546D01*
X206729796Y-62764331D01*
X206780091Y-62629483D01*
X206783862Y-62594401D01*
X206810599Y-62529855D01*
X206867990Y-62490006D01*
X206937816Y-62487511D01*
X206997905Y-62523163D01*
X207008726Y-62536536D01*
X207025956Y-62561143D01*
X207186858Y-62722045D01*
X207201107Y-62732022D01*
X207373266Y-62852568D01*
X207579504Y-62948739D01*
X207799308Y-63007635D01*
X207961230Y-63021801D01*
X208025998Y-63027468D01*
X208026000Y-63027468D01*
X208026002Y-63027468D01*
X208082807Y-63022498D01*
X208252692Y-63007635D01*
X208472496Y-62948739D01*
X208678734Y-62852568D01*
X208865139Y-62722047D01*
X209026047Y-62561139D01*
X209156568Y-62374734D01*
X209183618Y-62316724D01*
X209229790Y-62264285D01*
X209296983Y-62245133D01*
X209363865Y-62265348D01*
X209408382Y-62316725D01*
X209435429Y-62374728D01*
X209435432Y-62374734D01*
X209565954Y-62561141D01*
X209726858Y-62722045D01*
X209741107Y-62732022D01*
X209913266Y-62852568D01*
X210119504Y-62948739D01*
X210339308Y-63007635D01*
X210501230Y-63021801D01*
X210565998Y-63027468D01*
X210566000Y-63027468D01*
X210566002Y-63027468D01*
X210622807Y-63022498D01*
X210792692Y-63007635D01*
X211012496Y-62948739D01*
X211218734Y-62852568D01*
X211405139Y-62722047D01*
X211566047Y-62561139D01*
X211696568Y-62374734D01*
X211723618Y-62316724D01*
X211769790Y-62264285D01*
X211836983Y-62245133D01*
X211903865Y-62265348D01*
X211948382Y-62316725D01*
X211975429Y-62374728D01*
X211975432Y-62374734D01*
X212105954Y-62561141D01*
X212266858Y-62722045D01*
X212281107Y-62732022D01*
X212453266Y-62852568D01*
X212659504Y-62948739D01*
X212879308Y-63007635D01*
X213041230Y-63021801D01*
X213105998Y-63027468D01*
X213106000Y-63027468D01*
X213106002Y-63027468D01*
X213162807Y-63022498D01*
X213332692Y-63007635D01*
X213552496Y-62948739D01*
X213758734Y-62852568D01*
X213945139Y-62722047D01*
X214106047Y-62561139D01*
X214236568Y-62374734D01*
X214263618Y-62316724D01*
X214309790Y-62264285D01*
X214376983Y-62245133D01*
X214443865Y-62265348D01*
X214488382Y-62316725D01*
X214515429Y-62374728D01*
X214515432Y-62374734D01*
X214645954Y-62561141D01*
X214806858Y-62722045D01*
X214821107Y-62732022D01*
X214993266Y-62852568D01*
X215199504Y-62948739D01*
X215419308Y-63007635D01*
X215581230Y-63021801D01*
X215645998Y-63027468D01*
X215646000Y-63027468D01*
X215646002Y-63027468D01*
X215702807Y-63022498D01*
X215872692Y-63007635D01*
X216092496Y-62948739D01*
X216298734Y-62852568D01*
X216485139Y-62722047D01*
X216646047Y-62561139D01*
X216776568Y-62374734D01*
X216803895Y-62316129D01*
X216850064Y-62263695D01*
X216917257Y-62244542D01*
X216984139Y-62264757D01*
X217028657Y-62316133D01*
X217055865Y-62374482D01*
X217186342Y-62560820D01*
X217347179Y-62721657D01*
X217533517Y-62852134D01*
X217739673Y-62948265D01*
X217739682Y-62948269D01*
X217935999Y-63000872D01*
X217936000Y-63000871D01*
X217936000Y-62334301D01*
X217955685Y-62267262D01*
X218008489Y-62221507D01*
X218077647Y-62211563D01*
X218150237Y-62222000D01*
X218150238Y-62222000D01*
X218221762Y-62222000D01*
X218221763Y-62222000D01*
X218294352Y-62211563D01*
X218363510Y-62221507D01*
X218416314Y-62267261D01*
X218435999Y-62334301D01*
X218435999Y-63000871D01*
X218436000Y-63000872D01*
X218632317Y-62948269D01*
X218632326Y-62948265D01*
X218838482Y-62852134D01*
X219024820Y-62721657D01*
X219185657Y-62560820D01*
X219316134Y-62374481D01*
X219316135Y-62374479D01*
X219343618Y-62315543D01*
X219389790Y-62263103D01*
X219456983Y-62243951D01*
X219523864Y-62264166D01*
X219568382Y-62315543D01*
X219595864Y-62374479D01*
X219595865Y-62374481D01*
X219726342Y-62560820D01*
X219887179Y-62721657D01*
X220073517Y-62852134D01*
X220279673Y-62948265D01*
X220279682Y-62948269D01*
X220475999Y-63000872D01*
X220476000Y-63000871D01*
X220476000Y-62334301D01*
X220495685Y-62267262D01*
X220548489Y-62221507D01*
X220617647Y-62211563D01*
X220690237Y-62222000D01*
X220690238Y-62222000D01*
X220761762Y-62222000D01*
X220761763Y-62222000D01*
X220834353Y-62211563D01*
X220903512Y-62221507D01*
X220956315Y-62267262D01*
X220976000Y-62334301D01*
X220976000Y-63000872D01*
X221172317Y-62948269D01*
X221172326Y-62948265D01*
X221378482Y-62852134D01*
X221564820Y-62721657D01*
X221725657Y-62560820D01*
X221856132Y-62374484D01*
X221883341Y-62316134D01*
X221929513Y-62263695D01*
X221996707Y-62244542D01*
X222063588Y-62264757D01*
X222108105Y-62316132D01*
X222116578Y-62334301D01*
X222135431Y-62374732D01*
X222135432Y-62374734D01*
X222265954Y-62561141D01*
X222426858Y-62722045D01*
X222441107Y-62732022D01*
X222613266Y-62852568D01*
X222819504Y-62948739D01*
X223039308Y-63007635D01*
X223201230Y-63021801D01*
X223265998Y-63027468D01*
X223266000Y-63027468D01*
X223266002Y-63027468D01*
X223322807Y-63022498D01*
X223492692Y-63007635D01*
X223712496Y-62948739D01*
X223918734Y-62852568D01*
X224105139Y-62722047D01*
X224266047Y-62561139D01*
X224396568Y-62374734D01*
X224492739Y-62168496D01*
X224551635Y-61948692D01*
X224571468Y-61722001D01*
X227040532Y-61722001D01*
X227060364Y-61948686D01*
X227060366Y-61948697D01*
X227119258Y-62168488D01*
X227119261Y-62168497D01*
X227215431Y-62374732D01*
X227215432Y-62374734D01*
X227345954Y-62561141D01*
X227506858Y-62722045D01*
X227521107Y-62732022D01*
X227693266Y-62852568D01*
X227899504Y-62948739D01*
X228119308Y-63007635D01*
X228281230Y-63021801D01*
X228345998Y-63027468D01*
X228346000Y-63027468D01*
X228346002Y-63027468D01*
X228402807Y-63022498D01*
X228572692Y-63007635D01*
X228792496Y-62948739D01*
X228998734Y-62852568D01*
X229185139Y-62722047D01*
X229346047Y-62561139D01*
X229476568Y-62374734D01*
X229503619Y-62316721D01*
X229549788Y-62264286D01*
X229616981Y-62245133D01*
X229683862Y-62265348D01*
X229728380Y-62316722D01*
X229755432Y-62374734D01*
X229775931Y-62404010D01*
X229885954Y-62561141D01*
X230046858Y-62722045D01*
X230061107Y-62732022D01*
X230233266Y-62852568D01*
X230439504Y-62948739D01*
X230659308Y-63007635D01*
X230821230Y-63021801D01*
X230885998Y-63027468D01*
X230886000Y-63027468D01*
X230886002Y-63027468D01*
X230942807Y-63022498D01*
X231112692Y-63007635D01*
X231332496Y-62948739D01*
X231538734Y-62852568D01*
X231725139Y-62722047D01*
X231886047Y-62561139D01*
X232016568Y-62374734D01*
X232043619Y-62316721D01*
X232089788Y-62264286D01*
X232156981Y-62245133D01*
X232223862Y-62265348D01*
X232268380Y-62316722D01*
X232295432Y-62374734D01*
X232315931Y-62404010D01*
X232425954Y-62561141D01*
X232586858Y-62722045D01*
X232601107Y-62732022D01*
X232773266Y-62852568D01*
X232979504Y-62948739D01*
X233199308Y-63007635D01*
X233361230Y-63021801D01*
X233425998Y-63027468D01*
X233426000Y-63027468D01*
X233426002Y-63027468D01*
X233482807Y-63022498D01*
X233652692Y-63007635D01*
X233872496Y-62948739D01*
X234078734Y-62852568D01*
X234265139Y-62722047D01*
X234426047Y-62561139D01*
X234556568Y-62374734D01*
X234583618Y-62316724D01*
X234629790Y-62264285D01*
X234696983Y-62245133D01*
X234763865Y-62265348D01*
X234808382Y-62316725D01*
X234835429Y-62374728D01*
X234835432Y-62374734D01*
X234965954Y-62561141D01*
X235126858Y-62722045D01*
X235141107Y-62732022D01*
X235313266Y-62852568D01*
X235519504Y-62948739D01*
X235739308Y-63007635D01*
X235901230Y-63021801D01*
X235965998Y-63027468D01*
X235966000Y-63027468D01*
X235966002Y-63027468D01*
X236022807Y-63022498D01*
X236192692Y-63007635D01*
X236412496Y-62948739D01*
X236618734Y-62852568D01*
X236805139Y-62722047D01*
X236966047Y-62561139D01*
X237096568Y-62374734D01*
X237123618Y-62316724D01*
X237169790Y-62264285D01*
X237236983Y-62245133D01*
X237303865Y-62265348D01*
X237348382Y-62316725D01*
X237375429Y-62374728D01*
X237375432Y-62374734D01*
X237505954Y-62561141D01*
X237666858Y-62722045D01*
X237681107Y-62732022D01*
X237853266Y-62852568D01*
X238059504Y-62948739D01*
X238279308Y-63007635D01*
X238441230Y-63021801D01*
X238505998Y-63027468D01*
X238506000Y-63027468D01*
X238506002Y-63027468D01*
X238562807Y-63022498D01*
X238732692Y-63007635D01*
X238952496Y-62948739D01*
X239158734Y-62852568D01*
X239345139Y-62722047D01*
X239506047Y-62561139D01*
X239636568Y-62374734D01*
X239663618Y-62316724D01*
X239709790Y-62264285D01*
X239776983Y-62245133D01*
X239843865Y-62265348D01*
X239888382Y-62316725D01*
X239915429Y-62374728D01*
X239915432Y-62374734D01*
X240045954Y-62561141D01*
X240206858Y-62722045D01*
X240221107Y-62732022D01*
X240393266Y-62852568D01*
X240599504Y-62948739D01*
X240819308Y-63007635D01*
X240981230Y-63021801D01*
X241045998Y-63027468D01*
X241046000Y-63027468D01*
X241046002Y-63027468D01*
X241102807Y-63022498D01*
X241272692Y-63007635D01*
X241492496Y-62948739D01*
X241698734Y-62852568D01*
X241885139Y-62722047D01*
X242046047Y-62561139D01*
X242176568Y-62374734D01*
X242272739Y-62168496D01*
X242331635Y-61948692D01*
X242351468Y-61722000D01*
X242348126Y-61683806D01*
X242337897Y-61566887D01*
X242331635Y-61495308D01*
X242275629Y-61286289D01*
X242272741Y-61275511D01*
X242272738Y-61275502D01*
X242248019Y-61222492D01*
X242176568Y-61069266D01*
X242046047Y-60882861D01*
X242046045Y-60882858D01*
X241885141Y-60721954D01*
X241698734Y-60591432D01*
X241698732Y-60591431D01*
X241492497Y-60495261D01*
X241492488Y-60495258D01*
X241272697Y-60436366D01*
X241272693Y-60436365D01*
X241272692Y-60436365D01*
X241272691Y-60436364D01*
X241272686Y-60436364D01*
X241046002Y-60416532D01*
X241045998Y-60416532D01*
X240819313Y-60436364D01*
X240819302Y-60436366D01*
X240599511Y-60495258D01*
X240599502Y-60495261D01*
X240393267Y-60591431D01*
X240393265Y-60591432D01*
X240206858Y-60721954D01*
X240045954Y-60882858D01*
X239915432Y-61069265D01*
X239915431Y-61069267D01*
X239888382Y-61127275D01*
X239842209Y-61179714D01*
X239775016Y-61198866D01*
X239708135Y-61178650D01*
X239663618Y-61127275D01*
X239651380Y-61101031D01*
X239636568Y-61069266D01*
X239506047Y-60882861D01*
X239506045Y-60882858D01*
X239345141Y-60721954D01*
X239158734Y-60591432D01*
X239158732Y-60591431D01*
X238952497Y-60495261D01*
X238952488Y-60495258D01*
X238732697Y-60436366D01*
X238732693Y-60436365D01*
X238732692Y-60436365D01*
X238732691Y-60436364D01*
X238732686Y-60436364D01*
X238506002Y-60416532D01*
X238505998Y-60416532D01*
X238279313Y-60436364D01*
X238279302Y-60436366D01*
X238059511Y-60495258D01*
X238059502Y-60495261D01*
X237853267Y-60591431D01*
X237853265Y-60591432D01*
X237666858Y-60721954D01*
X237505954Y-60882858D01*
X237375432Y-61069265D01*
X237375431Y-61069267D01*
X237348382Y-61127275D01*
X237302209Y-61179714D01*
X237235016Y-61198866D01*
X237168135Y-61178650D01*
X237123618Y-61127275D01*
X237111380Y-61101031D01*
X237096568Y-61069266D01*
X236966047Y-60882861D01*
X236966045Y-60882858D01*
X236805141Y-60721954D01*
X236618734Y-60591432D01*
X236618732Y-60591431D01*
X236412497Y-60495261D01*
X236412488Y-60495258D01*
X236192697Y-60436366D01*
X236192693Y-60436365D01*
X236192692Y-60436365D01*
X236192691Y-60436364D01*
X236192686Y-60436364D01*
X235966002Y-60416532D01*
X235965998Y-60416532D01*
X235739313Y-60436364D01*
X235739302Y-60436366D01*
X235519511Y-60495258D01*
X235519502Y-60495261D01*
X235313267Y-60591431D01*
X235313265Y-60591432D01*
X235126858Y-60721954D01*
X234965954Y-60882858D01*
X234835432Y-61069265D01*
X234835431Y-61069267D01*
X234808382Y-61127275D01*
X234762209Y-61179714D01*
X234695016Y-61198866D01*
X234628135Y-61178650D01*
X234583618Y-61127275D01*
X234571380Y-61101031D01*
X234556568Y-61069266D01*
X234426047Y-60882861D01*
X234426045Y-60882858D01*
X234265141Y-60721954D01*
X234078734Y-60591432D01*
X234078732Y-60591431D01*
X233872497Y-60495261D01*
X233872488Y-60495258D01*
X233652697Y-60436366D01*
X233652693Y-60436365D01*
X233652692Y-60436365D01*
X233652691Y-60436364D01*
X233652686Y-60436364D01*
X233426002Y-60416532D01*
X233425998Y-60416532D01*
X233199313Y-60436364D01*
X233199302Y-60436366D01*
X232979511Y-60495258D01*
X232979502Y-60495261D01*
X232773267Y-60591431D01*
X232773265Y-60591432D01*
X232586858Y-60721954D01*
X232425954Y-60882858D01*
X232295432Y-61069265D01*
X232295431Y-61069267D01*
X232268382Y-61127275D01*
X232222209Y-61179714D01*
X232155016Y-61198866D01*
X232088135Y-61178650D01*
X232043618Y-61127275D01*
X232031380Y-61101031D01*
X232016568Y-61069266D01*
X231886047Y-60882861D01*
X231886045Y-60882858D01*
X231725141Y-60721954D01*
X231538734Y-60591432D01*
X231538732Y-60591431D01*
X231332497Y-60495261D01*
X231332488Y-60495258D01*
X231112697Y-60436366D01*
X231112693Y-60436365D01*
X231112692Y-60436365D01*
X231112691Y-60436364D01*
X231112686Y-60436364D01*
X230886002Y-60416532D01*
X230885998Y-60416532D01*
X230659313Y-60436364D01*
X230659302Y-60436366D01*
X230439511Y-60495258D01*
X230439502Y-60495261D01*
X230233267Y-60591431D01*
X230233265Y-60591432D01*
X230046858Y-60721954D01*
X229885954Y-60882858D01*
X229755432Y-61069265D01*
X229755430Y-61069268D01*
X229728380Y-61127277D01*
X229682207Y-61179715D01*
X229615013Y-61198866D01*
X229548132Y-61178649D01*
X229503619Y-61127277D01*
X229476568Y-61069266D01*
X229466611Y-61055045D01*
X229346045Y-60882858D01*
X229185141Y-60721954D01*
X228998734Y-60591432D01*
X228998732Y-60591431D01*
X228792497Y-60495261D01*
X228792488Y-60495258D01*
X228572697Y-60436366D01*
X228572693Y-60436365D01*
X228572692Y-60436365D01*
X228572691Y-60436364D01*
X228572686Y-60436364D01*
X228346002Y-60416532D01*
X228345998Y-60416532D01*
X228119313Y-60436364D01*
X228119302Y-60436366D01*
X227899511Y-60495258D01*
X227899502Y-60495261D01*
X227693267Y-60591431D01*
X227693265Y-60591432D01*
X227506858Y-60721954D01*
X227345954Y-60882858D01*
X227215432Y-61069265D01*
X227215431Y-61069267D01*
X227119261Y-61275502D01*
X227119258Y-61275511D01*
X227060366Y-61495302D01*
X227060364Y-61495313D01*
X227040532Y-61721998D01*
X227040532Y-61722001D01*
X224571468Y-61722001D01*
X224571468Y-61722000D01*
X224568126Y-61683806D01*
X224557897Y-61566887D01*
X224551635Y-61495308D01*
X224495629Y-61286289D01*
X224492741Y-61275511D01*
X224492738Y-61275502D01*
X224468019Y-61222492D01*
X224396568Y-61069266D01*
X224266047Y-60882861D01*
X224266045Y-60882858D01*
X224105141Y-60721954D01*
X223918734Y-60591432D01*
X223918732Y-60591431D01*
X223712497Y-60495261D01*
X223712488Y-60495258D01*
X223492697Y-60436366D01*
X223492693Y-60436365D01*
X223492692Y-60436365D01*
X223492691Y-60436364D01*
X223492686Y-60436364D01*
X223266002Y-60416532D01*
X223265998Y-60416532D01*
X223039313Y-60436364D01*
X223039302Y-60436366D01*
X222819511Y-60495258D01*
X222819502Y-60495261D01*
X222613267Y-60591431D01*
X222613265Y-60591432D01*
X222426858Y-60721954D01*
X222265954Y-60882858D01*
X222135434Y-61069263D01*
X222135432Y-61069266D01*
X222108383Y-61127274D01*
X222108106Y-61127867D01*
X222061933Y-61180306D01*
X221994739Y-61199457D01*
X221927858Y-61179241D01*
X221883342Y-61127865D01*
X221856135Y-61069520D01*
X221856134Y-61069518D01*
X221725657Y-60883179D01*
X221564820Y-60722342D01*
X221378482Y-60591865D01*
X221172328Y-60495734D01*
X220976000Y-60443127D01*
X220976000Y-61109698D01*
X220956315Y-61176737D01*
X220903511Y-61222492D01*
X220834355Y-61232436D01*
X220761766Y-61222000D01*
X220761763Y-61222000D01*
X220690237Y-61222000D01*
X220690233Y-61222000D01*
X220617645Y-61232436D01*
X220548487Y-61222492D01*
X220495684Y-61176736D01*
X220476000Y-61109698D01*
X220476000Y-60443127D01*
X220279671Y-60495734D01*
X220073517Y-60591865D01*
X219887179Y-60722342D01*
X219726342Y-60883179D01*
X219595865Y-61069518D01*
X219595863Y-61069522D01*
X219568380Y-61128458D01*
X219522207Y-61180897D01*
X219455013Y-61200048D01*
X219388133Y-61179831D01*
X219343616Y-61128455D01*
X219316133Y-61069517D01*
X219185657Y-60883179D01*
X219024820Y-60722342D01*
X218838482Y-60591865D01*
X218632328Y-60495734D01*
X218435999Y-60443127D01*
X218435999Y-61109698D01*
X218416314Y-61176738D01*
X218363510Y-61222492D01*
X218294353Y-61232436D01*
X218221764Y-61222000D01*
X218221763Y-61222000D01*
X218150237Y-61222000D01*
X218150233Y-61222000D01*
X218077645Y-61232436D01*
X218008487Y-61222492D01*
X217955684Y-61176736D01*
X217936000Y-61109698D01*
X217936000Y-60443127D01*
X217739671Y-60495734D01*
X217533517Y-60591865D01*
X217347179Y-60722342D01*
X217186342Y-60883179D01*
X217055867Y-61069515D01*
X217028657Y-61127867D01*
X216982484Y-61180306D01*
X216915290Y-61199457D01*
X216848409Y-61179241D01*
X216803893Y-61127865D01*
X216803617Y-61127274D01*
X216776568Y-61069266D01*
X216646047Y-60882861D01*
X216646045Y-60882858D01*
X216485141Y-60721954D01*
X216298734Y-60591432D01*
X216298732Y-60591431D01*
X216092497Y-60495261D01*
X216092488Y-60495258D01*
X215872697Y-60436366D01*
X215872693Y-60436365D01*
X215872692Y-60436365D01*
X215872691Y-60436364D01*
X215872686Y-60436364D01*
X215646002Y-60416532D01*
X215645998Y-60416532D01*
X215419313Y-60436364D01*
X215419302Y-60436366D01*
X215199511Y-60495258D01*
X215199502Y-60495261D01*
X214993267Y-60591431D01*
X214993265Y-60591432D01*
X214806858Y-60721954D01*
X214645954Y-60882858D01*
X214515432Y-61069265D01*
X214515430Y-61069268D01*
X214488380Y-61127277D01*
X214442207Y-61179715D01*
X214375013Y-61198866D01*
X214308132Y-61178649D01*
X214263619Y-61127277D01*
X214236568Y-61069266D01*
X214226611Y-61055045D01*
X214106045Y-60882858D01*
X213945141Y-60721954D01*
X213758734Y-60591432D01*
X213758732Y-60591431D01*
X213552497Y-60495261D01*
X213552488Y-60495258D01*
X213332697Y-60436366D01*
X213332693Y-60436365D01*
X213332692Y-60436365D01*
X213332691Y-60436364D01*
X213332686Y-60436364D01*
X213106002Y-60416532D01*
X213105998Y-60416532D01*
X212879313Y-60436364D01*
X212879302Y-60436366D01*
X212659511Y-60495258D01*
X212659502Y-60495261D01*
X212453267Y-60591431D01*
X212453265Y-60591432D01*
X212266858Y-60721954D01*
X212105954Y-60882858D01*
X211975432Y-61069265D01*
X211975431Y-61069267D01*
X211948382Y-61127275D01*
X211902209Y-61179714D01*
X211835016Y-61198866D01*
X211768135Y-61178650D01*
X211723618Y-61127275D01*
X211711380Y-61101031D01*
X211696568Y-61069266D01*
X211566047Y-60882861D01*
X211566045Y-60882858D01*
X211405141Y-60721954D01*
X211218734Y-60591432D01*
X211218732Y-60591431D01*
X211012497Y-60495261D01*
X211012488Y-60495258D01*
X210792697Y-60436366D01*
X210792693Y-60436365D01*
X210792692Y-60436365D01*
X210792691Y-60436364D01*
X210792686Y-60436364D01*
X210566002Y-60416532D01*
X210565998Y-60416532D01*
X210339313Y-60436364D01*
X210339302Y-60436366D01*
X210119511Y-60495258D01*
X210119502Y-60495261D01*
X209913267Y-60591431D01*
X209913265Y-60591432D01*
X209726858Y-60721954D01*
X209565954Y-60882858D01*
X209435432Y-61069265D01*
X209435431Y-61069267D01*
X209408382Y-61127275D01*
X209362209Y-61179714D01*
X209295016Y-61198866D01*
X209228135Y-61178650D01*
X209183618Y-61127275D01*
X209171380Y-61101031D01*
X209156568Y-61069266D01*
X209026047Y-60882861D01*
X209026045Y-60882858D01*
X208865141Y-60721954D01*
X208678734Y-60591432D01*
X208678732Y-60591431D01*
X208472497Y-60495261D01*
X208472488Y-60495258D01*
X208252697Y-60436366D01*
X208252693Y-60436365D01*
X208252692Y-60436365D01*
X208252691Y-60436364D01*
X208252686Y-60436364D01*
X208026002Y-60416532D01*
X208025998Y-60416532D01*
X207799313Y-60436364D01*
X207799302Y-60436366D01*
X207579511Y-60495258D01*
X207579502Y-60495261D01*
X207373267Y-60591431D01*
X207373265Y-60591432D01*
X207186858Y-60721954D01*
X207025954Y-60882858D01*
X207008725Y-60907464D01*
X206954147Y-60951088D01*
X206884648Y-60958280D01*
X206822294Y-60926757D01*
X206786882Y-60866526D01*
X206783861Y-60849591D01*
X206783651Y-60847641D01*
X206780091Y-60814517D01*
X206756293Y-60750712D01*
X206729797Y-60679671D01*
X206729793Y-60679664D01*
X206643547Y-60564455D01*
X206643544Y-60564452D01*
X206528335Y-60478206D01*
X206528328Y-60478202D01*
X206393482Y-60427908D01*
X206393483Y-60427908D01*
X206333883Y-60421501D01*
X206333881Y-60421500D01*
X206333873Y-60421500D01*
X206333864Y-60421500D01*
X204638129Y-60421500D01*
X204638123Y-60421501D01*
X204578516Y-60427908D01*
X204443671Y-60478202D01*
X204443664Y-60478206D01*
X204328455Y-60564452D01*
X204328452Y-60564455D01*
X204242206Y-60679664D01*
X204242202Y-60679671D01*
X204191908Y-60814517D01*
X204185501Y-60874116D01*
X204185500Y-60874135D01*
X204185500Y-62569870D01*
X192835296Y-62569870D01*
X192855747Y-62536497D01*
X192858422Y-62532492D01*
X192865201Y-62523163D01*
X192866045Y-62522002D01*
X192869409Y-62519408D01*
X192873964Y-62511975D01*
X192875993Y-62505766D01*
X192881877Y-62494219D01*
X192884219Y-62490035D01*
X192935292Y-62406693D01*
X192972697Y-62316386D01*
X192974706Y-62312031D01*
X192980585Y-62300493D01*
X192983504Y-62297402D01*
X192986845Y-62289337D01*
X192987879Y-62282883D01*
X192991882Y-62270562D01*
X192993538Y-62266073D01*
X193030946Y-62175763D01*
X193053758Y-62080742D01*
X193055067Y-62076102D01*
X193059070Y-62063780D01*
X193061471Y-62060270D01*
X193063504Y-62051799D01*
X193063516Y-62045262D01*
X193065548Y-62032438D01*
X193066476Y-62027770D01*
X193089298Y-61932713D01*
X193096966Y-61835272D01*
X193097532Y-61830494D01*
X193101052Y-61808273D01*
X193101052Y-61808265D01*
X193102083Y-61801757D01*
X193101286Y-61796315D01*
X193101667Y-61776895D01*
X193101843Y-61773304D01*
X193108909Y-61683527D01*
X193101843Y-61593753D01*
X193101667Y-61590155D01*
X193101286Y-61570737D01*
X193102335Y-61566887D01*
X193101052Y-61558786D01*
X193101052Y-61558781D01*
X193097533Y-61536568D01*
X193096966Y-61531775D01*
X193089298Y-61434341D01*
X193066484Y-61339316D01*
X193065544Y-61334591D01*
X193063519Y-61321808D01*
X193064065Y-61317585D01*
X193062029Y-61309105D01*
X193059070Y-61303271D01*
X193055068Y-61290954D01*
X193053753Y-61286289D01*
X193038319Y-61222000D01*
X193030948Y-61191296D01*
X193025710Y-61178650D01*
X192993549Y-61101008D01*
X192991881Y-61096489D01*
X192987876Y-61084162D01*
X192987755Y-61079914D01*
X192984416Y-61071853D01*
X192980581Y-61066553D01*
X192974712Y-61055034D01*
X192972680Y-61050625D01*
X192935292Y-60960361D01*
X192884227Y-60877031D01*
X192881873Y-60872826D01*
X192875991Y-60861283D01*
X192875207Y-60857104D01*
X192870659Y-60849682D01*
X192866037Y-60845042D01*
X192858431Y-60834572D01*
X192855738Y-60830541D01*
X192804690Y-60747238D01*
X192741241Y-60672949D01*
X192738237Y-60669140D01*
X192730618Y-60658653D01*
X192729189Y-60654649D01*
X192723536Y-60648030D01*
X192718253Y-60644177D01*
X192709110Y-60635034D01*
X192705804Y-60631458D01*
X192671988Y-60591865D01*
X192642356Y-60557170D01*
X192596539Y-60518038D01*
X192568070Y-60493723D01*
X192564494Y-60490418D01*
X192555347Y-60481270D01*
X192553308Y-60477536D01*
X192546685Y-60471879D01*
X192540863Y-60468899D01*
X192530390Y-60461290D01*
X192526568Y-60458276D01*
X192469845Y-60409831D01*
X192452288Y-60394836D01*
X192452286Y-60394834D01*
X192452284Y-60394833D01*
X192452282Y-60394832D01*
X192368987Y-60343788D01*
X192364942Y-60341086D01*
X192359210Y-60336922D01*
X192354486Y-60333490D01*
X192351885Y-60330118D01*
X192344452Y-60325563D01*
X192338238Y-60323531D01*
X192326712Y-60317659D01*
X192322465Y-60315280D01*
X192300926Y-60302081D01*
X192239165Y-60264233D01*
X192148901Y-60226845D01*
X192144483Y-60224809D01*
X192138532Y-60221777D01*
X192132976Y-60218946D01*
X192129880Y-60216023D01*
X192121808Y-60212679D01*
X192115351Y-60211645D01*
X192103065Y-60207653D01*
X192098505Y-60205971D01*
X192074516Y-60196034D01*
X192008240Y-60168581D01*
X192008237Y-60168580D01*
X191913234Y-60145771D01*
X191908547Y-60144449D01*
X191896247Y-60140452D01*
X191892737Y-60138052D01*
X191884276Y-60136021D01*
X191877736Y-60136009D01*
X191876204Y-60135766D01*
X191864959Y-60133985D01*
X191860192Y-60133037D01*
X191765189Y-60110229D01*
X191765185Y-60110228D01*
X191735626Y-60107901D01*
X191667772Y-60102560D01*
X191662939Y-60101988D01*
X191650192Y-60099969D01*
X191646347Y-60098146D01*
X191637651Y-60097462D01*
X191631191Y-60098474D01*
X191618274Y-60098474D01*
X191613408Y-60098283D01*
X191556101Y-60093773D01*
X191515999Y-60090617D01*
X191515998Y-60090617D01*
X191418590Y-60098283D01*
X191413724Y-60098474D01*
X191400805Y-60098474D01*
X191396721Y-60097274D01*
X191388039Y-60097958D01*
X191381818Y-60099967D01*
X191376406Y-60100824D01*
X191369055Y-60101988D01*
X191364225Y-60102560D01*
X191266810Y-60110228D01*
X191266808Y-60110229D01*
X191171803Y-60133038D01*
X191167028Y-60133987D01*
X191154270Y-60136008D01*
X191150049Y-60135462D01*
X191141577Y-60137495D01*
X191135752Y-60140451D01*
X191123450Y-60144449D01*
X191118761Y-60145772D01*
X191023765Y-60168579D01*
X191023751Y-60168584D01*
X190933503Y-60205966D01*
X190928933Y-60207652D01*
X190916637Y-60211646D01*
X190912389Y-60211767D01*
X190904325Y-60215107D01*
X190899025Y-60218944D01*
X190887517Y-60224807D01*
X190883097Y-60226844D01*
X190792840Y-60264230D01*
X190792838Y-60264231D01*
X190709528Y-60315282D01*
X190705280Y-60317661D01*
X190693762Y-60323529D01*
X190689582Y-60324313D01*
X190682148Y-60328869D01*
X190677514Y-60333487D01*
X190667059Y-60341082D01*
X190663013Y-60343785D01*
X190593223Y-60386555D01*
X190579710Y-60394836D01*
X190579707Y-60394837D01*
X190579706Y-60394839D01*
X190579701Y-60394842D01*
X190505428Y-60458277D01*
X190501604Y-60461292D01*
X190491129Y-60468903D01*
X190487122Y-60470332D01*
X190480500Y-60475988D01*
X190476650Y-60481269D01*
X190467501Y-60490419D01*
X190463925Y-60493724D01*
X190389641Y-60557169D01*
X190326196Y-60631453D01*
X190322891Y-60635029D01*
X190313741Y-60644178D01*
X190310008Y-60646216D01*
X190304353Y-60652836D01*
X190301375Y-60658657D01*
X190293764Y-60669132D01*
X190290749Y-60672956D01*
X190227314Y-60747229D01*
X190227311Y-60747234D01*
X190227308Y-60747238D01*
X190219027Y-60760751D01*
X190176257Y-60830541D01*
X190173554Y-60834587D01*
X190165959Y-60845042D01*
X190162588Y-60847641D01*
X190158033Y-60855075D01*
X190156003Y-60861286D01*
X190150135Y-60872805D01*
X190147754Y-60877056D01*
X190096708Y-60960356D01*
X190096702Y-60960368D01*
X190059316Y-61050625D01*
X190057279Y-61055045D01*
X190051416Y-61066553D01*
X190048493Y-61069647D01*
X190045151Y-61077715D01*
X190044118Y-61084165D01*
X190040124Y-61096461D01*
X190038438Y-61101031D01*
X190001056Y-61191279D01*
X190001051Y-61191293D01*
X189978244Y-61286289D01*
X189976921Y-61290978D01*
X189972923Y-61303280D01*
X189970524Y-61306787D01*
X189968491Y-61315257D01*
X189968480Y-61321798D01*
X189966460Y-61334553D01*
X189965510Y-61339331D01*
X189942701Y-61434336D01*
X189942700Y-61434339D01*
X189935031Y-61531759D01*
X189934459Y-61536596D01*
X189932440Y-61549341D01*
X189930618Y-61553183D01*
X189929934Y-61561872D01*
X189930946Y-61568333D01*
X189930946Y-61581252D01*
X189930755Y-61586118D01*
X189923089Y-61683526D01*
X188976499Y-61683526D01*
X188976499Y-59268027D01*
X188996184Y-59200988D01*
X189048988Y-59155233D01*
X189100499Y-59144027D01*
X243491499Y-59144027D01*
X243558538Y-59163712D01*
G37*
%TD.AperFunction*%
%TD*%
M02*
