M48
; DRILL file {KiCad 7.0.7} date Tue Jan 23 09:59:45 2024
; FORMAT={-:-/ absolute / inch / decimal}
; #@! TF.CreationDate,2024-01-23T09:59:45+09:00
; #@! TF.GenerationSoftware,Kicad,Pcbnew,7.0.7
; #@! TF.FileFunction,Plated,1,2,PTH
FMAT,2
INCH
; #@! TA.AperFunction,Plated,PTH,ViaDrill
T1C0.0157
; #@! TA.AperFunction,Plated,PTH,ComponentDrill
T2C0.0315
; #@! TA.AperFunction,Plated,PTH,ComponentDrill
T3C0.0354
; #@! TA.AperFunction,Plated,PTH,ComponentDrill
T4C0.0394
; #@! TA.AperFunction,Plated,PTH,ComponentDrill
T5C0.0591
%
G90
G05
T1
X7.7Y-2.8
X7.7Y-3.0
X7.7Y-3.9
X7.7Y-4.1
X7.85Y-3.22
X8.7Y-3.5
X8.8Y-2.8
X8.8Y-3.0
X8.9Y-3.5
X9.0Y-2.8
X9.0Y-3.0
X9.1Y-3.5
X9.2Y-2.8
X9.2Y-3.0
X9.3Y-3.8
X9.3Y-4.0
X9.5Y-3.1
X9.5Y-3.3
T2
X8.27Y-2.83
X8.27Y-2.93
T3
X8.27Y-3.22
X8.27Y-3.32
T4
X7.7302Y-4.33
X7.8302Y-4.33
X7.9302Y-4.33
X8.0302Y-4.33
X8.08Y-3.8094
X8.08Y-3.9094
X8.08Y-4.0094
X8.09Y-2.43
X8.1302Y-4.33
X8.19Y-2.43
X8.2302Y-4.33
X8.25Y-3.81
X8.25Y-3.91
X8.25Y-4.01
X8.29Y-2.43
X8.3302Y-4.33
X8.39Y-2.43
X8.43Y-3.8094
X8.43Y-3.9094
X8.43Y-4.0094
X8.4302Y-4.33
X8.49Y-2.43
X8.5302Y-4.33
X8.59Y-2.43
X8.59Y-3.8094
X8.59Y-3.9094
X8.59Y-4.0094
X8.6302Y-4.33
X8.69Y-2.43
X8.75Y-3.81
X8.75Y-3.91
X8.75Y-4.01
X8.79Y-2.43
X8.79Y-4.33
X8.89Y-4.33
X8.92Y-3.81
X8.92Y-3.91
X8.92Y-4.01
X8.99Y-2.43
X8.99Y-4.33
X9.09Y-2.43
X9.09Y-4.33
X9.19Y-2.43
X9.19Y-4.33
X9.29Y-2.43
X9.29Y-4.33
X9.39Y-2.43
X9.39Y-4.33
X9.49Y-2.43
X9.49Y-4.33
T5
X7.7042Y-3.4066
X7.7042Y-3.6034
T0
M30
