%TF.GenerationSoftware,KiCad,Pcbnew,7.0.7*%
%TF.CreationDate,2024-01-23T09:59:48+09:00*%
%TF.ProjectId,arduino_sheild,61726475-696e-46f5-9f73-6865696c642e,rev?*%
%TF.SameCoordinates,Original*%
%TF.FileFunction,Profile,NP*%
%FSLAX46Y46*%
G04 Gerber Fmt 4.6, Leading zero omitted, Abs format (unit mm)*
G04 Created by KiCad (PCBNEW 7.0.7) date 2024-01-23 09:59:48*
%MOMM*%
%LPD*%
G01*
G04 APERTURE LIST*
%TA.AperFunction,Profile*%
%ADD10C,0.200000*%
%TD*%
G04 APERTURE END LIST*
D10*
X216945999Y-109943527D02*
G75*
G03*
X216945999Y-109943527I-254000J0D01*
G01*
X206785999Y-109943527D02*
G75*
G03*
X206785999Y-109943527I-254000J0D01*
G01*
X218439999Y-61683527D02*
G75*
G03*
X218439999Y-61683527I-254000J0D01*
G01*
X243615999Y-61683527D02*
X243615999Y-59143527D01*
X194403499Y-109943527D02*
G75*
G03*
X194403499Y-109943527I-1587500J0D01*
G01*
X233679999Y-61683527D02*
G75*
G03*
X233679999Y-61683527I-254000J0D01*
G01*
X233679999Y-109943527D02*
G75*
G03*
X233679999Y-109943527I-254000J0D01*
G01*
X243615999Y-61683527D02*
X246095999Y-64223527D01*
X228599999Y-61683527D02*
G75*
G03*
X228599999Y-61683527I-254000J0D01*
G01*
X188975999Y-112522000D02*
X242051207Y-112522000D01*
X211865999Y-109943527D02*
G75*
G03*
X211865999Y-109943527I-254000J0D01*
G01*
X188975999Y-59143527D02*
X243615999Y-59143527D01*
X241299999Y-61683527D02*
G75*
G03*
X241299999Y-61683527I-254000J0D01*
G01*
X223519999Y-109943527D02*
G75*
G03*
X223519999Y-109943527I-254000J0D01*
G01*
X245203499Y-66763527D02*
G75*
G03*
X245203499Y-66763527I-1587500J0D01*
G01*
X246095999Y-64223527D02*
X246095999Y-96989527D01*
X228599999Y-109943527D02*
G75*
G03*
X228599999Y-109943527I-254000J0D01*
G01*
X209325999Y-109943527D02*
G75*
G03*
X209325999Y-109943527I-254000J0D01*
G01*
X215899999Y-61683527D02*
G75*
G03*
X215899999Y-61683527I-254000J0D01*
G01*
X231139999Y-109943527D02*
G75*
G03*
X231139999Y-109943527I-254000J0D01*
G01*
X208279999Y-61683527D02*
G75*
G03*
X208279999Y-61683527I-254000J0D01*
G01*
X238759999Y-109943527D02*
G75*
G03*
X238759999Y-109943527I-254000J0D01*
G01*
X210819999Y-61683527D02*
G75*
G03*
X210819999Y-61683527I-254000J0D01*
G01*
X219485999Y-109943527D02*
G75*
G03*
X219485999Y-109943527I-254000J0D01*
G01*
X236219999Y-109943527D02*
G75*
G03*
X236219999Y-109943527I-254000J0D01*
G01*
X205739999Y-61683527D02*
G75*
G03*
X205739999Y-61683527I-254000J0D01*
G01*
X193103499Y-61683527D02*
G75*
G03*
X193103499Y-61683527I-1587500J0D01*
G01*
X238759999Y-61683527D02*
G75*
G03*
X238759999Y-61683527I-254000J0D01*
G01*
X201705999Y-109943527D02*
G75*
G03*
X201705999Y-109943527I-254000J0D01*
G01*
X231139999Y-61683527D02*
G75*
G03*
X231139999Y-61683527I-254000J0D01*
G01*
X242051207Y-112522000D02*
X243615999Y-110957208D01*
X223519999Y-61683527D02*
G75*
G03*
X223519999Y-61683527I-254000J0D01*
G01*
X226059999Y-109943527D02*
G75*
G03*
X226059999Y-109943527I-254000J0D01*
G01*
X214405999Y-109943527D02*
G75*
G03*
X214405999Y-109943527I-254000J0D01*
G01*
X241299999Y-109943527D02*
G75*
G03*
X241299999Y-109943527I-254000J0D01*
G01*
X204245999Y-109943527D02*
G75*
G03*
X204245999Y-109943527I-254000J0D01*
G01*
X246095999Y-96989527D02*
X243615999Y-99529527D01*
X220979999Y-61683527D02*
G75*
G03*
X220979999Y-61683527I-254000J0D01*
G01*
X243615999Y-99529527D02*
X243615999Y-110957208D01*
X196625999Y-109943527D02*
G75*
G03*
X196625999Y-109943527I-254000J0D01*
G01*
X213359999Y-61683527D02*
G75*
G03*
X213359999Y-61683527I-254000J0D01*
G01*
X236219999Y-61683527D02*
G75*
G03*
X236219999Y-61683527I-254000J0D01*
G01*
X245203499Y-94703527D02*
G75*
G03*
X245203499Y-94703527I-1587500J0D01*
G01*
X188975999Y-112522000D02*
X188975999Y-59143527D01*
X199165999Y-109943527D02*
G75*
G03*
X199165999Y-109943527I-254000J0D01*
G01*
M02*
