%TF.GenerationSoftware,KiCad,Pcbnew,7.0.7*%
%TF.CreationDate,2024-01-23T09:59:48+09:00*%
%TF.ProjectId,arduino_sheild,61726475-696e-46f5-9f73-6865696c642e,rev?*%
%TF.SameCoordinates,Original*%
%TF.FileFunction,Soldermask,Top*%
%TF.FilePolarity,Negative*%
%FSLAX46Y46*%
G04 Gerber Fmt 4.6, Leading zero omitted, Abs format (unit mm)*
G04 Created by KiCad (PCBNEW 7.0.7) date 2024-01-23 09:59:48*
%MOMM*%
%LPD*%
G01*
G04 APERTURE LIST*
%ADD10O,1.600000X1.600000*%
%ADD11R,1.600000X1.600000*%
%ADD12O,1.700000X1.700000*%
%ADD13R,1.700000X1.700000*%
%ADD14C,1.600000*%
%ADD15R,3.000000X3.000000*%
%ADD16C,3.000000*%
%ADD17C,1.800000*%
%ADD18R,1.800000X1.800000*%
G04 APERTURE END LIST*
D10*
%TO.C,A1*%
X196346000Y-109982000D03*
X198886000Y-109982000D03*
X201426000Y-109982000D03*
X203966000Y-109982000D03*
X206506000Y-109982000D03*
X209046000Y-109982000D03*
X211586000Y-109982000D03*
X214126000Y-109982000D03*
X216666000Y-109982000D03*
X219206000Y-109982000D03*
X223266000Y-109982000D03*
X225806000Y-109982000D03*
X228346000Y-109982000D03*
X230886000Y-109982000D03*
X233426000Y-109982000D03*
X235966000Y-109982000D03*
X238506000Y-109982000D03*
X241046000Y-109982000D03*
X241046000Y-61722000D03*
X238506000Y-61722000D03*
X235966000Y-61722000D03*
X233426000Y-61722000D03*
X230886000Y-61722000D03*
X228346000Y-61722000D03*
X223266000Y-61722000D03*
X220726000Y-61722000D03*
X218186000Y-61722000D03*
X215646000Y-61722000D03*
X213106000Y-61722000D03*
X210566000Y-61722000D03*
X208026000Y-61722000D03*
D11*
X205486000Y-61722000D03*
%TD*%
D12*
%TO.C,J4*%
X218186000Y-96759000D03*
X218186000Y-99299000D03*
D13*
X218186000Y-101839000D03*
%TD*%
D12*
%TO.C,J5*%
X214122000Y-96759000D03*
X214122000Y-99299000D03*
D13*
X214122000Y-101839000D03*
%TD*%
D10*
%TO.C,R1*%
X210058000Y-71882000D03*
D14*
X210058000Y-74422000D03*
%TD*%
D12*
%TO.C,J3*%
X222250000Y-96774000D03*
X222250000Y-99314000D03*
D13*
X222250000Y-101854000D03*
%TD*%
D12*
%TO.C,J2*%
X226568000Y-96774000D03*
X226568000Y-99314000D03*
D13*
X226568000Y-101854000D03*
%TD*%
%TO.C,J7*%
X205232000Y-101839000D03*
D12*
X205232000Y-99299000D03*
X205232000Y-96759000D03*
%TD*%
D15*
%TO.C,J1*%
X195687500Y-86527500D03*
D16*
X195687500Y-91527500D03*
%TD*%
D17*
%TO.C,D1*%
X210058000Y-81788000D03*
D18*
X210058000Y-84328000D03*
%TD*%
D13*
%TO.C,J6*%
X209550000Y-101854000D03*
D12*
X209550000Y-99314000D03*
X209550000Y-96774000D03*
%TD*%
M02*
